<svg xmlns="http://www.w3.org/2000/svg" viewBox="0 0 56.69 56.69"><g id="app-text"><g><path d="M40.77 47.39H10.61v-5.53a14.69 14.69 0 0 1 14.65-14.65h.43a9 9 0 1 1 9-8.95 9 9 0 0 1-8.95 9h.43a14.7 14.7 0 0 1 14.6 14.6Z" style="fill:#bddc5e"/><path d="M55.54 42.78H32.69v-4.19a11.13 11.13 0 0 1 11.1-11.1h.33a6.79 6.79 0 1 1 6.78-6.79 6.79 6.79 0 0 1-6.78 6.79h.32a11.13 11.13 0 0 1 11.1 11.1ZM14.63 28.35H1.15v-2.47a6.57 6.57 0 0 1 6.55-6.56h.19a4 4 0 1 1 4-4 4 4 0 0 1-4 4h.19a6.57 6.57 0 0 1 6.55 6.56Z" style="fill:#bddc5e"/></g></g></svg>