<svg xmlns="http://www.w3.org/2000/svg" viewBox="0 0 56.69 56.69"><g id="app-text"><g><path d="M46.63 14.86a16.78 16.78 0 0 1-5.2-.92 21.06 21.06 0 0 0-6.1-1.06c-1.6 0-4.24 1.52-5.94 2.73V51.5a11.51 11.51 0 0 1 5.94-2 37.32 37.32 0 0 1 6.74.85 28.33 28.33 0 0 0 4.59.64h3.55l.5-36.15ZM19.77 46.35a30.17 30.17 0 0 0-8.42-2.77 1.48 1.48 0 0 1-1.24-1.48v-27H6v36c2.86 0 7.73-.25 10.05-1.18a16.13 16.13 0 0 1 7.47-.32 14.33 14.33 0 0 0-3.73-3.25" style="fill:#bddc5e"/><path d="M20.68 7.69c-2.13-1.42-5.62-2.17-7.6-2.5v35.65a30.39 30.39 0 0 1 8.17 2.9 17.62 17.62 0 0 1 5.2 4.79V15.24c-1.07-1.91-3.72-6.19-5.77-7.55" style="fill:#bddc5e"/></g></g></svg>