<svg xmlns="http://www.w3.org/2000/svg" viewBox="0 0 56.69 56.69"><g id="app-text"><g><path d="M28.17 19.6a2.83 2.83 0 0 0-2.83 2.82v4H31v-4a2.82 2.82 0 0 0-2.82-2.82M28 29.18a1.8 1.8 0 0 0-1.57 1.56 1.76 1.76 0 0 0 .79 1.71l-.27 4.39a.29.29 0 0 0 .3.31h1.92a.3.3 0 0 0 .3-.31l-.27-4.39A1.78 1.78 0 0 0 30 31a1.8 1.8 0 0 0-2-1.78" style="fill:#bddc5e"/><path d="M40.53 6.93H15.81L3.44 28.35l12.37 21.41h24.72L52.9 28.35Zm-7.2 32.22H23.11a1.92 1.92 0 0 1-1.92-1.92l-.1-10.79h2.2v-4a4.88 4.88 0 1 1 9.76 0v4h2.1l.1 10.79a1.92 1.92 0 0 1-1.92 1.92" style="fill:#bddc5e"/></g></g></svg>