<svg xmlns="http://www.w3.org/2000/svg" viewBox="0 0 56.69 56.69">
  <g id="app-text">
    <g>
      <path d="M40.77,47.39H10.61V41.86A14.69,14.69,0,0,1,25.26,27.21h.43a9,9,0,1,1,9-8.95,9,9,0,0,1-8.95,9h.43A14.7,14.7,0,0,1,40.77,41.86Z" style="fill: #bddc5e"/>
      <path d="M55.54,42.78H32.69V38.59a11.13,11.13,0,0,1,11.1-11.1h.33A6.79,6.79,0,1,1,50.9,20.7a6.79,6.79,0,0,1-6.78,6.79h.32a11.13,11.13,0,0,1,11.1,11.1Z" style="fill: #bddc5e"/>
      <path d="M14.63,28.35H1.15V25.88A6.57,6.57,0,0,1,7.7,19.32h.19a4,4,0,1,1,4-4,4,4,0,0,1-4,4h.19a6.57,6.57,0,0,1,6.55,6.56Z" style="fill: #bddc5e"/>
    </g>
  </g>
</svg>
