<svg xmlns="http://www.w3.org/2000/svg" xmlns:xlink="http://www.w3.org/1999/xlink" viewBox="0 0 152.32 152.32">
  <defs>
    <linearGradient id="linear-gradient" x1="262.01" y1="82.28" x2="51.2" y2="82.28" gradientUnits="userSpaceOnUse">
      <stop offset="0" stop-color="#4f758d"/>
      <stop offset="1" stop-color="#283641"/>
    </linearGradient>
  </defs>
  <g style="isolation: isolate">
    <g id="Layer_1" data-name="Layer 1">
      <path d="M31.84,65.09c12.39-7.15,22.47-1.41,22.51,12.83s-10,31.59-22.37,38.74S9.51,118.08,9.47,103.84,19.45,72.25,31.84,65.09Zm7.31,32.09v-3c0-4.43-3.17-6.23-7-4l-.2.12a9.39,9.39,0,0,0,4.26-7.38c0-2.72-1.93-3.82-4.29-2.46a9.43,9.43,0,0,0-4.27,7.4c0,2.71,1.94,3.8,4.3,2.44l-.2.12a15.46,15.46,0,0,0-7,12.1v3l14.42-8.33" style="fill: #ee4f99"/>
      <path d="M103.73,14.87c7.63-4.41,13.84-.87,13.86,7.9s-6.14,19.45-13.77,23.85S90,47.49,90,38.72,96.1,19.27,103.73,14.87Zm4.5,19.75V32.75c0-2.72-2-3.83-4.33-2.46l-.12.07a5.79,5.79,0,0,0,2.62-4.55c0-1.67-1.19-2.35-2.64-1.51a5.8,5.8,0,0,0-2.63,4.56c0,1.67,1.19,2.34,2.65,1.5l-.13.08a9.48,9.48,0,0,0-4.3,7.44v1.87l8.88-5.13" style="fill: #ee4f99"/>
      <path d="M47.37,37.13c4.12-2.38,7.48-.47,7.49,4.27a16.39,16.39,0,0,1-7.44,12.89c-4.13,2.38-7.48.47-7.49-4.27A16.39,16.39,0,0,1,47.37,37.13ZM49.8,47.8v-1c0-1.47-1-2.07-2.34-1.33l-.07,0A3.13,3.13,0,0,0,48.81,43c0-.9-.64-1.27-1.43-.81A3.14,3.14,0,0,0,46,44.69c0,.9.65,1.26,1.43.81l-.07,0a5.14,5.14,0,0,0-2.32,4v1l4.8-2.78" style="fill: #ee4f99"/>
      <path d="M26.32,27.5c5.16-3,9.36-.58,9.38,5.35S31.54,46,26.38,49,17,49.58,17,43.65,21.15,30.48,26.32,27.5Zm3,13.37V39.61c0-1.85-1.32-2.6-2.93-1.67l-.08,0a3.88,3.88,0,0,0,1.77-3.07c0-1.13-.8-1.59-1.78-1A3.93,3.93,0,0,0,24.55,37c0,1.13.81,1.58,1.8,1l-.09.06a6.42,6.42,0,0,0-2.91,5v1.26l6-3.47" style="fill: #ee4f99"/>
      <path d="M72.57,5.46c7.75-4.48,14.05-.88,14.08,8s-6.24,19.74-14,24.21-14,.88-14.07-8S64.83,9.93,72.57,5.46Zm4.57,20.05V23.62c0-2.77-2-3.9-4.4-2.51l-.12.07a5.87,5.87,0,0,0,2.66-4.61c0-1.71-1.21-2.38-2.68-1.53a5.87,5.87,0,0,0-2.67,4.62c0,1.69,1.21,2.38,2.69,1.52l-.13.08a9.67,9.67,0,0,0-4.37,7.56v1.89l9-5.2" style="fill: #ee4f99"/>
      <polygon points="139.69 17.69 139.69 93.33 47.39 146.86 47.39 71.22 139.69 17.69" style="mix-blend-mode: multiply;fill: url(#linear-gradient)"/>
      <g>
        <polygon points="88.21 75.83 88.21 77.44 87.03 78.12 87.03 76.51 88.21 75.83" style="fill: #ee4f99"/>
        <polygon points="101.97 70.98 101.98 72.6 100.29 73.57 100.29 71.96 101.97 70.98" style="fill: #ee4f99"/>
        <polygon points="101.95 61.67 101.95 63.29 100.27 64.26 100.26 62.65 101.95 61.67" style="fill: #ee4f99"/>
        <polygon points="100.66 59.31 100.67 60.92 89.33 67.47 89.33 65.85 100.66 59.31" style="fill: #ee4f99"/>
        <polygon points="105.29 53.53 105.3 55.14 87.29 65.54 87.28 63.92 105.29 53.53" style="fill: #ee4f99"/>
        <polygon points="86.03 67.75 86.04 69.37 80.99 72.28 80.98 70.67 86.03 67.75" style="fill: #ee4f99"/>
        <polygon points="101.99 77.19 102 78.81 100.31 79.78 100.31 78.17 101.99 77.19" style="fill: #ee4f99"/>
        <g style="isolation: isolate">
          <polygon points="100.71 74.83 100.71 76.44 89.38 82.98 89.37 81.37 100.71 74.83" style="fill: #ee4f99"/>
          <polygon points="88.22 82.03 88.23 83.65 87.05 84.33 87.04 82.71 88.22 82.03" style="fill: #ee4f99"/>
          <polygon points="100.69 68.62 100.69 70.23 89.36 76.78 89.36 75.16 100.69 68.62" style="fill: #ee4f99"/>
          <polygon points="98.93 78.96 98.94 80.57 81.17 90.83 81.17 89.21 98.93 78.96" style="fill: #ee4f99"/>
          <polygon points="86.08 83.27 86.08 84.89 81.03 87.8 81.03 86.19 86.08 83.27" style="fill: #ee4f99"/>
          <polygon points="98.92 72.75 98.92 74.36 83.25 83.41 83.25 81.8 98.92 72.75" style="fill: #ee4f99"/>
          <polygon points="105.32 62.84 105.33 64.45 87.31 74.85 87.31 73.23 105.32 62.84" style="fill: #ee4f99"/>
          <polygon points="88.18 66.52 88.18 68.13 87 68.81 87 67.2 88.18 66.52" style="fill: #ee4f99"/>
          <polygon points="81.71 82.69 81.71 84.3 73.44 89.08 73.43 87.46 81.71 82.69" style="fill: #ee4f99"/>
          <polygon points="98.89 63.44 98.89 65.06 81.13 75.31 81.13 73.7 98.89 63.44" style="fill: #ee4f99"/>
          <polygon points="86.06 77.06 86.06 78.68 75.07 85.03 75.07 83.41 86.06 77.06" style="fill: #ee4f99"/>
          <polygon points="79.54 87.05 79.55 88.66 68.21 95.21 68.2 93.59 79.54 87.05" style="fill: #ee4f99"/>
          <polygon points="85.55 74.25 85.55 75.87 76.04 81.36 76.03 79.75 85.55 74.25" style="fill: #ee4f99"/>
          <polygon points="73.99 84.03 73.99 85.65 68.19 89 68.18 87.39 73.99 84.03" style="fill: #ee4f99"/>
          <polygon points="85.52 64.94 85.53 66.56 76.01 72.05 76.01 70.44 85.52 64.94" style="fill: #ee4f99"/>
          <polygon points="79.55 90.15 79.55 91.76 55.89 105.43 55.88 103.81 79.55 90.15" style="fill: #ee4f99"/>
          <polygon points="67.2 94.17 67.21 95.78 55.88 102.32 55.87 100.71 67.2 94.17" style="fill: #ee4f99"/>
          <polygon points="79.5 71.53 79.5 73.14 68.16 79.69 68.16 78.08 79.5 71.53" style="fill: #ee4f99"/>
          <polygon points="72.02 88.28 72.02 89.89 55.87 99.22 55.86 97.61 72.02 88.28" style="fill: #ee4f99"/>
          <polygon points="67.19 87.96 67.19 89.58 55.86 96.12 55.85 94.5 67.19 87.96" style="fill: #ee4f99"/>
          <polygon points="74.41 80.68 74.42 82.3 55.85 93.01 55.85 91.4 74.41 80.68" style="fill: #ee4f99"/>
          <polygon points="79.5 74.63 79.51 76.25 55.84 89.91 55.84 88.3 79.5 74.63" style="fill: #ee4f99"/>
          <polygon points="67.16 78.65 67.17 80.27 55.83 86.81 55.83 85.19 67.16 78.65" style="fill: #ee4f99"/>
          <polygon points="74.39 71.37 74.39 72.98 55.82 83.7 55.82 82.09 74.39 71.37" style="fill: #ee4f99"/>
        </g>
        <polygon points="111.98 62.1 111.98 63.72 106.17 67.07 106.17 65.46 111.98 62.1" style="fill: #ee4f99"/>
        <polygon points="111.98 65.2 111.99 66.82 110.3 67.79 110.3 66.18 111.98 65.2" style="fill: #ee4f99"/>
        <polygon points="111.97 59 111.97 60.61 110.78 61.3 110.78 59.68 111.97 59" style="fill: #ee4f99"/>
        <polygon points="111.96 55.9 111.96 57.51 110.28 58.48 110.27 56.87 111.96 55.9" style="fill: #ee4f99"/>
        <polygon points="111.95 52.79 111.95 54.41 106.14 57.76 106.14 56.15 111.95 52.79" style="fill: #ee4f99"/>
        <polygon points="111.94 49.69 111.94 51.3 110.76 51.99 110.75 50.37 111.94 49.69" style="fill: #ee4f99"/>
        <polygon points="112 71.41 112.01 73.03 110.32 74 110.32 72.39 112 71.41" style="fill: #ee4f99"/>
        <polygon points="111.99 68.31 112 69.92 106.19 73.28 106.18 71.66 111.99 68.31" style="fill: #ee4f99"/>
      </g>
    </g>
  </g>
</svg>
