<svg id="Layer_1" data-name="Layer 1" xmlns="http://www.w3.org/2000/svg" xmlns:xlink="http://www.w3.org/1999/xlink" viewBox="0 0 67.56 92.48"><defs><style>.cls-1{fill:none;}.cls-2{clip-path:url(#clip-path);}.cls-3{fill:#f32d92;}.cls-4{opacity:0.3;}.cls-5{clip-path:url(#clip-path-3);}.cls-6{clip-path:url(#clip-path-4);}.cls-7{fill:url(#linear-gradient);}.cls-8{fill:#827974;}.cls-9{fill:#d6dad8;}.cls-10{opacity:0.52;}.cls-11{clip-path:url(#clip-path-5);}.cls-12{clip-path:url(#clip-path-6);}.cls-13{fill:url(#linear-gradient-2);}.cls-14{clip-path:url(#clip-path-7);}.cls-15{fill:url(#linear-gradient-3);}.cls-16{clip-path:url(#clip-path-8);}.cls-17{fill:url(#linear-gradient-4);}.cls-18{fill:#fff;}</style><clipPath id="clip-path"><rect class="cls-1" width="67.56" height="92.48"/></clipPath><clipPath id="clip-path-3"><rect class="cls-1" y="54.54" width="65.72" height="37.94"/></clipPath><clipPath id="clip-path-4"><path class="cls-1" d="M56.09,60.1c12.83,7.41,12.83,19.42,0,26.83s-33.64,7.41-46.47,0-12.83-19.42,0-26.83,33.64-7.41,46.47,0"/></clipPath><linearGradient id="linear-gradient" y1="92.48" x2="1" y2="92.48" gradientTransform="matrix(65.72, 0, 0, -65.72, 0, 6151.19)" gradientUnits="userSpaceOnUse"><stop offset="0" stop-color="#435975"/><stop offset="1" stop-color="#1a1d28"/></linearGradient><clipPath id="clip-path-5"><rect class="cls-1" x="53.58" y="39.24" width="4.41" height="8.68"/></clipPath><clipPath id="clip-path-6"><polygon class="cls-1" points="9.66 70.93 24.61 79.56 24.61 74.96 9.66 66.33 9.66 70.93"/></clipPath><linearGradient id="linear-gradient-2" y1="92.48" y2="92.48" gradientTransform="matrix(14.94, 0, 0, -14.94, 9.66, 1455.05)" xlink:href="#linear-gradient"/><clipPath id="clip-path-7"><path class="cls-1" d="M33.7,27.76l4.94,2.85V44.72c0,.82.29,3.36-1.69,5l-.21.16C33.34,52.37,9.66,66.33,9.66,66.33L24.61,75S50,59.55,51.17,58.52l.4-.36a5.5,5.5,0,0,0,2-4.75V39.24l4.94,2.85-12.41-32Z"/></clipPath><linearGradient id="linear-gradient-3" y1="92.48" y2="92.48" gradientTransform="matrix(48.85, 0, 0, -48.85, 9.66, 4560.33)" xlink:href="#linear-gradient"/><clipPath id="clip-path-8"><path class="cls-1" d="M16.89,19.23a58.6,58.6,0,0,0-3.2,5.23h0V39L8.75,36.11,4.38,38.59l12.41,32,4.38-2.48L33.57,50.43l-4.94-2.85v-17A4.91,4.91,0,0,1,30.31,27c7.81-4.85,22.92-13.76,22.92-13.76V8.63S28,15.74,16.89,19.23"/></clipPath><linearGradient id="linear-gradient-4" y1="92.48" y2="92.48" gradientTransform="matrix(48.85, 0, 0, -48.85, 4.38, 4557.58)" xlink:href="#linear-gradient"/></defs><title>Artboard 1</title><g class="cls-2"><g class="cls-2"><path class="cls-3" d="M36.1,38.1a2.53,2.53,0,1,1-2.57-2.49A2.53,2.53,0,0,1,36.1,38.1"/><path class="cls-3" d="M10.6,24.17A2.53,2.53,0,1,1,8,21.68a2.53,2.53,0,0,1,2.57,2.49"/><g class="cls-4"><g class="cls-5"><g class="cls-6"><rect class="cls-7" x="-3.21" y="52.69" width="72.13" height="41.65"/></g></g></g><path class="cls-8" d="M38.86,51.15h.06s0,0-.06,0"/><path class="cls-9" d="M49.51,8.12l-3.41,2L43,31.38V45.49c0,.85.31,3.54-1.9,5.16-.07,0-31.48,15.68-31.48,15.68v4.6l14.94,8.63S38.21,71.3,46,66.47h0c2.83-1.76,8.66-5.68,9.15-6.09A8.34,8.34,0,0,0,58,54.18V41.27l.53.82,3.55-1.45Z"/><g class="cls-10"><g class="cls-11"><polygon points="57.99 45.14 53.58 47.92 53.58 39.24 57.99 41.78 57.99 45.14"/></g></g></g><g class="cls-12"><rect class="cls-13" x="9.66" y="66.33" width="14.94" height="13.23"/></g><g class="cls-14"><rect class="cls-15" x="9.66" y="10.11" width="48.85" height="64.85"/></g><g class="cls-16"><rect class="cls-17" x="4.38" y="8.63" width="48.85" height="61.94"/></g><g class="cls-2"><polygon class="cls-18" points="33.57 50.43 29.19 52.91 24.26 50.06 28.63 47.58 33.57 50.43"/><polygon class="cls-18" points="13.69 38.95 9.31 41.43 4.38 38.59 8.75 36.1 13.69 38.95"/><path class="cls-9" d="M24.26,31.34V30.24c0-.82-.29-3.36,1.69-5l.21-.16C29.55,22.58,53.23,8.63,53.23,8.63L38.28,0S12.91,15.41,11.72,16.43l-.4.36a5.5,5.5,0,0,0-2,4.75V41.43L4.38,38.59l12.41,32L29.19,52.91l-4.94-2.85Z"/><path class="cls-3" d="M52.74,47.88a2.53,2.53,0,1,1-2.57-2.49,2.53,2.53,0,0,1,2.57,2.49"/><path class="cls-3" d="M67.56,57A2.53,2.53,0,1,1,65,54.54,2.53,2.53,0,0,1,67.56,57"/></g></g></svg>