<svg id="Layer_1" data-name="Layer 1" xmlns="http://www.w3.org/2000/svg" xmlns:xlink="http://www.w3.org/1999/xlink" viewBox="0 0 86.21 80.65"><defs><style>.cls-1{fill:none;}.cls-2{clip-path:url(#clip-path);}.cls-3{opacity:0.3;}.cls-4{clip-path:url(#clip-path-3);}.cls-5{clip-path:url(#clip-path-4);}.cls-6{fill:url(#linear-gradient);}.cls-7{clip-path:url(#clip-path-5);}.cls-8{fill:url(#linear-gradient-2);}.cls-9{clip-path:url(#clip-path-6);}.cls-10{fill:url(#linear-gradient-3);}.cls-11{clip-path:url(#clip-path-7);}.cls-12{fill:url(#linear-gradient-4);}.cls-13{clip-path:url(#clip-path-8);}.cls-14{fill:url(#linear-gradient-5);}.cls-15{fill:#f32d92;}</style><clipPath id="clip-path"><rect class="cls-1" width="86.21" height="80.65"/></clipPath><clipPath id="clip-path-3"><rect class="cls-1" y="30.33" width="81.56" height="50.32"/></clipPath><clipPath id="clip-path-4"><polygon class="cls-1" points="41.47 30.33 0 54.07 45.7 80.65 56.97 80.03 81.56 66.31 41.47 30.33"/></clipPath><linearGradient id="linear-gradient" y1="80.65" x2="1" y2="80.65" gradientTransform="matrix(81.56, 0, 0, -81.56, 0, 6632.73)" gradientUnits="userSpaceOnUse"><stop offset="0" stop-color="#435975"/><stop offset="1" stop-color="#1a1d28"/></linearGradient><clipPath id="clip-path-5"><polygon class="cls-1" points="9.79 52.8 56.55 80.1 86.21 63.09 39.44 35.8 9.79 52.8"/></clipPath><linearGradient id="linear-gradient-2" x1="0" y1="80.65" x2="1" y2="80.65" gradientTransform="matrix(76.42, 0, 0, -76.42, 9.78, 6221.09)" xlink:href="#linear-gradient"/><clipPath id="clip-path-6"><polygon class="cls-1" points="9.79 46.36 56.55 73.65 86.21 56.65 39.44 29.36 9.79 46.36"/></clipPath><linearGradient id="linear-gradient-3" y1="80.65" x2="1" y2="80.65" gradientTransform="matrix(76.42, 0, 0, -76.42, 9.78, 6214.65)" gradientUnits="userSpaceOnUse"><stop offset="0" stop-color="#1a1c28"/><stop offset="1" stop-color="#415773"/></linearGradient><clipPath id="clip-path-7"><polygon class="cls-1" points="9.79 39.39 56.55 66.68 86.21 49.68 39.44 22.39 9.79 39.39"/></clipPath><linearGradient id="linear-gradient-4" x1="0" y1="80.65" x2="1" y2="80.65" gradientTransform="matrix(76.42, 0, 0, -76.42, 9.78, 6207.68)" xlink:href="#linear-gradient"/><clipPath id="clip-path-8"><polygon class="cls-1" points="9.79 32.5 56.55 59.79 86.21 42.79 39.44 15.5 9.79 32.5"/></clipPath><linearGradient id="linear-gradient-5" x1="0" y1="80.65" x2="1" y2="80.65" gradientTransform="matrix(76.42, 0, 0, -76.42, 9.78, 6200.79)" xlink:href="#linear-gradient-3"/></defs><title>Artboard 1</title><g class="cls-2"><g class="cls-2"><g class="cls-3"><g class="cls-4"><g class="cls-5"><rect class="cls-6" y="30.33" width="81.56" height="50.32"/></g></g></g></g><g class="cls-7"><rect class="cls-8" x="9.78" y="35.8" width="76.42" height="44.3"/></g><g class="cls-9"><rect class="cls-10" x="9.78" y="29.36" width="76.42" height="44.29"/></g><g class="cls-11"><rect class="cls-12" x="9.78" y="22.39" width="76.42" height="44.3"/></g><g class="cls-13"><rect class="cls-14" x="9.78" y="15.5" width="76.42" height="44.3"/></g><g class="cls-2"><path class="cls-15" d="M70.64,46.57a2.53,2.53,0,1,1-2.57-2.49,2.53,2.53,0,0,1,2.57,2.49"/><path class="cls-15" d="M53.75,24.21a2.53,2.53,0,1,1-2.57-2.49,2.53,2.53,0,0,1,2.57,2.49"/><path class="cls-15" d="M54.53,36.93A2.53,2.53,0,1,1,52,34.44a2.53,2.53,0,0,1,2.57,2.49"/><path class="cls-15" d="M36.4,2.49A2.53,2.53,0,1,1,33.83,0,2.53,2.53,0,0,1,36.4,2.49"/><path class="cls-15" d="M36.4,14.16a2.53,2.53,0,1,1-2.57-2.49,2.53,2.53,0,0,1,2.57,2.49"/><path class="cls-15" d="M36.4,26.23a2.53,2.53,0,1,1-2.57-2.49,2.53,2.53,0,0,1,2.57,2.49"/></g></g></svg>