<svg id="Layer_1" data-name="Layer 1" xmlns="http://www.w3.org/2000/svg" xmlns:xlink="http://www.w3.org/1999/xlink" viewBox="0 0 77.38 93"><defs><style>.cls-1{fill:none;}.cls-2{clip-path:url(#clip-path);}.cls-3{clip-path:url(#clip-path-2);}.cls-4{opacity:0.3;}.cls-5{clip-path:url(#clip-path-3);}.cls-6{clip-path:url(#clip-path-4);}.cls-7{fill:url(#linear-gradient);}.cls-8{clip-path:url(#clip-path-5);}.cls-9{fill:url(#linear-gradient-2);}.cls-10{fill:#f32d92;}.cls-11{isolation:isolate;}.cls-12{clip-path:url(#clip-path-7);}.cls-13{clip-path:url(#clip-path-8);}.cls-14{fill:url(#linear-gradient-3);}.cls-15{fill:#d6dad8;}.cls-16{fill:#080707;}</style><clipPath id="clip-path"><path class="cls-1" d="M0 0H77.38V93H0z"/></clipPath><clipPath id="clip-path-2"><path class="cls-1" d="M0 0H77.38V93H0z"/></clipPath><clipPath id="clip-path-3"><path class="cls-1" d="M14.05 75.8H46.620000000000005V93.00999999999999H14.05z"/></clipPath><clipPath id="clip-path-4"><path class="cls-1" d="M34.29 75.8 14.05 87.39 24.34 93 34.58 92.98 46.62 85.94 34.29 75.8z"/></clipPath><linearGradient id="linear-gradient" y1="93" x2="1" y2="93" gradientTransform="matrix(32.57, 0, 0, -32.57, 14.05, 3113.84)" gradientUnits="userSpaceOnUse"><stop offset="0" stop-color="#435975"/><stop offset="1" stop-color="#1a1d28"/></linearGradient><clipPath id="clip-path-5"><path class="cls-1" d="M65.55 0 2.08 36.81 2.08 88.83 65.55 52.01 65.55 0z"/></clipPath><linearGradient id="linear-gradient-2" x1="0" y1="93" x2="1" y2="93" gradientTransform="matrix(-144.96, 0, 0, 144.96, 149.67, -13437.5)" xlink:href="#linear-gradient"/><clipPath id="clip-path-7"><path class="cls-1" d="M7.88 28.62H41.92V56.06H7.88z"/></clipPath><clipPath id="clip-path-8"><path class="cls-1" d="m55.72 42.77-29.49 17a1 1 0 0 0-.45.78v26.18a2.29 2.29 0 0 0 .8 2c.58.41 7.32 4.21 7.32 4.21L53 74.62a7 7 0 0 0 3.14-5.44L63 46.78l-7-4a.23.23 0 0 0-.13 0 .4.4 0 0 0-.2.06"/></clipPath><linearGradient id="linear-gradient-3" x1="0" y1="93" x2="1" y2="93" gradientTransform="matrix(37.25, 0, 0, -37.25, 25.78, 3532.46)" xlink:href="#linear-gradient"/></defs><g class="cls-2"><g class="cls-3"><g class="cls-4"><g class="cls-5"><g class="cls-6"><path class="cls-7" d="M14.05 75.8H46.620000000000005V93.00999999999999H14.05z"/></g></g></g></g><g class="cls-8"><path class="cls-9" d="M2.08 0H65.55V88.83H2.08z"/></g><path class="cls-10" d="M29.34 40.44 29.34 41.55 30.16 41.08 30.15 39.98 29.34 40.44z"/><path class="cls-10" d="M15.68 41.92 15.68 43.03 7.89 47.53 7.89 46.42 15.68 41.92z"/><path class="cls-10" d="M41.9 24.65 41.91 25.75 29.52 32.9 29.52 31.79 41.9 24.65z"/><path class="cls-10" d="M39.6 30.24 39.6 31.36 38.44 32.03 38.44 30.91 39.6 30.24z"/><path class="cls-10" d="M39.63 40.92 39.63 42.02 38.47 42.7 38.47 41.59 39.63 40.92z"/><g class="cls-3"><g class="cls-11"><g class="cls-12"><path class="cls-10" d="M39.62 36.65 39.62 37.76 38.46 38.43 38.46 37.32 39.62 36.65z"/><path class="cls-10" d="M38.74 39.29 38.75 40.4 30.95 44.9 30.95 43.79 38.74 39.29z"/><path class="cls-10" d="M38.73 35.02 38.74 36.13 30.94 40.63 30.94 39.52 38.73 35.02z"/><path class="cls-10" d="M37.53 42.13 37.53 43.24 25.32 50.29 25.31 49.19 37.53 42.13z"/><path class="cls-10" d="M28.69 45.1 28.69 46.2 25.21 48.21 25.21 47.11 28.69 45.1z"/><path class="cls-10" d="M37.52 37.86 37.52 38.97 26.75 45.19 26.74 44.08 37.52 37.86z"/><path class="cls-10" d="M41.92 31.04 41.92 32.16 29.54 39.31 29.54 38.19 41.92 31.04z"/><path class="cls-10" d="M38.72 28.62 38.72 29.73 30.92 34.23 30.92 33.13 38.72 28.62z"/><path class="cls-10" d="M30.13 33.58 30.14 34.69 29.33 35.15 29.32 34.05 30.13 33.58z"/><path class="cls-10" d="M25.68 44.7 25.69 45.8 20 49.09 19.99 47.98 25.68 44.7z"/><path class="cls-10" d="M37.5 31.46 37.5 32.57 25.28 39.63 25.28 38.51 37.5 31.46z"/><path class="cls-10" d="M28.68 40.83 28.68 41.94 21.12 46.3 21.12 45.19 28.68 40.83z"/><path class="cls-10" d="M24.2 47.69 24.2 48.8 16.4 53.3 16.39 52.2 24.2 47.69z"/><path class="cls-10" d="M28.32 38.9 28.32 40.01 21.79 43.78 21.78 42.67 28.32 38.9z"/><path class="cls-10" d="M28.66 34.43 28.66 35.54 25.18 37.55 25.18 36.44 28.66 34.43z"/><path class="cls-10" d="M20.38 45.62 20.38 46.73 16.38 49.03 16.38 47.93 20.38 45.62z"/><path class="cls-10" d="M28.3 32.5 28.3 33.61 21.77 37.38 21.76 36.27 28.3 32.5z"/><path class="cls-10" d="M24.16 37.02 24.17 38.13 16.36 42.64 16.36 41.53 24.16 37.02z"/><path class="cls-10" d="M19.02 48.54 19.03 49.65 7.92 56.06 7.91 54.95 19.02 48.54z"/><path class="cls-10" d="M15.7 48.32 15.7 49.43 7.91 53.93 7.91 52.82 15.7 48.32z"/><path class="cls-10" d="M20.66 43.31 20.67 44.43 7.9 51.8 7.9 50.68 20.66 43.31z"/><path class="cls-10" d="M24.17 39.15 24.17 40.27 7.9 49.66 7.9 48.55 24.17 39.15z"/><path class="cls-10" d="M20.65 36.92 20.65 38.02 7.89 45.39 7.88 44.29 20.65 36.92z"/></g></g></g><path class="cls-10" d="M46.5 32.67 46.51 33.78 45.34 34.45 45.34 33.34 46.5 32.67z"/><path class="cls-10" d="M46.5 30.54 46.5 31.65 42.5 33.95 42.5 32.85 46.5 30.54z"/><path class="cls-10" d="M45.67 28.88 45.68 29.99 46.49 29.52 46.49 28.4 45.67 28.88z"/><path class="cls-10" d="M46.48 24.14 46.48 25.25 42.48 27.56 42.48 26.45 46.48 24.14z"/><path class="cls-10" d="M46.48 26.27 46.49 27.38 45.33 28.05 45.32 26.94 46.48 26.27z"/><path class="cls-10" d="M45.66 22.48 45.66 23.59 46.48 23.11 46.47 22.01 45.66 22.48z"/><path class="cls-10" d="M15.71 52.59 15.71 53.7 7.92 58.2 7.92 57.09 15.71 52.59z"/><path class="cls-10" d="M24.2 49.83 24.2 50.94 7.93 60.33 7.93 59.22 24.2 49.83z"/><path class="cls-10" d="M46.51 34.81 46.51 35.92 42.52 38.22 42.51 37.12 46.51 34.81z"/><path class="cls-10" d="M46.52 36.94 46.52 38.05 45.36 38.72 45.35 37.62 46.52 36.94z"/><path class="cls-10" d="M29.35 44.71 29.36 45.82 30.17 45.35 30.16 44.25 29.35 44.71z"/><g class="cls-13"><path class="cls-14" d="M25.78 42.71H63.03V92.89H25.78z"/></g><g class="cls-3"><path class="cls-15" d="m62.71 46.81-29.49 17a1 1 0 0 0-.45.78v26.17c0 2 1.41 2.81 3.14 1.81L60 78.66a7 7 0 0 0 3.14-5.44V47.06c0-.29-.2-.4-.45-.26"/><path class="cls-16" d="M50.88 65c0-1.85-1.3-2.61-2.91-1.68a6.42 6.42 0 0 0-2.91 5 1.87 1.87 0 0 0 1.15 2l-1.86 11.09 7.24-4.18-1.87-8.93a6.18 6.18 0 0 0 1.16-3.3"/><path class="cls-15" d="M54.54 28.6c-3.18-1.84-7.43-1.4-12 1.22a28.65 28.65 0 0 0-13.69 23.76v7a1.47 1.47 0 0 0 .89 1.4 4.88 4.88 0 0 0 4.41 0 1.57 1.57 0 0 0 .9-1.22v-7.1a22.48 22.48 0 0 1 10.63-18.47c2.46-1.42 4.61-1.87 5.75-1.22s1.75 2.67 1.75 5.55v7.18a1.59 1.59 0 0 0 .9 1.18 4.88 4.88 0 0 0 4.41 0 1.47 1.47 0 0 0 .89-1.39v-7c0-6.72-2.64-9.65-4.86-10.93"/><path class="cls-10" d="M53.32 69.83a2.53 2.53 0 1 1-2.57-2.49 2.53 2.53 0 0 1 2.57 2.49M65.69 77.29a2.53 2.53 0 1 1-2.57-2.49 2.53 2.53 0 0 1 2.57 2.49M77.38 83.9a2.53 2.53 0 1 1-2.57-2.49 2.53 2.53 0 0 1 2.57 2.49"/></g></g></svg>