<svg xmlns="http://www.w3.org/2000/svg" viewBox="0 0 585 658.26"><g id="app-text"><g><rect x=".49" y="74.44" width="584.03" height="509.95" rx="20" style="fill:none;stroke:#ed4f9b;stroke-miterlimit:10;stroke-width:0.970269631647461px;stroke-dasharray:2.6718966960906982"/><rect x="52.18" width="392.23" height="150.14" rx="10.94" style="fill:#ed4f9b"/><path d="M444.41 74.44v-63.5A10.94 10.94 0 0 0 433.47 0H63.12a10.94 10.94 0 0 0-10.94 10.94v63.32" style="fill:#bcd756"/><path d="M418.28 0h108.13a10 10 0 0 1 10 10v130.14a10 10 0 0 1-10 10l-108.13-.07M401.74 292c0-2.25-1-4.07-2.24-4.07h-214c-1.23 0-2.23 1.82-2.23 4.07v74.89c0 2.25 1 4.07 2.23 4.07h214c1.24 0 2.24-1.82 2.24-4.07Z" style="fill:#424241"/><g><path d="M225 313.41h-1.76a3.65 3.65 0 0 0-1.48-2.3 4.34 4.34 0 0 0-1.22-.6 4.91 4.91 0 0 0-1.39-.19 4.45 4.45 0 0 0-2.39.66 4.66 4.66 0 0 0-1.7 2 8.39 8.39 0 0 0 0 6.38 4.66 4.66 0 0 0 1.7 2 4.45 4.45 0 0 0 2.39.66 4.58 4.58 0 0 0 1.39-.2 4.06 4.06 0 0 0 1.22-.59 3.77 3.77 0 0 0 .94-1 3.66 3.66 0 0 0 .54-1.33H225a5.76 5.76 0 0 1-.72 2 5.41 5.41 0 0 1-1.31 1.5 5.55 5.55 0 0 1-1.75.93 6.69 6.69 0 0 1-2.07.32 6 6 0 0 1-5.59-3.49 10 10 0 0 1 0-8 6.18 6.18 0 0 1 2.28-2.58 6.07 6.07 0 0 1 3.31-.91 6.69 6.69 0 0 1 2.07.32 5.52 5.52 0 0 1 3.06 2.42 5.81 5.81 0 0 1 .72 2ZM229.31 308.87v14.54h-1.67v-14.54ZM233.23 310.69a1.18 1.18 0 0 1-.84-.34 1.09 1.09 0 0 1 0-1.6 1.21 1.21 0 0 1 1.68 0 1.07 1.07 0 0 1 0 1.6 1.18 1.18 0 0 1-.84.34Zm-.85 12.72V312.5h1.68v10.91ZM241.7 323.64a5.08 5.08 0 0 1-2.72-.7 4.63 4.63 0 0 1-1.75-2 6.63 6.63 0 0 1-.62-2.94 6.81 6.81 0 0 1 .62-3 4.81 4.81 0 0 1 1.72-2 4.59 4.59 0 0 1 2.58-.72 5.12 5.12 0 0 1 1.68.29 4 4 0 0 1 1.51.92 4.37 4.37 0 0 1 1.09 1.67 7.21 7.21 0 0 1 .4 2.58v.71h-8.4V317h6.7a3.52 3.52 0 0 0-.37-1.65 2.77 2.77 0 0 0-1-1.14 2.94 2.94 0 0 0-1.58-.42 3 3 0 0 0-1.73.49 3.29 3.29 0 0 0-1.12 1.28 3.78 3.78 0 0 0-.39 1.69v1a4.58 4.58 0 0 0 .43 2.09 3 3 0 0 0 1.19 1.3 3.49 3.49 0 0 0 1.79.44 3.67 3.67 0 0 0 1.19-.18 2.59 2.59 0 0 0 .93-.57 2.73 2.73 0 0 0 .61-.95l1.61.45a3.52 3.52 0 0 1-.86 1.45 4.19 4.19 0 0 1-1.49 1 5.43 5.43 0 0 1-2.02.36ZM250.45 316.85v6.56h-1.68V312.5h1.62v1.71h.14a3.16 3.16 0 0 1 1.17-1.34 3.61 3.61 0 0 1 2-.51 4 4 0 0 1 1.94.45 3.08 3.08 0 0 1 1.3 1.37 5.14 5.14 0 0 1 .46 2.3v6.93h-1.68v-6.82a2.81 2.81 0 0 0-.67-2 2.36 2.36 0 0 0-1.83-.72 2.83 2.83 0 0 0-1.43.35 2.47 2.47 0 0 0-1 1 3.4 3.4 0 0 0-.34 1.63ZM265.22 312.5v1.42h-5.65v-1.42Zm-4-2.61h1.68v10.4a2.11 2.11 0 0 0 .21 1.06 1.06 1.06 0 0 0 .54.47 2 2 0 0 0 .7.12 2.58 2.58 0 0 0 .45 0h.29l.34 1.51a4.89 4.89 0 0 1-.48.13 4.07 4.07 0 0 1-.77.06 3.41 3.41 0 0 1-1.39-.3 2.62 2.62 0 0 1-1.57-2.51ZM273.6 323.41v-14.54h8.78v1.56h-7v4.91h6.57v1.57h-6.57v4.94h7.13v1.56ZM287 316.85v6.56h-1.68V312.5H287v1.71h.15a3.07 3.07 0 0 1 1.16-1.34 3.62 3.62 0 0 1 2-.51 4 4 0 0 1 1.94.45 3.12 3.12 0 0 1 1.29 1.37 5 5 0 0 1 .46 2.3v6.93h-1.68v-6.82a2.86 2.86 0 0 0-.66-2 2.4 2.4 0 0 0-1.84-.72 2.83 2.83 0 0 0-1.43.35 2.47 2.47 0 0 0-1 1 3.4 3.4 0 0 0-.39 1.63ZM301.47 323.64a4.56 4.56 0 0 1-4.35-2.72 6.91 6.91 0 0 1-.59-2.91 6.67 6.67 0 0 1 .61-2.93 4.81 4.81 0 0 1 1.72-2 4.63 4.63 0 0 1 2.58-.72 4.84 4.84 0 0 1 2.08.43A4 4 0 0 1 305 314a3.71 3.71 0 0 1 .73 1.79h-1.68a2.57 2.57 0 0 0-2.61-1.9 3 3 0 0 0-1.72.5 3.41 3.41 0 0 0-1.14 1.43 5.34 5.34 0 0 0-.41 2.16 5.72 5.72 0 0 0 .4 2.2 3.43 3.43 0 0 0 1.14 1.46 3 3 0 0 0 1.73.51 3 3 0 0 0 1.19-.22 2.45 2.45 0 0 0 1.42-1.68h1.68a3.86 3.86 0 0 1-2.17 3 4.76 4.76 0 0 1-2.09.39ZM308.2 323.41V312.5h1.62v1.65h.12a2.5 2.5 0 0 1 1.08-1.31 3.13 3.13 0 0 1 1.76-.51h.88v1.71l-.39-.07a4.26 4.26 0 0 0-.64-.05 2.94 2.94 0 0 0-1.41.33 2.53 2.53 0 0 0-1 .91 2.47 2.47 0 0 0-.36 1.32v6.9ZM317.07 327.48a4.19 4.19 0 0 1-.76-.07 2.74 2.74 0 0 1-.47-.13l.43-1.48a2.54 2.54 0 0 0 1.53 0 2.38 2.38 0 0 0 1.06-1.47l.31-.85-4-11H317l3 8.7h.12l3-8.7h1.83L320.28 325a4.54 4.54 0 0 1-.78 1.38 2.8 2.8 0 0 1-1.07.82 3.15 3.15 0 0 1-1.36.28ZM327.14 327.5v-15h1.62v1.74h.24c.13-.19.3-.44.52-.73a3.07 3.07 0 0 1 .95-.8 3.51 3.51 0 0 1 1.69-.35 4.32 4.32 0 0 1 2.43.69 4.65 4.65 0 0 1 1.64 1.95 7.9 7.9 0 0 1 0 6 4.68 4.68 0 0 1-1.64 2 4.23 4.23 0 0 1-2.4.69 3.57 3.57 0 0 1-1.69-.35 3.17 3.17 0 0 1-1-.8c-.23-.3-.4-.55-.53-.75h-.14v5.76Zm1.64-9.54a6 6 0 0 0 .37 2.17 3.33 3.33 0 0 0 1.05 1.48 3.08 3.08 0 0 0 3.47 0 3.48 3.48 0 0 0 1.06-1.51 6.36 6.36 0 0 0 0-4.19 3.22 3.22 0 0 0-1.06-1.47 3.16 3.16 0 0 0-3.49 0 3.2 3.2 0 0 0-1.05 1.44 5.81 5.81 0 0 0-.35 2.12ZM344.07 312.5v1.42h-5.65v-1.42Zm-4-2.61h1.68v10.4a2.11 2.11 0 0 0 .21 1.06 1.06 1.06 0 0 0 .54.47 2 2 0 0 0 .7.12 2.68 2.68 0 0 0 .45 0h.29l.34 1.51-.48.13a4.07 4.07 0 0 1-.77.06 3.38 3.38 0 0 1-1.39-.3 2.62 2.62 0 0 1-1.57-2.51ZM347.45 310.69a1.18 1.18 0 0 1-.84-.34 1.09 1.09 0 0 1 0-1.6 1.21 1.21 0 0 1 1.68 0 1.09 1.09 0 0 1 0 1.6 1.18 1.18 0 0 1-.84.34Zm-.85 12.72V312.5h1.67v10.91ZM355.77 323.64a4.76 4.76 0 0 1-2.59-.7 4.82 4.82 0 0 1-1.73-2 6.69 6.69 0 0 1-.62-3 6.76 6.76 0 0 1 .62-3 4.78 4.78 0 0 1 1.73-2 4.85 4.85 0 0 1 2.59-.7 4.6 4.6 0 0 1 4.33 2.76 6.76 6.76 0 0 1 .62 3 6.69 6.69 0 0 1-.62 3 4.84 4.84 0 0 1-1.74 2 4.72 4.72 0 0 1-2.59.64Zm0-1.51a2.9 2.9 0 0 0 1.85-.57 3.39 3.39 0 0 0 1.07-1.51 6.09 6.09 0 0 0 0-4.07 3.46 3.46 0 0 0-1.07-1.53 2.84 2.84 0 0 0-1.85-.58 2.82 2.82 0 0 0-1.84.58 3.47 3.47 0 0 0-1.08 1.53 6.26 6.26 0 0 0 0 4.07 3.41 3.41 0 0 0 1.08 1.51 2.87 2.87 0 0 0 1.84.57ZM365 316.85v6.56h-1.68V312.5h1.62v1.71h.06a3.16 3.16 0 0 1 1.17-1.34 3.62 3.62 0 0 1 2-.51 4 4 0 0 1 1.93.45 3.08 3.08 0 0 1 1.3 1.37 5 5 0 0 1 .46 2.3v6.93h-1.68v-6.82a2.86 2.86 0 0 0-.66-2 2.4 2.4 0 0 0-1.84-.72 2.83 2.83 0 0 0-1.43.35 2.47 2.47 0 0 0-1 1 3.4 3.4 0 0 0-.25 1.63ZM232.44 347.41v-14.54h1.76v7.21h.17l6.53-7.21h2.3l-6.1 6.56 6.1 8h-2.13l-5-6.76-1.82 2.05v4.71ZM249 347.64a5.08 5.08 0 0 1-2.72-.7 4.63 4.63 0 0 1-1.75-2 6.63 6.63 0 0 1-.62-2.94 6.81 6.81 0 0 1 .62-3 4.86 4.86 0 0 1 1.71-2 4.64 4.64 0 0 1 2.59-.72 5.12 5.12 0 0 1 1.68.29 4 4 0 0 1 1.51.92 4.37 4.37 0 0 1 1.09 1.67 7.21 7.21 0 0 1 .4 2.58v.71h-8.4V341h6.7a3.52 3.52 0 0 0-.37-1.65 2.84 2.84 0 0 0-1-1.14 2.94 2.94 0 0 0-1.58-.42 3 3 0 0 0-1.73.49 3.29 3.29 0 0 0-1.12 1.28 3.78 3.78 0 0 0-.39 1.69v1a4.58 4.58 0 0 0 .43 2.09 3 3 0 0 0 1.19 1.3 3.49 3.49 0 0 0 1.79.44 3.67 3.67 0 0 0 1.19-.18 2.44 2.44 0 0 0 1.53-1.52l1.62.45a3.52 3.52 0 0 1-.86 1.45 4.19 4.19 0 0 1-1.49 1 5.43 5.43 0 0 1-2.02.36ZM256.84 351.48a4.28 4.28 0 0 1-.76-.07 2.56 2.56 0 0 1-.46-.13l.42-1.48a2.54 2.54 0 0 0 1.53 0 2.34 2.34 0 0 0 1.06-1.47l.31-.85-4-11h1.82l3 8.7h.11l3-8.7h1.83L260.05 349a4.74 4.74 0 0 1-.77 1.38 2.88 2.88 0 0 1-1.07.82 3.2 3.2 0 0 1-1.37.28ZM272.76 332.87h2.11l4.94 12.07h.19l4.94-12.07H287v14.54h-1.64v-11.05h-.15l-4.54 11.05h-1.57l-4.55-11.05h-.14v11.05h-1.65ZM293.53 347.67a4.28 4.28 0 0 1-1.88-.4 3.1 3.1 0 0 1-1.84-2.95 2.8 2.8 0 0 1 .37-1.53 2.63 2.63 0 0 1 1-.92 5.44 5.44 0 0 1 1.37-.5c.5-.11 1-.2 1.51-.26l1.62-.2a2.43 2.43 0 0 0 .91-.23.6.6 0 0 0 .28-.57v-.06a2.23 2.23 0 0 0-.57-1.63 2.32 2.32 0 0 0-1.73-.58 3 3 0 0 0-1.88.52 3.21 3.21 0 0 0-1 1.13l-1.59-.57a3.76 3.76 0 0 1 1.14-1.55 4.27 4.27 0 0 1 1.56-.79 7 7 0 0 1 1.68-.22 6.33 6.33 0 0 1 1.21.13 4 4 0 0 1 1.32.5 3 3 0 0 1 1.07 1.16 4.26 4.26 0 0 1 .43 2.08v7.18h-1.68v-1.47h-.08a3.12 3.12 0 0 1-.57.76 3.18 3.18 0 0 1-1.06.68 4.06 4.06 0 0 1-1.59.29Zm.26-1.51a3.37 3.37 0 0 0 1.68-.39 2.63 2.63 0 0 0 1-1 2.51 2.51 0 0 0 .35-1.3v-1.53a1 1 0 0 1-.46.23 7 7 0 0 1-.83.18l-.9.13-.7.08a6.24 6.24 0 0 0-1.22.28 2 2 0 0 0-.91.56 1.44 1.44 0 0 0-.35 1 1.51 1.51 0 0 0 .65 1.32 3 3 0 0 0 1.69.44ZM303.27 340.85v6.56h-1.67V336.5h1.62v1.71h.14a3.07 3.07 0 0 1 1.16-1.34 3.65 3.65 0 0 1 2-.51 4 4 0 0 1 1.94.45 3.12 3.12 0 0 1 1.29 1.37 5 5 0 0 1 .46 2.3v6.93h-1.67v-6.82a2.81 2.81 0 0 0-.67-2 2.37 2.37 0 0 0-1.83-.72 2.81 2.81 0 0 0-1.43.35 2.47 2.47 0 0 0-1 1 3.29 3.29 0 0 0-.34 1.63ZM316.51 347.67a4.28 4.28 0 0 1-1.88-.4 3.17 3.17 0 0 1-1.34-1.14 3.21 3.21 0 0 1-.5-1.81 2.8 2.8 0 0 1 .37-1.53 2.73 2.73 0 0 1 1-.92 5.31 5.31 0 0 1 1.37-.5 15.17 15.17 0 0 1 1.5-.26l1.62-.2a2.38 2.38 0 0 0 .91-.23.61.61 0 0 0 .29-.57v-.06a2.23 2.23 0 0 0-.57-1.63 2.33 2.33 0 0 0-1.73-.58 3 3 0 0 0-1.89.52 3.21 3.21 0 0 0-1 1.13l-1.59-.57a4 4 0 0 1 1.14-1.55 4.23 4.23 0 0 1 1.57-.79 6.9 6.9 0 0 1 1.67-.22 6.33 6.33 0 0 1 1.21.13 4 4 0 0 1 1.33.5 3.09 3.09 0 0 1 1.07 1.16 4.39 4.39 0 0 1 .42 2.08v7.18h-1.67v-1.47h-.09a2.88 2.88 0 0 1-.57.76 3.08 3.08 0 0 1-1.06.68 4 4 0 0 1-1.58.29Zm.26-1.51a3.37 3.37 0 0 0 1.68-.39 2.63 2.63 0 0 0 1-1 2.52 2.52 0 0 0 .36-1.3v-1.53a1.06 1.06 0 0 1-.47.23 6.79 6.79 0 0 1-.82.18l-.91.13-.7.08a6.41 6.41 0 0 0-1.22.28 2 2 0 0 0-.91.56 1.44 1.44 0 0 0-.34 1 1.49 1.49 0 0 0 .65 1.32 2.89 2.89 0 0 0 1.68.44ZM329 351.73a6.12 6.12 0 0 1-2.08-.31 4.27 4.27 0 0 1-1.46-.81 4.56 4.56 0 0 1-.92-1.07l1.34-.93c.15.19.34.42.57.68a3.15 3.15 0 0 0 1 .68 3.78 3.78 0 0 0 1.59.28 3.52 3.52 0 0 0 2.18-.64 2.3 2.3 0 0 0 .86-2v-2.21h-.14c-.12.19-.3.44-.52.73a3 3 0 0 1-1 .78 3.62 3.62 0 0 1-1.69.33 4.6 4.6 0 0 1-2.37-.62 4.36 4.36 0 0 1-1.65-1.82 6.28 6.28 0 0 1-.61-2.9 6.79 6.79 0 0 1 .59-2.92 4.52 4.52 0 0 1 1.64-1.93 4.32 4.32 0 0 1 2.43-.69 3.51 3.51 0 0 1 1.69.35 3.17 3.17 0 0 1 1 .8c.22.29.4.54.52.73h.17v-1.74h1.62v11.23a3.81 3.81 0 0 1-.64 2.29 3.69 3.69 0 0 1-1.7 1.3 6.68 6.68 0 0 1-2.42.41Zm-.05-6a3.06 3.06 0 0 0 1.7-.46 2.88 2.88 0 0 0 1.06-1.33 5.42 5.42 0 0 0 .36-2.08 5.81 5.81 0 0 0-.35-2.08 3.16 3.16 0 0 0-1.05-1.41 3.16 3.16 0 0 0-3.49 0 3.14 3.14 0 0 0-1.06 1.45 5.37 5.37 0 0 0-.35 2 5.23 5.23 0 0 0 .35 2 3 3 0 0 0 1.07 1.36 3 3 0 0 0 1.74.56ZM341.34 347.64a5 5 0 0 1-2.71-.7 4.65 4.65 0 0 1-1.76-2 6.63 6.63 0 0 1-.61-2.94 6.81 6.81 0 0 1 .61-3 4.81 4.81 0 0 1 1.72-2 4.63 4.63 0 0 1 2.58-.72 5.12 5.12 0 0 1 1.68.29 4 4 0 0 1 1.52.92 4.47 4.47 0 0 1 1.08 1.67 7.19 7.19 0 0 1 .41 2.58v.71h-8.41V341h6.7a3.64 3.64 0 0 0-.36-1.65 2.86 2.86 0 0 0-1-1.14 2.91 2.91 0 0 0-1.58-.42 3 3 0 0 0-1.73.49 3.37 3.37 0 0 0-1.12 1.28 3.78 3.78 0 0 0-.39 1.69v1a4.72 4.72 0 0 0 .43 2.09 3.09 3.09 0 0 0 1.2 1.3 3.43 3.43 0 0 0 1.78.44 3.78 3.78 0 0 0 1.2-.18 2.44 2.44 0 0 0 1.53-1.52l1.62.45a3.64 3.64 0 0 1-.86 1.45 4.19 4.19 0 0 1-1.49 1 5.48 5.48 0 0 1-2.04.36ZM348.42 347.41V336.5H350v1.65h.12a2.6 2.6 0 0 1 1.08-1.31 3.15 3.15 0 0 1 1.76-.51h.88v1.71l-.39-.07a4.23 4.23 0 0 0-.63-.05 3 3 0 0 0-1.42.33 2.6 2.6 0 0 0-1 .91 2.47 2.47 0 0 0-.36 1.32v6.9Z" style="fill:#fff"/></g><g><path d="M109.72 333.46h-3.13l4.77-13.82h3.77l4.76 13.82h-3.13l-3.46-10.66h-.11Zm-.19-5.43h7.39v2.28h-7.39ZM121.55 333.46v-13.82H127a5.56 5.56 0 0 1 2.68.6 4.14 4.14 0 0 1 1.69 1.65 5 5 0 0 1 .58 2.43 4.81 4.81 0 0 1-.59 2.43 4.07 4.07 0 0 1-1.72 1.64 5.8 5.8 0 0 1-2.71.59h-3.48v-2.34h3a3 3 0 0 0 1.39-.29 1.91 1.91 0 0 0 .82-.82 2.6 2.6 0 0 0 .27-1.21 2.56 2.56 0 0 0-.27-1.2 1.92 1.92 0 0 0-.82-.8 3.07 3.07 0 0 0-1.41-.29h-2v11.43ZM136.78 319.64v13.82h-2.92v-13.82Z" style="fill:#ed4f9b"/></g><circle cx="122.06" cy="465.66" r="3.75" style="fill:none;stroke:#ed4f9b;stroke-miterlimit:10;stroke-width:0.970269631647461px"/><path d="M135.61 56.26h-27.09a7.88 7.88 0 0 1-.12-15.75h.09a1 1 0 0 0 1-1 10.28 10.28 0 0 1 16.76-8 10.44 10.44 0 0 1 3.15 4.37 5.7 5.7 0 0 1 7.58 4.73 7.72 7.72 0 0 1 4.31 2.27 7.87 7.87 0 0 1-5.64 13.36ZM190.47 56.26h-27.08a7.88 7.88 0 0 1-.12-15.75h.09a1 1 0 0 0 1-1 10.28 10.28 0 0 1 16.76-8 10.44 10.44 0 0 1 3.15 4.37 5.7 5.7 0 0 1 7.58 4.73 7.72 7.72 0 0 1 4.31 2.27 7.87 7.87 0 0 1-5.65 13.36ZM245.34 56.26h-27.08a7.88 7.88 0 0 1-.12-15.75h.09a1 1 0 0 0 1-1 10.28 10.28 0 0 1 16.76-8 10.44 10.44 0 0 1 3.15 4.37 5.7 5.7 0 0 1 7.58 4.73 7.87 7.87 0 0 1 6.54 7.76 7.89 7.89 0 0 1-7.88 7.87ZM300.13 56.26h-27.08a7.88 7.88 0 0 1-.12-15.75h.07a1 1 0 0 0 1-1 10.28 10.28 0 0 1 16.76-8 10.44 10.44 0 0 1 3.15 4.37 5.7 5.7 0 0 1 7.58 4.73 7.87 7.87 0 0 1 6.51 7.78 7.89 7.89 0 0 1-7.88 7.87ZM273 42.79" style="fill:#fff"/><g><path d="M122.06 108.47a1.92 1.92 0 0 0-1.92 1.92v2.73H124v-2.73a1.92 1.92 0 0 0-1.94-1.92Z" style="fill:#fff"/><path d="M141.25 112.32a7.8 7.8 0 0 0-4.31-2.28 5.7 5.7 0 0 0-7.58-4.73 10.35 10.35 0 0 0-3.15-4.36 10.28 10.28 0 0 0-16.76 8 1 1 0 0 1-1 1h-.09a7.87 7.87 0 0 0 .12 15.74h27.09a7.88 7.88 0 0 0 7.87-7.87 7.79 7.79 0 0 0-2.19-5.5Zm-15.68 7.81h-6.95a1.31 1.31 0 0 1-1.3-1.31l-.07-5.7h1.5v-2.73a3.32 3.32 0 1 1 6.63 0v2.73h1.43l.07 5.7a1.31 1.31 0 0 1-1.31 1.31Z" style="fill:#fff"/></g><g><path d="M176.93 107.1A1.92 1.92 0 0 0 175 109v2.74h3.84V109a1.92 1.92 0 0 0-1.91-1.9Z" style="fill:#fff"/><path d="M196.12 111a7.8 7.8 0 0 0-4.31-2.28 5.71 5.71 0 0 0-7.58-4.72 10.3 10.3 0 0 0-9.63-6.67 10.28 10.28 0 0 0-10.28 10.28 1 1 0 0 1-1 1h-.09a7.88 7.88 0 0 0 .12 15.75h27.08a7.87 7.87 0 0 0 5.69-13.36Zm-15.68 7.81h-6.95a1.3 1.3 0 0 1-1.3-1.3l-.07-5.7h1.5V109a3.32 3.32 0 0 1 6.63 0v2.74h1.43l.07 5.7a1.31 1.31 0 0 1-1.31 1.32Z" style="fill:#fff"/></g><g><path d="M231.8 107.1a1.92 1.92 0 0 0-1.92 1.92v2.74h3.84V109a1.92 1.92 0 0 0-1.92-1.9Z" style="fill:#fff"/><path d="M251 111a7.84 7.84 0 0 0-4.31-2.28 5.71 5.71 0 0 0-7.59-4.72 10.3 10.3 0 0 0-9.63-6.67 10.28 10.28 0 0 0-10.28 10.28 1 1 0 0 1-1 1h-.09a7.88 7.88 0 0 0 .12 15.75h27.08A7.87 7.87 0 0 0 251 111Zm-15.68 7.81h-6.95a1.3 1.3 0 0 1-1.3-1.3l-.07-5.7h1.49V109a3.32 3.32 0 0 1 6.64 0v2.74h1.43l.07 5.7a1.31 1.31 0 0 1-1.32 1.32Z" style="fill:#fff"/></g><g><path d="M286.59 107.1a1.92 1.92 0 0 0-1.92 1.92v2.74h3.84V109a1.92 1.92 0 0 0-1.92-1.9Z" style="fill:#fff"/><path d="M305.78 111a7.84 7.84 0 0 0-4.31-2.28 5.71 5.71 0 0 0-7.58-4.72 10.3 10.3 0 0 0-9.63-6.67A10.28 10.28 0 0 0 274 107.56a1 1 0 0 1-1 1h-.09a7.88 7.88 0 0 0 .12 15.75h27.08a7.87 7.87 0 0 0 5.67-13.31Zm-15.68 7.81h-7a1.31 1.31 0 0 1-1.31-1.3l-.06-5.7h1.49V109a3.32 3.32 0 0 1 6.64 0v2.74h1.43l.07 5.7a1.31 1.31 0 0 1-1.26 1.32Z" style="fill:#fff"/></g><g><path d="M341.13 107.1a1.92 1.92 0 0 0-1.92 1.92v2.74h3.84V109a1.92 1.92 0 0 0-1.92-1.9Z" style="fill:#fff"/><path d="M360.32 111a7.87 7.87 0 0 0-4.31-2.28 5.71 5.71 0 0 0-7.59-4.72 10.27 10.27 0 0 0-9.63-6.67 10.29 10.29 0 0 0-10.28 10.28 1 1 0 0 1-.95 1h-.1a7.89 7.89 0 0 0-7.75 7.87 7.89 7.89 0 0 0 7.88 7.88h27.08a7.88 7.88 0 0 0 5.65-13.36Zm-15.68 7.81h-6.95a1.31 1.31 0 0 1-1.31-1.3l-.07-5.7h1.5V109a3.32 3.32 0 0 1 6.63 0v2.74h1.43l.07 5.7a1.3 1.3 0 0 1-1.3 1.32Z" style="fill:#fff"/></g><g><path d="M182.49 253.28v-15.87h6.26a6.4 6.4 0 0 1 3.08.69 4.71 4.71 0 0 1 1.94 1.89 6.12 6.12 0 0 1 0 5.59 4.71 4.71 0 0 1-2 1.88 6.66 6.66 0 0 1-3.12.68h-4v-2.69h3.45a3.3 3.3 0 0 0 1.6-.34 2.21 2.21 0 0 0 .95-.94 2.92 2.92 0 0 0 .31-1.38 2.87 2.87 0 0 0-.31-1.38 2.19 2.19 0 0 0-.95-.93 3.47 3.47 0 0 0-1.61-.33h-2.27v13.13ZM201.79 253.52a6.29 6.29 0 0 1-3.16-.75 5.06 5.06 0 0 1-2-2.12 7.67 7.67 0 0 1 0-6.49 5.24 5.24 0 0 1 2-2.16 5.79 5.79 0 0 1 3-.78 6.3 6.3 0 0 1 2.19.38 5 5 0 0 1 1.79 1.13 5.18 5.18 0 0 1 1.19 1.89 7.6 7.6 0 0 1 .42 2.65v.91H197.2v-2.05h6.94a2.48 2.48 0 0 0-.31-1.26 2.22 2.22 0 0 0-.83-.87 2.52 2.52 0 0 0-1.27-.31 2.56 2.56 0 0 0-1.33.34 2.51 2.51 0 0 0-.9.93 2.63 2.63 0 0 0-.34 1.28v1.94a3.32 3.32 0 0 0 .34 1.53 2.28 2.28 0 0 0 .93 1 2.73 2.73 0 0 0 1.43.35 3.2 3.2 0 0 0 1-.15 2 2 0 0 0 .78-.47 1.91 1.91 0 0 0 .5-.76l3.05.2a4.05 4.05 0 0 1-1 1.92 4.63 4.63 0 0 1-1.84 1.27 6.78 6.78 0 0 1-2.56.45ZM214.83 253.52a6.28 6.28 0 0 1-3.15-.75 5.09 5.09 0 0 1-2-2.12 7.77 7.77 0 0 1 0-6.49 5.37 5.37 0 0 1 2-2.16 5.81 5.81 0 0 1 3-.78 6.31 6.31 0 0 1 2.2.38 5 5 0 0 1 1.78 1.13 5 5 0 0 1 1.19 1.89 7.36 7.36 0 0 1 .43 2.65v.91h-10.03v-2.05h6.94a2.48 2.48 0 0 0-.31-1.26 2.25 2.25 0 0 0-.88-.87 2.45 2.45 0 0 0-1.26-.31 2.53 2.53 0 0 0-1.33.34 2.46 2.46 0 0 0-.91.93 2.73 2.73 0 0 0-.33 1.28v1.94a3.32 3.32 0 0 0 .33 1.53 2.34 2.34 0 0 0 .93 1 2.79 2.79 0 0 0 1.44.35 3.24 3.24 0 0 0 1-.15 2.2 2.2 0 0 0 .78-.47 2 2 0 0 0 .5-.76l3 .2a4.14 4.14 0 0 1-.95 1.92 4.67 4.67 0 0 1-1.85 1.27 6.74 6.74 0 0 1-2.52.45ZM222.45 253.28v-11.9h3.21v2.08h.12a3.12 3.12 0 0 1 1.09-1.68 2.88 2.88 0 0 1 1.77-.57h.53a5 5 0 0 1 .51.08v2.93c-.16 0-.37-.08-.64-.12a5.27 5.27 0 0 0-.76 0 2.66 2.66 0 0 0-1.3.31 2.32 2.32 0 0 0-.89.87 2.48 2.48 0 0 0-.33 1.29v6.73ZM236.24 253.52a6.28 6.28 0 0 1-3.15-.75 5.09 5.09 0 0 1-2-2.12 7.77 7.77 0 0 1 0-6.49 5.37 5.37 0 0 1 2-2.16 5.81 5.81 0 0 1 3.05-.78 6.31 6.31 0 0 1 2.2.38 5 5 0 0 1 1.78 1.13 5 5 0 0 1 1.19 1.89 7.36 7.36 0 0 1 .43 2.65v.91h-10.09v-2.05h6.95a2.48 2.48 0 0 0-.31-1.26 2.25 2.25 0 0 0-.86-.87 2.45 2.45 0 0 0-1.26-.31 2.53 2.53 0 0 0-1.33.34 2.46 2.46 0 0 0-.91.93 2.73 2.73 0 0 0-.33 1.28v1.94a3.32 3.32 0 0 0 .33 1.53 2.34 2.34 0 0 0 .93 1 2.79 2.79 0 0 0 1.44.35 3.24 3.24 0 0 0 1-.15 2.2 2.2 0 0 0 .78-.47 2 2 0 0 0 .5-.76l3 .2a4.14 4.14 0 0 1-.95 1.92 4.67 4.67 0 0 1-1.85 1.27 6.74 6.74 0 0 1-2.54.45ZM248.25 253.48a4.52 4.52 0 0 1-2.45-.7 4.84 4.84 0 0 1-1.74-2.07 9.14 9.14 0 0 1 0-6.77 4.68 4.68 0 0 1 1.76-2 4.49 4.49 0 0 1 2.4-.68 3.73 3.73 0 0 1 1.67.34 3.21 3.21 0 0 1 1.09.84 4.36 4.36 0 0 1 .63 1h.1v-6H255v15.87h-3.26v-1.9h-.14a4.06 4.06 0 0 1-.65 1 3.4 3.4 0 0 1-1.1.8 3.82 3.82 0 0 1-1.6.27Zm1.05-2.63a2.12 2.12 0 0 0 1.35-.44 2.74 2.74 0 0 0 .85-1.23 5.16 5.16 0 0 0 .3-1.85 5.34 5.34 0 0 0-.29-1.84 2.57 2.57 0 0 0-.86-1.21 2.12 2.12 0 0 0-1.35-.43 2.14 2.14 0 0 0-1.37.44 2.7 2.7 0 0 0-.85 1.23 5.25 5.25 0 0 0-.29 1.81 5.36 5.36 0 0 0 .29 1.83 2.87 2.87 0 0 0 .85 1.25 2.14 2.14 0 0 0 1.37.44ZM265.72 237.41l3.84 12.06h.15l3.84-12.06h3.72l-5.47 15.87h-4.33L262 237.41ZM279.18 253.28v-15.87h6.26a6.37 6.37 0 0 1 3.08.69 4.71 4.71 0 0 1 1.94 1.89 6.12 6.12 0 0 1 0 5.59 4.71 4.71 0 0 1-2 1.88 6.66 6.66 0 0 1-3.12.68h-4v-2.69h3.45a3.3 3.3 0 0 0 1.6-.34 2.16 2.16 0 0 0 .95-.94 2.92 2.92 0 0 0 .31-1.38 2.87 2.87 0 0 0-.31-1.38 2.19 2.19 0 0 0-.95-.93 3.47 3.47 0 0 0-1.61-.33h-2.26v13.13ZM306.6 237.41v15.87h-2.9l-6.91-10h-.12v10h-3.35v-15.87h2.94l6.86 10h.14v-10ZM327.7 237.41v15.87h-2.9l-6.9-10h-.12v10h-3.36v-15.87h2.95l6.85 10h.14v-10ZM335.83 253.52a6.28 6.28 0 0 1-3.15-.75 5.09 5.09 0 0 1-2-2.12 7.77 7.77 0 0 1 0-6.49 5.37 5.37 0 0 1 2-2.16 5.81 5.81 0 0 1 3.05-.78 6.31 6.31 0 0 1 2.2.38 5 5 0 0 1 1.78 1.13 5 5 0 0 1 1.19 1.89 7.36 7.36 0 0 1 .43 2.65v.91h-10.09v-2.05h6.95a2.48 2.48 0 0 0-.31-1.26 2.25 2.25 0 0 0-.88-.87 2.45 2.45 0 0 0-1.26-.31 2.53 2.53 0 0 0-1.33.34 2.46 2.46 0 0 0-.91.93 2.73 2.73 0 0 0-.33 1.28v1.94a3.32 3.32 0 0 0 .33 1.53 2.34 2.34 0 0 0 .93 1 2.79 2.79 0 0 0 1.44.35 3.24 3.24 0 0 0 1-.15 2.2 2.2 0 0 0 .78-.47 2 2 0 0 0 .5-.76l3.05.2a4.14 4.14 0 0 1-1 1.92 4.67 4.67 0 0 1-1.85 1.27 6.74 6.74 0 0 1-2.52.45ZM349.79 241.38v2.48h-7.17v-2.48Zm-5.55-2.85h3.31v11.1a1.42 1.42 0 0 0 .14.71.78.78 0 0 0 .39.35 1.5 1.5 0 0 0 .58.1 3.73 3.73 0 0 0 .47 0l.35-.07.52 2.46-.69.18a6.27 6.27 0 0 1-1.1.13 5.08 5.08 0 0 1-2.09-.32 2.93 2.93 0 0 1-1.39-1.13 3.51 3.51 0 0 1-.49-1.94ZM354.28 253.28l-3.28-11.9h3.34l1.85 8h.11l1.92-8h3.28l1.95 8h.1l1.82-8h3.33l-3.23 11.9H362l-2-7.48h-.14l-2.05 7.48ZM375.58 253.52a6.06 6.06 0 0 1-3.12-.77 5.22 5.22 0 0 1-2-2.16 7.66 7.66 0 0 1 0-6.44 5.22 5.22 0 0 1 2-2.16 6.71 6.71 0 0 1 6.24 0 5.26 5.26 0 0 1 2 2.16 7.56 7.56 0 0 1 0 6.44 5.26 5.26 0 0 1-2 2.16 6.12 6.12 0 0 1-3.12.77Zm0-2.56a2 2 0 0 0 1.37-.47 2.87 2.87 0 0 0 .84-1.28 6.28 6.28 0 0 0 0-3.71 2.87 2.87 0 0 0-.84-1.28 2 2 0 0 0-1.37-.48 2.06 2.06 0 0 0-1.39.48 2.81 2.81 0 0 0-.85 1.28 6.28 6.28 0 0 0 0 3.71 2.81 2.81 0 0 0 .85 1.28 2.11 2.11 0 0 0 1.4.51ZM383.59 253.28v-11.9h3.2v2.08h.13a3.06 3.06 0 0 1 1.09-1.68 2.88 2.88 0 0 1 1.77-.57h.53a4.79 4.79 0 0 1 .5.08v2.93a5.78 5.78 0 0 0-.64-.12 5.05 5.05 0 0 0-.75 0 2.63 2.63 0 0 0-1.3.31 2.35 2.35 0 0 0-.9.87 2.48 2.48 0 0 0-.33 1.29v6.73ZM392.51 253.28v-15.87h3.3v15.87Zm3-3.42v-4h.49l3.82-4.52h3.79l-5.13 6h-.78Zm4.45 3.42-3.5-5.18 2.2-2.33 5.17 7.51Z" style="fill:#424241"/></g><path style="fill:none;stroke:#ed4f9b;stroke-miterlimit:10;stroke-width:0.970269631647461px" d="M122.06 301.51 122.06 189.57"/><path style="fill:none;stroke:#ed4f9b;stroke-miterlimit:10;stroke-width:0.970269631647461px" d="M122.06 461.91 122.06 349.97"/><path style="fill:none;stroke:#ed4f9b;stroke-miterlimit:10;stroke-width:0.970269631647461px" d="M112.75 199.05 122.23 189.57 131.37 198.72"/><g><path d="M450.8 335.85h-3.13l4.76-13.85h3.77l4.8 13.85h-3.13l-3.46-10.66h-.11Zm-.2-5.44h7.4v2.29h-7.4ZM462.62 335.85V322h5.46a5.52 5.52 0 0 1 2.67.6 4 4 0 0 1 1.69 1.65 4.91 4.91 0 0 1 .59 2.43 4.81 4.81 0 0 1-.6 2.43 4 4 0 0 1-1.71 1.64 5.84 5.84 0 0 1-2.72.59h-3.47V329h3a2.86 2.86 0 0 0 1.39-.3 2 2 0 0 0 .83-.81 2.6 2.6 0 0 0 .27-1.21 2.53 2.53 0 0 0-.27-1.2 2 2 0 0 0-.83-.81 3.06 3.06 0 0 0-1.4-.28h-2v11.43ZM477.85 322v13.82h-2.92V322Z" style="fill:#ed4f9b"/></g><circle cx="463.13" cy="193.32" r="3.75" style="fill:none;stroke:#ed4f9b;stroke-miterlimit:10;stroke-width:0.970269631647461px"/><path style="fill:none;stroke:#ed4f9b;stroke-miterlimit:10;stroke-width:0.970269631647461px" d="M463.13 357.46 463.13 469.4"/><path style="fill:none;stroke:#ed4f9b;stroke-miterlimit:10;stroke-width:0.970269631647461px" d="M463.13 197.07 463.13 309.01"/><path style="fill:none;stroke:#ed4f9b;stroke-miterlimit:10;stroke-width:0.970269631647461px" d="M472.44 459.93 462.97 469.4 453.82 460.26"/><g><path d="M466.14 63.06h-2.34a2.34 2.34 0 0 0-.26-.81 2.14 2.14 0 0 0-1.22-1 2.65 2.65 0 0 0-.87-.14 2.59 2.59 0 0 0-1.47.42 2.73 2.73 0 0 0-1 1.22 4.83 4.83 0 0 0-.34 1.93 4.77 4.77 0 0 0 .35 2 2.6 2.6 0 0 0 1 1.2 2.65 2.65 0 0 0 1.46.4 3 3 0 0 0 .86-.12 2.11 2.11 0 0 0 .7-.36 2.06 2.06 0 0 0 .52-.58 2.41 2.41 0 0 0 .28-.78h2.34a4 4 0 0 1-.46 1.45 4.23 4.23 0 0 1-1 1.24 4.31 4.31 0 0 1-1.44.86 5 5 0 0 1-1.88.32 5.17 5.17 0 0 1-2.61-.66 4.7 4.7 0 0 1-1.76-1.92 6.46 6.46 0 0 1-.66-3 6.32 6.32 0 0 1 .67-3 4.73 4.73 0 0 1 1.82-1.91 5.12 5.12 0 0 1 2.59-.66 5.55 5.55 0 0 1 1.76.27 4.74 4.74 0 0 1 1.44.77 4.18 4.18 0 0 1 1 1.25 4.86 4.86 0 0 1 .52 1.61ZM470 59.24v10.91h-2.27V59.24ZM473 60.91a1.23 1.23 0 0 1-.86-.33 1.07 1.07 0 0 1-.37-.82 1 1 0 0 1 .37-.8 1.27 1.27 0 0 1 1.73 0 1.05 1.05 0 0 1 .36.8 1.09 1.09 0 0 1-.36.82 1.24 1.24 0 0 1-.87.33Zm-1.14 9.24V62h2.27v8.18ZM479.64 70.31a4.35 4.35 0 0 1-2.17-.51 3.52 3.52 0 0 1-1.4-1.46 5.32 5.32 0 0 1 0-4.46 3.65 3.65 0 0 1 1.38-1.48 4 4 0 0 1 2.1-.54 4.39 4.39 0 0 1 1.51.26 3.35 3.35 0 0 1 1.22.78 3.4 3.4 0 0 1 .82 1.29 5.09 5.09 0 0 1 .29 1.83v.62h-6.91v-1.4h4.78a1.66 1.66 0 0 0-.22-.87 1.52 1.52 0 0 0-.58-.6 1.75 1.75 0 0 0-.87-.21 1.85 1.85 0 0 0-.92.23 1.73 1.73 0 0 0-.62.64 1.86 1.86 0 0 0-.23.88v1.34a2.32 2.32 0 0 0 .23 1 1.62 1.62 0 0 0 .64.68 2 2 0 0 0 1 .24 2.17 2.17 0 0 0 .69-.11 1.46 1.46 0 0 0 .54-.32 1.42 1.42 0 0 0 .34-.52l2.1.14a3 3 0 0 1-.66 1.32 3.38 3.38 0 0 1-1.26.87 4.76 4.76 0 0 1-1.8.36ZM487.14 65.42v4.73h-2.27V62H487v1.44h.09a2.35 2.35 0 0 1 .91-1.13 2.79 2.79 0 0 1 1.55-.42 2.87 2.87 0 0 1 1.49.38 2.54 2.54 0 0 1 1 1.06 3.64 3.64 0 0 1 .35 1.64v5.21h-2.27v-4.8a1.68 1.68 0 0 0-.39-1.18 1.36 1.36 0 0 0-1.07-.42 1.51 1.51 0 0 0-.8.2 1.32 1.32 0 0 0-.55.57 2.06 2.06 0 0 0-.17.87ZM498.55 62v1.7h-4.92V62Zm-3.81-2H497v7.63a1 1 0 0 0 .1.48.51.51 0 0 0 .27.25 1.19 1.19 0 0 0 .4.07 1.73 1.73 0 0 0 .32 0h.25l.35 1.69a4.89 4.89 0 0 1-.48.13 4.65 4.65 0 0 1-.75.08A3.39 3.39 0 0 1 496 70a2 2 0 0 1-1-.77 2.39 2.39 0 0 1-.34-1.33ZM456.2 77.24v10.91h-2l-4.75-6.87h-.08v6.87h-2.3V77.24h2l4.71 6.86h.1v-6.86ZM461.79 88.31a4.35 4.35 0 0 1-2.17-.51 3.52 3.52 0 0 1-1.4-1.46 5.32 5.32 0 0 1 0-4.46 3.65 3.65 0 0 1 1.38-1.48 4 4 0 0 1 2.1-.54 4.39 4.39 0 0 1 1.51.26 3.27 3.27 0 0 1 1.22.78 3.4 3.4 0 0 1 .82 1.29 5.09 5.09 0 0 1 .29 1.83v.62h-6.9v-1.4h4.77a1.66 1.66 0 0 0-.22-.87 1.52 1.52 0 0 0-.58-.6 1.75 1.75 0 0 0-.87-.21 1.85 1.85 0 0 0-.92.23 1.73 1.73 0 0 0-.62.64 1.86 1.86 0 0 0-.23.88v1.34a2.32 2.32 0 0 0 .23 1 1.62 1.62 0 0 0 .64.68 2 2 0 0 0 1 .24 2.17 2.17 0 0 0 .69-.11 1.46 1.46 0 0 0 .54-.32 1.42 1.42 0 0 0 .34-.52l2.1.14a3 3 0 0 1-.66 1.32 3.3 3.3 0 0 1-1.26.87 4.76 4.76 0 0 1-1.8.36ZM471.38 80v1.7h-4.93V80Zm-3.81-2h2.27v7.63a1 1 0 0 0 .09.48.59.59 0 0 0 .27.25 1.24 1.24 0 0 0 .4.07 1.66 1.66 0 0 0 .32 0h.25l.36 1.69-.48.13a4.93 4.93 0 0 1-.75.08 3.41 3.41 0 0 1-1.44-.22 2 2 0 0 1-1-.77 2.39 2.39 0 0 1-.33-1.33ZM474.47 88.15 472.24 80h2.3l1.26 5.5h.08l1.32-5.5h2.25l1.34 5.46h.07l1.25-5.46h2.29l-2.22 8.18h-2.4L478.37 83h-.1l-1.41 5.14ZM489.1 88.31a4.23 4.23 0 0 1-2.15-.53 3.61 3.61 0 0 1-1.39-1.48 4.83 4.83 0 0 1-.49-2.21 4.9 4.9 0 0 1 .49-2.22 3.67 3.67 0 0 1 1.44-1.48 4.23 4.23 0 0 1 2.15-.53 4.17 4.17 0 0 1 2.14.53 3.63 3.63 0 0 1 1.4 1.48 4.9 4.9 0 0 1 .49 2.22 4.83 4.83 0 0 1-.49 2.21 3.57 3.57 0 0 1-1.4 1.48 4.17 4.17 0 0 1-2.19.53Zm0-1.76a1.36 1.36 0 0 0 .94-.32 1.9 1.9 0 0 0 .57-.88 3.85 3.85 0 0 0 .2-1.27 3.91 3.91 0 0 0-.2-1.28 2 2 0 0 0-.57-.88 1.37 1.37 0 0 0-.94-.33 1.44 1.44 0 0 0-1 .33 2.06 2.06 0 0 0-.58.88 3.91 3.91 0 0 0-.19 1.28 3.85 3.85 0 0 0 .19 1.27 2 2 0 0 0 .58.88 1.43 1.43 0 0 0 1.01.32ZM494.61 88.15V80h2.2v1.4h.08a2.15 2.15 0 0 1 .75-1.16 2 2 0 0 1 1.22-.39h.36l.35.06v2a2.57 2.57 0 0 0-.44-.09 5.13 5.13 0 0 0-.52 0 1.86 1.86 0 0 0-.89.22 1.56 1.56 0 0 0-.62.6 1.69 1.69 0 0 0-.22.88v4.63ZM500.74 88.15V77.24H503v10.91Zm2.05-2.35v-2.73h.33l2.62-3.1h2.6l-3.52 4.11h-.53Zm3.06 2.35-2.41-3.56L505 83l3.55 5.17Z" style="fill:#fff"/></g><g><path d="M332.82 39.06v10.18h-1.24V39.06ZM336.3 44.65v4.59h-1.18V41.6h1.14v1.2h.1a2.23 2.23 0 0 1 .81-.94 2.54 2.54 0 0 1 1.41-.36 2.82 2.82 0 0 1 1.36.32 2.2 2.2 0 0 1 .91 1 3.68 3.68 0 0 1 .32 1.62v4.85H340v-4.82a2 2 0 0 0-.47-1.41 1.68 1.68 0 0 0-1.28-.5 2.09 2.09 0 0 0-1 .24 1.75 1.75 0 0 0-.69.71 2.34 2.34 0 0 0-.26 1.14ZM346.64 41.6v1h-4v-1Zm-2.81-1.83H345v7.28a1.56 1.56 0 0 0 .14.74.71.71 0 0 0 .38.33 1.36 1.36 0 0 0 .49.08 1.47 1.47 0 0 0 .32 0h.2l.24 1.05-.34.09a2.61 2.61 0 0 1-.54.05 2.25 2.25 0 0 1-1-.22 1.84 1.84 0 0 1-.79-.65 1.9 1.9 0 0 1-.31-1.1ZM351.53 49.4a3.51 3.51 0 0 1-1.9-.49 3.33 3.33 0 0 1-1.23-1.37 4.63 4.63 0 0 1-.43-2.06 4.7 4.7 0 0 1 .43-2.07 3.37 3.37 0 0 1 1.2-1.4 3.22 3.22 0 0 1 1.81-.51 3.7 3.7 0 0 1 1.18.2 2.87 2.87 0 0 1 1.06.65 3 3 0 0 1 .76 1.17 5 5 0 0 1 .28 1.8v.5h-5.88v-1h4.69a2.53 2.53 0 0 0-.26-1.15 2 2 0 0 0-.72-.8 2.3 2.3 0 0 0-2.32 0 2.26 2.26 0 0 0-.78.9 2.53 2.53 0 0 0-.28 1.18v.68a3.22 3.22 0 0 0 .3 1.46 2.07 2.07 0 0 0 .84.91 2.44 2.44 0 0 0 1.25.31 2.47 2.47 0 0 0 .84-.13 1.94 1.94 0 0 0 .65-.39 1.82 1.82 0 0 0 .42-.67l1.13.32a2.54 2.54 0 0 1-.6 1 2.89 2.89 0 0 1-1 .68 3.88 3.88 0 0 1-1.44.28ZM356.48 49.24V41.6h1.14v1.16h.07a1.84 1.84 0 0 1 .76-.92 2.19 2.19 0 0 1 1.23-.36h.62v1.2l-.27-.05a3.19 3.19 0 0 0-.45 0 2 2 0 0 0-1 .23 1.62 1.62 0 0 0-.68.64 1.65 1.65 0 0 0-.26.92v4.83ZM362.86 44.65v4.59h-1.17V41.6h1.14v1.2h.09a2.26 2.26 0 0 1 .82-.94 2.52 2.52 0 0 1 1.41-.36 2.82 2.82 0 0 1 1.36.32 2.13 2.13 0 0 1 .9 1 3.54 3.54 0 0 1 .33 1.62v4.85h-1.18v-4.82a2 2 0 0 0-.46-1.41 1.7 1.7 0 0 0-1.29-.5 2.08 2.08 0 0 0-1 .24 1.75 1.75 0 0 0-.69.71 2.34 2.34 0 0 0-.26 1.14ZM372.13 49.42a3 3 0 0 1-1.32-.28 2.28 2.28 0 0 1-.94-.8 2.25 2.25 0 0 1-.34-1.27 1.87 1.87 0 0 1 .26-1.06 1.8 1.8 0 0 1 .69-.65 3.81 3.81 0 0 1 .95-.35c.35-.08.71-.14 1.06-.19l1.13-.13a1.9 1.9 0 0 0 .64-.16.43.43 0 0 0 .2-.4 1.58 1.58 0 0 0-.4-1.14 1.6 1.6 0 0 0-1.21-.41 2.07 2.07 0 0 0-2 1.15l-1.11-.4a2.62 2.62 0 0 1 .79-1.08 3 3 0 0 1 1.1-.55 4.23 4.23 0 0 1 2-.07 2.8 2.8 0 0 1 .93.36 2 2 0 0 1 .74.81 3 3 0 0 1 .3 1.45v5h-1.17v-1h-.06a2 2 0 0 1-.4.54 2.16 2.16 0 0 1-.74.48 2.89 2.89 0 0 1-1.1.15Zm.18-1.06a2.39 2.39 0 0 0 1.18-.27 1.82 1.82 0 0 0 .72-.71 1.72 1.72 0 0 0 .25-.9V45.4a.71.71 0 0 1-.33.16 5.44 5.44 0 0 1-.57.13l-.64.09-.49.06a4.4 4.4 0 0 0-.85.19 1.51 1.51 0 0 0-.64.39 1 1 0 0 0-.24.71 1 1 0 0 0 .45.92 2 2 0 0 0 1.16.31ZM379 39.06v10.18h-1.17V39.06Z" style="fill:#fff"/></g><path style="fill:none;stroke:#fff;stroke-miterlimit:10;stroke-width:0.970269631647461px;stroke-dasharray:2.6718966960906982" d="M390.95 74.44 79.4 74.44"/><rect x="52.18" y="508.12" width="392.23" height="150.14" rx="10.94" style="fill:#bcd756"/><path d="M444.41 582.56v-63.5a10.94 10.94 0 0 0-10.94-10.94H63.12a10.94 10.94 0 0 0-10.94 10.94v63.32" style="fill:#ed4f9b"/><path d="M418.28 508.12h108.13a10 10 0 0 1 10 10v130.14a10 10 0 0 1-10 10l-108.13-.06" style="fill:#424241"/><path d="M135.61 634.22h-27.09a7.88 7.88 0 0 1-.12-15.75h.09a1 1 0 0 0 1-1 10.28 10.28 0 0 1 19.91-3.61 5.68 5.68 0 0 1 7.58 4.72 7.9 7.9 0 0 1 6.54 7.76 7.89 7.89 0 0 1-7.87 7.88ZM190.47 634.22h-27.08a7.88 7.88 0 0 1-.12-15.75h.09a1 1 0 0 0 1-1 10.28 10.28 0 0 1 19.91-3.61 5.68 5.68 0 0 1 7.58 4.72 7.9 7.9 0 0 1 6.54 7.76 7.89 7.89 0 0 1-7.88 7.88ZM245.34 634.22h-27.08a7.88 7.88 0 0 1-.12-15.75h.09a1 1 0 0 0 1-1 10.28 10.28 0 0 1 19.91-3.61 5.68 5.68 0 0 1 7.58 4.72 7.88 7.88 0 0 1-1.34 15.64ZM300.13 634.22h-27.08a7.88 7.88 0 0 1-.12-15.75h.07a1 1 0 0 0 1-1 10.28 10.28 0 0 1 19.91-3.61 5.68 5.68 0 0 1 7.58 4.72 7.88 7.88 0 0 1-1.34 15.64ZM273 620.75" style="fill:#fff"/><g><path d="M122.06 547.86a1.92 1.92 0 0 0-1.92 1.92v2.73H124v-2.73a1.92 1.92 0 0 0-1.94-1.92Z" style="fill:#fff"/><path d="M141.25 551.71a7.8 7.8 0 0 0-4.31-2.28 5.68 5.68 0 0 0-7.58-4.72 10.3 10.3 0 0 0-9.63-6.67 10.28 10.28 0 0 0-10.28 10.28 1 1 0 0 1-1 1h-.09a7.88 7.88 0 0 0 .12 15.75h27.09a7.89 7.89 0 0 0 7.87-7.88 7.81 7.81 0 0 0-2.19-5.48Zm-15.68 7.81h-6.95a1.3 1.3 0 0 1-1.3-1.3l-.07-5.71h1.5v-2.73a3.32 3.32 0 1 1 6.63 0v2.73h1.43l.07 5.71a1.31 1.31 0 0 1-1.31 1.3Z" style="fill:#fff"/></g><g><path d="M176.93 546.49a1.93 1.93 0 0 0-1.92 1.93v2.73h3.84v-2.73a1.93 1.93 0 0 0-1.92-1.93Z" style="fill:#fff"/><path d="M196.12 550.34a7.72 7.72 0 0 0-4.31-2.27 5.7 5.7 0 0 0-7.58-4.73 10.44 10.44 0 0 0-3.15-4.37 10.28 10.28 0 0 0-16.76 8 1 1 0 0 1-1 1h-.09a7.88 7.88 0 0 0 .12 15.75h27.08a7.87 7.87 0 0 0 5.65-13.36Zm-15.68 7.82h-6.95a1.31 1.31 0 0 1-1.3-1.31l-.07-5.7h1.5v-2.73a3.32 3.32 0 1 1 6.63 0v2.73h1.43l.07 5.7a1.31 1.31 0 0 1-1.31 1.31Z" style="fill:#fff"/></g><g><path d="M231.8 546.49a1.93 1.93 0 0 0-1.92 1.93v2.73h3.84v-2.73a1.93 1.93 0 0 0-1.92-1.93Z" style="fill:#fff"/><path d="M251 550.34a7.76 7.76 0 0 0-4.31-2.27 5.7 5.7 0 0 0-7.58-4.73A10.44 10.44 0 0 0 236 539a10.28 10.28 0 0 0-16.76 8 1 1 0 0 1-1 1h-.09a7.88 7.88 0 0 0 .12 15.75h27.08a7.87 7.87 0 0 0 5.65-13.41Zm-15.68 7.82h-6.95a1.31 1.31 0 0 1-1.3-1.31l-.07-5.7h1.49v-2.73a3.32 3.32 0 1 1 6.64 0v2.73h1.43l.07 5.7a1.31 1.31 0 0 1-1.32 1.31Z" style="fill:#fff"/></g><g><path d="M286.59 546.49a1.93 1.93 0 0 0-1.92 1.93v2.73h3.84v-2.73a1.93 1.93 0 0 0-1.92-1.93Z" style="fill:#fff"/><path d="M305.78 550.34a7.76 7.76 0 0 0-4.31-2.27 5.7 5.7 0 0 0-7.58-4.73 10.44 10.44 0 0 0-3.15-4.37A10.28 10.28 0 0 0 274 547a1 1 0 0 1-1 1h-.09a7.88 7.88 0 0 0 .12 15.75h27.08a7.87 7.87 0 0 0 5.65-13.36Zm-15.68 7.82h-7a1.31 1.31 0 0 1-1.31-1.31l-.06-5.7h1.49v-2.73a3.32 3.32 0 0 1 6.64 0v2.73h1.43l.07 5.7a1.31 1.31 0 0 1-1.26 1.31Z" style="fill:#fff"/></g><g><path d="M450 578.27v-10.9h4.3a4.74 4.74 0 0 1 2.12.43 3.1 3.1 0 0 1 1.33 1.25 3.66 3.66 0 0 1 .46 1.88 3.6 3.6 0 0 1-.46 1.87 3.1 3.1 0 0 1-1.36 1.19 5 5 0 0 1-2.14.42h-2.89v-1.86h2.51a2.91 2.91 0 0 0 1.1-.18 1.3 1.3 0 0 0 .65-.54 1.67 1.67 0 0 0 .22-.9 1.77 1.77 0 0 0-.22-.92 1.29 1.29 0 0 0-.65-.56 2.75 2.75 0 0 0-1.11-.2h-1.55v9Zm5.89-5 2.71 5H456l-2.66-5ZM463.32 578.43a4.07 4.07 0 0 1-2.14-.53 3.51 3.51 0 0 1-1.4-1.48 5.23 5.23 0 0 1 0-4.42 3.51 3.51 0 0 1 1.4-1.48 4.59 4.59 0 0 1 4.28 0 3.51 3.51 0 0 1 1.4 1.48 5.23 5.23 0 0 1 0 4.42 3.51 3.51 0 0 1-1.4 1.48 4.07 4.07 0 0 1-2.14.53Zm0-1.75a1.37 1.37 0 0 0 .94-.33 2 2 0 0 0 .58-.88 3.85 3.85 0 0 0 .19-1.27 3.81 3.81 0 0 0-.19-1.27 2 2 0 0 0-.58-.89 1.36 1.36 0 0 0-.94-.32 1.43 1.43 0 0 0-1 .32 2 2 0 0 0-.58.89 3.81 3.81 0 0 0-.19 1.27 3.85 3.85 0 0 0 .19 1.27 2 2 0 0 0 .58.88 1.44 1.44 0 0 0 1.01.33ZM475.63 572.43l-2.07.12a1.13 1.13 0 0 0-.23-.48 1.37 1.37 0 0 0-.46-.35 1.75 1.75 0 0 0-.68-.13 1.66 1.66 0 0 0-.89.23.65.65 0 0 0-.13 1.08 2 2 0 0 0 .81.32l1.48.3a3.78 3.78 0 0 1 1.78.79 1.85 1.85 0 0 1 .58 1.43 2.26 2.26 0 0 1-.47 1.41 3.11 3.11 0 0 1-1.29 1 5 5 0 0 1-1.88.33 4.37 4.37 0 0 1-2.59-.68 2.59 2.59 0 0 1-1.12-1.85l2.23-.11a1.13 1.13 0 0 0 .49.75 2.06 2.06 0 0 0 1.95 0 .73.73 0 0 0 .38-.6.65.65 0 0 0-.27-.51 1.91 1.91 0 0 0-.78-.31l-1.42-.28a3.4 3.4 0 0 1-1.78-.83 2.06 2.06 0 0 1-.59-1.51 2.25 2.25 0 0 1 .43-1.36 2.78 2.78 0 0 1 1.21-.88 5.09 5.09 0 0 1 1.83-.3 4 4 0 0 1 2.44.65 2.49 2.49 0 0 1 1.04 1.77ZM481 578.43a4.38 4.38 0 0 1-2.17-.51 3.52 3.52 0 0 1-1.4-1.46 5.32 5.32 0 0 1 0-4.46 3.61 3.61 0 0 1 1.39-1.48 3.94 3.94 0 0 1 2.09-.53 4.39 4.39 0 0 1 1.51.25 3.36 3.36 0 0 1 2 2.08 5 5 0 0 1 .3 1.82v.62h-6.91v-1.4h4.77a1.75 1.75 0 0 0-.21-.87 1.52 1.52 0 0 0-.59-.59 1.66 1.66 0 0 0-.87-.22 1.72 1.72 0 0 0-.91.24 1.57 1.57 0 0 0-.62.63 1.78 1.78 0 0 0-.23.88v1.34a2.32 2.32 0 0 0 .22 1.05 1.68 1.68 0 0 0 .64.68 2 2 0 0 0 1 .24 2.17 2.17 0 0 0 .69-.11 1.38 1.38 0 0 0 .88-.84l2.1.14a2.93 2.93 0 0 1-.65 1.32 3.34 3.34 0 0 1-1.27.87 4.73 4.73 0 0 1-1.76.31ZM490.57 570.09v1.71h-4.93v-1.71Zm-3.81-2H489v7.63a1 1 0 0 0 .1.49.53.53 0 0 0 .27.24 1 1 0 0 0 .4.07 1.73 1.73 0 0 0 .32 0h.24l.36 1.69a4.89 4.89 0 0 1-.48.13 4.82 4.82 0 0 1-.75.09 3.58 3.58 0 0 1-1.44-.22 2 2 0 0 1-.95-.78 2.39 2.39 0 0 1-.34-1.33ZM496.4 570.09v1.71h-4.93v-1.71Zm-3.81-2h2.27v7.63a1.1 1.1 0 0 0 .09.49.62.62 0 0 0 .27.24 1 1 0 0 0 .41.07h.56l.36 1.69-.48.13a4.82 4.82 0 0 1-.75.09 3.58 3.58 0 0 1-1.44-.22 2 2 0 0 1-.95-.78 2.39 2.39 0 0 1-.34-1.33ZM500.21 578.43a3.27 3.27 0 0 1-1.4-.28 2.12 2.12 0 0 1-1-.81 2.38 2.38 0 0 1-.36-1.35 2.36 2.36 0 0 1 .25-1.15 2 2 0 0 1 .68-.74 3.41 3.41 0 0 1 1-.43 8.1 8.1 0 0 1 1.15-.2l1.15-.14a1.66 1.66 0 0 0 .64-.2.45.45 0 0 0 .2-.4 1 1 0 0 0-.32-.78 1.29 1.29 0 0 0-.9-.28 1.57 1.57 0 0 0-1 .27 1.21 1.21 0 0 0-.48.67l-2.1-.17a2.79 2.79 0 0 1 .63-1.29 3.06 3.06 0 0 1 1.21-.84 4.56 4.56 0 0 1 1.72-.29 5.11 5.11 0 0 1 1.31.16 3.29 3.29 0 0 1 1.11.49 2.36 2.36 0 0 1 .77.86 2.61 2.61 0 0 1 .28 1.26v5.51h-2.15v-1.13h-.06a2.16 2.16 0 0 1-.53.67 2.29 2.29 0 0 1-.79.46 3.49 3.49 0 0 1-1.01.13Zm.65-1.57a1.79 1.79 0 0 0 .88-.2 1.43 1.43 0 0 0 .6-.54 1.36 1.36 0 0 0 .22-.77v-.87a1.13 1.13 0 0 1-.29.13l-.41.1-.46.08-.42.06a3.15 3.15 0 0 0-.69.18 1.23 1.23 0 0 0-.47.35.84.84 0 0 0-.16.53.81.81 0 0 0 .34.71 1.43 1.43 0 0 0 .86.24ZM466.2 589.18h-2.33a2.22 2.22 0 0 0-.26-.8 2 2 0 0 0-.51-.61 2.3 2.3 0 0 0-.71-.38 2.73 2.73 0 0 0-.87-.13 2.66 2.66 0 0 0-1.47.41 2.73 2.73 0 0 0-1 1.22 4.83 4.83 0 0 0-.34 1.93 4.92 4.92 0 0 0 .34 2 2.69 2.69 0 0 0 1 1.2 2.65 2.65 0 0 0 1.46.4 3 3 0 0 0 .86-.12 2.11 2.11 0 0 0 .7-.36 2.06 2.06 0 0 0 .52-.58 2.27 2.27 0 0 0 .28-.77h2.33a4.16 4.16 0 0 1-.45 1.44 4.1 4.1 0 0 1-1 1.24 4.33 4.33 0 0 1-1.44.87 5.26 5.26 0 0 1-1.88.31 5.17 5.17 0 0 1-2.61-.66 4.64 4.64 0 0 1-1.81-1.91 7.26 7.26 0 0 1 0-6.07 4.73 4.73 0 0 1 1.82-1.91 5.21 5.21 0 0 1 2.59-.65 5.55 5.55 0 0 1 1.76.26 4.56 4.56 0 0 1 1.44.78 4.14 4.14 0 0 1 1 1.24 4.65 4.65 0 0 1 .58 1.65ZM470.09 585.37v10.9h-2.27v-10.9ZM475.6 596.43a4.11 4.11 0 0 1-2.15-.53 3.49 3.49 0 0 1-1.39-1.48 5.23 5.23 0 0 1 0-4.42 3.49 3.49 0 0 1 1.39-1.48 4.61 4.61 0 0 1 4.29 0 3.49 3.49 0 0 1 1.39 1.48 5.23 5.23 0 0 1 0 4.42 3.49 3.49 0 0 1-1.39 1.48 4.1 4.1 0 0 1-2.14.53Zm0-1.75a1.39 1.39 0 0 0 .95-.33 2 2 0 0 0 .57-.88 3.85 3.85 0 0 0 .2-1.27 3.8 3.8 0 0 0-.2-1.27 2 2 0 0 0-.57-.89 1.38 1.38 0 0 0-.95-.32 1.42 1.42 0 0 0-1 .32 2 2 0 0 0-.58.89 3.8 3.8 0 0 0-.2 1.27 3.85 3.85 0 0 0 .2 1.27 1.92 1.92 0 0 0 .58.88 1.43 1.43 0 0 0 1 .33ZM486.35 592.79v-4.7h2.27v8.18h-2.18v-1.48h-.09a2.4 2.4 0 0 1-.91 1.15 2.66 2.66 0 0 1-1.57.44 2.76 2.76 0 0 1-1.44-.37 2.49 2.49 0 0 1-1-1.06 3.65 3.65 0 0 1-.36-1.65v-5.21h2.27v4.81a1.71 1.71 0 0 0 .39 1.14 1.33 1.33 0 0 0 1 .42 1.6 1.6 0 0 0 .77-.19 1.39 1.39 0 0 0 .57-.56 1.74 1.74 0 0 0 .28-.92ZM493.44 596.41a3 3 0 0 1-1.68-.49 3.24 3.24 0 0 1-1.19-1.42 5.29 5.29 0 0 1-.44-2.31 5.42 5.42 0 0 1 .45-2.34 3.27 3.27 0 0 1 1.2-1.4 3.12 3.12 0 0 1 1.66-.46 2.48 2.48 0 0 1 1.15.23 2.25 2.25 0 0 1 .74.57 3.12 3.12 0 0 1 .44.68h.07v-4.1h2.26v10.9h-2.24V595h-.09a3.08 3.08 0 0 1-.45.68 2.51 2.51 0 0 1-.75.55 2.74 2.74 0 0 1-1.13.18Zm.72-1.81a1.44 1.44 0 0 0 .93-.3 1.88 1.88 0 0 0 .59-.84 3.59 3.59 0 0 0 .2-1.28 3.53 3.53 0 0 0-.2-1.27 1.89 1.89 0 0 0-.58-.83 1.55 1.55 0 0 0-.94-.29 1.49 1.49 0 0 0-.94.3 1.87 1.87 0 0 0-.58.85 3.62 3.62 0 0 0-.2 1.24 3.7 3.7 0 0 0 .2 1.26 1.92 1.92 0 0 0 .58.85 1.44 1.44 0 0 0 .94.31ZM456.2 603.37v10.9h-2l-4.75-6.86h-.08v6.86h-2.3v-10.9h2l4.71 6.86h.1v-6.86ZM461.79 614.43a4.35 4.35 0 0 1-2.17-.51 3.46 3.46 0 0 1-1.4-1.46 5.32 5.32 0 0 1 0-4.46 3.65 3.65 0 0 1 1.38-1.48 4 4 0 0 1 2.1-.53 4.39 4.39 0 0 1 1.51.25 3.4 3.4 0 0 1 1.22.78 3.44 3.44 0 0 1 .82 1.3 5 5 0 0 1 .29 1.82v.62h-6.9v-1.4h4.77a1.66 1.66 0 0 0-.22-.87 1.5 1.5 0 0 0-.58-.59 1.66 1.66 0 0 0-.87-.22 1.75 1.75 0 0 0-.92.24 1.7 1.7 0 0 0-.62.63 1.89 1.89 0 0 0-.23.88v1.34a2.32 2.32 0 0 0 .23 1.05 1.62 1.62 0 0 0 .64.68 2 2 0 0 0 1 .24 2.17 2.17 0 0 0 .69-.11 1.38 1.38 0 0 0 .88-.84l2.1.14a3 3 0 0 1-.66 1.32 3.3 3.3 0 0 1-1.26.87 4.76 4.76 0 0 1-1.8.31ZM471.38 606.09v1.71h-4.93v-1.71Zm-3.81-2h2.27v7.63a1.1 1.1 0 0 0 .09.49.62.62 0 0 0 .27.24 1 1 0 0 0 .4.07 1.66 1.66 0 0 0 .32 0h.25l.36 1.69-.48.13a4.82 4.82 0 0 1-.75.09 3.58 3.58 0 0 1-1.44-.22 2.06 2.06 0 0 1-1-.78 2.39 2.39 0 0 1-.33-1.33ZM474.47 614.27l-2.23-8.18h2.3l1.26 5.5h.08l1.32-5.5h2.25l1.34 5.47h.07l1.25-5.47h2.29l-2.22 8.18h-2.4l-1.41-5.14h-.1l-1.41 5.14ZM489.1 614.43a4.13 4.13 0 0 1-2.15-.53 3.55 3.55 0 0 1-1.39-1.48 5.23 5.23 0 0 1 0-4.42 3.55 3.55 0 0 1 1.39-1.48 4.13 4.13 0 0 1 2.15-.53 4.07 4.07 0 0 1 2.14.53 3.51 3.51 0 0 1 1.4 1.48 5.23 5.23 0 0 1 0 4.42 3.51 3.51 0 0 1-1.4 1.48 4.07 4.07 0 0 1-2.14.53Zm0-1.75a1.37 1.37 0 0 0 .94-.33 1.9 1.9 0 0 0 .57-.88 3.85 3.85 0 0 0 .2-1.27 3.8 3.8 0 0 0-.2-1.27 1.93 1.93 0 0 0-.57-.89 1.36 1.36 0 0 0-.94-.32 1.43 1.43 0 0 0-1 .32 2 2 0 0 0-.58.89 3.81 3.81 0 0 0-.19 1.27 3.85 3.85 0 0 0 .19 1.27 2 2 0 0 0 .58.88 1.44 1.44 0 0 0 1.01.33ZM494.61 614.27v-8.18h2.2v1.43h.08a2.12 2.12 0 0 1 .75-1.15 2 2 0 0 1 1.22-.39 2.3 2.3 0 0 1 .36 0h.35v2l-.44-.09h-.52a1.86 1.86 0 0 0-.89.21 1.62 1.62 0 0 0-.62.6 1.73 1.73 0 0 0-.22.89v4.62ZM500.74 614.27v-10.9H503v10.9Zm2.05-2.35v-2.72h.33l2.62-3.11h2.6l-3.52 4.11h-.53Zm3.06 2.35-2.41-3.56 1.52-1.6 3.55 5.16Z" style="fill:#fff"/></g><g><path d="M337.15 619.56a1.55 1.55 0 0 0-.72-1.17 2.8 2.8 0 0 0-1.56-.42 2.91 2.91 0 0 0-1.19.22 1.82 1.82 0 0 0-.78.6 1.39 1.39 0 0 0-.28.87 1.25 1.25 0 0 0 .19.7 1.8 1.8 0 0 0 .51.48 3 3 0 0 0 .65.31c.22.08.43.15.62.2l1 .28a7.57 7.57 0 0 1 .89.29 4 4 0 0 1 .94.49 2.73 2.73 0 0 1 .74.81 2.28 2.28 0 0 1 .29 1.21 2.72 2.72 0 0 1-.42 1.49 2.94 2.94 0 0 1-1.23 1.08 5.3 5.3 0 0 1-3.89 0 2.94 2.94 0 0 1-1.25-1 2.82 2.82 0 0 1-.51-1.47h1.27a1.52 1.52 0 0 0 .39.95 2 2 0 0 0 .87.56 3.39 3.39 0 0 0 1.13.18 3.33 3.33 0 0 0 1.26-.23 2.07 2.07 0 0 0 .89-.65 1.5 1.5 0 0 0 .33-1 1.17 1.17 0 0 0-.28-.82 2 2 0 0 0-.75-.52 8.35 8.35 0 0 0-1-.35l-1.25-.36a4.69 4.69 0 0 1-1.89-1 2.14 2.14 0 0 1-.69-1.66 2.49 2.49 0 0 1 .46-1.5 3.17 3.17 0 0 1 1.25-1 4.24 4.24 0 0 1 1.77-.36 4.12 4.12 0 0 1 1.75.36 3 3 0 0 1 1.21.95 2.45 2.45 0 0 1 .48 1.38ZM341.53 622.6v4.6h-1.18V617h1.18v3.74h.1a2.15 2.15 0 0 1 .8-.94 2.64 2.64 0 0 1 1.44-.35 2.86 2.86 0 0 1 1.37.31 2.1 2.1 0 0 1 .91 1 3.54 3.54 0 0 1 .33 1.62v4.86h-1.17v-4.78a2 2 0 0 0-.47-1.41 1.72 1.72 0 0 0-1.3-.5 2.11 2.11 0 0 0-1 .25 1.73 1.73 0 0 0-.71.71 2.22 2.22 0 0 0-.3 1.09ZM350.87 627.37a3.1 3.1 0 0 1-1.31-.27 2.23 2.23 0 0 1-.94-.8 2.18 2.18 0 0 1-.35-1.27 1.93 1.93 0 0 1 .26-1.07 1.77 1.77 0 0 1 .69-.64 3.65 3.65 0 0 1 1-.35c.34-.08.7-.14 1.05-.19l1.13-.14a1.69 1.69 0 0 0 .64-.16.42.42 0 0 0 .2-.4 1.55 1.55 0 0 0-.4-1.15 1.64 1.64 0 0 0-1.21-.41 2.16 2.16 0 0 0-1.32.37 2.2 2.2 0 0 0-.67.79l-1.11-.4a2.75 2.75 0 0 1 .79-1.09 3 3 0 0 1 1.1-.54 4.34 4.34 0 0 1 1.17-.16 4.74 4.74 0 0 1 .85.09 2.58 2.58 0 0 1 .93.35 2.11 2.11 0 0 1 .75.81 3.14 3.14 0 0 1 .29 1.45v5h-1.21v-1h-.06a1.94 1.94 0 0 1-.4.53 2.32 2.32 0 0 1-.74.49 2.9 2.9 0 0 1-1.13.16Zm.18-1a2.37 2.37 0 0 0 1.18-.27 1.82 1.82 0 0 0 .72-.71 1.76 1.76 0 0 0 .25-.91v-1.07a.71.71 0 0 1-.33.16 3.53 3.53 0 0 1-.57.12l-.63.09-.5.07a3.77 3.77 0 0 0-.85.19 1.47 1.47 0 0 0-.64.39 1 1 0 0 0-.24.71 1 1 0 0 0 .46.92 2 2 0 0 0 1.15.26ZM356.52 627.2v-7.64h1.13v1.15h.08a1.88 1.88 0 0 1 .76-.92 2.26 2.26 0 0 1 1.23-.35h.62v1.19h-.27a2.15 2.15 0 0 0-.45 0 2.13 2.13 0 0 0-1 .23 1.75 1.75 0 0 0-.68.64 1.7 1.7 0 0 0-.26.92v4.84ZM364.69 627.35a3.62 3.62 0 0 1-1.9-.48 3.3 3.3 0 0 1-1.23-1.38 4.69 4.69 0 0 1-.42-2 4.81 4.81 0 0 1 .42-2.07 3.41 3.41 0 0 1 1.21-1.41 3.28 3.28 0 0 1 1.81-.5 3.64 3.64 0 0 1 1.17.2 3 3 0 0 1 1.06.64 3.13 3.13 0 0 1 .76 1.18 5 5 0 0 1 .29 1.8v.5H362v-1h4.69a2.52 2.52 0 0 0-.25-1.15 2 2 0 0 0-.73-.8 2 2 0 0 0-1.1-.3 2.14 2.14 0 0 0-1.22.35 2.26 2.26 0 0 0-.78.9 2.62 2.62 0 0 0-.27 1.18v.68a3.25 3.25 0 0 0 .3 1.46 2.12 2.12 0 0 0 .84.91 2.4 2.4 0 0 0 1.24.31 2.47 2.47 0 0 0 .84-.13 1.73 1.73 0 0 0 .65-.4 1.87 1.87 0 0 0 .42-.66l1.14.32a2.54 2.54 0 0 1-.6 1 2.91 2.91 0 0 1-1.05.67 3.84 3.84 0 0 1-1.43.18ZM372.53 627.35a3 3 0 0 1-1.69-.48 3.3 3.3 0 0 1-1.14-1.37 5.56 5.56 0 0 1 0-4.19 3.25 3.25 0 0 1 1.15-1.37 3 3 0 0 1 1.7-.48 2.33 2.33 0 0 1 1.18.25 2.22 2.22 0 0 1 .67.55l.36.51h.1V617H376v10.2h-1.1V626h-.14c-.09.14-.21.32-.37.53a2.29 2.29 0 0 1-.68.56 2.5 2.5 0 0 1-1.18.26Zm.16-1.05a1.88 1.88 0 0 0 1.19-.37 2.27 2.27 0 0 0 .74-1 4.21 4.21 0 0 0 .26-1.52 4.28 4.28 0 0 0-.25-1.5 2.21 2.21 0 0 0-.74-1 1.94 1.94 0 0 0-1.2-.36 2 2 0 0 0-1.24.38 2.3 2.3 0 0 0-.74 1 4 4 0 0 0-.25 1.46 4.38 4.38 0 0 0 .25 1.48 2.41 2.41 0 0 0 .75 1 1.93 1.93 0 0 0 1.23.43Z" style="fill:#fff"/></g><g><path d="M334.73 558.16h-3.15V548h3.29a5 5 0 0 1 2.53.6 4.1 4.1 0 0 1 1.62 1.75 6.14 6.14 0 0 1 .56 2.72 6 6 0 0 1-.57 2.73 4 4 0 0 1-1.65 1.76 5.25 5.25 0 0 1-2.63.6Zm-1.91-1.1h1.83a4 4 0 0 0 2.09-.49 3 3 0 0 0 1.24-1.38 5.2 5.2 0 0 0 .41-2.14 5.12 5.12 0 0 0-.41-2.13 3 3 0 0 0-1.2-1.37 3.81 3.81 0 0 0-2-.48h-2ZM344.69 558.32a3.6 3.6 0 0 1-1.9-.49 3.3 3.3 0 0 1-1.23-1.38 4.55 4.55 0 0 1-.43-2.05 4.7 4.7 0 0 1 .43-2.07 3.37 3.37 0 0 1 1.2-1.4 3.22 3.22 0 0 1 1.81-.51 3.7 3.7 0 0 1 1.18.2 3 3 0 0 1 1.06.64 3.13 3.13 0 0 1 .76 1.18 5 5 0 0 1 .28 1.8v.5H342v-1h4.69a2.53 2.53 0 0 0-.26-1.15 1.93 1.93 0 0 0-.72-.8 2 2 0 0 0-1.11-.29 2.1 2.1 0 0 0-1.21.34 2.26 2.26 0 0 0-.78.9 2.53 2.53 0 0 0-.28 1.18v.68a3.25 3.25 0 0 0 .3 1.46 2.12 2.12 0 0 0 .84.91 2.44 2.44 0 0 0 1.25.31 2.47 2.47 0 0 0 .84-.13 1.82 1.82 0 0 0 .65-.4 1.78 1.78 0 0 0 .42-.66l1.13.32a2.54 2.54 0 0 1-.6 1 2.87 2.87 0 0 1-1 .67 3.68 3.68 0 0 1-1.47.24ZM352.52 558.32a3 3 0 0 1-1.68-.49 3.16 3.16 0 0 1-1.14-1.37 5.44 5.44 0 0 1 0-4.19 3.16 3.16 0 0 1 1.14-1.37 3 3 0 0 1 1.7-.48 2.39 2.39 0 0 1 1.19.25 2.06 2.06 0 0 1 .66.55q.24.31.36.51h.1V548H356v10.18h-1.13V557h-.14a5.38 5.38 0 0 1-.37.53 2 2 0 0 1-.68.56 2.43 2.43 0 0 1-1.16.23Zm.16-1.06a1.93 1.93 0 0 0 1.2-.37 2.34 2.34 0 0 0 .74-1 4.21 4.21 0 0 0 .25-1.52 4.07 4.07 0 0 0-.25-1.5 2.19 2.19 0 0 0-.73-1 2 2 0 0 0-1.21-.35 2 2 0 0 0-1.24.38 2.29 2.29 0 0 0-.74 1 4.22 4.22 0 0 0-.24 1.46 4.14 4.14 0 0 0 .25 1.48 2.31 2.31 0 0 0 .74 1 1.93 1.93 0 0 0 1.23.42ZM358.93 549.25a.81.81 0 0 1-.59-.24.75.75 0 0 1-.25-.56.77.77 0 0 1 .25-.56.84.84 0 0 1 .59-.23.86.86 0 0 1 .59.23.76.76 0 0 1 .24.56.74.74 0 0 1-.24.56.82.82 0 0 1-.59.24Zm-.6 8.91v-7.64h1.17v7.64ZM364.75 558.32a3.31 3.31 0 0 1-1.85-.51 3.4 3.4 0 0 1-1.19-1.4 4.69 4.69 0 0 1-.42-2 4.8 4.8 0 0 1 .43-2.06 3.35 3.35 0 0 1 1.21-1.39 3.19 3.19 0 0 1 1.8-.51 3.43 3.43 0 0 1 1.46.3 2.91 2.91 0 0 1 1.06.83 2.72 2.72 0 0 1 .51 1.26h-1.18a1.77 1.77 0 0 0-1.83-1.33 2.06 2.06 0 0 0-1.2.35 2.36 2.36 0 0 0-.8 1 3.7 3.7 0 0 0-.28 1.51 3.85 3.85 0 0 0 .28 1.54 2.34 2.34 0 0 0 .79 1 2.08 2.08 0 0 0 1.21.36 2 2 0 0 0 .83-.16 1.81 1.81 0 0 0 .64-.45 1.75 1.75 0 0 0 .36-.72h1.18a2.78 2.78 0 0 1-.49 1.22 2.87 2.87 0 0 1-1 .85 3.34 3.34 0 0 1-1.52.31ZM371.71 558.34a3.1 3.1 0 0 1-1.31-.28 2.16 2.16 0 0 1-.94-.8 2.26 2.26 0 0 1-.35-1.27 2 2 0 0 1 .26-1.07 1.77 1.77 0 0 1 .69-.64 3.65 3.65 0 0 1 1-.35c.35-.08.7-.14 1.05-.19l1.13-.13a1.8 1.8 0 0 0 .64-.17.41.41 0 0 0 .2-.39 1.56 1.56 0 0 0-.4-1.15 1.64 1.64 0 0 0-1.21-.41 2.16 2.16 0 0 0-1.32.37 2.2 2.2 0 0 0-.67.79l-1.11-.4a2.67 2.67 0 0 1 .8-1.09 2.86 2.86 0 0 1 1.09-.54 4.39 4.39 0 0 1 1.17-.16 4.65 4.65 0 0 1 .85.09 2.78 2.78 0 0 1 .93.35 2.11 2.11 0 0 1 .75.81 3.15 3.15 0 0 1 .29 1.46v5H374v-1a2 2 0 0 1-.4.54 2.49 2.49 0 0 1-.74.48 2.89 2.89 0 0 1-1.15.15Zm.18-1.06a2.37 2.37 0 0 0 1.18-.27 1.92 1.92 0 0 0 .73-.71 1.85 1.85 0 0 0 .24-.91v-1.07a.72.72 0 0 1-.32.16 3.93 3.93 0 0 1-.58.12l-.63.09-.5.07a4.4 4.4 0 0 0-.85.19 1.58 1.58 0 0 0-.64.39 1 1 0 0 0-.24.71 1 1 0 0 0 .46.92 2 2 0 0 0 1.15.31ZM380.68 550.52v1h-3.95v-1Zm-2.8-1.83h1.17V556a1.44 1.44 0 0 0 .15.74.67.67 0 0 0 .38.33 1.83 1.83 0 0 0 .81.06h.19l.24 1.06-.33.09a2.61 2.61 0 0 1-.54 0 2.37 2.37 0 0 1-1-.22 1.91 1.91 0 0 1-.79-.65 1.83 1.83 0 0 1-.31-1.1ZM385.57 558.32a3.65 3.65 0 0 1-1.9-.49 3.21 3.21 0 0 1-1.22-1.38 4.55 4.55 0 0 1-.43-2.05 4.7 4.7 0 0 1 .43-2.07 3.22 3.22 0 0 1 3-1.91 3.64 3.64 0 0 1 1.17.2 2.93 2.93 0 0 1 1.82 1.82 5 5 0 0 1 .29 1.8v.5h-5.89v-1h4.69a2.52 2.52 0 0 0-.25-1.15 1.88 1.88 0 0 0-.73-.8 2 2 0 0 0-1.1-.29 2.08 2.08 0 0 0-1.21.34 2.29 2.29 0 0 0-.79.9 2.65 2.65 0 0 0-.27 1.18v.68a3.25 3.25 0 0 0 .3 1.46 2.12 2.12 0 0 0 .84.91 2.38 2.38 0 0 0 1.24.31 2.47 2.47 0 0 0 .84-.13 1.73 1.73 0 0 0 .65-.4 1.66 1.66 0 0 0 .42-.66l1.14.32a2.54 2.54 0 0 1-.6 1 2.91 2.91 0 0 1-1 .67 3.64 3.64 0 0 1-1.44.24ZM393.41 558.32a3 3 0 0 1-1.68-.49 3.25 3.25 0 0 1-1.15-1.37 5.56 5.56 0 0 1 0-4.19 3.25 3.25 0 0 1 1.15-1.37 3 3 0 0 1 1.7-.48 2.33 2.33 0 0 1 1.18.25 2.22 2.22 0 0 1 .67.55l.36.51h.1V548h1.17v10.18h-1.13V557h-.14c-.09.14-.21.32-.37.53a2.15 2.15 0 0 1-.68.56 2.49 2.49 0 0 1-1.18.23Zm.16-1.06a1.88 1.88 0 0 0 1.19-.37 2.27 2.27 0 0 0 .74-1 4.21 4.21 0 0 0 .26-1.52 4.28 4.28 0 0 0-.25-1.5 2.21 2.21 0 0 0-.74-1 2.22 2.22 0 0 0-2.44 0 2.22 2.22 0 0 0-.74 1 4 4 0 0 0-.25 1.46 4.38 4.38 0 0 0 .25 1.48 2.41 2.41 0 0 0 .75 1 1.93 1.93 0 0 0 1.23.45Z" style="fill:#fff"/></g><path style="fill:none;stroke:#fff;stroke-miterlimit:10;stroke-width:0.970269631647461px;stroke-dasharray:2.6718966960906982" d="M390.95 582.56 79.4 582.56"/></g></g></svg>