<svg xmlns="http://www.w3.org/2000/svg" viewBox="0 0 990.18 227.97"><g id="app-text"><g><rect x="112.28" y=".49" width="765.7" height="227" rx="20" style="fill:none;stroke:#ed4f9b;stroke-miterlimit:10;stroke-width:0.970269631647461px;stroke-dasharray:2.6718966960906982"/><rect x="776.83" y="18.47" width="202.48" height="193.99" rx="10.94" style="fill:#ed4f9b"/><rect x="11.03" y="18.47" width="202.48" height="193.99" rx="10.94" style="fill:#ed4f9b"/><path d="M112.28 18.47H22a10.94 10.94 0 0 0-11 10.94v172.11a10.94 10.94 0 0 0 11 10.94h90.1M878.08 18.47h90.3a10.94 10.94 0 0 1 10.94 10.94v172.11a10.94 10.94 0 0 1-10.94 10.94h-90.13" style="fill:#bcd756"/><rect y="14.82" width="224.2" height="38.03" rx="10" style="fill:#424241"/><path d="M654.44 108.3a3.06 3.06 0 0 0-3.31-2.73H334.54a3.06 3.06 0 0 0-3.31 2.73v50.18a3.06 3.06 0 0 0 3.31 2.73h316.59a3.06 3.06 0 0 0 3.31-2.73Z" style="fill:#424241"/><g><path d="M360.72 131H359a3.52 3.52 0 0 0-.54-1.33 3.62 3.62 0 0 0-.94-1 4.08 4.08 0 0 0-1.22-.6 4.92 4.92 0 0 0-1.39-.2 4.46 4.46 0 0 0-2.39.67 4.66 4.66 0 0 0-1.7 2 8.39 8.39 0 0 0 0 6.38 4.63 4.63 0 0 0 1.7 2 4.37 4.37 0 0 0 2.39.67 4.58 4.58 0 0 0 1.39-.2 4.06 4.06 0 0 0 1.22-.59 3.77 3.77 0 0 0 .94-1 3.66 3.66 0 0 0 .54-1.33h1.76a5.83 5.83 0 0 1-.72 2 5.41 5.41 0 0 1-1.31 1.5 5.55 5.55 0 0 1-1.75.93 6.69 6.69 0 0 1-2.07.32 6.07 6.07 0 0 1-3.31-.91 6.18 6.18 0 0 1-2.28-2.58 10 10 0 0 1 0-8 6 6 0 0 1 5.59-3.49 6.41 6.41 0 0 1 2.07.32A5.52 5.52 0 0 1 360 129a5.81 5.81 0 0 1 .72 2ZM365 126.47V141h-1.67v-14.53ZM368.93 128.28a1.2 1.2 0 0 1-.84-.33 1.08 1.08 0 0 1-.35-.8 1.06 1.06 0 0 1 .35-.8 1.17 1.17 0 0 1 .84-.34 1.14 1.14 0 0 1 .84.34 1 1 0 0 1 .35.8 1 1 0 0 1-.35.8 1.17 1.17 0 0 1-.84.33Zm-.85 12.72v-10.9h1.68V141ZM377.4 141.24a5.08 5.08 0 0 1-2.72-.7 4.63 4.63 0 0 1-1.75-2 6.63 6.63 0 0 1-.62-2.94 6.78 6.78 0 0 1 .62-3 4.81 4.81 0 0 1 1.72-2 4.59 4.59 0 0 1 2.58-.72 5.11 5.11 0 0 1 1.68.28 4.24 4.24 0 0 1 1.51.92 4.49 4.49 0 0 1 1.09 1.68 7.19 7.19 0 0 1 .4 2.57v.71h-8.4v-1.44h6.7a3.52 3.52 0 0 0-.37-1.65 2.87 2.87 0 0 0-1-1.15 3 3 0 0 0-1.58-.41 3 3 0 0 0-1.73.49 3.29 3.29 0 0 0-1.12 1.28 3.78 3.78 0 0 0-.39 1.69v1a4.58 4.58 0 0 0 .43 2.09 3 3 0 0 0 1.2 1.3 3.53 3.53 0 0 0 1.78.44 3.42 3.42 0 0 0 1.19-.19 2.44 2.44 0 0 0 .93-.56 2.57 2.57 0 0 0 .6-.95l1.62.45a3.52 3.52 0 0 1-.86 1.45 4.08 4.08 0 0 1-1.49 1 5.43 5.43 0 0 1-2.02.36ZM386.15 134.45V141h-1.68v-10.9h1.62v1.71h.14a3.16 3.16 0 0 1 1.17-1.34 3.61 3.61 0 0 1 2-.51 4 4 0 0 1 1.94.45 3.08 3.08 0 0 1 1.3 1.37 5.14 5.14 0 0 1 .46 2.3V141h-1.68v-6.82a2.81 2.81 0 0 0-.67-2 2.36 2.36 0 0 0-1.83-.72 2.93 2.93 0 0 0-1.43.34 2.5 2.5 0 0 0-1 1 3.34 3.34 0 0 0-.34 1.65ZM400.92 130.1v1.42h-5.65v-1.42Zm-4-2.61h1.68v10.4a2.13 2.13 0 0 0 .21 1.06 1.06 1.06 0 0 0 .54.47 2.28 2.28 0 0 0 .7.11 2.72 2.72 0 0 0 .45 0l.29-.05.34 1.5a2.92 2.92 0 0 1-.48.14 4.07 4.07 0 0 1-.77.06 3.41 3.41 0 0 1-1.39-.3 2.81 2.81 0 0 1-1.12-.93 2.64 2.64 0 0 1-.45-1.58ZM409.3 141v-14.53h8.78V128h-7v4.91h6.56v1.57h-6.56v4.94h7.13V141ZM422.71 134.45V141H421v-10.9h1.62v1.71h.14a3.16 3.16 0 0 1 1.17-1.34 3.62 3.62 0 0 1 2-.51 4 4 0 0 1 1.94.45 3.12 3.12 0 0 1 1.29 1.37 5 5 0 0 1 .46 2.3V141H428v-6.82a2.86 2.86 0 0 0-.66-2 2.4 2.4 0 0 0-1.84-.72 2.93 2.93 0 0 0-1.43.34 2.5 2.5 0 0 0-1 1 3.34 3.34 0 0 0-.36 1.65ZM437.17 141.24a4.6 4.6 0 0 1-4.35-2.72 6.91 6.91 0 0 1-.59-2.91 6.67 6.67 0 0 1 .61-2.93 4.81 4.81 0 0 1 1.72-2 4.63 4.63 0 0 1 2.58-.72 4.84 4.84 0 0 1 2.08.43 4 4 0 0 1 1.51 1.19 3.71 3.71 0 0 1 .73 1.79h-1.68a2.52 2.52 0 0 0-2.61-1.9 3 3 0 0 0-1.72.5 3.34 3.34 0 0 0-1.14 1.43 5.3 5.3 0 0 0-.41 2.16 5.72 5.72 0 0 0 .4 2.2 3.34 3.34 0 0 0 1.14 1.45 2.9 2.9 0 0 0 1.73.52 3 3 0 0 0 1.19-.22 2.56 2.56 0 0 0 .9-.66 2.47 2.47 0 0 0 .52-1h1.68a3.86 3.86 0 0 1-2.17 3 4.73 4.73 0 0 1-2.12.39ZM443.9 141v-10.9h1.62v1.65h.12a2.5 2.5 0 0 1 1.08-1.31 3.13 3.13 0 0 1 1.76-.51h.88v1.7l-.39-.06a4.26 4.26 0 0 0-.64 0 2.94 2.94 0 0 0-1.41.33 2.46 2.46 0 0 0-1.34 2.23V141ZM452.77 145.07a4.26 4.26 0 0 1-.77-.07 1.93 1.93 0 0 1-.47-.14l.43-1.47a2.54 2.54 0 0 0 1.53 0 2.34 2.34 0 0 0 1.06-1.47l.31-.85-4-11h1.82l3 8.7h.12l3-8.7h1.83L456 142.6a4.54 4.54 0 0 1-.78 1.38 2.9 2.9 0 0 1-1.07.82 3.3 3.3 0 0 1-1.38.27ZM462.84 145.1v-15h1.62v1.73h.2c.12-.18.29-.43.51-.72a3.07 3.07 0 0 1 .95-.8 3.51 3.51 0 0 1 1.69-.35 4.32 4.32 0 0 1 2.43.69 4.58 4.58 0 0 1 1.64 1.95 7.07 7.07 0 0 1 .59 3 7.15 7.15 0 0 1-.59 3 4.72 4.72 0 0 1-1.63 2 4.28 4.28 0 0 1-2.41.69 3.57 3.57 0 0 1-1.69-.35 3.06 3.06 0 0 1-1-.81 8.2 8.2 0 0 1-.52-.75h-.15v5.77Zm1.64-9.54a6 6 0 0 0 .37 2.17 3.19 3.19 0 0 0 1.06 1.47 2.67 2.67 0 0 0 1.7.53 2.76 2.76 0 0 0 1.76-.55 3.48 3.48 0 0 0 1.06-1.51 6.36 6.36 0 0 0 0-4.19 3.22 3.22 0 0 0-1.06-1.47 3.16 3.16 0 0 0-3.49 0 3.15 3.15 0 0 0-1.05 1.44 5.81 5.81 0 0 0-.35 2.11ZM479.77 130.1v1.42h-5.65v-1.42Zm-4-2.61h1.68v10.4a2.13 2.13 0 0 0 .21 1.06 1.06 1.06 0 0 0 .54.47 2.28 2.28 0 0 0 .7.11 2.81 2.81 0 0 0 .45 0l.29-.05.36 1.52a3.26 3.26 0 0 1-.48.14 4.07 4.07 0 0 1-.77.06 3.38 3.38 0 0 1-1.39-.3 2.81 2.81 0 0 1-1.12-.93 2.64 2.64 0 0 1-.45-1.58ZM483.15 128.28a1.17 1.17 0 0 1-.84-.33 1 1 0 0 1-.35-.8 1 1 0 0 1 .35-.8 1.21 1.21 0 0 1 1.68 0 1 1 0 0 1 .35.8 1 1 0 0 1-.35.8 1.17 1.17 0 0 1-.84.33ZM482.3 141v-10.9h1.7V141ZM491.47 141.24a4.63 4.63 0 0 1-4.32-2.67 6.69 6.69 0 0 1-.62-3 6.76 6.76 0 0 1 .62-3 4.58 4.58 0 0 1 4.32-2.68 4.58 4.58 0 0 1 4.32 2.68 6.63 6.63 0 0 1 .63 3 6.55 6.55 0 0 1-.63 3 4.66 4.66 0 0 1-1.73 2 4.72 4.72 0 0 1-2.59.67Zm0-1.51a2.9 2.9 0 0 0 1.85-.57 3.42 3.42 0 0 0 1.07-1.52 5.81 5.81 0 0 0 .35-2 5.91 5.91 0 0 0-.35-2 3.48 3.48 0 0 0-1.07-1.52 3.22 3.22 0 0 0-3.69 0 3.5 3.5 0 0 0-1.08 1.52 5.9 5.9 0 0 0-.34 2 5.81 5.81 0 0 0 .34 2 3.44 3.44 0 0 0 1.08 1.52 2.89 2.89 0 0 0 1.84.57ZM500.65 134.45V141H499v-10.9h1.62v1.71h.14a3.16 3.16 0 0 1 1.17-1.34 3.62 3.62 0 0 1 2-.51 4 4 0 0 1 1.94.45 3.12 3.12 0 0 1 1.29 1.37 5 5 0 0 1 .46 2.3V141h-1.68v-6.82a2.86 2.86 0 0 0-.66-2 2.4 2.4 0 0 0-1.84-.72 2.93 2.93 0 0 0-1.43.34 2.5 2.5 0 0 0-1 1 3.34 3.34 0 0 0-.36 1.65ZM516.53 141v-14.53h1.76v7.21h.17l6.54-7.21h2.3l-6.11 6.53 6.11 8h-2.13l-5.06-6.76-1.82 2.05V141ZM533.12 141.24a5.08 5.08 0 0 1-2.72-.7 4.63 4.63 0 0 1-1.75-2 6.63 6.63 0 0 1-.61-2.94 6.78 6.78 0 0 1 .61-3 4.81 4.81 0 0 1 1.72-2 4.61 4.61 0 0 1 2.63-.6 5.11 5.11 0 0 1 1.68.28 4.28 4.28 0 0 1 1.52.92 4.6 4.6 0 0 1 1.08 1.68 7.18 7.18 0 0 1 .41 2.57v.71h-8.41v-1.44h6.7a3.64 3.64 0 0 0-.36-1.65 2.89 2.89 0 0 0-1-1.15 3.28 3.28 0 0 0-3.31.08 3.37 3.37 0 0 0-1.12 1.28 3.78 3.78 0 0 0-.39 1.69v1a4.58 4.58 0 0 0 .43 2.09 3.09 3.09 0 0 0 1.2 1.3 3.85 3.85 0 0 0 3 .25 2.48 2.48 0 0 0 .92-.56 2.59 2.59 0 0 0 .61-.95l1.62.45a3.64 3.64 0 0 1-.86 1.45 4.16 4.16 0 0 1-1.49 1 5.52 5.52 0 0 1-2.11.24ZM540.93 145.07a4.42 4.42 0 0 1-.76-.06 2 2 0 0 1-.46-.14l.43-1.47a2.51 2.51 0 0 0 1.52 0 2.34 2.34 0 0 0 1.06-1.47l.32-.85-4-11h1.82l3 8.7h.11l3-8.7h1.83l-4.65 12.47a4.52 4.52 0 0 1-.77 1.38 3 3 0 0 1-1.07.82 3.32 3.32 0 0 1-1.38.32ZM556.86 126.47H559l4.94 12.07h.17l4.89-12.07h2.1V141h-1.65v-11h-.14l-4.55 11h-1.59l-4.54-11h-.15v11h-1.64ZM577.62 141.27a4.28 4.28 0 0 1-1.88-.4 3.17 3.17 0 0 1-1.34-1.14 3.24 3.24 0 0 1-.5-1.82 2.87 2.87 0 0 1 .37-1.52 2.65 2.65 0 0 1 1-.92 5.31 5.31 0 0 1 1.37-.5c.49-.11 1-.2 1.5-.27l1.62-.19a2.58 2.58 0 0 0 .91-.23.61.61 0 0 0 .29-.57v-.06a2.23 2.23 0 0 0-.57-1.63 2.33 2.33 0 0 0-1.73-.58 3.05 3.05 0 0 0-1.89.52 3.13 3.13 0 0 0-1 1.12l-1.6-.56a4 4 0 0 1 1.14-1.56 4.37 4.37 0 0 1 1.57-.78 6.44 6.44 0 0 1 1.67-.22 7.14 7.14 0 0 1 1.21.12 4.25 4.25 0 0 1 1.33.51 3 3 0 0 1 1.07 1.16 4.37 4.37 0 0 1 .42 2.07V141H581v-1.48h-.09a2.73 2.73 0 0 1-.57.76 3.19 3.19 0 0 1-1 .69 4.12 4.12 0 0 1-1.72.3Zm.26-1.51a3.37 3.37 0 0 0 1.68-.39 2.73 2.73 0 0 0 1-1 2.61 2.61 0 0 0 .35-1.3v-1.53a1.06 1.06 0 0 1-.47.23 6.79 6.79 0 0 1-.82.18l-.9.12-.71.09a6.41 6.41 0 0 0-1.22.28 2 2 0 0 0-.91.56 1.42 1.42 0 0 0-.34 1 1.49 1.49 0 0 0 .65 1.32 2.89 2.89 0 0 0 1.69.44ZM587.37 134.45V141h-1.68v-10.9h1.62v1.71h.14a3.16 3.16 0 0 1 1.17-1.34 3.61 3.61 0 0 1 2-.51 4 4 0 0 1 1.94.45 3.08 3.08 0 0 1 1.3 1.37 5.14 5.14 0 0 1 .46 2.3V141h-1.68v-6.82a2.81 2.81 0 0 0-.67-2 2.36 2.36 0 0 0-1.83-.72 2.93 2.93 0 0 0-1.43.34 2.5 2.5 0 0 0-1 1 3.34 3.34 0 0 0-.34 1.65ZM600.61 141.27a4.33 4.33 0 0 1-1.89-.4 3.17 3.17 0 0 1-1.34-1.14 3.24 3.24 0 0 1-.5-1.82 2.87 2.87 0 0 1 .37-1.52 2.65 2.65 0 0 1 1-.92 5.31 5.31 0 0 1 1.37-.5c.5-.11 1-.2 1.51-.27l1.61-.19a2.52 2.52 0 0 0 .91-.23.61.61 0 0 0 .29-.57v-.06a2.23 2.23 0 0 0-.57-1.63 2.32 2.32 0 0 0-1.73-.58 3 3 0 0 0-1.88.52 3.07 3.07 0 0 0-1 1.12l-1.59-.56a3.8 3.8 0 0 1 1.14-1.56 4.24 4.24 0 0 1 1.56-.78 6.44 6.44 0 0 1 1.67-.22 7 7 0 0 1 1.21.12 4.25 4.25 0 0 1 1.33.51 3 3 0 0 1 1.07 1.16 4.36 4.36 0 0 1 .43 2.07V141h-1.68v-1.48h-.09a2.88 2.88 0 0 1-.56.76 3.36 3.36 0 0 1-1.06.69 4.06 4.06 0 0 1-1.58.3Zm.25-1.51a3.37 3.37 0 0 0 1.68-.39 2.73 2.73 0 0 0 1-1 2.61 2.61 0 0 0 .35-1.3v-1.53a1.06 1.06 0 0 1-.47.23 6.38 6.38 0 0 1-.82.18l-.9.12-.71.09a6.59 6.59 0 0 0-1.22.28 2 2 0 0 0-.9.56 1.38 1.38 0 0 0-.35 1 1.51 1.51 0 0 0 .65 1.32 2.89 2.89 0 0 0 1.69.44ZM613.08 145.33A6.18 6.18 0 0 1 611 145a4.57 4.57 0 0 1-1.45-.81 4.13 4.13 0 0 1-.92-1.07l1.33-.94c.15.2.35.43.58.69a2.92 2.92 0 0 0 1 .67 3.66 3.66 0 0 0 1.6.29 3.54 3.54 0 0 0 2.18-.64 2.33 2.33 0 0 0 .86-2V139H616c-.13.2-.3.45-.53.74a2.83 2.83 0 0 1-1 .77 3.56 3.56 0 0 1-1.7.34 4.6 4.6 0 0 1-2.37-.62 4.43 4.43 0 0 1-1.65-1.82 6.41 6.41 0 0 1-.61-2.9 6.79 6.79 0 0 1 .59-2.92 4.59 4.59 0 0 1 1.64-1.93 4.32 4.32 0 0 1 2.43-.69 3.56 3.56 0 0 1 1.7.35 3.12 3.12 0 0 1 1 .8c.23.29.4.54.52.72h.17v-1.74h1.62v11.22a3.83 3.83 0 0 1-.63 2.29 3.65 3.65 0 0 1-1.71 1.3 6.41 6.41 0 0 1-2.39.42Zm-.06-6a3 3 0 0 0 1.71-.46 2.85 2.85 0 0 0 1-1.32 5.41 5.41 0 0 0 .37-2.08 5.6 5.6 0 0 0-.36-2.08 3.16 3.16 0 0 0-1-1.41 3.16 3.16 0 0 0-3.49 0 3.24 3.24 0 0 0-1.06 1.44 5.67 5.67 0 0 0-.35 2 5.22 5.22 0 0 0 .36 2 2.83 2.83 0 0 0 2.82 1.85ZM625.44 141.24a5.05 5.05 0 0 1-2.72-.7 4.65 4.65 0 0 1-1.76-2 6.63 6.63 0 0 1-.61-2.94 6.78 6.78 0 0 1 .61-3 4.88 4.88 0 0 1 1.72-2 4.63 4.63 0 0 1 2.58-.72 5.21 5.21 0 0 1 1.69.28 4.24 4.24 0 0 1 1.51.92 4.62 4.62 0 0 1 1.09 1.68 7.19 7.19 0 0 1 .4 2.57v.71h-8.41v-1.44h6.71a3.52 3.52 0 0 0-.37-1.65 2.82 2.82 0 0 0-1-1.15 3.26 3.26 0 0 0-3.3.08 3.29 3.29 0 0 0-1.12 1.28 3.78 3.78 0 0 0-.39 1.69v1a4.58 4.58 0 0 0 .43 2.09 3 3 0 0 0 1.19 1.3 3.57 3.57 0 0 0 1.79.44 3.46 3.46 0 0 0 1.19-.19 2.44 2.44 0 0 0 .93-.56 2.57 2.57 0 0 0 .6-.95l1.62.45a3.52 3.52 0 0 1-.86 1.45 4.16 4.16 0 0 1-1.49 1 5.47 5.47 0 0 1-2.03.36ZM632.51 141v-10.9h1.62v1.65h.11a2.6 2.6 0 0 1 1.08-1.31 3.15 3.15 0 0 1 1.76-.51h.88v1.7l-.38-.06a4.37 4.37 0 0 0-.64 0 3 3 0 0 0-1.42.33 2.53 2.53 0 0 0-1 .91 2.46 2.46 0 0 0-.35 1.32V141Z" style="fill:#fff"/></g><g><path d="M480.5 189h-3.13l4.77-13.82h3.76l4.76 13.82h-3.13l-3.46-10.66H484Zm-.2-5.43h7.4v2.28h-7.4ZM492.33 189v-13.83h5.45a5.52 5.52 0 0 1 2.67.6 4.1 4.1 0 0 1 1.7 1.65 5 5 0 0 1 .58 2.43 4.81 4.81 0 0 1-.6 2.43 4 4 0 0 1-1.71 1.64 5.84 5.84 0 0 1-2.72.59h-3.47v-2.34h3a2.86 2.86 0 0 0 1.39-.3 1.91 1.91 0 0 0 .83-.81 2.6 2.6 0 0 0 .27-1.21 2.53 2.53 0 0 0-.27-1.2 2 2 0 0 0-.83-.81 3.06 3.06 0 0 0-1.4-.28h-2V189ZM507.55 175.17V189h-2.92v-13.83Z" style="fill:#ed4f9b"/></g><g><path d="M480.5 88.71h-3.13l4.77-13.82h3.76l4.76 13.82h-3.13l-3.46-10.66H484Zm-.2-5.43h7.4v2.28h-7.4ZM492.33 88.71V74.89h5.45a5.52 5.52 0 0 1 2.67.6 4.16 4.16 0 0 1 1.7 1.65 5.09 5.09 0 0 1 .58 2.44 4.86 4.86 0 0 1-.6 2.43 4.1 4.1 0 0 1-1.71 1.64 5.84 5.84 0 0 1-2.72.58h-3.47v-2.34h3a3 3 0 0 0 1.39-.29 2 2 0 0 0 .83-.82 2.82 2.82 0 0 0 0-2.41 2 2 0 0 0-.83-.8 3.06 3.06 0 0 0-1.4-.29h-2v11.43ZM507.55 74.89v13.82h-2.92V74.89Z" style="fill:#ed4f9b"/></g><circle cx="741.86" cy="182.15" r="3.75" style="fill:none;stroke:#ed4f9b;stroke-miterlimit:10;stroke-width:0.970269631647461px"/><circle cx="247.3" cy="82.29" r="3.75" style="fill:none;stroke:#ed4f9b;stroke-miterlimit:10;stroke-width:0.970269631647461px"/><path d="M77.38 91.45H50.3a7.88 7.88 0 0 1-.12-15.75h.09a1 1 0 0 0 1-1 10.28 10.28 0 0 1 16.76-8 10.31 10.31 0 0 1 3.15 4.37 5.68 5.68 0 0 1 7.58 4.72 7.88 7.88 0 0 1-1.34 15.64ZM77.38 134.58H50.3a7.87 7.87 0 0 1-.12-15.74h.09a1 1 0 0 0 1-1 10.28 10.28 0 0 1 16.76-8 10.31 10.31 0 0 1 3.15 4.37 5.68 5.68 0 0 1 7.54 4.79 7.87 7.87 0 0 1-1.34 15.63ZM77.38 177.72H50.3a7.87 7.87 0 0 1-.12-15.72h.09a1 1 0 0 0 1-1A10.28 10.28 0 0 1 68 153a10.31 10.31 0 0 1 3.15 4.37 5.68 5.68 0 0 1 7.58 4.72 7.87 7.87 0 0 1-1.34 15.63Zm-27.17-13.46" style="fill:#fff"/><g><path d="M159.68 74.24a1.92 1.92 0 0 0-1.92 1.92v2.73h3.84v-2.73a1.92 1.92 0 0 0-1.92-1.92Z" style="fill:#fff"/><path d="M178.87 78.09a7.84 7.84 0 0 0-4.31-2.28 5.68 5.68 0 0 0-7.56-4.72 10.3 10.3 0 0 0-9.63-6.67 10.28 10.28 0 0 0-10.3 10.28 1 1 0 0 1-1 1H146a7.88 7.88 0 0 0 .12 15.75h27.08a7.9 7.9 0 0 0 7.88-7.88 7.81 7.81 0 0 0-2.21-5.48Zm-15.68 7.81h-6.95a1.3 1.3 0 0 1-1.3-1.31l-.07-5.7h1.49v-2.73a3.32 3.32 0 0 1 6.64 0v2.73h1.43l.07 5.7a1.31 1.31 0 0 1-1.31 1.31Z" style="fill:#fff"/></g><g><path d="M159.68 117.38a1.92 1.92 0 0 0-1.92 1.92v2.7h3.84v-2.7a1.92 1.92 0 0 0-1.92-1.92Z" style="fill:#fff"/><path d="M178.87 121.23a7.84 7.84 0 0 0-4.31-2.28 5.68 5.68 0 0 0-7.58-4.72 10.3 10.3 0 0 0-9.63-6.67 10.28 10.28 0 0 0-10.28 10.28 1 1 0 0 1-1 1H146a7.87 7.87 0 0 0 .12 15.74h27.08a7.89 7.89 0 0 0 7.88-7.87 7.81 7.81 0 0 0-2.21-5.48ZM163.19 129h-6.95a1.3 1.3 0 0 1-1.3-1.31l-.07-5.7h1.49v-2.69a3.32 3.32 0 0 1 6.64 0v2.7h1.43l.07 5.7a1.31 1.31 0 0 1-1.31 1.3Z" style="fill:#fff"/></g><g><path d="M159.68 160.52a1.92 1.92 0 0 0-1.92 1.92v2.73h3.84v-2.73a1.92 1.92 0 0 0-1.92-1.92Z" style="fill:#fff"/><path d="M178.87 164.37a7.84 7.84 0 0 0-4.31-2.28 5.68 5.68 0 0 0-7.58-4.72 10.3 10.3 0 0 0-9.63-6.67 10.28 10.28 0 0 0-10.28 10.3 1 1 0 0 1-1 1H146a7.87 7.87 0 0 0 .12 15.74h27.08a7.89 7.89 0 0 0 7.88-7.87 7.81 7.81 0 0 0-2.21-5.5Zm-15.68 7.81h-6.95a1.3 1.3 0 0 1-1.3-1.31l-.07-5.7h1.49v-2.73a3.32 3.32 0 0 1 6.64 0v2.73h1.43l.07 5.7a1.31 1.31 0 0 1-1.31 1.31Z" style="fill:#fff"/></g><g><path d="M382.83 43.24V27.36h6.26a6.4 6.4 0 0 1 3.08.69 4.74 4.74 0 0 1 1.94 1.9 5.73 5.73 0 0 1 .67 2.79 5.65 5.65 0 0 1-.68 2.79 4.73 4.73 0 0 1-2 1.88 6.66 6.66 0 0 1-3.12.68h-4V35.4h3.45a3.3 3.3 0 0 0 1.6-.34 2.21 2.21 0 0 0 .95-.94 2.92 2.92 0 0 0 .31-1.38 2.87 2.87 0 0 0-.31-1.38 2.19 2.19 0 0 0-.95-.93 3.5 3.5 0 0 0-1.61-.32h-2.27v13.13ZM402.13 43.47a6.29 6.29 0 0 1-3.16-.75 5.15 5.15 0 0 1-2-2.12 7.77 7.77 0 0 1 0-6.49A5.33 5.33 0 0 1 399 32a5.79 5.79 0 0 1 3.05-.78 6.3 6.3 0 0 1 2.19.38 5 5 0 0 1 1.76 1.08 5.16 5.16 0 0 1 1.18 1.89 7.36 7.36 0 0 1 .43 2.65v.91h-10v-2.05h6.94a2.48 2.48 0 0 0-.31-1.26 2.22 2.22 0 0 0-.85-.87 2.76 2.76 0 0 0-2.6 0 2.37 2.37 0 0 0-.9.93 2.63 2.63 0 0 0-.34 1.28v2a3.31 3.31 0 0 0 .33 1.52 2.39 2.39 0 0 0 .94 1 2.83 2.83 0 0 0 1.43.34 3.24 3.24 0 0 0 1-.15 2.2 2.2 0 0 0 .78-.47 2 2 0 0 0 .5-.76l3 .2a4.05 4.05 0 0 1-.95 1.92 4.83 4.83 0 0 1-1.85 1.24 7 7 0 0 1-2.6.47ZM415.17 43.47a6.34 6.34 0 0 1-3.16-.75 5.06 5.06 0 0 1-2-2.12 7.77 7.77 0 0 1 0-6.49A5.24 5.24 0 0 1 412 32a5.81 5.81 0 0 1 3.05-.78 6.31 6.31 0 0 1 2.2.38 5 5 0 0 1 1.75 1.08 5 5 0 0 1 1.19 1.89 7.36 7.36 0 0 1 .43 2.65v.91h-10.04v-2.05h6.95a2.48 2.48 0 0 0-.31-1.26 2.25 2.25 0 0 0-.86-.87 2.45 2.45 0 0 0-1.26-.31 2.51 2.51 0 0 0-1.33.34 2.46 2.46 0 0 0-.91.93 2.62 2.62 0 0 0-.33 1.28v2a3.31 3.31 0 0 0 .33 1.52 2.43 2.43 0 0 0 .93 1 2.87 2.87 0 0 0 1.44.34 3.18 3.18 0 0 0 1-.15 2.16 2.16 0 0 0 .79-.47 2 2 0 0 0 .49-.76l3.06.2a4.14 4.14 0 0 1-.95 1.92 4.79 4.79 0 0 1-1.85 1.21 7 7 0 0 1-2.6.47ZM422.79 43.24V31.33H426v2.08h.13a3.06 3.06 0 0 1 1.09-1.68 2.88 2.88 0 0 1 1.77-.57h.53a3.35 3.35 0 0 1 .51.09v2.93a4.32 4.32 0 0 0-.65-.13 6.9 6.9 0 0 0-.75 0 2.66 2.66 0 0 0-1.3.31 2.35 2.35 0 0 0-.9.87 2.48 2.48 0 0 0-.33 1.29v6.74ZM436.58 43.47a6.31 6.31 0 0 1-3.16-.75 5.06 5.06 0 0 1-2-2.12 7.77 7.77 0 0 1 0-6.49 5.3 5.3 0 0 1 2-2.16 5.81 5.81 0 0 1 3.05-.78 6.31 6.31 0 0 1 2.2.38 5 5 0 0 1 1.78 1.13 5 5 0 0 1 1.19 1.89 7.36 7.36 0 0 1 .43 2.65v.91H432v-2.05h6.95a2.58 2.58 0 0 0-.31-1.26 2.25 2.25 0 0 0-.86-.87 2.47 2.47 0 0 0-1.27-.31 2.5 2.5 0 0 0-1.32.34 2.46 2.46 0 0 0-.91.93 2.62 2.62 0 0 0-.33 1.28v2a3.31 3.31 0 0 0 .33 1.52 2.43 2.43 0 0 0 .93 1 2.87 2.87 0 0 0 1.44.34 3.18 3.18 0 0 0 1-.15 2.16 2.16 0 0 0 .79-.47 2 2 0 0 0 .49-.76l3.06.2a4.14 4.14 0 0 1-1 1.92 4.87 4.87 0 0 1-1.81 1.21 7 7 0 0 1-2.6.47ZM448.59 43.43a4.41 4.41 0 0 1-2.45-.7 4.77 4.77 0 0 1-1.74-2.07 7.84 7.84 0 0 1-.64-3.36 7.79 7.79 0 0 1 .66-3.41 4.78 4.78 0 0 1 1.75-2 4.55 4.55 0 0 1 2.41-.68 3.76 3.76 0 0 1 1.67.34 3.48 3.48 0 0 1 1.09.84 4.74 4.74 0 0 1 .63 1h.1v-6h3.29v15.85h-3.25v-1.91H452a4.12 4.12 0 0 1-.66 1 3.25 3.25 0 0 1-1.09.8 3.82 3.82 0 0 1-1.66.3Zm1.05-2.63a2.07 2.07 0 0 0 1.35-.44 2.77 2.77 0 0 0 .85-1.22 5.26 5.26 0 0 0 .3-1.86 5.11 5.11 0 0 0-.3-1.84 2.6 2.6 0 0 0-.85-1.21 2.12 2.12 0 0 0-1.35-.43 2.19 2.19 0 0 0-1.38.44 2.76 2.76 0 0 0-.84 1.23 5.29 5.29 0 0 0-.29 1.81 5.42 5.42 0 0 0 .29 1.84 2.83 2.83 0 0 0 .85 1.24 2.14 2.14 0 0 0 1.37.44ZM466.06 27.36l3.84 12.06h.1l3.85-12.06h3.72l-5.47 15.88h-4.33l-5.48-15.88ZM479.52 43.24V27.36h6.26a6.4 6.4 0 0 1 3.08.69A4.74 4.74 0 0 1 490.8 30a6.1 6.1 0 0 1 0 5.58 4.71 4.71 0 0 1-2 1.88 6.71 6.71 0 0 1-3.12.68h-4V35.4h3.45a3.3 3.3 0 0 0 1.6-.34 2.21 2.21 0 0 0 .95-.94 2.92 2.92 0 0 0 .31-1.38 2.87 2.87 0 0 0-.31-1.38 2.19 2.19 0 0 0-.95-.93 3.47 3.47 0 0 0-1.61-.32h-2.27v13.13ZM506.93 27.36v15.88H504l-6.91-10H497v10h-3.35V27.36h2.94l6.85 10h.14v-10ZM528 27.36v15.88h-2.9l-6.9-10h-.12v10h-3.36V27.36h3l6.85 10h.14v-10ZM536.17 43.47a6.31 6.31 0 0 1-3.16-.75 5.06 5.06 0 0 1-2-2.12 7.77 7.77 0 0 1 0-6.49A5.24 5.24 0 0 1 533 32a5.81 5.81 0 0 1 3-.78 6.31 6.31 0 0 1 2.2.38 5 5 0 0 1 1.8 1.08 5 5 0 0 1 1.19 1.89 7.36 7.36 0 0 1 .43 2.65v.91h-10.04v-2.05h6.95a2.58 2.58 0 0 0-.31-1.26 2.25 2.25 0 0 0-.86-.87 2.47 2.47 0 0 0-1.27-.31 2.5 2.5 0 0 0-1.32.34 2.46 2.46 0 0 0-.91.93 2.62 2.62 0 0 0-.33 1.28v2a3.31 3.31 0 0 0 .33 1.52 2.43 2.43 0 0 0 .93 1 2.87 2.87 0 0 0 1.44.34 3.18 3.18 0 0 0 1-.15 2.16 2.16 0 0 0 .79-.47 2 2 0 0 0 .49-.76l3.06.2a4.14 4.14 0 0 1-1 1.92 4.87 4.87 0 0 1-1.8 1.21 7 7 0 0 1-2.6.47ZM550.12 31.33v2.48H543v-2.48Zm-5.54-2.85h3.3v11.1a1.54 1.54 0 0 0 .14.71.85.85 0 0 0 .4.35 1.47 1.47 0 0 0 .58.1 2.49 2.49 0 0 0 .47 0l.35-.07.52 2.46-.7.18a6.14 6.14 0 0 1-1.09.13 5.08 5.08 0 0 1-2.09-.32 2.93 2.93 0 0 1-1.39-1.12 3.51 3.51 0 0 1-.49-1.94ZM554.62 43.24l-3.24-11.91h3.34l1.85 8h.1l1.93-8h3.28l2 8h.1l1.81-8h3.34l-3.24 11.91h-3.49l-2.05-7.49h-.14l-2 7.49ZM575.91 43.47a6.12 6.12 0 0 1-3.12-.77 5.26 5.26 0 0 1-2-2.16 7.56 7.56 0 0 1 0-6.44 5.18 5.18 0 0 1 2-2.15A6.63 6.63 0 0 1 579 32a5.2 5.2 0 0 1 2 2.15 7.66 7.66 0 0 1 0 6.44 5.29 5.29 0 0 1-2 2.16 6.06 6.06 0 0 1-3.09.72Zm0-2.56a2.05 2.05 0 0 0 1.37-.47 2.77 2.77 0 0 0 .83-1.28 5.57 5.57 0 0 0 .29-1.85 5.63 5.63 0 0 0-.29-1.86 2.77 2.77 0 0 0-.83-1.28 2 2 0 0 0-1.37-.48 2.06 2.06 0 0 0-1.39.48 2.81 2.81 0 0 0-.85 1.28 5.64 5.64 0 0 0-.28 1.86 5.58 5.58 0 0 0 .28 1.85 2.81 2.81 0 0 0 .85 1.28 2.11 2.11 0 0 0 1.41.47ZM583.93 43.24V31.33h3.2v2.08h.12a3.13 3.13 0 0 1 1.1-1.68 2.87 2.87 0 0 1 1.76-.57h.54a3 3 0 0 1 .5.09v2.93a4.15 4.15 0 0 0-.64-.13 6.9 6.9 0 0 0-.75 0 2.63 2.63 0 0 0-1.3.31 2.35 2.35 0 0 0-.9.87 2.48 2.48 0 0 0-.33 1.29v6.74ZM592.85 43.24V27.36h3.3v15.88Zm3-3.43v-4h.48l3.81-4.52h3.8l-5.13 6H598Zm4.45 3.43-3.5-5.19 2.2-2.33 5.17 7.52Z" style="fill:#424241"/></g><path d="M939 91.45h-27.06a7.88 7.88 0 0 1-.12-15.75h.09a1 1 0 0 0 1-1 10.28 10.28 0 0 1 16.76-8 10.31 10.31 0 0 1 3.15 4.37 5.68 5.68 0 0 1 7.58 4.72 7.88 7.88 0 0 1-1.4 15.66ZM939 134.63h-27.06a7.88 7.88 0 0 1-.12-15.75h.09a1 1 0 0 0 1-1 10.28 10.28 0 0 1 16.76-8 10.44 10.44 0 0 1 3.15 4.37 5.7 5.7 0 0 1 7.58 4.73 7.87 7.87 0 0 1 6.54 7.76 7.89 7.89 0 0 1-7.88 7.87Zm-27.17-13.47" style="fill:#fff"/><g><path d="M829.64 74.24a1.92 1.92 0 0 0-1.92 1.92v2.73h3.84v-2.73a1.92 1.92 0 0 0-1.92-1.92Z" style="fill:#fff"/><path d="M848.83 78.09a7.84 7.84 0 0 0-4.31-2.28 5.68 5.68 0 0 0-7.58-4.72 10.3 10.3 0 0 0-9.63-6.67A10.28 10.28 0 0 0 817 74.7a1 1 0 0 1-1 1 7.88 7.88 0 0 0 .12 15.75h27.08a7.9 7.9 0 0 0 7.88-7.88 7.81 7.81 0 0 0-2.25-5.48Zm-15.68 7.81h-6.95a1.3 1.3 0 0 1-1.3-1.31l-.07-5.7h1.5v-2.73a3.32 3.32 0 1 1 6.63 0v2.73h1.43l.07 5.7a1.31 1.31 0 0 1-1.31 1.31Z" style="fill:#fff"/></g><g><path d="M829.64 117.42a1.93 1.93 0 0 0-1.92 1.93v2.73h3.84v-2.73a1.93 1.93 0 0 0-1.92-1.93Z" style="fill:#fff"/><path d="M848.83 121.27a7.76 7.76 0 0 0-4.31-2.27 5.7 5.7 0 0 0-7.58-4.73 10.44 10.44 0 0 0-3.15-4.37 10.28 10.28 0 0 0-16.76 8 1 1 0 0 1-1 1H816a7.88 7.88 0 0 0 .12 15.75h27.08a7.87 7.87 0 0 0 5.65-13.36Zm-15.68 7.82h-6.95a1.31 1.31 0 0 1-1.3-1.31l-.07-5.7h1.5v-2.73a3.32 3.32 0 1 1 6.63 0v2.73h1.43l.07 5.7a1.31 1.31 0 0 1-1.31 1.31Z" style="fill:#fff"/></g><g><path d="M829.64 160.61a1.92 1.92 0 0 0-1.92 1.92v2.73h3.84v-2.73a1.92 1.92 0 0 0-1.92-1.92Z" style="fill:#fff"/><path d="M848.83 164.46a7.84 7.84 0 0 0-4.31-2.28 5.68 5.68 0 0 0-7.58-4.72 10.3 10.3 0 0 0-9.63-6.67A10.28 10.28 0 0 0 817 161.07a1 1 0 0 1-1 1 7.87 7.87 0 0 0 .12 15.74h27.08a7.89 7.89 0 0 0 7.88-7.87 7.81 7.81 0 0 0-2.25-5.48Zm-15.68 7.81h-6.95a1.3 1.3 0 0 1-1.3-1.31l-.07-5.7h1.5v-2.73a3.32 3.32 0 1 1 6.63 0v2.73h1.43l.07 5.7a1.31 1.31 0 0 1-1.31 1.31Z" style="fill:#fff"/></g><path d="M939 177.81h-27.06a7.87 7.87 0 0 1-.12-15.74h.09a1 1 0 0 0 1-1 10.28 10.28 0 0 1 16.76-8 10.31 10.31 0 0 1 3.15 4.37 5.68 5.68 0 0 1 7.58 4.72 7.87 7.87 0 0 1-1.4 15.65Zm-27.17-13.46" style="fill:#fff"/><path style="fill:none;stroke:#ed4f9b;stroke-miterlimit:10;stroke-width:0.970269631647461px" d="M521.08 82.29 737.85 82.29"/><path style="fill:none;stroke:#ed4f9b;stroke-miterlimit:10;stroke-width:0.970269631647461px" d="M251.05 82.29 467.83 82.29"/><path style="fill:none;stroke:#fff;stroke-miterlimit:10;stroke-width:0.970269631647461px;stroke-dasharray:2.6718966960906982" d="M112.28 197.52 112.28 64.34"/><path style="fill:none;stroke:#fff;stroke-miterlimit:10;stroke-width:0.970269631647461px;stroke-dasharray:2.6718966960906982" d="M878.08 197.52 878.08 64.34"/><path style="fill:none;stroke:#ed4f9b;stroke-miterlimit:10;stroke-width:0.970269631647461px" d="M728.37 72.98 737.85 82.46 728.71 91.6"/><path style="fill:none;stroke:#ed4f9b;stroke-miterlimit:10;stroke-width:0.970269631647461px" d="M467.83 182.15 251.05 182.15"/><path style="fill:none;stroke:#ed4f9b;stroke-miterlimit:10;stroke-width:0.970269631647461px" d="M737.85 182.15 521.08 182.15"/><path style="fill:none;stroke:#ed4f9b;stroke-miterlimit:10;stroke-width:0.970269631647461px" d="M260.53 191.46 251.05 181.98 260.2 172.84"/><g><path d="M68.12 32.35h-2.34a2.34 2.34 0 0 0-.26-.81 2.14 2.14 0 0 0-1.22-1 2.65 2.65 0 0 0-.87-.14 2.59 2.59 0 0 0-1.47.42 2.68 2.68 0 0 0-1 1.22 4.83 4.83 0 0 0-.32 1.96 4.77 4.77 0 0 0 .36 2 2.6 2.6 0 0 0 1 1.2 2.73 2.73 0 0 0 1.46.4 3 3 0 0 0 .86-.12 2.11 2.11 0 0 0 .7-.36 2.06 2.06 0 0 0 .52-.58 2.41 2.41 0 0 0 .28-.78h2.34a4.46 4.46 0 0 1-.46 1.45 4.4 4.4 0 0 1-1 1.24 4.48 4.48 0 0 1-1.44.86 5.25 5.25 0 0 1-1.88.32 5.17 5.17 0 0 1-2.61-.66A4.7 4.7 0 0 1 59 37a6.46 6.46 0 0 1-.66-3 6.32 6.32 0 0 1 .66-3 4.73 4.73 0 0 1 1.79-2 5.12 5.12 0 0 1 2.59-.66 5.55 5.55 0 0 1 1.76.27 4.53 4.53 0 0 1 1.44.77 4.18 4.18 0 0 1 1 1.25 4.86 4.86 0 0 1 .54 1.72ZM72 28.53v10.91h-2.27V28.53ZM75 30.2a1.23 1.23 0 0 1-.86-.33 1.07 1.07 0 0 1-.37-.82 1 1 0 0 1 .37-.8 1.18 1.18 0 0 1 .86-.34 1.21 1.21 0 0 1 .87.34 1.05 1.05 0 0 1 .36.8 1.09 1.09 0 0 1-.36.82 1.24 1.24 0 0 1-.87.33Zm-1.14 9.24v-8.18h2.27v8.18ZM81.62 39.6a4.35 4.35 0 0 1-2.17-.51 3.46 3.46 0 0 1-1.4-1.46 5.32 5.32 0 0 1 0-4.46 3.59 3.59 0 0 1 1.38-1.48 4 4 0 0 1 2.1-.54 4.39 4.39 0 0 1 1.51.26 3.35 3.35 0 0 1 1.22.78 3.53 3.53 0 0 1 .82 1.29 5.09 5.09 0 0 1 .29 1.83v.62h-6.91v-1.41h4.78a1.64 1.64 0 0 0-.22-.86 1.48 1.48 0 0 0-.59-.6 1.75 1.75 0 0 0-.87-.21 1.81 1.81 0 0 0-.91.23 1.73 1.73 0 0 0-.62.64 1.75 1.75 0 0 0-.23.88v1.34A2.32 2.32 0 0 0 80 37a1.62 1.62 0 0 0 .64.68 1.92 1.92 0 0 0 1 .24 2.19 2.19 0 0 0 .7-.11 1.35 1.35 0 0 0 .53-.32 1.45 1.45 0 0 0 .35-.52l2.1.14a3 3 0 0 1-.66 1.32 3.34 3.34 0 0 1-1.27.87 4.68 4.68 0 0 1-1.77.3ZM89.12 34.71v4.73h-2.27v-8.18H89v1.44h.09a2.35 2.35 0 0 1 .91-1.13 2.79 2.79 0 0 1 1.55-.42 2.87 2.87 0 0 1 1.49.38 2.46 2.46 0 0 1 1 1.06 3.51 3.51 0 0 1 .36 1.64v5.21h-2.27v-4.8a1.68 1.68 0 0 0-.39-1.18 1.38 1.38 0 0 0-1.07-.46 1.51 1.51 0 0 0-.8.2 1.32 1.32 0 0 0-.55.57 2.06 2.06 0 0 0-.2.94ZM100.53 31.26V33h-4.92v-1.7Zm-3.81-2H99v7.63a1 1 0 0 0 .1.48.51.51 0 0 0 .27.25 1.19 1.19 0 0 0 .4.07 1.73 1.73 0 0 0 .32 0l.25-.05.35 1.69a3.3 3.3 0 0 1-.48.12 3.66 3.66 0 0 1-.75.09 3.37 3.37 0 0 1-1.46-.21 2 2 0 0 1-1-.77 2.41 2.41 0 0 1-.34-1.33ZM114.65 28.53v10.91h-2l-4.75-6.87h-.08v6.87h-2.3V28.53h2l4.71 6.86h.1v-6.86ZM120.24 39.6a4.38 4.38 0 0 1-2.17-.51 3.52 3.52 0 0 1-1.4-1.46 5.32 5.32 0 0 1 0-4.46 3.65 3.65 0 0 1 1.38-1.48 4 4 0 0 1 2.1-.54 4.39 4.39 0 0 1 1.51.26 3.31 3.31 0 0 1 1.23.78 3.38 3.38 0 0 1 .81 1.29 5.09 5.09 0 0 1 .3 1.83v.62h-6.91v-1.41h4.77a1.74 1.74 0 0 0-.21-.86 1.62 1.62 0 0 0-.59-.6 1.75 1.75 0 0 0-.87-.21 1.85 1.85 0 0 0-.92.23 1.73 1.73 0 0 0-.62.64 1.86 1.86 0 0 0-.23.88v1.34a2.32 2.32 0 0 0 .23 1.05 1.68 1.68 0 0 0 .64.68 2 2 0 0 0 1 .24 2.17 2.17 0 0 0 .69-.11 1.46 1.46 0 0 0 .54-.32 1.42 1.42 0 0 0 .34-.52l2.1.14a3 3 0 0 1-.65 1.32 3.42 3.42 0 0 1-1.27.87 4.73 4.73 0 0 1-1.8.31ZM129.83 31.26V33h-4.93v-1.7Zm-3.81-2h2.27v7.63a.9.9 0 0 0 .1.48.53.53 0 0 0 .26.25 1.25 1.25 0 0 0 .41.07h.32l.24-.05.36 1.69a4.15 4.15 0 0 1-.48.12 3.85 3.85 0 0 1-.75.09 3.41 3.41 0 0 1-1.44-.22 1.91 1.91 0 0 1-1-.77 2.41 2.41 0 0 1-.34-1.33ZM132.92 39.44l-2.23-8.18H133l1.27 5.5h.07l1.32-5.5h2.25l1.35 5.46h.07l1.24-5.46h2.29l-2.22 8.18h-2.4l-1.41-5.14h-.1l-1.4 5.14ZM147.55 39.6a4.17 4.17 0 0 1-2.14-.53 3.57 3.57 0 0 1-1.4-1.48 4.83 4.83 0 0 1-.49-2.21 4.9 4.9 0 0 1 .49-2.22 3.63 3.63 0 0 1 1.4-1.48 4.59 4.59 0 0 1 4.28 0 3.63 3.63 0 0 1 1.4 1.48 4.9 4.9 0 0 1 .49 2.22 4.83 4.83 0 0 1-.49 2.21 3.57 3.57 0 0 1-1.4 1.48 4.17 4.17 0 0 1-2.14.53Zm0-1.76a1.36 1.36 0 0 0 .94-.32 1.92 1.92 0 0 0 .58-.88 3.85 3.85 0 0 0 .19-1.27 3.91 3.91 0 0 0-.19-1.28 2 2 0 0 0-.58-.88 1.37 1.37 0 0 0-.94-.33 1.39 1.39 0 0 0-.95.33 2 2 0 0 0-.59.88 3.91 3.91 0 0 0-.19 1.28 3.85 3.85 0 0 0 .19 1.27 1.93 1.93 0 0 0 .59.88 1.38 1.38 0 0 0 .96.32ZM153.06 39.44v-8.18h2.2v1.43h.08a2.15 2.15 0 0 1 .75-1.16 2 2 0 0 1 1.22-.39h.37l.34.06v2a1.76 1.76 0 0 0-.44-.09 5.13 5.13 0 0 0-.52 0 1.75 1.75 0 0 0-.89.22 1.56 1.56 0 0 0-.62.6 1.69 1.69 0 0 0-.22.88v4.63ZM159.19 39.44V28.53h2.27v10.91Zm2.06-2.35v-2.72h.33l2.62-3.11h2.61l-3.52 4.11h-.54Zm3.05 2.35-2.4-3.56 1.51-1.61 3.59 5.17Z" style="fill:#fff"/></g><g><path d="M46.26 194.17v8h-1v-8ZM49 198.56v3.61h-.92v-6H49v.94a1.79 1.79 0 0 1 .65-.74 2 2 0 0 1 1.1-.28 2.25 2.25 0 0 1 1.07.25 1.72 1.72 0 0 1 .71.75 2.81 2.81 0 0 1 .26 1.27v3.81h-.89v-3.75a1.57 1.57 0 0 0-.36-1.1 1.3 1.3 0 0 0-1-.4 1.71 1.71 0 0 0-.79.19 1.39 1.39 0 0 0-.54.56 1.77 1.77 0 0 0-.21.89ZM57.12 196.17v.83H54v-.78Zm-2.2-1.44h.92v5.72a1.16 1.16 0 0 0 .16.55.54.54 0 0 0 .29.25 1 1 0 0 0 .39.07h.4l.19.83-.26.07a1.69 1.69 0 0 1-.43 0 1.9 1.9 0 0 1-.76-.17 1.52 1.52 0 0 1-.62-.51 1.49 1.49 0 0 1-.24-.87ZM61 202.3a2.79 2.79 0 0 1-1.5-.39 2.41 2.41 0 0 1-1-1.08 3.57 3.57 0 0 1-.34-1.61 3.65 3.65 0 0 1 .34-1.63 2.52 2.52 0 0 1 2.36-1.5 3 3 0 0 1 .93.16 2.31 2.31 0 0 1 .83.5 2.58 2.58 0 0 1 .6.93 3.87 3.87 0 0 1 .22 1.41v.39h-4.61v-.79h3.68a1.93 1.93 0 0 0-.2-.91 1.51 1.51 0 0 0-.57-.63 1.61 1.61 0 0 0-.87-.23 1.68 1.68 0 0 0-.95.27 1.83 1.83 0 0 0-.61.71 2 2 0 0 0-.22.93v.53a2.51 2.51 0 0 0 .24 1.15 1.62 1.62 0 0 0 .66.71 1.83 1.83 0 0 0 1 .25 1.88 1.88 0 0 0 .65-.11 1.21 1.21 0 0 0 .51-.31 1.35 1.35 0 0 0 .34-.52l.89.25a1.89 1.89 0 0 1-.48.79 2.26 2.26 0 0 1-.82.54 3.11 3.11 0 0 1-1.08.19ZM64.86 202.17v-6h.89v.91h.06a1.5 1.5 0 0 1 .59-.73 1.79 1.79 0 0 1 1-.27h.49v.92h-.57a1.59 1.59 0 0 0-.77.18 1.37 1.37 0 0 0-.54.5 1.26 1.26 0 0 0-.2.72v3.8ZM69.87 198.56v3.61H69v-6h.89v.94h.08a1.7 1.7 0 0 1 .64-.74 2.07 2.07 0 0 1 1.11-.28 2.28 2.28 0 0 1 1.07.25 1.78 1.78 0 0 1 .71.75 2.82 2.82 0 0 1 .25 1.27v3.81h-.92v-3.75a1.53 1.53 0 0 0-.37-1.1 1.28 1.28 0 0 0-1-.4 1.67 1.67 0 0 0-.78.19 1.41 1.41 0 0 0-.55.56 1.89 1.89 0 0 0-.26.89ZM77.15 202.31a2.32 2.32 0 0 1-1-.22 1.73 1.73 0 0 1-.74-.62 1.8 1.8 0 0 1-.27-1 1.49 1.49 0 0 1 .2-.84 1.55 1.55 0 0 1 .54-.51 3 3 0 0 1 .76-.27c.27-.06.55-.11.83-.15l.88-.11a1.25 1.25 0 0 0 .5-.12.33.33 0 0 0 .16-.31 1.21 1.21 0 0 0-.31-.89 1.26 1.26 0 0 0-1-.32 1.69 1.69 0 0 0-1 .28 1.87 1.87 0 0 0-.53.62l-.87-.31a2 2 0 0 1 .63-.85 2.18 2.18 0 0 1 .86-.43 3.25 3.25 0 0 1 .92-.13 4.37 4.37 0 0 1 .66.07 2.25 2.25 0 0 1 .73.28 1.6 1.6 0 0 1 .59.64 2.31 2.31 0 0 1 .23 1.14v3.95H79v-.81a1.8 1.8 0 0 1-.32.42 2 2 0 0 1-.58.38 2.33 2.33 0 0 1-.95.11Zm.14-.83a1.88 1.88 0 0 0 .93-.21 1.46 1.46 0 0 0 .57-.56A1.38 1.38 0 0 0 79 200v-.84a.63.63 0 0 1-.25.12l-.46.1-.49.07-.39.05a3.45 3.45 0 0 0-.67.15 1.1 1.1 0 0 0-.5.31.75.75 0 0 0-.19.55.82.82 0 0 0 .36.73 1.57 1.57 0 0 0 .88.24ZM82.51 194.17v8h-.92v-8Z" style="fill:#fff"/></g><g><path d="M804.53 202.17h-2.47v-8h2.57a4 4 0 0 1 2 .48 3.24 3.24 0 0 1 1.27 1.35 4.86 4.86 0 0 1 .44 2.14 4.77 4.77 0 0 1-.45 2.15 3.13 3.13 0 0 1-1.29 1.38 4.17 4.17 0 0 1-2.07.5Zm-1.5-.86h1.43a3.3 3.3 0 0 0 1.65-.38 2.39 2.39 0 0 0 1-1.09 4.09 4.09 0 0 0 .32-1.68 4 4 0 0 0-.32-1.67 2.31 2.31 0 0 0-.94-1.08 3 3 0 0 0-1.57-.38H803ZM812.35 202.3a2.78 2.78 0 0 1-1.49-.39 2.49 2.49 0 0 1-1-1.08 3.7 3.7 0 0 1-.33-1.61 3.8 3.8 0 0 1 .33-1.63 2.7 2.7 0 0 1 1-1.1 2.57 2.57 0 0 1 1.42-.4 3 3 0 0 1 .93.16 2.31 2.31 0 0 1 .83.5 2.58 2.58 0 0 1 .6.93 4.09 4.09 0 0 1 .22 1.41v.39h-4.63v-.79h3.69a2.06 2.06 0 0 0-.2-.91 1.69 1.69 0 0 0-2.39-.59 1.85 1.85 0 0 0-.62.71 2.11 2.11 0 0 0-.21.93v.53a2.65 2.65 0 0 0 .23 1.15 1.68 1.68 0 0 0 .66.71 1.86 1.86 0 0 0 1 .25 1.94 1.94 0 0 0 .66-.11 1.21 1.21 0 0 0 .51-.31 1.33 1.33 0 0 0 .33-.52l.89.25a1.87 1.87 0 0 1-.47.79 2.26 2.26 0 0 1-.82.54 3.17 3.17 0 0 1-1.14.19ZM818.51 202.3a2.28 2.28 0 0 1-1.32-.39 2.44 2.44 0 0 1-.9-1.07 3.86 3.86 0 0 1-.33-1.65 3.78 3.78 0 0 1 .33-1.64 2.37 2.37 0 0 1 2.24-1.46 1.85 1.85 0 0 1 .92.2 1.56 1.56 0 0 1 .53.43l.28.4h.08v-3h.92v8h-.89v-.92h-.11a4.13 4.13 0 0 1-.29.41 1.58 1.58 0 0 1-.53.44 1.94 1.94 0 0 1-.93.25Zm.12-.83a1.52 1.52 0 0 0 .94-.29 1.8 1.8 0 0 0 .58-.81 3.21 3.21 0 0 0 .2-1.2 3.28 3.28 0 0 0-.19-1.18 1.74 1.74 0 0 0-.58-.79 1.62 1.62 0 0 0-1-.28 1.54 1.54 0 0 0-1 .3 1.8 1.8 0 0 0-.58.81 3.17 3.17 0 0 0-.2 1.14 3.24 3.24 0 0 0 .2 1.16 1.83 1.83 0 0 0 .59.83 1.48 1.48 0 0 0 1.04.31ZM823.54 195.17a.65.65 0 0 1-.46-.18.59.59 0 0 1-.2-.44.61.61 0 0 1 .2-.45.68.68 0 0 1 .92 0 .61.61 0 0 1 .2.45.59.59 0 0 1-.2.44.65.65 0 0 1-.46.18Zm-.47 7v-6h.93v6ZM828.12 202.3a2.62 2.62 0 0 1-1.45-.4 2.59 2.59 0 0 1-.94-1.1 3.72 3.72 0 0 1-.33-1.6 3.57 3.57 0 0 1 .34-1.61 2.66 2.66 0 0 1 3.5-1.26 2.17 2.17 0 0 1 .84.65 2.08 2.08 0 0 1 .4 1h-.92a1.42 1.42 0 0 0-1.44-1.05 1.58 1.58 0 0 0-.94.28 1.85 1.85 0 0 0-.63.79 2.85 2.85 0 0 0-.23 1.18 3.19 3.19 0 0 0 .22 1.21 1.82 1.82 0 0 0 .63.8 1.6 1.6 0 0 0 1 .29 1.51 1.51 0 0 0 .65-.13 1.28 1.28 0 0 0 .5-.36 1.42 1.42 0 0 0 .29-.56h.92a2.08 2.08 0 0 1-.39 1 2.19 2.19 0 0 1-.8.67 2.72 2.72 0 0 1-1.22.2ZM833.59 202.31a2.36 2.36 0 0 1-1-.22 1.67 1.67 0 0 1-1-1.62 1.58 1.58 0 0 1 .2-.84 1.5 1.5 0 0 1 .55-.51 2.77 2.77 0 0 1 .75-.27c.27-.06.55-.11.83-.15l.89-.11a1.3 1.3 0 0 0 .5-.12.35.35 0 0 0 .16-.31 1.21 1.21 0 0 0-.32-.89 1.26 1.26 0 0 0-1-.32 1.66 1.66 0 0 0-1 .28 1.76 1.76 0 0 0-.53.62l-.88-.31a2.08 2.08 0 0 1 .63-.85 2.25 2.25 0 0 1 .86-.43 3.3 3.3 0 0 1 .92-.13 4.63 4.63 0 0 1 .67.07 2.34 2.34 0 0 1 .73.28 1.58 1.58 0 0 1 .58.64 2.3 2.3 0 0 1 .24 1.14v3.95h-.92v-.81a1.73 1.73 0 0 1-.31.42 2.07 2.07 0 0 1-.59.38 2.28 2.28 0 0 1-.96.11Zm.14-.83a1.87 1.87 0 0 0 .92-.21 1.46 1.46 0 0 0 .57-.56 1.39 1.39 0 0 0 .2-.71v-.84a.7.7 0 0 1-.26.12 3.83 3.83 0 0 1-.45.1l-.5.07-.39.05a3.45 3.45 0 0 0-.67.15 1.21 1.21 0 0 0-.5.31.8.8 0 0 0-.19.55.82.82 0 0 0 .36.73 1.6 1.6 0 0 0 .91.24ZM840.63 196.17v.83h-3.1v-.78Zm-2.2-1.44h.92v5.72a1.16 1.16 0 0 0 .12.59.53.53 0 0 0 .3.25 1 1 0 0 0 .38.07H840.56l.18.83-.26.07a1.66 1.66 0 0 1-.42 0 1.91 1.91 0 0 1-.77-.17 1.45 1.45 0 0 1-.86-1.38ZM844.48 202.3a2.79 2.79 0 0 1-1.5-.39 2.47 2.47 0 0 1-1-1.08 3.57 3.57 0 0 1-.34-1.61 3.65 3.65 0 0 1 .34-1.63 2.52 2.52 0 0 1 2.36-1.5 2.93 2.93 0 0 1 .93.16 2.23 2.23 0 0 1 .83.5 2.58 2.58 0 0 1 .6.93 3.87 3.87 0 0 1 .22 1.41v.39h-4.62v-.79h3.7a1.94 1.94 0 0 0-.21-.91 1.51 1.51 0 0 0-.57-.63 1.61 1.61 0 0 0-.87-.23 1.68 1.68 0 0 0-1 .27 1.83 1.83 0 0 0-.61.71 2 2 0 0 0-.22.93v.53a2.51 2.51 0 0 0 .24 1.15 1.68 1.68 0 0 0 .66.71 1.86 1.86 0 0 0 1 .25 2 2 0 0 0 .66-.11 1.35 1.35 0 0 0 .51-.31 1.45 1.45 0 0 0 .33-.52l.89.25a1.87 1.87 0 0 1-.47.79 2.44 2.44 0 0 1-.82.54 3.21 3.21 0 0 1-1.04.19ZM850.63 202.3a2.28 2.28 0 0 1-1.32-.39 2.58 2.58 0 0 1-.9-1.07 4 4 0 0 1-.32-1.65 3.93 3.93 0 0 1 .32-1.64 2.54 2.54 0 0 1 .9-1.08 2.42 2.42 0 0 1 1.34-.38 1.89 1.89 0 0 1 .93.2 1.52 1.52 0 0 1 .52.43c.12.17.22.3.28.4h.08v-3h.92v8h-.89v-.92h-.11a3.8 3.8 0 0 1-.28.41 1.73 1.73 0 0 1-.54.44 1.89 1.89 0 0 1-.93.25Zm.13-.83a1.55 1.55 0 0 0 .94-.29 1.88 1.88 0 0 0 .58-.81 3.43 3.43 0 0 0 .2-1.2 3.28 3.28 0 0 0-.2-1.18 1.74 1.74 0 0 0-.58-.79 1.59 1.59 0 0 0-.94-.28 1.52 1.52 0 0 0-1 .3 1.82 1.82 0 0 0-.59.81 3.17 3.17 0 0 0-.19 1.14 3.24 3.24 0 0 0 .2 1.16 1.81 1.81 0 0 0 .58.83 1.48 1.48 0 0 0 1 .31Z" style="fill:#fff"/></g><g><path d="M912.4 196.17a1.25 1.25 0 0 0-.57-.92 2.22 2.22 0 0 0-1.23-.33 2.45 2.45 0 0 0-.93.17 1.59 1.59 0 0 0-.62.48 1.15 1.15 0 0 0-.22.68 1 1 0 0 0 .16.55 1.29 1.29 0 0 0 .39.38 2.93 2.93 0 0 0 .51.24 4.6 4.6 0 0 0 .49.16l.81.22c.21 0 .44.13.7.22a3.75 3.75 0 0 1 .74.39 2 2 0 0 1 .58.64 1.76 1.76 0 0 1 .23.95 2.15 2.15 0 0 1-.33 1.17 2.33 2.33 0 0 1-1 .83 4.09 4.09 0 0 1-3 0 2.33 2.33 0 0 1-1-.77 2.15 2.15 0 0 1-.4-1.15h1a1.26 1.26 0 0 0 .3.75 1.65 1.65 0 0 0 .68.43 2.64 2.64 0 0 0 .89.15 2.48 2.48 0 0 0 1-.19 1.75 1.75 0 0 0 .7-.5 1.21 1.21 0 0 0 .26-.77 1 1 0 0 0-.23-.65 1.66 1.66 0 0 0-.58-.4 4.89 4.89 0 0 0-.79-.27l-1-.29a3.62 3.62 0 0 1-1.49-.77 1.69 1.69 0 0 1-.54-1.3 2 2 0 0 1 .36-1.18 2.5 2.5 0 0 1 1-.78 3.4 3.4 0 0 1 1.38-.28 3.18 3.18 0 0 1 1.38.28 2.31 2.31 0 0 1 1 .75 1.83 1.83 0 0 1 .37 1.08ZM915.83 198.56v3.61h-.92v-8h.92v2.94h.08a1.64 1.64 0 0 1 .64-.74 2 2 0 0 1 1.13-.28 2.14 2.14 0 0 1 1.07.25 1.66 1.66 0 0 1 .72.74 2.83 2.83 0 0 1 .25 1.28v3.81h-.92v-3.75a1.54 1.54 0 0 0-.37-1.11 1.32 1.32 0 0 0-1-.39 1.79 1.79 0 0 0-.81.19 1.44 1.44 0 0 0-.56.56 1.78 1.78 0 0 0-.23.89ZM923.18 202.31a2.36 2.36 0 0 1-1-.22 1.67 1.67 0 0 1-1-1.62 1.58 1.58 0 0 1 .2-.84 1.5 1.5 0 0 1 .55-.51 2.77 2.77 0 0 1 .75-.27c.27-.06.55-.11.83-.15l.89-.11a1.3 1.3 0 0 0 .5-.12.35.35 0 0 0 .16-.31 1.21 1.21 0 0 0-.32-.89 1.26 1.26 0 0 0-1-.32 1.69 1.69 0 0 0-1 .28 1.72 1.72 0 0 0-.52.62l-.88-.31a2.08 2.08 0 0 1 .63-.85 2.25 2.25 0 0 1 .86-.43 3.3 3.3 0 0 1 .92-.13 4.37 4.37 0 0 1 .66.07 2.3 2.3 0 0 1 .74.28 1.58 1.58 0 0 1 .58.64 2.3 2.3 0 0 1 .24 1.14v3.95H925v-.81a1.73 1.73 0 0 1-.31.42 2.07 2.07 0 0 1-.59.38 2.28 2.28 0 0 1-.92.11Zm.14-.83a1.87 1.87 0 0 0 .92-.21 1.46 1.46 0 0 0 .57-.56 1.39 1.39 0 0 0 .2-.71v-.84a.7.7 0 0 1-.26.12 3.83 3.83 0 0 1-.45.1l-.5.07-.39.05a3.45 3.45 0 0 0-.67.15 1.21 1.21 0 0 0-.5.31.8.8 0 0 0-.19.55.82.82 0 0 0 .36.73 1.6 1.6 0 0 0 .91.24ZM927.62 202.17v-6h.89v.91h.06a1.44 1.44 0 0 1 .59-.73 1.79 1.79 0 0 1 1-.27h.49v.92h-.57a1.66 1.66 0 0 0-.78.18 1.44 1.44 0 0 0-.54.5 1.34 1.34 0 0 0-.19.72v3.8ZM934 202.3a2.79 2.79 0 0 1-1.5-.39 2.41 2.41 0 0 1-1-1.08 3.57 3.57 0 0 1-.34-1.61 3.65 3.65 0 0 1 .34-1.63 2.52 2.52 0 0 1 2.36-1.5 3 3 0 0 1 .93.16 2.31 2.31 0 0 1 .83.5 2.58 2.58 0 0 1 .6.93 3.87 3.87 0 0 1 .22 1.41v.39h-4.54v-.79h3.68a1.93 1.93 0 0 0-.2-.91 1.51 1.51 0 0 0-.57-.63 1.61 1.61 0 0 0-.87-.23 1.68 1.68 0 0 0-1 .27 1.75 1.75 0 0 0-.61.71 2 2 0 0 0-.22.93v.53a2.51 2.51 0 0 0 .24 1.15 1.68 1.68 0 0 0 .66.71 1.83 1.83 0 0 0 1 .25 2 2 0 0 0 .66-.11 1.24 1.24 0 0 0 .5-.31 1.35 1.35 0 0 0 .34-.52l.89.25a1.89 1.89 0 0 1-.48.79 2.26 2.26 0 0 1-.82.54 3.11 3.11 0 0 1-1.1.19ZM940.19 202.3a2.28 2.28 0 0 1-1.32-.39 2.58 2.58 0 0 1-.9-1.07 3.86 3.86 0 0 1-.32-1.65 3.78 3.78 0 0 1 .32-1.64 2.54 2.54 0 0 1 .9-1.08 2.42 2.42 0 0 1 1.34-.38 1.89 1.89 0 0 1 .93.2 1.52 1.52 0 0 1 .52.43l.28.4h.06v-3h.92v8h-.89v-.92h-.11a4.13 4.13 0 0 1-.29.41 1.58 1.58 0 0 1-.53.44 1.89 1.89 0 0 1-.91.25Zm.13-.83a1.55 1.55 0 0 0 .94-.29 2 2 0 0 0 .58-.81 3.43 3.43 0 0 0 .2-1.2 3.28 3.28 0 0 0-.2-1.18 1.74 1.74 0 0 0-.58-.79 1.59 1.59 0 0 0-.94-.28 1.57 1.57 0 0 0-1 .3 1.8 1.8 0 0 0-.58.81 3.17 3.17 0 0 0-.19 1.14 3 3 0 0 0 .2 1.16 1.81 1.81 0 0 0 .58.83 1.48 1.48 0 0 0 .99.31Z" style="fill:#fff"/></g><rect x="765.98" y="14.82" width="224.2" height="38.03" rx="10" style="fill:#424241"/><g><path d="M794.29 39.44V28.53h4.3a4.74 4.74 0 0 1 2.12.44 3.08 3.08 0 0 1 1.29 1.24 3.7 3.7 0 0 1 .46 1.89A3.56 3.56 0 0 1 802 34a3.12 3.12 0 0 1-1.36 1.2 5 5 0 0 1-2.14.41h-2.89v-1.89h2.51a2.91 2.91 0 0 0 1.1-.18 1.3 1.3 0 0 0 .65-.54 1.72 1.72 0 0 0 .22-.9 1.74 1.74 0 0 0-.22-.92 1.35 1.35 0 0 0-.65-.57 2.76 2.76 0 0 0-1.11-.19h-1.51v9Zm5.89-5 2.71 5h-2.54l-2.66-5ZM807.65 39.6a4.17 4.17 0 0 1-2.14-.53 3.57 3.57 0 0 1-1.4-1.48 4.83 4.83 0 0 1-.49-2.21 4.9 4.9 0 0 1 .49-2.22 3.63 3.63 0 0 1 1.4-1.48 4.59 4.59 0 0 1 4.28 0 3.63 3.63 0 0 1 1.4 1.48 4.9 4.9 0 0 1 .49 2.22 4.83 4.83 0 0 1-.49 2.21 3.57 3.57 0 0 1-1.4 1.48 4.17 4.17 0 0 1-2.14.53Zm0-1.76a1.36 1.36 0 0 0 .94-.32 2 2 0 0 0 .58-.88 4.13 4.13 0 0 0 .19-1.27 4.2 4.2 0 0 0-.19-1.28 2.06 2.06 0 0 0-.58-.88 1.37 1.37 0 0 0-.94-.33 1.44 1.44 0 0 0-1 .33 2.06 2.06 0 0 0-.58.88 3.91 3.91 0 0 0-.19 1.28 3.85 3.85 0 0 0 .19 1.27 2 2 0 0 0 .58.88 1.43 1.43 0 0 0 1.01.32ZM820 33.59l-2.07.13a1.07 1.07 0 0 0-.23-.48 1.25 1.25 0 0 0-.46-.35 1.75 1.75 0 0 0-.68-.13 1.66 1.66 0 0 0-.89.22.68.68 0 0 0-.36.59.62.62 0 0 0 .23.5 2 2 0 0 0 .81.32l1.48.3a3.73 3.73 0 0 1 1.78.79 1.85 1.85 0 0 1 .58 1.43 2.28 2.28 0 0 1-.47 1.41 3 3 0 0 1-1.29.94 4.78 4.78 0 0 1-1.88.34 4.42 4.42 0 0 1-2.59-.68 2.66 2.66 0 0 1-1.13-1.85L815 37a1.14 1.14 0 0 0 .49.76 1.78 1.78 0 0 0 1 .26 1.71 1.71 0 0 0 1-.24.67.67 0 0 0 .37-.6.61.61 0 0 0-.26-.5 1.78 1.78 0 0 0-.79-.31l-1.43-.37a3.4 3.4 0 0 1-1.78-.83 2.07 2.07 0 0 1-.6-1.47 2.23 2.23 0 0 1 .43-1.36 2.78 2.78 0 0 1 1.21-.88 5.08 5.08 0 0 1 1.83-.31 4 4 0 0 1 2.44.66 2.47 2.47 0 0 1 1.09 1.78ZM825.31 39.6a4.38 4.38 0 0 1-2.17-.51 3.58 3.58 0 0 1-1.4-1.46 5.32 5.32 0 0 1 0-4.46 3.61 3.61 0 0 1 1.39-1.48 3.94 3.94 0 0 1 2.09-.54 4.35 4.35 0 0 1 1.51.26 3.31 3.31 0 0 1 1.23.78 3.53 3.53 0 0 1 .82 1.29 5.32 5.32 0 0 1 .29 1.83v.62h-6.91v-1.41h4.77a1.74 1.74 0 0 0-.21-.86 1.55 1.55 0 0 0-.59-.6 1.75 1.75 0 0 0-.87-.21 1.78 1.78 0 0 0-.91.23 1.59 1.59 0 0 0-.62.64 1.75 1.75 0 0 0-.23.88v1.34a2.32 2.32 0 0 0 .22 1.05 1.68 1.68 0 0 0 .64.68 2 2 0 0 0 1 .24 2.17 2.17 0 0 0 .69-.11 1.46 1.46 0 0 0 .54-.32 1.42 1.42 0 0 0 .34-.52l2.1.14a2.93 2.93 0 0 1-.65 1.32 3.34 3.34 0 0 1-1.27.87 4.73 4.73 0 0 1-1.8.31ZM834.9 31.26V33H830v-1.7Zm-3.81-2h2.27v7.63a.9.9 0 0 0 .1.48.51.51 0 0 0 .27.25 1.19 1.19 0 0 0 .4.07 1.73 1.73 0 0 0 .32 0l.24-.05.36 1.69a4 4 0 0 1-1.23.21 3.41 3.41 0 0 1-1.44-.22 2 2 0 0 1-1-.77 2.39 2.39 0 0 1-.34-1.33ZM840.73 31.26V33h-4.93v-1.7Zm-3.81-2h2.27v7.63a.9.9 0 0 0 .1.48.53.53 0 0 0 .26.25 1.25 1.25 0 0 0 .41.07h.32l.24-.05.36 1.69-.48.13a4.93 4.93 0 0 1-.75.08 3.41 3.41 0 0 1-1.44-.22 1.91 1.91 0 0 1-1-.77 2.39 2.39 0 0 1-.34-1.33ZM844.54 39.6a3.43 3.43 0 0 1-1.4-.28 2.2 2.2 0 0 1-1-.81 2.46 2.46 0 0 1-.35-1.35 2.36 2.36 0 0 1 .25-1.15 2 2 0 0 1 .68-.75 3.4 3.4 0 0 1 1-.42 6.89 6.89 0 0 1 1.15-.2c.48 0 .86-.1 1.15-.15a1.74 1.74 0 0 0 .64-.19.46.46 0 0 0 .19-.4 1 1 0 0 0-.31-.78 1.29 1.29 0 0 0-.9-.28 1.57 1.57 0 0 0-1 .27 1.18 1.18 0 0 0-.48.67l-2.1-.17a2.7 2.7 0 0 1 .63-1.29 3.06 3.06 0 0 1 1.21-.84 4.56 4.56 0 0 1 1.72-.3 5.59 5.59 0 0 1 1.31.16 3.31 3.31 0 0 1 1.11.5 2.36 2.36 0 0 1 .77.86 2.59 2.59 0 0 1 .28 1.25v5.52H847v-1.16h-.06a2.28 2.28 0 0 1-.53.67 2.43 2.43 0 0 1-.79.45 3.2 3.2 0 0 1-1.08.17Zm.65-1.57a1.9 1.9 0 0 0 .88-.2 1.43 1.43 0 0 0 .6-.54 1.38 1.38 0 0 0 .22-.77v-.87a1.15 1.15 0 0 1-.29.12 3.52 3.52 0 0 1-.41.1 3.69 3.69 0 0 1-.46.08l-.42.07a3.15 3.15 0 0 0-.69.18 1.14 1.14 0 0 0-.47.35.84.84 0 0 0-.16.53.81.81 0 0 0 .34.71 1.43 1.43 0 0 0 .86.21ZM864.05 32.35h-2.33a2.34 2.34 0 0 0-.26-.81 2.14 2.14 0 0 0-1.22-1 2.74 2.74 0 0 0-.87-.14 2.59 2.59 0 0 0-1.47.42 2.68 2.68 0 0 0-1 1.22 4.83 4.83 0 0 0-.34 1.93 5 5 0 0 0 .34 2 2.52 2.52 0 0 0 2.44 1.6 3 3 0 0 0 .86-.12 2.11 2.11 0 0 0 .7-.36 2.06 2.06 0 0 0 .52-.58 2.41 2.41 0 0 0 .28-.78h2.33a4.22 4.22 0 0 1-.45 1.45 4.4 4.4 0 0 1-1 1.24 4.48 4.48 0 0 1-1.44.86 5 5 0 0 1-1.88.32 5.17 5.17 0 0 1-2.61-.66A4.7 4.7 0 0 1 854.9 37a6.46 6.46 0 0 1-.66-3 6.32 6.32 0 0 1 .67-3 4.73 4.73 0 0 1 1.82-2 5.12 5.12 0 0 1 2.59-.66 5.55 5.55 0 0 1 1.76.27 4.53 4.53 0 0 1 1.44.77 4 4 0 0 1 1 1.25 4.47 4.47 0 0 1 .53 1.72ZM867.94 28.53v10.91h-2.27V28.53ZM873.44 39.6a4.19 4.19 0 0 1-2.14-.53 3.55 3.55 0 0 1-1.39-1.48 4.71 4.71 0 0 1-.49-2.21 4.78 4.78 0 0 1 .49-2.22 3.61 3.61 0 0 1 1.39-1.48 4.61 4.61 0 0 1 4.29 0 3.67 3.67 0 0 1 1.41 1.48 4.78 4.78 0 0 1 .49 2.22 4.71 4.71 0 0 1-.49 2.21 3.61 3.61 0 0 1-1.39 1.48 4.2 4.2 0 0 1-2.17.53Zm0-1.76a1.38 1.38 0 0 0 .95-.32 2 2 0 0 0 .57-.88 3.85 3.85 0 0 0 .19-1.27 3.91 3.91 0 0 0-.19-1.28 2 2 0 0 0-.57-.88 1.39 1.39 0 0 0-.95-.33 1.43 1.43 0 0 0-1 .33 2 2 0 0 0-.58.88 3.91 3.91 0 0 0-.2 1.28 3.85 3.85 0 0 0 .2 1.27 1.92 1.92 0 0 0 .58.88 1.42 1.42 0 0 0 1.01.32ZM884.2 36v-4.7h2.27v8.18h-2.18V38h-.09a2.42 2.42 0 0 1-.91 1.16 3 3 0 0 1-3 .06 2.47 2.47 0 0 1-1-1.05 3.65 3.65 0 0 1-.36-1.65v-5.26h2.27v4.8a1.62 1.62 0 0 0 .39 1.15 1.33 1.33 0 0 0 1 .42 1.6 1.6 0 0 0 .77-.19 1.39 1.39 0 0 0 .57-.56 1.77 1.77 0 0 0 .27-.88ZM891.29 39.57a3.05 3.05 0 0 1-1.68-.48 3.33 3.33 0 0 1-1.2-1.42 5.51 5.51 0 0 1-.43-2.31 5.36 5.36 0 0 1 .45-2.34 3.27 3.27 0 0 1 1.2-1.4 3.13 3.13 0 0 1 1.66-.47 2.62 2.62 0 0 1 1.15.23 2.42 2.42 0 0 1 .74.58 3.08 3.08 0 0 1 .44.67h.07v-4.1H896v10.91h-2.24v-1.31h-.09a3 3 0 0 1-.45.67 2.31 2.31 0 0 1-.76.56 2.67 2.67 0 0 1-1.17.21Zm.72-1.8a1.44 1.44 0 0 0 .93-.3 1.86 1.86 0 0 0 .59-.85 3.72 3.72 0 0 0 .2-1.27 3.49 3.49 0 0 0-.2-1.27 1.83 1.83 0 0 0-.58-.83A1.55 1.55 0 0 0 892 33a1.49 1.49 0 0 0-.94.3 1.79 1.79 0 0 0-.58.84 4 4 0 0 0 0 2.51 1.9 1.9 0 0 0 .58.85 1.44 1.44 0 0 0 .94.27ZM910.45 28.53v10.91h-2l-4.74-6.87h-.08v6.87h-2.31V28.53h2l4.71 6.86h.1v-6.86ZM916 39.6a4.38 4.38 0 0 1-2.17-.51 3.52 3.52 0 0 1-1.4-1.46 5.32 5.32 0 0 1 0-4.46 3.65 3.65 0 0 1 1.38-1.48 4 4 0 0 1 2.1-.54 4.39 4.39 0 0 1 1.51.26 3.31 3.31 0 0 1 1.23.78 3.38 3.38 0 0 1 .81 1.29 5.09 5.09 0 0 1 .3 1.83v.62h-6.91v-1.41h4.77a1.74 1.74 0 0 0-.21-.86 1.55 1.55 0 0 0-.59-.6 1.75 1.75 0 0 0-.87-.21 1.85 1.85 0 0 0-.92.23 1.73 1.73 0 0 0-.62.64 1.86 1.86 0 0 0-.23.88v1.34a2.32 2.32 0 0 0 .23 1.05 1.68 1.68 0 0 0 .64.68 2 2 0 0 0 1 .24 2.17 2.17 0 0 0 .69-.11 1.46 1.46 0 0 0 .54-.32 1.42 1.42 0 0 0 .34-.52l2.1.14a3 3 0 0 1-.65 1.32 3.42 3.42 0 0 1-1.27.87 4.73 4.73 0 0 1-1.8.31ZM925.63 31.26V33h-4.93v-1.7Zm-3.81-2h2.27v7.63a.9.9 0 0 0 .1.48.53.53 0 0 0 .26.25 1.25 1.25 0 0 0 .41.07h.32l.24-.05.36 1.69-.48.13a4.93 4.93 0 0 1-.75.08 3.41 3.41 0 0 1-1.44-.22 1.91 1.91 0 0 1-1-.77 2.39 2.39 0 0 1-.34-1.33ZM928.72 39.44l-2.23-8.18h2.3l1.27 5.5h.07l1.32-5.5h2.25l1.35 5.46h.07l1.24-5.46h2.29l-2.22 8.18H934l-1.41-5.14h-.1l-1.4 5.14ZM943.35 39.6a4.17 4.17 0 0 1-2.14-.53 3.63 3.63 0 0 1-1.4-1.48 4.83 4.83 0 0 1-.49-2.21 4.9 4.9 0 0 1 .49-2.22 3.7 3.7 0 0 1 1.4-1.48 4.17 4.17 0 0 1 2.14-.53 4.23 4.23 0 0 1 2.15.53 3.67 3.67 0 0 1 1.39 1.48 4.9 4.9 0 0 1 .49 2.22 4.83 4.83 0 0 1-.49 2.21 3.61 3.61 0 0 1-1.39 1.48 4.23 4.23 0 0 1-2.15.53Zm0-1.76a1.36 1.36 0 0 0 .94-.32 1.92 1.92 0 0 0 .58-.88 3.85 3.85 0 0 0 .19-1.27 3.91 3.91 0 0 0-.19-1.28 2 2 0 0 0-.58-.88 1.37 1.37 0 0 0-.94-.33 1.39 1.39 0 0 0-1 .33 1.89 1.89 0 0 0-.58.88 3.91 3.91 0 0 0-.2 1.28 3.85 3.85 0 0 0 .2 1.27 1.84 1.84 0 0 0 .58.88 1.38 1.38 0 0 0 1.01.32ZM948.86 39.44v-8.18h2.2v1.43h.08a2.1 2.1 0 0 1 .76-1.16 2 2 0 0 1 1.21-.39h.37l.34.06v2a1.76 1.76 0 0 0-.44-.09 5.13 5.13 0 0 0-.52 0 1.75 1.75 0 0 0-.89.22 1.56 1.56 0 0 0-.62.6 1.69 1.69 0 0 0-.22.88v4.63ZM955 39.44V28.53h2.27v10.91Zm2.06-2.35v-2.72h.33l2.61-3.11h2.61l-3.52 4.11h-.54Zm3.05 2.35-2.4-3.56 1.51-1.61 3.55 5.17Z" style="fill:#fff"/></g></g></g></svg>