<?xml version="1.0" encoding="UTF-8" standalone="no"?>
<!-- Created with Keyshape -->
<svg xmlns="http://www.w3.org/2000/svg" viewBox="0 0 187.38 108.98">
    <title>it-security</title>
    <g id="it-security" transform="translate(93.595,54.715) translate(-93.595,-54.715)"/>
    <path class="cls-1" d="M26.07,18.6L15.66,18.6L10.46,27.61L15.66,36.62L26.07,36.62L31.27,27.61L26.07,18.6Z" fill="#bfd858" transform="translate(20.865,27.61) translate(-20.865,-27.61)"/>
    <path class="cls-1" d="M25.92,72.72L15.51,72.72L10.31,81.73L15.51,90.74L25.92,90.74L31.12,81.73L25.92,72.72Z" fill="#bfd858" transform="translate(20.715,81.73) translate(-20.715,-81.73)"/>
    <path class="cls-1" d="M88.31,36.68L77.91,36.68L72.7,45.69L77.91,54.7L88.31,54.7L93.51,45.69L88.31,36.68Z" fill="#bfd858" transform="translate(83.105,45.69) translate(-83.105,-45.69)"/>
    <path class="cls-1" d="M171.58,36.71L166.38,45.72L171.58,54.73L181.99,54.73L187.19,45.72L181.99,36.71L171.58,36.71Z" fill="#bfd858" transform="translate(176.785,45.72) translate(-176.785,-45.72)"/>
    <path class="cls-2" d="M41.54,45.66L31.14,45.66L25.93,54.67L31.14,63.68L41.54,63.68L46.74,54.67L41.54,45.66Z" stroke-width="0.2px" stroke="#bfd858" stroke-miterlimit="10" fill="none" transform="translate(36.335,54.67) translate(-36.335,-54.67)"/>
    <path class="cls-2" d="M57.25,18.6L46.84,18.6L41.64,27.61L46.84,36.62L57.25,36.62L62.45,27.61L57.25,18.6Z" stroke-width="0.2px" stroke="#bfd858" stroke-miterlimit="10" fill="none" transform="translate(52.045,27.61) translate(-52.045,-27.61)"/>
    <path class="cls-2" d="M31.14,9.59L25.93,18.6L31.14,27.61L41.54,27.61L46.74,18.6L41.54,9.59" stroke-width="0.2px" stroke="#bfd858" stroke-miterlimit="10" fill="none" transform="translate(36.335,18.6) translate(-36.335,-18.6)"/>
    <path class="cls-2" d="M0,81.7L10.4,81.7L15.61,72.69L10.4,63.68L0,63.68" stroke-width="0.2px" stroke="#bfd858" stroke-miterlimit="10" fill="none" transform="translate(7.805,72.69) translate(-7.805,-72.69)"/>
    <path class="cls-2" d="M15.51,54.64L25.92,54.64L31.12,45.63L25.92,36.62L15.51,36.62" stroke-width="0.2px" stroke="#bfd858" stroke-miterlimit="10" fill="none" transform="translate(23.315,45.63) translate(-23.315,-45.63)"/>
    <path class="cls-2" d="M15.67,108.76L26.07,108.76L31.28,99.75L26.07,90.74L15.67,90.74" stroke-width="0.2px" stroke="#bfd858" stroke-miterlimit="10" fill="none" transform="translate(23.475,99.75) translate(-23.475,-99.75)"/>
    <path class="cls-2" d="M57.17,72.72L46.77,72.72L41.56,81.73L46.77,90.74L57.17,90.74L62.37,81.73L57.17,72.72Z" stroke-width="0.2px" stroke="#bfd858" stroke-miterlimit="10" fill="none" transform="translate(51.965,81.73) translate(-51.965,-81.73)"/>
    <path class="cls-2" d="M151.35,72.78L140.95,72.78L135.75,81.79L140.95,90.8L151.35,90.8L156.56,81.79L151.35,72.78Z" stroke-width="0.2px" stroke="#bfd858" stroke-miterlimit="10" fill="none" transform="translate(146.155,81.79) translate(-146.155,-81.79)"/>
    <path class="cls-2" d="M72.67,45.72L62.27,45.72L57.07,54.73L62.27,63.74L72.67,63.74L77.88,54.73L72.67,45.72Z" stroke-width="0.2px" stroke="#bfd858" stroke-miterlimit="10" fill="none" transform="translate(67.475,54.73) translate(-67.475,-54.73)"/>
    <path class="cls-2" d="M103.93,45.72L93.53,45.72L88.33,54.73L93.53,63.74L103.93,63.74L109.14,54.73L103.93,45.72Z" stroke-width="0.2px" stroke="#bfd858" stroke-miterlimit="10" fill="none" transform="translate(98.735,54.73) translate(-98.735,-54.73)"/>
    <path class="cls-2" d="M88.31,72.78L77.91,72.78L72.7,81.79L77.91,90.8L88.31,90.8L93.51,81.79L88.31,72.78Z" stroke-width="0.2px" stroke="#bfd858" stroke-miterlimit="10" fill="none" transform="translate(83.105,81.79) translate(-83.105,-81.79)"/>
    <path class="cls-2" d="M88.47,90.8L78.06,90.8L72.86,99.81L78.06,108.82L88.47,108.82L93.67,99.81L88.47,90.8Z" stroke-width="0.2px" stroke="#bfd858" stroke-miterlimit="10" fill="none" transform="translate(83.265,99.81) translate(-83.265,-99.81)"/>
    <path class="cls-2" d="M119.56,72.78L109.16,72.78L103.95,81.79L109.16,90.8L119.56,90.8L124.76,81.79L119.56,72.78Z" stroke-width="0.2px" stroke="#bfd858" stroke-miterlimit="10" fill="none" transform="translate(114.355,81.79) translate(-114.355,-81.79)"/>
    <path class="cls-2" d="M119.56,36.68L109.16,36.68L103.95,45.69L109.16,54.7L119.56,54.7L124.76,45.69L119.56,36.68Z" stroke-width="0.2px" stroke="#bfd858" stroke-miterlimit="10" fill="none" transform="translate(114.355,45.69) translate(-114.355,-45.69)"/>
    <path class="cls-2" d="M166.36,9.65L155.95,9.65L150.75,18.66L155.95,27.67L166.36,27.67L171.56,18.66L166.36,9.65Z" stroke-width="0.2px" stroke="#bfd858" stroke-miterlimit="10" fill="none" transform="translate(161.155,18.66) translate(-161.155,-18.66)"/>
    <path class="cls-2" d="M150.74,36.7L140.33,36.7L135.13,45.72L140.33,54.73L150.74,54.73L155.94,45.72L150.74,36.7Z" stroke-width="0.2px" stroke="#bfd858" stroke-miterlimit="10" fill="none" transform="translate(145.535,45.715) translate(-145.535,-45.715)"/>
    <path class="cls-2" d="M150.74,0.61L140.33,0.61L135.13,9.62L140.33,18.63L150.74,18.63L155.94,9.62L150.74,0.61Z" stroke-width="0.2px" stroke="#bfd858" stroke-miterlimit="10" fill="none" transform="translate(145.535,9.62) translate(-145.535,-9.62)"/>
    <path class="cls-2" d="M181.99,0.61L171.58,0.61L166.38,9.62L171.58,18.63L181.99,18.63L187.19,9.62L181.99,0.61Z" stroke-width="0.2px" stroke="#bfd858" stroke-miterlimit="10" fill="none" transform="translate(176.785,9.62) translate(-176.785,-9.62)"/>
    <path class="cls-2" d="M166.36,27.7L155.95,27.7L150.75,36.7L155.95,45.72L166.36,45.72L171.56,36.7L166.36,27.7Z" stroke-width="0.2px" stroke="#bfd858" stroke-miterlimit="10" fill="none" transform="translate(161.155,36.71) translate(-161.155,-36.71)"/>
    <path class="cls-3" d="M57.17,36.62L46.77,36.62L41.56,45.63L46.77,54.64L57.17,54.64L62.37,45.63L57.17,36.62Z" fill="#ccc" transform="translate(51.965,45.63) translate(-51.965,-45.63)"/>
    <path class="cls-3" d="M140.87,90.8L135.67,99.81L140.87,108.82L151.28,108.82L156.48,99.81L151.28,90.8L140.87,90.8Z" fill="#ccc" transform="translate(146.075,99.81) translate(-146.075,-99.81)"/>
    <path class="cls-3" d="M41.54,63.71L31.14,63.71L25.93,72.72L31.14,81.73L41.54,81.73L46.74,72.72L41.54,63.71Z" fill="#ccc" transform="translate(36.335,72.72) translate(-36.335,-72.72)"/>
    <path class="cls-3" d="M103.93,63.76L93.53,63.76L88.33,72.78L93.53,81.78L103.93,81.78L109.14,72.78L103.93,63.76Z" fill="#ccc" transform="translate(98.735,72.77) translate(-98.735,-72.77)"/>
    <g id="Layer_19" data-name="Layer 19" transform="translate(130.025,36.67) translate(-130.025,-36.67)">
        <path class="cls-1" d="M135.22,27.67L124.82,27.67L119.62,36.67L124.82,45.67L135.23,45.67L140.43,36.67ZM132.22,40.75L127.92,40.75C127.705,40.75,127.499,40.6647,127.347,40.5128C127.195,40.3609,127.11,40.1548,127.11,39.94L127.11,35.4L128,35.4L128,33.71C128,32.5751,128.92,31.655,130.055,31.655C131.19,31.655,132.11,32.5751,132.11,33.71L132.11,35.4L133,35.4L133,39.94C133,40.1548,132.915,40.3609,132.763,40.5128C132.611,40.6647,132.405,40.75,132.19,40.75" fill="#bfd858" transform="translate(130.025,36.67) translate(-130.025,-36.67)"/>
        <path class="cls-1" d="M129.93,36.55C129.611,36.5806,129.347,36.8105,129.272,37.1221C129.198,37.4338,129.329,37.7584,129.6,37.93L129.49,39.78C129.49,39.8518,129.548,39.91,129.62,39.91L130.43,39.91C130.464,39.9101,130.496,39.8961,130.519,39.8714C130.541,39.8467,130.553,39.8135,130.55,39.78L130.44,37.93C130.745,37.7429,130.875,37.3664,130.751,37.0307C130.627,36.695,130.283,36.4938,129.93,36.55" fill="#bfd858" transform="translate(130.025,38.2253) translate(-130.025,-38.2253)"/>
        <path class="cls-1" d="M130,32.52C129.343,32.52,128.81,33.0528,128.81,33.71L128.81,35.4L131.19,35.4L131.19,33.71C131.19,33.0528,130.657,32.52,130,32.52" fill="#bfd858" transform="translate(130,33.96) translate(-130,-33.96)"/>
    </g>
    <path class="cls-1" d="M150.89,54.62L140.49,54.62L135.29,63.62L140.49,72.62L150.89,72.62L156.09,63.62ZM147.89,68.18L143.59,68.18C143.375,68.18,143.169,68.0947,143.017,67.9428C142.865,67.7909,142.78,67.5848,142.78,67.37L142.78,62.83L143.71,62.83L143.71,61.14C143.71,60.0051,144.63,59.085,145.765,59.085C146.9,59.085,147.82,60.0051,147.82,61.14L147.82,62.83L148.7,62.83L148.7,67.37C148.7,67.5848,148.615,67.7909,148.463,67.9428C148.311,68.0947,148.105,68.18,147.89,68.18" fill="#bfd858" transform="translate(145.69,63.62) translate(-145.69,-63.62)"/>
    <path class="cls-1" d="M145.69,60C145.033,60,144.5,60.5328,144.5,61.19L144.5,62.88L146.88,62.88L146.88,61.14C146.853,60.5024,146.328,59.9994,145.69,60" fill="#bfd858" transform="translate(145.69,61.44) translate(-145.69,-61.44)"/>
    <path class="cls-1" d="M145.6,64C145.281,64.0306,145.017,64.2605,144.942,64.5721C144.868,64.8838,144.999,65.2084,145.27,65.38L145.16,67.22C145.16,67.2918,145.218,67.35,145.29,67.35L146.1,67.35C146.134,67.3501,146.166,67.3361,146.189,67.3114C146.211,67.2867,146.223,67.2535,146.22,67.22L146.11,65.38C146.411,65.1931,146.541,64.8206,146.42,64.4872C146.299,64.1538,145.961,63.9505,145.61,64" fill="#bfd858" transform="translate(145.693,65.6713) translate(-145.693,-65.6713)"/>
    <path class="cls-1" d="M67.53,69.17C66.8728,69.17,66.34,69.7028,66.34,70.36L66.34,72.05L68.72,72.05L68.72,70.36C68.72,69.7028,68.1872,69.17,67.53,69.17" fill="#bfd858" transform="translate(67.53,70.61) translate(-67.53,-70.61)"/>
    <path class="cls-1" d="M72.74,63.84L62.33,63.84L57.13,72.84L62.33,81.84L72.73,81.84L77.93,72.84ZM69.74,77.4L65.4,77.4C65.1852,77.4,64.9791,77.3147,64.8272,77.1628C64.6753,77.0109,64.59,76.8048,64.59,76.59L64.59,72.05L65.52,72.05L65.52,70.36C65.52,69.6258,65.9117,68.9474,66.5475,68.5803C67.1833,68.2132,67.9667,68.2132,68.6025,68.5803C69.2383,68.9474,69.63,69.6258,69.63,70.36L69.63,72.05L70.51,72.05L70.51,76.59C70.51,76.8048,70.4247,77.0109,70.2728,77.1628C70.1209,77.3147,69.9148,77.4,69.7,77.4" fill="#bfd858" transform="translate(67.53,72.84) translate(-67.53,-72.84)"/>
    <path class="cls-1" d="M67.45,73.2C67.131,73.2306,66.8667,73.4605,66.7922,73.7721C66.7176,74.0838,66.8494,74.4084,67.12,74.58L67,76.42C66.9969,76.4553,67.0096,76.4902,67.0347,76.5153C67.0598,76.5404,67.0947,76.5531,67.13,76.55L67.94,76.55C67.9753,76.5531,68.0102,76.5404,68.0353,76.5153C68.0604,76.4902,68.0731,76.4553,68.07,76.42L68,74.58C68.3014,74.3931,68.4306,74.0206,68.3098,73.6872C68.189,73.3538,67.8512,73.1505,67.5,73.2" fill="#bfd858" transform="translate(67.5631,74.8715) translate(-67.5631,-74.8715)"/>
    <path id="hex_9" class="cls-1" d="M88.31,36.68L77.91,36.68L72.7,45.69L77.91,54.7L88.31,54.7L93.51,45.69L88.31,36.68Z" fill="#bfd858" opacity="0" transform="translate(176.741,9.64142) translate(-83.105,-45.69)"/>
    <path id="hex_8" class="cls-1" d="M88.31,36.68L77.91,36.68L72.7,45.69L77.91,54.7L88.31,54.7L93.51,45.69L88.31,36.68Z" fill="#bfd858" opacity="0" transform="translate(161.191,18.7414) translate(-83.105,-45.69)"/>
    <path id="hex_7" class="cls-1" d="M88.31,36.68L77.91,36.68L72.7,45.69L77.91,54.7L88.31,54.7L93.51,45.69L88.31,36.68Z" fill="#bfd858" opacity="0" transform="translate(161.141,36.7414) translate(-83.105,-45.69)"/>
    <path id="hex_6" class="cls-1" d="M88.31,36.68L77.91,36.68L72.7,45.69L77.91,54.7L88.31,54.7L93.51,45.69L88.31,36.68Z" fill="#bfd858" opacity="0" transform="translate(145.491,45.7414) translate(-83.105,-45.69)"/>
    <path id="hex_5" class="cls-1" d="M88.31,36.68L77.91,36.68L72.7,45.69L77.91,54.7L88.31,54.7L93.51,45.69L88.31,36.68Z" fill="#bfd858" opacity="0" transform="translate(114.431,45.6814) translate(-83.105,-45.69)"/>
    <path id="hex_4" class="cls-1" d="M88.31,36.68L77.91,36.68L72.7,45.69L77.91,54.7L88.31,54.7L93.51,45.69L88.31,36.68Z" fill="#bfd858" opacity="0" transform="translate(98.731,54.7314) translate(-83.105,-45.69)"/>
    <path id="hex_3" class="cls-1" d="M88.31,36.68L77.91,36.68L72.7,45.69L77.91,54.7L88.31,54.7L93.51,45.69L88.31,36.68Z" fill="#bfd858" opacity="0" transform="translate(83.106,81.7564) translate(-83.105,-45.69)"/>
    <path id="hex_2" class="cls-1" d="M88.31,36.68L77.91,36.68L72.7,45.69L77.91,54.7L88.31,54.7L93.51,45.69L88.31,36.68Z" fill="#bfd858" opacity="0" transform="translate(51.9393,81.7564) translate(-83.105,-45.69)"/>
    <path id="hex_1" class="cls-1" d="M88.31,36.68L77.91,36.68L72.7,45.69L77.91,54.7L88.31,54.7L93.51,45.69L88.31,36.68Z" fill="#bfd858" opacity="0" transform="translate(36.3393,54.6764) translate(-83.105,-45.69)"/>
    <path id="hex_0" class="cls-1" d="M88.31,36.68L77.91,36.68L72.7,45.69L77.91,54.7L88.31,54.7L93.51,45.69L88.31,36.68Z" fill="#bfd858" opacity="0" transform="translate(36.3663,36.6227) translate(-83.105,-45.69)"/>
    <path id="hex_00" class="cls-1" d="M88.31,36.68L77.91,36.68L72.7,45.69L77.91,54.7L88.31,54.7L93.51,45.69L88.31,36.68Z" fill="#bfd858" opacity="0" transform="translate(36.333,18.6227) translate(-83.105,-45.69)"/>
    <script><![CDATA[/*
 KeyshapeJS v1.1.1 (c) 2018-2021 Pixofield Ltd | pixofield.com/keyshapejs/mit-license */
window.KeyshapeJS=function(){function t(a){return"undefined"!==typeof a}function x(a,b){return a&&0==a.indexOf(b)}function R(a){var b={},c;for(c in a)b[c]=a[c];return b}function H(a){if(!isFinite(a))throw Error("Non-finite value");}function S(a){if(14>=a)return 16;var b=T[a];b||(b=t(da[a])?0|(a.toLowerCase().indexOf("color")==a.length-5?48:0):1);return b}function K(a){return 0<=a?Math.pow(a,1/3):-Math.pow(-a,1/3)}function ea(a,b,c,d){if(0==a)return 0==b?b=-d/c:(a=Math.sqrt(c*c-4*b*d),d=(-c+a)/(2*
b),0<=d&&1>=d?b=d:(d=(-c-a)/(2*b),b=0<=d&&1>=d?d:0)),b;var e=c/a-b*b/(a*a)/3;c=b*b*b/(a*a*a)/13.5-b*c/(a*a)/3+d/a;var n=c*c/4+e*e*e/27;b=-b/(3*a);if(0>=n){if(0==e&&0==c)return-K(d/a);a=Math.sqrt(c*c/4-n);d=Math.acos(-c/2/a);c=Math.cos(d/3);d=Math.sqrt(3)*Math.sin(d/3);a=K(a);e=2*a*c+b;if(0<=e&&1>=e)return e;e=-a*(c+d)+b;if(0<=e&&1>=e)return e;e=a*(d-c)+b;if(0<=e&&1>=e)return e}else{a=K(-c/2+Math.sqrt(n));c=K(-c/2-Math.sqrt(n));d=a+c+b;if(0<=d&&1>=d)return d;d=-(a+c)/2+b;if(0<=d&&1>=d)return d}return 0}
function fa(a,b){if(48==a&&"number"===typeof b)return"rgba("+(b>>>24)+","+(b>>>16&255)+","+(b>>>8&255)+","+(b&255)/255+")";if(64==a)return b=b.map(function(a){return a+"px"}),b.join(",");if(96==a){a="";for(var c=b.length,d=0;d<c;d+=2)a+=b[d],a+=b[d+1].join(",");return a}if(80==a){if(0==b[0])return"none";a="";c=b.length;for(d=0;d<c;)a+=U[b[d]],1==b[d]?a+="("+b[d+1]+") ":5==b[d]?(a+="("+b[d+1]+"px "+b[d+2]+"px "+b[d+3]+"px rgba("+(b[d+4]>>>24)+","+(b[d+4]>>16&255)+","+(b[d+4]>>8&255)+","+(b[d+4]&255)/
255+")) ",d+=3):a=2==b[d]?a+("("+b[d+1]+"px) "):7==b[d]?a+("("+b[d+1]+"deg) "):a+("("+(0>b[d+1]?0:b[d+1])+") "),d+=2;return a}return 32==a?b+"px":b}function y(a){return 0>=a?0:255<=a?255:a}function ha(a,b,c,d){if(16==a||32==a)return(c-b)*d+b;if(0==a)return.5>d?b:c;if(48==a){if("number"===typeof b&&"number"===typeof c){var e=1-d;return(y(e*(b>>>24)+d*(c>>>24))<<24|y(e*(b>>>16&255)+d*(c>>>16&255))<<16|y(e*(b>>>8&255)+d*(c>>>8&255))<<8|y(e*(b&255)+d*(c&255)))>>>0}return.5>d?b:c}if(64==a){0==b.length&&
(b=[0]);0==c.length&&(c=[0]);var n=b.length;b.length!=c.length&&(n=b.length*c.length);var q=[];for(a=0;a<n;++a){var h=b[a%b.length];var g=(c[a%c.length]-h)*d+h;0>g&&(g=0);q.push(g)}return q}if(96==a){if(b.length!=c.length)return.5>d?b:c;n=b.length;q=[];for(a=0;a<n;a+=2){if(b[a]!==c[a])return.5>d?b:c;q[a]=b[a];q[a+1]=[];for(h=0;h<b[a+1].length;++h)q[a+1].push((c[a+1][h]-b[a+1][h])*d+b[a+1][h])}return q}if(80==a){n=b.length;if(n!=c.length)return.5>d?b:c;q=[];for(a=0;a<n;){if(b[a]!=c[a]||1==b[a])return.5>
d?b:c;q[a]=b[a];q[a+1]=(c[a+1]-b[a+1])*d+b[a+1];if(5==b[a]){q[a+2]=(c[a+2]-b[a+2])*d+b[a+2];q[a+3]=(c[a+3]-b[a+3])*d+b[a+3];e=1-d;var f=b[a+4],l=c[a+4];g=e*(f>>>24)+d*(l>>>24);var m=e*(f>>16&255)+d*(l>>16&255);h=e*(f>>8&255)+d*(l>>8&255);e=e*(f&255)+d*(l&255);q[a+4]=(y(m)<<16|y(h)<<8|y(e))+16777216*(y(g)|0);a+=3}a+=2}return q}return 0}function V(a,b){a:{var c=a+b[2];var d=b[4].length;for(var e=0;e<d;++e)if(c<b[4][e]){c=e;break a}c=d-1}d=b[2];e=b[4][c-1]-d;a=(a-e)/(b[4][c]-d-e);if(b[6]&&b[6].length>
c-1)if(d=b[6][c-1],1==d[0])if(0>=a)a=0;else if(1<=a)a=1;else{e=d[1];var n=d[3];a=ea(3*e-3*n+1,-6*e+3*n,3*e,-a);a=3*a*(1-a)*(1-a)*d[2]+3*a*a*(1-a)*d[4]+a*a*a}else 2==d[0]?(d=d[1],a=Math.ceil(a*d)/d):3==d[0]&&(d=d[1],a=Math.floor(a*d)/d);return ha(b[1]&240,b[5][c-1],b[5][c],a)}function L(){u||(v=(new Date).getTime()+W)}function O(a){if(a||!E){for(var b=!1,c=0;c<w.length;++c)w[c].J(a)&&(b=!0);if(a)for(;0<I.length;)if(a=I.shift(),c=a[0],1==a[1])c.onfinish&&(c.onfinish(),b=!0),c.I();else if(2==a[1]&&c.onloop)c.onloop();
return b}}function X(){L();O(!0)&&!u?(E=!0,M(X)):E=!1}function N(){E||(E=!0,M(X))}function Y(a,b){var c=[];a.split(b).forEach(function(a){c.push(parseFloat(a))});return c}function A(a){-1==a.indexOf(",")&&(a=a.replace(" ",","));return Y(a,",")}function Z(a){a._ks||(a._ks={});if(!a._ks.transform){for(var b=a._ks.transform=[],c=0;14>=c;++c)b[c]=0;b[10]=1;b[11]=1;if(a=a.getAttribute("transform")){a=a.trim().split(") ");for(c=a.length-2;0<=c;--c)if(x(a[c],"translate(")){for(var d=0;d<c;d++)a.shift();
break}c=a.shift();x(c,"translate(")&&(c=A(c.substring(10)),b[1]=c[0],b[2]=t(c[1])?c[1]:0,c=a.shift());x(c,"rotate(")&&(c=A(c.substring(7)),b[6]=c[0],c=a.shift());x(c,"skewX(")&&(c=A(c.substring(6)),b[7]=c[0],c=a.shift());x(c,"skewY(")&&(c=A(c.substring(6)),b[8]=c[0],c=a.shift());x(c,"scale(")&&(c=A(c.substring(6)),b[10]=c[0],b[11]=t(c[1])?c[1]:c[0],c=a.shift());x(c,"translate(")&&(c=A(c.substring(10)),b[13]=c[0],b[14]=t(c[1])?c[1]:0)}}}function aa(a){this.h=a;this.A=[];this.C=[];this.v=0;this.s=this.a=
this.c=null;this.i=this.f=this.g=0;this.b=1;this.j=this.F=this.o=!1}function J(a,b,c){b=a[b];void 0===b&&(b=a[c]);return b}function ia(a){return Array.isArray(a)?a:x(a,"cubic-bezier(")?(a=a.substring(13,a.length-1).split(","),[1,parseFloat(a[0]),parseFloat(a[1]),parseFloat(a[2]),parseFloat(a[3])]):x(a,"steps(")?(a=a.substring(6,a.length-1).split(","),[a[1]&&"start"==a[1].trim()?2:3,parseFloat(a[0])]):[0]}function ja(a){a=a.trim();return x(a,"#")?(parseInt(a.substring(1),16)<<8)+255:x(a,"rgba(")?(a=
a.substring(5,a.length-1),a=a.split(","),(parseInt(a[0],10)<<24)+(parseInt(a[1],10)<<16)+(parseInt(a[2],10)<<8)+255*parseFloat(a[3])<<0):a}function ba(a){!1===a.j&&(w.push(a),a.j=!0,!1!==a.h.autoplay&&a.play());return this}function P(a){if(!0===a.j){a._cancel();var b=w.indexOf(a);-1<b&&w.splice(b,1);b=I.indexOf(a);-1<b&&I.splice(b,1);a.j=!1}return this}var Q=Error("Not in timeline list"),ca="mpath posX posY    rotate skewX skewY  scaleX scaleY  anchorX anchorY".split(" "),ka=" translate translate    rotate skewX skewY  scale scale  translate translate".split(" "),
U="none url blur brightness contrast drop-shadow grayscale hue-rotate invert opacity saturate sepia".split(" "),M=window.requestAnimationFrame||window.webkitRequestAnimationFrame||window.mozRequestAnimationFrame||window.oRequestAnimationFrame||window.msRequestAnimationFrame||null;M||(M=function(a){window.setTimeout(a,16)});var la=navigator.vendor.match(/apple/i),T={d:97,fill:48,fillOpacity:16,filter:80,height:33,opacity:16,offsetDistance:33,stroke:48,strokeDasharray:64,strokeDashoffset:32,strokeOpacity:16,
strokeWidth:32,transform:1,width:33},da=window.getComputedStyle(document.documentElement),E=!1,v=(new Date).getTime(),u,W=0,w=[],I=[];aa.prototype={B:function(a){var b=0;if(null!==this.c){var c=this.l();0<this.b&&null!==c&&c>=this.f?this.i?(this.c=v-this.g/this.b,this.i--,b=2):(b=1,a?this.a=c:this.a=this.s?Math.max(this.s,this.f):this.f):0>this.b&&null!==c&&c<=this.g?this.i&&Infinity!=this.f?(this.c=v-this.f/this.b,this.i--,b=2):(this.i=0,b=1,a?this.a=c:this.a=this.s?Math.min(this.s,this.g):this.g):
null!==c&&0!=this.b&&(a&&null!==this.a&&(this.c=v-this.a/this.b),this.a=null)}this.s=this.l();return b},J:function(a){a&&(this.o&&(this.o=!1,null===this.c&&(0!=this.b&&null!==this.a?(this.c=v-this.a/this.b,this.a=null):this.c=v)),null===this.a&&null!==this.c&&(a=this.B(!1),0!=a&&I.push([this,a])));a=this.l();if(null===a)return!1;for(var b=this.A,c=this.C,d=0;d<b.length;++d){for(var e=b[d],n=!1,q=0;q<c[d].length;++q){var h=c[d][q],g=h[0];if(null!==g){var f=h[2];var l=h[4].length,m=h[4][l-1]-f;f=0==
m?h[5][l-1]:a<=f?h[5][0]:a>=f+h[3]?0==h[3]%m?h[5][l-1]:V(h[3]%m,h):V((a-f)%m,h);0==g?(e._ks.mpath=h[8],e._ks.transform[g]=f,n=!0):14>=g?(e._ks.transform[g]=f,n=!0):(f=fa(h[1]&240,f),h[1]&1?e.setAttribute(g,f):e.style[g]=f)}}if(n){n=e;Z(n);q=n._ks.transform;h="";if(g=n._ks.mpath)l=q[0],0>l&&(l=0),100<l&&(l=100),l=l*g[2]/100,f=g[1].getPointAtLength(l),h="translate("+f.x+","+f.y+") ",g[0]&&(.5>l?(l=f,f=g[1].getPointAtLength(.5)):l=g[1].getPointAtLength(l-.5),h+="rotate("+180*Math.atan2(f.y-l.y,f.x-l.x)/
Math.PI+") ");for(g=1;g<q.length;++g)f=q[g],f!=(10==g||11==g?1:0)&&(h+=" "+ka[g]+"(",h=2>=g?h+(1==g?f+",0":"0,"+f):13<=g?h+(13==g?f+",0":"0,"+f):10<=g?h+(10==g?f+",1":"1,"+f):h+f,h+=")");n.setAttribute("transform",h)}la&&e.setAttribute("opacity",e.getAttribute("opacity"))}return"running"==this.m()},I:function(){!1!==this.h.autoremove&&"finished"==this.m()&&P(this)},D:function(){if(!this.F){this.F=!0;for(var a=this.A,b=this.C,c=0;c<a.length;++c)for(var d=a[c],e=0;e<b[c].length;++e)14>=b[c][e][0]&&
Z(d)}},u:function(a){if("number"==typeof a)return a;if(!t(this.h.markers)||!t(this.h.markers[a]))throw Error("Invalid marker: "+a);return+this.h.markers[a]},play:function(a){t(a)&&null!==a&&(a=this.u(a),H(a),0>this.b&&a<this.g&&(a=this.g),0<this.b&&a>this.f&&(a=this.f),this.w(a,!0));if(!this.j)throw Q;a=this.l();if(0<this.b&&(null===a||a>=this.f))this.a=this.g;else if(0>this.b&&(null===a||a<=this.g)){if(Infinity==this.f)throw Error("Cannot seek to Infinity");this.a=this.f}else 0==this.b&&null===a&&
(this.a=this.g);if(null===this.a)return this;this.c=null;this.o=!0;this.D();N();return this},pause:function(a){if(!this.j)throw Q;t(a)&&(a=this.u(a),H(a));if("paused"!=this.m()){L();var b=this.l();if(null===b)if(0<=this.b)this.a=this.g;else{if(Infinity==this.f)throw Error("Cannot seek to Infinity");this.a=this.f}null!==this.c&&null===this.a&&(this.a=b);this.c=null;this.o=!1;this.B(!1);this.D();N()}t(a)&&this.w(a,!0);return this},range:function(a,b){if(0==arguments.length)return{"in":this.g,out:this.f};
var c=this.u(a),d=this.v;t(b)&&(d=this.u(b));H(c);if(0>c||0>d||c>=d||isNaN(d))throw Error("Invalid range");var e=this.m();this.g=c;this.f=d;"finished"==e&&"running"==this.m()&&this.play();return this},loop:function(a){if(!t(a))return{count:this.i};this.i=!0===a?Infinity:Math.floor(a);if(0>this.i||isNaN(this.i))this.i=0;return this},l:function(){return null!==this.a?this.a:null===this.c?null:(v-this.c)*this.b},w:function(a,b){b&&L();null!==a&&(this.D(),null!==this.a||null===this.c||0==this.b?(this.a=
a,O(!1)):this.c=v-a/this.b,this.j||(this.c=null),this.s=null,this.B(!0),N())},G:function(){return this.l()},time:function(a){if(t(a)){if(!this.j)throw Q;a=this.u(a);H(a);this.w(a,!0);return this}return this.G()},m:function(){var a=this.l();return this.o?"running":null===a?"idle":null===this.c?"paused":0<this.b&&a>=this.f||0>this.b&&a<=this.g?"finished":"running"},state:function(){return this.m()},duration:function(){return this.v},H:function(a){H(a);L();var b=this.l();this.b=a;null!==b&&this.w(b,
!1)},rate:function(a){return t(a)?(this.H(a),this):this.b},markers:function(a){return t(a)?(this.h.markers=R(a),this):t(this.h.markers)?this.h.markers:{}},marker:function(a){return t(this.h.markers)?this.h.markers[a]:void 0},_cancel:function(){if(!this.j||"idle"==this.m())return this;this.c=this.a=null;this.o=!1;return this}};return{version:"1.1.1",animate:function(){var a={};1==arguments.length%2&&(a=R(arguments[arguments.length-1]));a=new aa(a);for(var b=arguments,c=0,d=0;d<b.length-1;d+=2){var e=
b[d];var n=e instanceof Element?e:document.getElementById(e.substring(1));if(!n)throw Error("Invalid target: "+e);e=n;n=b[d+1];e._ks||(e._ks={});for(var q=[],h=0;h<n.length;++h){var g=n[h],f=J(g,"p","property");if("string"!=typeof f||-1!=f.indexOf("-")||""===f||!(0<T[f]||0<=ca.indexOf(f)))throw Error("Invalid property: "+f);var l=ca.indexOf(f);""!==f&&0<=l&&(f=l);l=S(f);var m=J(g,"t","times");if(!m||2>m.length)throw Error("Not enough times");m=m.slice();if(!isFinite(m[0])||0>m[0])throw Error("Invalid time: "+
m[0]);for(var B=1;B<m.length;++B)if(!isFinite(m[B])||0>m[B]||m[B]<m[B-1])throw Error("Invalid time: "+m[B]);B=m[0];var v=m[m.length-1]-B,y=g.iterations||0;1>y&&(y=1);v*=y;c<v+B&&(c=v+B);var u=J(g,"v","values");if(!u||u.length!=m.length)throw Error("Values do not match times");u=u.slice();for(var C=f,k=u,w=S(C)&240,p=0;p<k.length;++p)if(96==w){for(var G=k[p].substring(6,k[p].length-2).match(/[A-DF-Za-df-z][-+0-9eE., ]*/ig),A=[],r=0;r<G.length;++r){A.push(G[r][0]);for(var z=1<G[r].trim().length?G[r].substring(1).split(","):
[],F=0;F<z.length;++F)z[F]=parseFloat(z[F]);A.push(z)}k[p]=A}else if(48==w)x(k[p],"#")?(G=9==k[p].length,k[p]=parseInt(k[p].substring(1),16),G||(k[p]=256*k[p]|255)):x(k[p],"url(")||"none"==k[p]||(console.warn("unsupported color: "+k[p]),k[p]=0);else if(80==w){G=k;A=p;r=k[p];if("none"==r)r=[0];else{z=[];for(var D=r.indexOf("(");0<D;)if(F=U.indexOf(r.substring(0,D)),0<=F){z.push(F);var E=r.indexOf(") ");0>E&&(E=r.length-1);D=r.substring(D+1,E).split(" ");5==F?(z.push(parseFloat(D[0])),z.push(parseFloat(D[1])),
z.push(parseFloat(D[2])),z.push(ja(D[3]))):1==F?z.push(D[0]):z.push(parseFloat(D[0]));r=r.substring(E+1).trim();D=r.indexOf("(")}else break;r=z}G[A]=r}else 64==w?"none"!=k[p]?/^[0-9 .]*$/.test(k[p])?k[p]=Y(k[p]," "):(console.warn("unsupported value: "+k[p]),k[p]=[0]):k[p]=[0]:32==w?(H(k[p]),k[p]=parseFloat(k[p])):0===C&&(k[p]=parseFloat(k[p]));C=J(g,"e","easing");k=m.length;for(C||(C=[]);C.length<k;)C.push([1,0,0,.58,1]);for(k=0;k<C.length;++k)C[k]=ia(C[k]);l=[f,l,B,v,m,u,C,y];m=J(g,"mp","motionPath");
t(m)&&0===f&&(l[8]=[],l[8][0]=g.motionRotate,g=document.createElementNS("http://www.w3.org/2000/svg","path"),m||(m="M0,0"),g.setAttribute("d",m),l[8][1]=g,l[8][2]=g.getTotalLength());q.push(l)}0<q.length&&(a.A.push(e),a.C.push(q))}a.v=c;a.g=0;a.f=a.v;ba(a);return a},add:ba,remove:P,removeAll:function(){for(var a=w.length-1;0<=a;--a)P(w[a]);return this},timelines:function(){return w.slice()},globalPlay:function(){u&&(W=u-(new Date).getTime(),u=void 0,N());return this},globalPause:function(){u||(u=
v,O(!1));return this},globalState:function(){return u?"paused":"running"}}}();
]]></script>
    <script><![CDATA[if(KeyshapeJS.version.indexOf('1.')!=0)throw Error('Expected KeyshapeJS v1.*.*');window.ks=document.ks=KeyshapeJS;(function(ks){
ks.animate("#hex_9",[{p:'opacity',t:[3000,4000,8000,9000],v:[0,1,1,0],e:[[0],[0],[0],[0]]}],
"#hex_8",[{p:'opacity',t:[2700,3700,7700,8700],v:[0,1,1,0],e:[[0],[0],[0],[0]]}],
"#hex_7",[{p:'opacity',t:[2400,3400,7400,8400],v:[0,1,1,0],e:[[0],[0],[0],[0]]}],
"#hex_6",[{p:'opacity',t:[2100,3100,7100,8100],v:[0,1,1,0],e:[[0],[0],[0],[0]]}],
"#hex_5",[{p:'opacity',t:[1800,2800,6800,7800],v:[0,1,1,0],e:[[0],[0],[0],[0]]}],
"#hex_4",[{p:'opacity',t:[1500,2500,6500,7500],v:[0,1,1,0],e:[[0],[0],[0],[0]]}],
"#hex_3",[{p:'opacity',t:[1200,2200,6200,7200],v:[0,1,1,0],e:[[0],[0],[0],[0]]}],
"#hex_2",[{p:'opacity',t:[900,1900,5900,6900],v:[0,1,1,0],e:[[0],[0],[0],[0]]}],
"#hex_1",[{p:'opacity',t:[600,1600,5600,6600],v:[0,1,1,0],e:[[0],[0],[0],[0]]}],
"#hex_0",[{p:'opacity',t:[300,1300,5300,6300],v:[0,1,1,0],e:[[0],[0],[0],[0]]}],
"#hex_00",[{p:'opacity',t:[0,1000,5000,6000],v:[0,1,1,0],e:[[0],[0],[0],[0]]}],
{autoremove:false}).range(0,10000).loop(true);
if(document.location.search.substr(1).split('&').indexOf('global=paused')>=0)ks.globalPause()})(KeyshapeJS);
]]></script>
</svg>
