<?xml version="1.0" encoding="UTF-8" standalone="no"?>
<!-- Created with Keyshape -->
<svg xmlns="http://www.w3.org/2000/svg" viewBox="0 0 160.5 68.8">
    <title>our-community</title>
    <g id="Layer_11" data-name="Layer 11" transform="translate(95.0402,39.8498) translate(-95.0402,-39.8498)">
        <path d="M66.13,30.45C66.1301,26.1308,69.6276,22.6274,73.9467,22.6201C78.2659,22.6128,81.7753,26.1043,81.79,30.4235C81.8046,34.7426,78.3191,38.2579,74,38.28C69.6756,38.28,66.17,34.7744,66.17,30.45" fill="#ccc" transform="translate(73.96,30.4501) translate(-73.96,-30.4501)"/>
        <path d="M38,59.88C38,55.5556,41.5056,52.05,45.83,52.05C50.1544,52.05,53.66,55.5556,53.66,59.88C53.66,64.2044,50.1544,67.71,45.83,67.71C41.5056,67.71,38,64.2044,38,59.88" fill="#ccc" transform="translate(45.83,59.88) translate(-45.83,-59.88)"/>
        <path d="M109.35,45.22C109.33,42.0486,111.225,39.1782,114.149,37.9505C117.073,36.7228,120.449,37.3803,122.699,39.6156C124.948,41.851,125.628,45.2227,124.419,48.1547C123.21,51.0868,120.351,52.9999,117.18,53C112.856,53,109.35,49.4944,109.35,45.17" fill="#ccc" transform="translate(117.18,45.1699) translate(-117.18,-45.1699)"/>
        <path d="M100.31,58C100.31,56.0504,101.89,54.47,103.84,54.47C105.79,54.47,107.37,56.0504,107.37,58C107.37,59.9496,105.79,61.53,103.84,61.53C102.904,61.53,102.006,61.1581,101.344,60.4961C100.682,59.8341,100.31,58.9362,100.31,58" fill="#ccc" transform="translate(103.84,58) translate(-103.84,-58)"/>
        <path d="M123.32,26.77C123.32,24.8536,124.874,23.3,126.79,23.3C128.706,23.3,130.26,24.8536,130.26,26.77C130.26,28.6864,128.706,30.24,126.79,30.24C124.874,30.24,123.32,28.6864,123.32,26.77" fill="#ccc" transform="translate(126.79,26.77) translate(-126.79,-26.77)"/>
        <path d="M141.3,22.88C141.3,18.4754,143.953,14.5045,148.023,12.819C152.092,11.1334,156.776,12.0651,159.89,15.1796C163.005,18.2941,163.937,22.9781,162.251,27.0474C160.565,31.1167,156.595,33.77,152.19,33.77C146.176,33.77,141.3,28.8944,141.3,22.88" fill="#ccc" transform="translate(152.19,22.8798) translate(-152.19,-22.8798)"/>
        <path d="M27,32.5C27,28.1756,30.5056,24.67,34.83,24.67C39.1544,24.67,42.66,28.1756,42.66,32.5C42.66,36.8244,39.1544,40.33,34.83,40.33C30.5056,40.33,27,36.8244,27,32.5" fill="#ccc" transform="translate(34.83,32.5) translate(-34.83,-32.5)"/>
    </g>
    <g id="Layer_10" data-name="Layer 10" transform="translate(80.43,31.095) translate(-80.43,-31.095)">
        <path d="M96.09,22.92C96.09,18.6177,99.5777,15.13,103.88,15.13C108.182,15.13,111.67,18.6177,111.67,22.92C111.67,27.2223,108.182,30.71,103.88,30.71C101.814,30.71,99.8325,29.8893,98.3716,28.4284C96.9107,26.9675,96.09,24.986,96.09,22.92" fill="#bfd456" transform="translate(103.88,22.92) translate(-103.88,-22.92)"/>
        <g transform="translate(135.38,22.66) translate(-135.38,-22.66)">
            <path d="M127.55,22.66C127.55,18.3356,131.056,14.83,135.38,14.83C139.704,14.83,143.21,18.3356,143.21,22.66C143.21,26.9844,139.704,30.49,135.38,30.49C131.056,30.49,127.55,26.9844,127.55,22.66" fill="#bfd456" transform="translate(135.38,22.66) translate(-135.38,-22.66)"/>
            <path d="M136.84,20.42C136.856,21.0139,136.511,21.5584,135.967,21.797C135.423,22.0357,134.788,21.9208,134.363,21.5066C133.937,21.0924,133.804,20.4614,134.028,19.9109C134.251,19.3604,134.786,19.0002,135.38,19C135.767,19,136.139,19.1538,136.412,19.4276C136.686,19.7014,136.84,20.0728,136.84,20.46" fill="#fff" transform="translate(135.381,20.46) translate(-135.381,-20.46)"/>
            <path d="M137.84,25.17L137.84,24.27C137.835,22.9523,136.768,21.8855,135.45,21.88L135.31,21.88C133.992,21.8855,132.925,22.9523,132.92,24.27L132.92,25.17Z" fill="#fff" transform="translate(135.38,23.525) translate(-135.38,-23.525)"/>
        </g>
        <g transform="translate(50.0201,24.91) translate(-50.0201,-24.91)">
            <path d="M42.21,24.91C42.21,21.7394,44.1221,18.8818,47.0529,17.6723C49.9837,16.4627,53.3546,17.14,55.5908,19.3877C57.827,21.6353,58.487,25.0097,57.2624,27.9342C56.0379,30.8588,53.1705,32.7562,50,32.74C45.6756,32.74,42.17,29.2344,42.17,24.91" fill="#bfd456" transform="translate(50.0201,24.91) translate(-50.0201,-24.91)"/>
            <path d="M51.5,22.67C51.4997,23.4711,50.854,24.1223,50.053,24.1294C49.2519,24.1365,48.5948,23.4969,48.5802,22.6959C48.5657,21.895,49.1992,21.2319,50,21.21C50.3872,21.21,50.7586,21.3638,51.0324,21.6376C51.3062,21.9114,51.46,22.2828,51.46,22.67" fill="#fff" transform="translate(50.04,22.6697) translate(-50.04,-22.6697)"/>
            <path d="M52.5,27.42L52.5,26.52C52.4945,25.2023,51.4277,24.1355,50.11,24.13L50,24.13C48.6823,24.1355,47.6155,25.2023,47.61,26.52L47.61,27.42Z" fill="#fff" transform="translate(50.055,25.775) translate(-50.055,-25.775)"/>
        </g>
        <g transform="translate(59.41,44.62) translate(-59.41,-44.62)">
            <path d="M51.56,44.62C51.56,40.2846,55.0746,36.77,59.41,36.77C63.7454,36.77,67.26,40.2846,67.26,44.62C67.26,48.9554,63.7454,52.47,59.41,52.47C57.3281,52.47,55.3314,51.6429,53.8592,50.1708C52.3871,48.6986,51.56,46.7019,51.56,44.62" fill="#bfd456" transform="translate(59.41,44.62) translate(-59.41,-44.62)"/>
            <path d="M60.87,42.37C60.87,43.1763,60.2163,43.83,59.41,43.83C58.6037,43.83,57.95,43.1763,57.95,42.37C57.95,41.5637,58.6037,40.91,59.41,40.91C59.7972,40.91,60.1686,41.0638,60.4424,41.3376C60.7162,41.6114,60.87,41.9828,60.87,42.37" fill="#fff" transform="translate(59.41,42.37) translate(-59.41,-42.37)"/>
            <path d="M61.87,47.13L61.87,46.23C61.8645,44.9084,60.7916,43.84,59.47,43.84L59.33,43.84C58.0084,43.84,56.9355,44.9084,56.93,46.23L56.93,47.13Z" fill="#fff" transform="translate(59.4,45.485) translate(-59.4,-45.485)"/>
        </g>
        <g transform="translate(87.63,47.49) translate(-87.63,-47.49)">
            <path d="M79.8,47.49C79.8,43.1656,83.3056,39.66,87.63,39.66C91.9544,39.66,95.46,43.1656,95.46,47.49C95.46,51.8144,91.9544,55.32,87.63,55.32C83.3056,55.32,79.8,51.8144,79.8,47.49" fill="#bfd456" transform="translate(87.63,47.49) translate(-87.63,-47.49)"/>
            <path d="M89.09,45.25C89.09,45.8405,88.7343,46.3729,88.1887,46.5989C87.6432,46.8248,87.0152,46.6999,86.5976,46.2824C86.1801,45.8648,86.0552,45.2368,86.2811,44.6913C86.5071,44.1457,87.0395,43.79,87.63,43.79C88.4363,43.79,89.09,44.4437,89.09,45.25" fill="#fff" transform="translate(87.63,45.25) translate(-87.63,-45.25)"/>
            <path d="M90.09,50L90.09,49.1C90.0845,47.7823,89.0177,46.7155,87.7,46.71L87.56,46.71C86.2423,46.7155,85.1755,47.7823,85.17,49.1L85.17,50Z" fill="#fff" transform="translate(87.63,48.355) translate(-87.63,-48.355)"/>
        </g>
        <g transform="translate(78.96,12.8301) translate(-78.96,-12.8301)">
            <path d="M66.85,12.83C66.85,6.14705,72.2638,0.727407,78.9467,0.720073C85.6297,0.71274,91.0553,6.12048,91.07,12.8034C91.0847,19.4864,85.6829,24.9179,79,24.94C75.7813,24.9506,72.6908,23.6795,70.4111,21.4072C68.1313,19.135,66.85,16.0487,66.85,12.83" fill="#bfd456" transform="translate(78.96,12.8301) translate(-78.96,-12.8301)"/>
            <path d="M81.22,9.36C81.2199,10.2777,80.6648,11.1042,79.8154,11.4515C78.9659,11.7989,77.9908,11.5981,77.3477,10.9434C76.7046,10.2887,76.5213,9.31015,76.8837,8.46706C77.2462,7.62397,78.0824,7.08376,79,7.1C79.5994,7.1,80.1742,7.33811,80.5981,7.76194C81.0219,8.18577,81.26,8.76061,81.26,9.36" fill="#fff" transform="translate(78.98,9.35968) translate(-78.98,-9.35968)"/>
            <path d="M82.77,16.71L82.77,15.31C82.7645,13.2688,81.1112,11.6155,79.07,11.61L78.85,11.61C76.8088,11.6155,75.1555,13.2688,75.15,15.31L75.15,16.71Z" fill="#fff" transform="translate(78.96,14.16) translate(-78.96,-14.16)"/>
        </g>
        <g transform="translate(103.905,22.33) translate(-103.905,-22.33)">
            <path d="M105.34,20.69C105.34,21.4908,104.691,22.14,103.89,22.14C103.089,22.14,102.44,21.4908,102.44,20.69C102.44,19.8892,103.089,19.24,103.89,19.24C104.275,19.24,104.643,19.3928,104.915,19.6647C105.187,19.9366,105.34,20.3054,105.34,20.69" fill="#fff" transform="translate(103.89,20.69) translate(-103.89,-20.69)"/>
            <path d="M106.33,25.41L106.33,24.51C106.32,23.2209,105.289,22.1723,104,22.14L103.86,22.14C102.548,22.1455,101.485,23.2078,101.48,24.52L101.48,25.42Z" fill="#fff" transform="translate(103.905,23.78) translate(-103.905,-23.78)"/>
        </g>
        <ellipse fill="none" stroke="#bfd456" stroke-miterlimit="10" stroke-width="0.2" rx="6.25" ry="6.25" transform="translate(11.66,24.8)"/>
        <ellipse fill="none" stroke="#bfd456" stroke-miterlimit="10" stroke-width="0.2" rx="9.74" ry="9.74" transform="translate(103.88,22.98)"/>
        <ellipse fill="none" stroke="#bfd456" stroke-miterlimit="10" stroke-width="0.2" rx="9.74" ry="9.74" transform="translate(143.22,44.82)"/>
        <g transform="translate(143.22,44.82) translate(-143.22,-44.82)">
            <path d="M135.39,44.82C135.39,40.4956,138.896,36.99,143.22,36.99C147.544,36.99,151.05,40.4956,151.05,44.82C151.05,49.1444,147.544,52.65,143.22,52.65C141.143,52.65,139.152,51.8251,137.683,50.3566C136.215,48.8882,135.39,46.8966,135.39,44.82" fill="#bfd456" transform="translate(143.22,44.82) translate(-143.22,-44.82)"/>
            <path d="M144.68,42.58C144.68,43.3863,144.026,44.04,143.22,44.04C142.414,44.04,141.76,43.3863,141.76,42.58C141.76,41.7737,142.414,41.12,143.22,41.12C143.607,41.12,143.979,41.2738,144.252,41.5476C144.526,41.8214,144.68,42.1928,144.68,42.58" fill="#fff" transform="translate(143.22,42.58) translate(-143.22,-42.58)"/>
            <path d="M145.68,47.33L145.68,46.43C145.688,45.79,145.44,45.1734,144.991,44.7171C144.542,44.2608,143.93,44.0026,143.29,44L143.15,44C141.832,44.0055,140.765,45.0723,140.76,46.39L140.76,47.29Z" fill="#fff" transform="translate(143.22,45.665) translate(-143.22,-45.665)"/>
        </g>
        <ellipse id="_a0" fill="none" stroke="#bfd456" stroke-miterlimit="10" stroke-width="0.21" stroke-dasharray="1.98 0.98 0.01 0 0 0" rx="16.56" ry="16.56" transform="translate(103.91,22.92)"/>
        <ellipse id="_a1" fill="none" stroke="#bfd456" stroke-miterlimit="10" stroke-width="0.2" stroke-dasharray="2.02 1 0.01 0 0 0" rx="10.63" ry="10.63" transform="translate(11.72,24.8)"/>
        <ellipse id="_a2" fill="none" stroke="#bfd456" stroke-miterlimit="10" stroke-width="0.2" stroke-dasharray="1.98 0.98 0.01 0 0 0" rx="16.54" ry="16.54" transform="translate(59.71,44.6)"/>
        <ellipse id="_a3" fill="none" stroke="#bfd456" stroke-miterlimit="10" stroke-width="0.2" stroke-dasharray="1.98 0.98 0.01 0 0 0" rx="16.55" ry="16.55" transform="translate(143.22,44.92)"/>
        <g transform="translate(24.63,39.33) translate(-24.63,-39.33)">
            <path d="M16.8,39.33C16.8,35.0056,20.3056,31.5,24.63,31.5C28.9544,31.5,32.46,35.0056,32.46,39.33C32.46,43.6544,28.9544,47.16,24.63,47.16C20.3056,47.16,16.8,43.6544,16.8,39.33" fill="#bfd456" transform="translate(24.63,39.33) translate(-24.63,-39.33)"/>
            <path d="M26.09,37.09C26.09,37.8963,25.4363,38.55,24.63,38.55C23.8237,38.55,23.17,37.8963,23.17,37.09C23.17,36.2837,23.8237,35.63,24.63,35.63C25.0172,35.63,25.3886,35.7838,25.6624,36.0576C25.9362,36.3314,26.09,36.7028,26.09,37.09" fill="#fff" transform="translate(24.63,37.09) translate(-24.63,-37.09)"/>
            <path d="M27.09,41.84L27.09,40.94C27.0845,39.6223,26.0177,38.5555,24.7,38.55L24.56,38.55C23.2423,38.5555,22.1755,39.6223,22.17,40.94L22.17,41.84Z" fill="#fff" transform="translate(24.63,40.195) translate(-24.63,-40.195)"/>
        </g>
        <g transform="translate(11.65,24.78) translate(-11.65,-24.78)">
            <path d="M6.57,24.78C6.57,21.9744,8.84439,19.7,11.65,19.7C14.4556,19.7,16.73,21.9744,16.73,24.78C16.73,27.5856,14.4556,29.86,11.65,29.86C8.84439,29.86,6.57,27.5856,6.57,24.78" fill="#bfd456" transform="translate(11.65,24.78) translate(-11.65,-24.78)"/>
            <path d="M12.6,23.33C12.6,23.7142,12.3685,24.0606,12.0135,24.2077C11.6586,24.3547,11.2499,24.2734,10.9782,24.0018C10.7066,23.7301,10.6253,23.3214,10.7723,22.9665C10.9194,22.6115,11.2658,22.38,11.65,22.38C12.1747,22.38,12.6,22.8053,12.6,23.33" fill="#fff" transform="translate(11.65,23.33) translate(-11.65,-23.33)"/>
            <path d="M13.25,26.41L13.25,25.82C13.2445,24.9662,12.5538,24.2755,11.7,24.27L11.61,24.27C10.7562,24.2755,10.0655,24.9662,10.06,25.82L10.06,26.41Z" fill="#fff" transform="translate(11.655,25.34) translate(-11.655,-25.34)"/>
        </g>
        <path d="M19.54,21.89C19.54,20.3712,20.7712,19.14,22.29,19.14C23.8088,19.14,25.04,20.3712,25.04,21.89C25.04,23.4088,23.8088,24.64,22.29,24.64C20.7712,24.64,19.54,23.4088,19.54,21.89" fill="#ccc" transform="translate(22.29,21.89) translate(-22.29,-21.89)"/>
        <ellipse fill="none" stroke="#bfd456" stroke-miterlimit="10" stroke-width="0.2" rx="9.74" ry="9.74" transform="translate(59.48,44.58)"/>
    </g>
    <script><![CDATA[/*
 KeyshapeJS v1.1.1 (c) 2018-2021 Pixofield Ltd | pixofield.com/keyshapejs/mit-license */
window.KeyshapeJS=function(){function t(a){return"undefined"!==typeof a}function x(a,b){return a&&0==a.indexOf(b)}function R(a){var b={},c;for(c in a)b[c]=a[c];return b}function H(a){if(!isFinite(a))throw Error("Non-finite value");}function S(a){if(14>=a)return 16;var b=T[a];b||(b=t(da[a])?0|(a.toLowerCase().indexOf("color")==a.length-5?48:0):1);return b}function K(a){return 0<=a?Math.pow(a,1/3):-Math.pow(-a,1/3)}function ea(a,b,c,d){if(0==a)return 0==b?b=-d/c:(a=Math.sqrt(c*c-4*b*d),d=(-c+a)/(2*
b),0<=d&&1>=d?b=d:(d=(-c-a)/(2*b),b=0<=d&&1>=d?d:0)),b;var e=c/a-b*b/(a*a)/3;c=b*b*b/(a*a*a)/13.5-b*c/(a*a)/3+d/a;var n=c*c/4+e*e*e/27;b=-b/(3*a);if(0>=n){if(0==e&&0==c)return-K(d/a);a=Math.sqrt(c*c/4-n);d=Math.acos(-c/2/a);c=Math.cos(d/3);d=Math.sqrt(3)*Math.sin(d/3);a=K(a);e=2*a*c+b;if(0<=e&&1>=e)return e;e=-a*(c+d)+b;if(0<=e&&1>=e)return e;e=a*(d-c)+b;if(0<=e&&1>=e)return e}else{a=K(-c/2+Math.sqrt(n));c=K(-c/2-Math.sqrt(n));d=a+c+b;if(0<=d&&1>=d)return d;d=-(a+c)/2+b;if(0<=d&&1>=d)return d}return 0}
function fa(a,b){if(48==a&&"number"===typeof b)return"rgba("+(b>>>24)+","+(b>>>16&255)+","+(b>>>8&255)+","+(b&255)/255+")";if(64==a)return b=b.map(function(a){return a+"px"}),b.join(",");if(96==a){a="";for(var c=b.length,d=0;d<c;d+=2)a+=b[d],a+=b[d+1].join(",");return a}if(80==a){if(0==b[0])return"none";a="";c=b.length;for(d=0;d<c;)a+=U[b[d]],1==b[d]?a+="("+b[d+1]+") ":5==b[d]?(a+="("+b[d+1]+"px "+b[d+2]+"px "+b[d+3]+"px rgba("+(b[d+4]>>>24)+","+(b[d+4]>>16&255)+","+(b[d+4]>>8&255)+","+(b[d+4]&255)/
255+")) ",d+=3):a=2==b[d]?a+("("+b[d+1]+"px) "):7==b[d]?a+("("+b[d+1]+"deg) "):a+("("+(0>b[d+1]?0:b[d+1])+") "),d+=2;return a}return 32==a?b+"px":b}function y(a){return 0>=a?0:255<=a?255:a}function ha(a,b,c,d){if(16==a||32==a)return(c-b)*d+b;if(0==a)return.5>d?b:c;if(48==a){if("number"===typeof b&&"number"===typeof c){var e=1-d;return(y(e*(b>>>24)+d*(c>>>24))<<24|y(e*(b>>>16&255)+d*(c>>>16&255))<<16|y(e*(b>>>8&255)+d*(c>>>8&255))<<8|y(e*(b&255)+d*(c&255)))>>>0}return.5>d?b:c}if(64==a){0==b.length&&
(b=[0]);0==c.length&&(c=[0]);var n=b.length;b.length!=c.length&&(n=b.length*c.length);var q=[];for(a=0;a<n;++a){var h=b[a%b.length];var g=(c[a%c.length]-h)*d+h;0>g&&(g=0);q.push(g)}return q}if(96==a){if(b.length!=c.length)return.5>d?b:c;n=b.length;q=[];for(a=0;a<n;a+=2){if(b[a]!==c[a])return.5>d?b:c;q[a]=b[a];q[a+1]=[];for(h=0;h<b[a+1].length;++h)q[a+1].push((c[a+1][h]-b[a+1][h])*d+b[a+1][h])}return q}if(80==a){n=b.length;if(n!=c.length)return.5>d?b:c;q=[];for(a=0;a<n;){if(b[a]!=c[a]||1==b[a])return.5>
d?b:c;q[a]=b[a];q[a+1]=(c[a+1]-b[a+1])*d+b[a+1];if(5==b[a]){q[a+2]=(c[a+2]-b[a+2])*d+b[a+2];q[a+3]=(c[a+3]-b[a+3])*d+b[a+3];e=1-d;var f=b[a+4],l=c[a+4];g=e*(f>>>24)+d*(l>>>24);var m=e*(f>>16&255)+d*(l>>16&255);h=e*(f>>8&255)+d*(l>>8&255);e=e*(f&255)+d*(l&255);q[a+4]=(y(m)<<16|y(h)<<8|y(e))+16777216*(y(g)|0);a+=3}a+=2}return q}return 0}function V(a,b){a:{var c=a+b[2];var d=b[4].length;for(var e=0;e<d;++e)if(c<b[4][e]){c=e;break a}c=d-1}d=b[2];e=b[4][c-1]-d;a=(a-e)/(b[4][c]-d-e);if(b[6]&&b[6].length>
c-1)if(d=b[6][c-1],1==d[0])if(0>=a)a=0;else if(1<=a)a=1;else{e=d[1];var n=d[3];a=ea(3*e-3*n+1,-6*e+3*n,3*e,-a);a=3*a*(1-a)*(1-a)*d[2]+3*a*a*(1-a)*d[4]+a*a*a}else 2==d[0]?(d=d[1],a=Math.ceil(a*d)/d):3==d[0]&&(d=d[1],a=Math.floor(a*d)/d);return ha(b[1]&240,b[5][c-1],b[5][c],a)}function L(){u||(v=(new Date).getTime()+W)}function O(a){if(a||!E){for(var b=!1,c=0;c<w.length;++c)w[c].J(a)&&(b=!0);if(a)for(;0<I.length;)if(a=I.shift(),c=a[0],1==a[1])c.onfinish&&(c.onfinish(),b=!0),c.I();else if(2==a[1]&&c.onloop)c.onloop();
return b}}function X(){L();O(!0)&&!u?(E=!0,M(X)):E=!1}function N(){E||(E=!0,M(X))}function Y(a,b){var c=[];a.split(b).forEach(function(a){c.push(parseFloat(a))});return c}function A(a){-1==a.indexOf(",")&&(a=a.replace(" ",","));return Y(a,",")}function Z(a){a._ks||(a._ks={});if(!a._ks.transform){for(var b=a._ks.transform=[],c=0;14>=c;++c)b[c]=0;b[10]=1;b[11]=1;if(a=a.getAttribute("transform")){a=a.trim().split(") ");for(c=a.length-2;0<=c;--c)if(x(a[c],"translate(")){for(var d=0;d<c;d++)a.shift();
break}c=a.shift();x(c,"translate(")&&(c=A(c.substring(10)),b[1]=c[0],b[2]=t(c[1])?c[1]:0,c=a.shift());x(c,"rotate(")&&(c=A(c.substring(7)),b[6]=c[0],c=a.shift());x(c,"skewX(")&&(c=A(c.substring(6)),b[7]=c[0],c=a.shift());x(c,"skewY(")&&(c=A(c.substring(6)),b[8]=c[0],c=a.shift());x(c,"scale(")&&(c=A(c.substring(6)),b[10]=c[0],b[11]=t(c[1])?c[1]:c[0],c=a.shift());x(c,"translate(")&&(c=A(c.substring(10)),b[13]=c[0],b[14]=t(c[1])?c[1]:0)}}}function aa(a){this.h=a;this.A=[];this.C=[];this.v=0;this.s=this.a=
this.c=null;this.i=this.f=this.g=0;this.b=1;this.j=this.F=this.o=!1}function J(a,b,c){b=a[b];void 0===b&&(b=a[c]);return b}function ia(a){return Array.isArray(a)?a:x(a,"cubic-bezier(")?(a=a.substring(13,a.length-1).split(","),[1,parseFloat(a[0]),parseFloat(a[1]),parseFloat(a[2]),parseFloat(a[3])]):x(a,"steps(")?(a=a.substring(6,a.length-1).split(","),[a[1]&&"start"==a[1].trim()?2:3,parseFloat(a[0])]):[0]}function ja(a){a=a.trim();return x(a,"#")?(parseInt(a.substring(1),16)<<8)+255:x(a,"rgba(")?(a=
a.substring(5,a.length-1),a=a.split(","),(parseInt(a[0],10)<<24)+(parseInt(a[1],10)<<16)+(parseInt(a[2],10)<<8)+255*parseFloat(a[3])<<0):a}function ba(a){!1===a.j&&(w.push(a),a.j=!0,!1!==a.h.autoplay&&a.play());return this}function P(a){if(!0===a.j){a._cancel();var b=w.indexOf(a);-1<b&&w.splice(b,1);b=I.indexOf(a);-1<b&&I.splice(b,1);a.j=!1}return this}var Q=Error("Not in timeline list"),ca="mpath posX posY    rotate skewX skewY  scaleX scaleY  anchorX anchorY".split(" "),ka=" translate translate    rotate skewX skewY  scale scale  translate translate".split(" "),
U="none url blur brightness contrast drop-shadow grayscale hue-rotate invert opacity saturate sepia".split(" "),M=window.requestAnimationFrame||window.webkitRequestAnimationFrame||window.mozRequestAnimationFrame||window.oRequestAnimationFrame||window.msRequestAnimationFrame||null;M||(M=function(a){window.setTimeout(a,16)});var la=navigator.vendor.match(/apple/i),T={d:97,fill:48,fillOpacity:16,filter:80,height:33,opacity:16,offsetDistance:33,stroke:48,strokeDasharray:64,strokeDashoffset:32,strokeOpacity:16,
strokeWidth:32,transform:1,width:33},da=window.getComputedStyle(document.documentElement),E=!1,v=(new Date).getTime(),u,W=0,w=[],I=[];aa.prototype={B:function(a){var b=0;if(null!==this.c){var c=this.l();0<this.b&&null!==c&&c>=this.f?this.i?(this.c=v-this.g/this.b,this.i--,b=2):(b=1,a?this.a=c:this.a=this.s?Math.max(this.s,this.f):this.f):0>this.b&&null!==c&&c<=this.g?this.i&&Infinity!=this.f?(this.c=v-this.f/this.b,this.i--,b=2):(this.i=0,b=1,a?this.a=c:this.a=this.s?Math.min(this.s,this.g):this.g):
null!==c&&0!=this.b&&(a&&null!==this.a&&(this.c=v-this.a/this.b),this.a=null)}this.s=this.l();return b},J:function(a){a&&(this.o&&(this.o=!1,null===this.c&&(0!=this.b&&null!==this.a?(this.c=v-this.a/this.b,this.a=null):this.c=v)),null===this.a&&null!==this.c&&(a=this.B(!1),0!=a&&I.push([this,a])));a=this.l();if(null===a)return!1;for(var b=this.A,c=this.C,d=0;d<b.length;++d){for(var e=b[d],n=!1,q=0;q<c[d].length;++q){var h=c[d][q],g=h[0];if(null!==g){var f=h[2];var l=h[4].length,m=h[4][l-1]-f;f=0==
m?h[5][l-1]:a<=f?h[5][0]:a>=f+h[3]?0==h[3]%m?h[5][l-1]:V(h[3]%m,h):V((a-f)%m,h);0==g?(e._ks.mpath=h[8],e._ks.transform[g]=f,n=!0):14>=g?(e._ks.transform[g]=f,n=!0):(f=fa(h[1]&240,f),h[1]&1?e.setAttribute(g,f):e.style[g]=f)}}if(n){n=e;Z(n);q=n._ks.transform;h="";if(g=n._ks.mpath)l=q[0],0>l&&(l=0),100<l&&(l=100),l=l*g[2]/100,f=g[1].getPointAtLength(l),h="translate("+f.x+","+f.y+") ",g[0]&&(.5>l?(l=f,f=g[1].getPointAtLength(.5)):l=g[1].getPointAtLength(l-.5),h+="rotate("+180*Math.atan2(f.y-l.y,f.x-l.x)/
Math.PI+") ");for(g=1;g<q.length;++g)f=q[g],f!=(10==g||11==g?1:0)&&(h+=" "+ka[g]+"(",h=2>=g?h+(1==g?f+",0":"0,"+f):13<=g?h+(13==g?f+",0":"0,"+f):10<=g?h+(10==g?f+",1":"1,"+f):h+f,h+=")");n.setAttribute("transform",h)}la&&e.setAttribute("opacity",e.getAttribute("opacity"))}return"running"==this.m()},I:function(){!1!==this.h.autoremove&&"finished"==this.m()&&P(this)},D:function(){if(!this.F){this.F=!0;for(var a=this.A,b=this.C,c=0;c<a.length;++c)for(var d=a[c],e=0;e<b[c].length;++e)14>=b[c][e][0]&&
Z(d)}},u:function(a){if("number"==typeof a)return a;if(!t(this.h.markers)||!t(this.h.markers[a]))throw Error("Invalid marker: "+a);return+this.h.markers[a]},play:function(a){t(a)&&null!==a&&(a=this.u(a),H(a),0>this.b&&a<this.g&&(a=this.g),0<this.b&&a>this.f&&(a=this.f),this.w(a,!0));if(!this.j)throw Q;a=this.l();if(0<this.b&&(null===a||a>=this.f))this.a=this.g;else if(0>this.b&&(null===a||a<=this.g)){if(Infinity==this.f)throw Error("Cannot seek to Infinity");this.a=this.f}else 0==this.b&&null===a&&
(this.a=this.g);if(null===this.a)return this;this.c=null;this.o=!0;this.D();N();return this},pause:function(a){if(!this.j)throw Q;t(a)&&(a=this.u(a),H(a));if("paused"!=this.m()){L();var b=this.l();if(null===b)if(0<=this.b)this.a=this.g;else{if(Infinity==this.f)throw Error("Cannot seek to Infinity");this.a=this.f}null!==this.c&&null===this.a&&(this.a=b);this.c=null;this.o=!1;this.B(!1);this.D();N()}t(a)&&this.w(a,!0);return this},range:function(a,b){if(0==arguments.length)return{"in":this.g,out:this.f};
var c=this.u(a),d=this.v;t(b)&&(d=this.u(b));H(c);if(0>c||0>d||c>=d||isNaN(d))throw Error("Invalid range");var e=this.m();this.g=c;this.f=d;"finished"==e&&"running"==this.m()&&this.play();return this},loop:function(a){if(!t(a))return{count:this.i};this.i=!0===a?Infinity:Math.floor(a);if(0>this.i||isNaN(this.i))this.i=0;return this},l:function(){return null!==this.a?this.a:null===this.c?null:(v-this.c)*this.b},w:function(a,b){b&&L();null!==a&&(this.D(),null!==this.a||null===this.c||0==this.b?(this.a=
a,O(!1)):this.c=v-a/this.b,this.j||(this.c=null),this.s=null,this.B(!0),N())},G:function(){return this.l()},time:function(a){if(t(a)){if(!this.j)throw Q;a=this.u(a);H(a);this.w(a,!0);return this}return this.G()},m:function(){var a=this.l();return this.o?"running":null===a?"idle":null===this.c?"paused":0<this.b&&a>=this.f||0>this.b&&a<=this.g?"finished":"running"},state:function(){return this.m()},duration:function(){return this.v},H:function(a){H(a);L();var b=this.l();this.b=a;null!==b&&this.w(b,
!1)},rate:function(a){return t(a)?(this.H(a),this):this.b},markers:function(a){return t(a)?(this.h.markers=R(a),this):t(this.h.markers)?this.h.markers:{}},marker:function(a){return t(this.h.markers)?this.h.markers[a]:void 0},_cancel:function(){if(!this.j||"idle"==this.m())return this;this.c=this.a=null;this.o=!1;return this}};return{version:"1.1.1",animate:function(){var a={};1==arguments.length%2&&(a=R(arguments[arguments.length-1]));a=new aa(a);for(var b=arguments,c=0,d=0;d<b.length-1;d+=2){var e=
b[d];var n=e instanceof Element?e:document.getElementById(e.substring(1));if(!n)throw Error("Invalid target: "+e);e=n;n=b[d+1];e._ks||(e._ks={});for(var q=[],h=0;h<n.length;++h){var g=n[h],f=J(g,"p","property");if("string"!=typeof f||-1!=f.indexOf("-")||""===f||!(0<T[f]||0<=ca.indexOf(f)))throw Error("Invalid property: "+f);var l=ca.indexOf(f);""!==f&&0<=l&&(f=l);l=S(f);var m=J(g,"t","times");if(!m||2>m.length)throw Error("Not enough times");m=m.slice();if(!isFinite(m[0])||0>m[0])throw Error("Invalid time: "+
m[0]);for(var B=1;B<m.length;++B)if(!isFinite(m[B])||0>m[B]||m[B]<m[B-1])throw Error("Invalid time: "+m[B]);B=m[0];var v=m[m.length-1]-B,y=g.iterations||0;1>y&&(y=1);v*=y;c<v+B&&(c=v+B);var u=J(g,"v","values");if(!u||u.length!=m.length)throw Error("Values do not match times");u=u.slice();for(var C=f,k=u,w=S(C)&240,p=0;p<k.length;++p)if(96==w){for(var G=k[p].substring(6,k[p].length-2).match(/[A-DF-Za-df-z][-+0-9eE., ]*/ig),A=[],r=0;r<G.length;++r){A.push(G[r][0]);for(var z=1<G[r].trim().length?G[r].substring(1).split(","):
[],F=0;F<z.length;++F)z[F]=parseFloat(z[F]);A.push(z)}k[p]=A}else if(48==w)x(k[p],"#")?(G=9==k[p].length,k[p]=parseInt(k[p].substring(1),16),G||(k[p]=256*k[p]|255)):x(k[p],"url(")||"none"==k[p]||(console.warn("unsupported color: "+k[p]),k[p]=0);else if(80==w){G=k;A=p;r=k[p];if("none"==r)r=[0];else{z=[];for(var D=r.indexOf("(");0<D;)if(F=U.indexOf(r.substring(0,D)),0<=F){z.push(F);var E=r.indexOf(") ");0>E&&(E=r.length-1);D=r.substring(D+1,E).split(" ");5==F?(z.push(parseFloat(D[0])),z.push(parseFloat(D[1])),
z.push(parseFloat(D[2])),z.push(ja(D[3]))):1==F?z.push(D[0]):z.push(parseFloat(D[0]));r=r.substring(E+1).trim();D=r.indexOf("(")}else break;r=z}G[A]=r}else 64==w?"none"!=k[p]?/^[0-9 .]*$/.test(k[p])?k[p]=Y(k[p]," "):(console.warn("unsupported value: "+k[p]),k[p]=[0]):k[p]=[0]:32==w?(H(k[p]),k[p]=parseFloat(k[p])):0===C&&(k[p]=parseFloat(k[p]));C=J(g,"e","easing");k=m.length;for(C||(C=[]);C.length<k;)C.push([1,0,0,.58,1]);for(k=0;k<C.length;++k)C[k]=ia(C[k]);l=[f,l,B,v,m,u,C,y];m=J(g,"mp","motionPath");
t(m)&&0===f&&(l[8]=[],l[8][0]=g.motionRotate,g=document.createElementNS("http://www.w3.org/2000/svg","path"),m||(m="M0,0"),g.setAttribute("d",m),l[8][1]=g,l[8][2]=g.getTotalLength());q.push(l)}0<q.length&&(a.A.push(e),a.C.push(q))}a.v=c;a.g=0;a.f=a.v;ba(a);return a},add:ba,remove:P,removeAll:function(){for(var a=w.length-1;0<=a;--a)P(w[a]);return this},timelines:function(){return w.slice()},globalPlay:function(){u&&(W=u-(new Date).getTime(),u=void 0,N());return this},globalPause:function(){u||(u=
v,O(!1));return this},globalState:function(){return u?"paused":"running"}}}();
]]></script>
    <script><![CDATA[if(KeyshapeJS.version.indexOf('1.')!=0)throw Error('Expected KeyshapeJS v1.*.*');window.ks=document.ks=KeyshapeJS;(function(ks){
ks.animate("#_a0",[{p:'rotate',t:[0,20000],v:[0,-360],e:[[0],[0]]}],
"#_a1",[{p:'rotate',t:[0,10000,20000],v:[0,-360,0],e:[[0],[0],[0]]}],
"#_a2",[{p:'rotate',t:[0,20000],v:[0,360],e:[[0],[0]]}],
"#_a3",[{p:'rotate',t:[0,20000],v:[0,360],e:[[0],[0]]}],
{autoremove:false}).range(0,20000).loop(true);
if(document.location.search.substr(1).split('&').indexOf('global=paused')>=0)ks.globalPause()})(KeyshapeJS);
]]></script>
</svg>
