<svg xmlns="http://www.w3.org/2000/svg" viewBox="0 0 39.69 39.69"><defs><clipPath id="clip-path"><path fill="none" d="M.45 2.4H39.230000000000004V37.29H.45z"/></clipPath><clipPath id="clip-path-3"><path fill="none" d="M25.04 19.04H31.23V20.22H25.04z"/></clipPath><clipPath id="clip-path-4"><path fill="none" d="M25.04 16.6H31.23V17.78H25.04z"/></clipPath><clipPath id="clip-path-5"><path fill="none" d="M17.04 10H39.230000000000004V37.28H17.04z"/></clipPath></defs><g style="isolation:isolate"><g id="link-with-arrow"><g clip-path="url(#clip-path)"><g clip-path="url(#clip-path)"><path d="M19.73 2.4h-18A1.29 1.29 0 0 0 .45 3.69v24.17L5.35 23h14.38A1.29 1.29 0 0 0 21 21.67v-18a1.29 1.29 0 0 0-1.27-1.27m-6.87 10a.57.57 0 0 1 0 .81L8.68 17.4h5.49a.57.57 0 1 1 0 1.15H7.3a.57.57 0 0 1-.41-1l4.75-4.75L6.9 8.07a.57.57 0 0 1 .41-1h6.87a.57.57 0 1 1 0 1.15h-5.5Z" fill="#f22d93"/><g style="mix-blend-mode:multiply"><g clip-path="url(#clip-path-3)"><path fill="#bf1679" d="M25.04 19.04H31.23V20.22H25.04z"/></g></g><g style="mix-blend-mode:multiply"><g clip-path="url(#clip-path-4)"><path fill="#bf1679" d="M25.04 16.6H31.23V17.78H25.04z"/></g></g><g style="mix-blend-mode:multiply"><g clip-path="url(#clip-path-5)"><path d="M37.94 10h-19.6A1.29 1.29 0 0 0 17 11.3v19.6a1.29 1.29 0 0 0 1.29 1.29h15.8l5.09 5.09v-26A1.29 1.29 0 0 0 37.94 10m-5 16.94h-9.61a.63.63 0 0 1 0-1.25h4.18v-.58h-2a.63.63 0 0 1 0-1.25h2v-.56h-2.15a1.83 1.83 0 0 1-1.71 1.18.63.63 0 0 1 0-1.25.57.57 0 0 0 .57-.57v-.51a.63.63 0 0 1 1.24-.1h2v-.56h-3.05a.63.63 0 0 1-.63-.63V16a.63.63 0 0 1 .63-.63h7.44a.63.63 0 0 1 .63.63v4.87a.63.63 0 0 1-.63.63h-3.09v.5h2.63a.63.63 0 0 1 0 1.25h-2.63v.56h2a.63.63 0 0 1 0 1.25h-2v.58h4.18a.63.63 0 1 1 0 1.25" fill="#bf1679"/></g></g></g></g></g></g></svg>