<svg xmlns="http://www.w3.org/2000/svg" xmlns:xlink="http://www.w3.org/1999/xlink" viewBox="0 0 39.69 39.69">
  <defs>
    <clipPath id="clip-path">
      <rect x="1.04" y="1.48" width="37.61" height="36.73" fill="none"/>
    </clipPath>
    <clipPath id="clip-path-3">
      <rect x="26.38" y="8.6" width="12.27" height="12.27" fill="none"/>
    </clipPath>
    <clipPath id="clip-path-4">
      <rect x="7.85" y="1.48" width="12.27" height="12.27" fill="none"/>
    </clipPath>
    <clipPath id="clip-path-5">
      <rect x="15.67" y="29.31" width="8.9" height="8.9" fill="none"/>
    </clipPath>
    <clipPath id="clip-path-6">
      <rect x="1.04" y="19.4" width="7.51" height="7.51" fill="none"/>
    </clipPath>
  </defs>
  <title>product-design</title>
  <g style="isolation: isolate">
    <g id="link-with-arrow">
      <g clip-path="url(#clip-path)">
        <g clip-path="url(#clip-path)">
          <path d="M29.8,22A8.82,8.82,0,1,1,21,13.15,8.82,8.82,0,0,1,29.8,22" fill="#f22d93"/>
          <g style="mix-blend-mode: multiply">
            <g clip-path="url(#clip-path-3)">
              <path d="M38.65,14.74A6.13,6.13,0,1,1,32.51,8.6a6.13,6.13,0,0,1,6.13,6.13" fill="#bf1679"/>
            </g>
          </g>
          <g style="mix-blend-mode: multiply">
            <g clip-path="url(#clip-path-4)">
              <path d="M20.12,7.61A6.13,6.13,0,1,1,14,1.48a6.13,6.13,0,0,1,6.13,6.13" fill="#bf1679"/>
            </g>
          </g>
          <g style="mix-blend-mode: multiply">
            <g clip-path="url(#clip-path-5)">
              <path d="M24.57,33.76a4.45,4.45,0,1,1-4.45-4.45,4.45,4.45,0,0,1,4.45,4.45" fill="#bf1679"/>
            </g>
          </g>
          <g style="mix-blend-mode: multiply">
            <g clip-path="url(#clip-path-6)">
              <path d="M8.54,23.15A3.75,3.75,0,1,1,4.79,19.4a3.75,3.75,0,0,1,3.75,3.75" fill="#bf1679"/>
            </g>
          </g>
        </g>
      </g>
    </g>
  </g>
</svg>
