<svg xmlns="http://www.w3.org/2000/svg" xmlns:xlink="http://www.w3.org/1999/xlink" viewBox="0 0 39.69 39.69">
  <defs>
    <clipPath id="clip-path">
      <rect x="4.05" width="31.58" height="39.69" fill="none"/>
    </clipPath>
    <clipPath id="clip-path-3">
      <rect x="17.94" y="18.31" width="15.54" height="19.03" fill="none"/>
    </clipPath>
    <clipPath id="clip-path-4">
      <rect x="8.64" y="2.28" width="17.03" height="20.85" fill="none"/>
    </clipPath>
    <clipPath id="clip-path-5">
      <rect x="4.05" y="20.34" width="6.91" height="8.46" fill="none"/>
    </clipPath>
  </defs>
  <title>product-ingest</title>
  <g style="isolation: isolate">
    <g id="link-with-arrow">
      <g clip-path="url(#clip-path)">
        <g clip-path="url(#clip-path)">
          <g style="mix-blend-mode: multiply">
            <g clip-path="url(#clip-path-3)">
              <path d="M33.13,27.1,24.7,18.67a1.2,1.2,0,0,0-1.69,0l.06,4.47H18.69a.75.75,0,0,0-.74.74v7.92a.75.75,0,0,0,.74.74h4.5L23.24,37a1.2,1.2,0,0,0,1.69,0l8.21-8.21a1.2,1.2,0,0,0,0-1.69" fill="#bf1679"/>
            </g>
          </g>
          <g style="mix-blend-mode: multiply">
            <g clip-path="url(#clip-path-4)">
              <path d="M25.27,11.9,16,2.67a1.31,1.31,0,0,0-1.85,0l.06,4.9H9.45a.82.82,0,0,0-.81.81V17a.82.82,0,0,0,.81.81h4.93l.06,4.88a1.31,1.31,0,0,0,1.85,0l9-9a1.31,1.31,0,0,0,0-1.85" fill="#bf1679"/>
            </g>
          </g>
          <g style="mix-blend-mode: multiply">
            <g clip-path="url(#clip-path-5)">
              <path d="M10.8,24.25,7.06,20.5a.53.53,0,0,0-.75,0l0,2H4.38a.33.33,0,0,0-.33.33v3.52a.33.33,0,0,0,.33.33h2l0,2a.53.53,0,0,0,.75,0L10.81,25a.53.53,0,0,0,0-.75" fill="#bf1679"/>
            </g>
          </g>
          <path d="M35.06,0h-6.9a.58.58,0,0,0-.57.57V2.31h3.15a.87.87,0,0,1,.87.87V36.5a.87.87,0,0,1-.87.87H27.59v1.74a.58.58,0,0,0,.57.57h6.9a.58.58,0,0,0,.57-.57V.57A.58.58,0,0,0,35.06,0" fill="#f22d93"/>
        </g>
      </g>
    </g>
  </g>
</svg>
