<svg xmlns="http://www.w3.org/2000/svg" xmlns:xlink="http://www.w3.org/1999/xlink" viewBox="0 0 39.69 39.69">
  <defs>
    <clipPath id="clip-path">
      <rect x="0.45" y="2.4" width="38.78" height="34.89" fill="none"/>
    </clipPath>
    <clipPath id="clip-path-3">
      <rect x="25.04" y="19.04" width="6.19" height="1.18" fill="none"/>
    </clipPath>
    <clipPath id="clip-path-4">
      <rect x="25.04" y="16.6" width="6.19" height="1.18" fill="none"/>
    </clipPath>
    <clipPath id="clip-path-5">
      <rect x="17.04" y="10" width="22.19" height="27.28" fill="none"/>
    </clipPath>
  </defs>
  <title>product-translate</title>
  <g style="isolation: isolate">
    <g id="link-with-arrow">
      <g clip-path="url(#clip-path)">
        <g clip-path="url(#clip-path)">
          <path d="M19.73,2.4h-18A1.29,1.29,0,0,0,.45,3.69V27.86L5.35,23H19.73A1.29,1.29,0,0,0,21,21.67v-18A1.29,1.29,0,0,0,19.73,2.4m-6.87,10a.57.57,0,0,1,0,.81L8.68,17.4h5.49a.57.57,0,1,1,0,1.15H7.3a.57.57,0,0,1-.41-1l4.75-4.75L6.9,8.07a.57.57,0,0,1,.41-1h6.87a.57.57,0,1,1,0,1.15H8.68Z" fill="#f22d93"/>
          <g style="mix-blend-mode: multiply">
            <g clip-path="url(#clip-path-3)">
              <rect x="25.04" y="19.04" width="6.19" height="1.18" fill="#bf1679"/>
            </g>
          </g>
          <g style="mix-blend-mode: multiply">
            <g clip-path="url(#clip-path-4)">
              <rect x="25.04" y="16.6" width="6.19" height="1.18" fill="#bf1679"/>
            </g>
          </g>
          <g style="mix-blend-mode: multiply">
            <g clip-path="url(#clip-path-5)">
              <path d="M37.94,10H18.34A1.29,1.29,0,0,0,17,11.3V30.9a1.29,1.29,0,0,0,1.29,1.29h15.8l5.09,5.09v-26A1.29,1.29,0,0,0,37.94,10m-5,16.94H23.33a.63.63,0,0,1,0-1.25h4.18v-.58h-2a.63.63,0,0,1,0-1.25h2v-.56H25.36a1.83,1.83,0,0,1-1.71,1.18.63.63,0,0,1,0-1.25.57.57,0,0,0,.57-.57v-.51a.63.63,0,0,1,1.24-.1h2v-.56H24.41a.63.63,0,0,1-.63-.63V16a.63.63,0,0,1,.63-.63h7.44a.63.63,0,0,1,.63.63v4.87a.63.63,0,0,1-.63.63H28.76V22h2.63a.63.63,0,0,1,0,1.25H28.76v.56h2a.63.63,0,0,1,0,1.25h-2v.58h4.18a.63.63,0,1,1,0,1.25" fill="#bf1679"/>
            </g>
          </g>
        </g>
      </g>
    </g>
  </g>
</svg>
