<svg xmlns="http://www.w3.org/2000/svg" viewBox="0 0 39.69 39.69"><defs><clipPath id="clip-path"><path fill="none" d="M1.25.67H38.43V39.02H1.25z"/></clipPath><clipPath id="clip-path-3"><path fill="none" d="M1.25 7.35H14.55V31.509999999999998H1.25z"/></clipPath><clipPath id="clip-path-4"><path fill="none" d="M25.13 7.64H38.43V31.8H25.13z"/></clipPath></defs><g style="isolation:isolate"><g id="link-with-arrow"><g clip-path="url(#clip-path)"><g clip-path="url(#clip-path)"><path d="M9.08 1.35a2.41 2.41 0 0 1 3.4 0l17 17a2.41 2.41 0 0 1 0 3.4L13 38.34a2.41 2.41 0 0 1-3.4 0" fill="#f22d93"/><g style="mix-blend-mode:multiply"><g clip-path="url(#clip-path-3)"><path d="M1.25 7.78a1.52 1.52 0 0 1 2.14 0l10.7 10.7a1.52 1.52 0 0 1 0 2.14L3.7 31.09a1.52 1.52 0 0 1-2.14 0" fill="#bf1679"/></g></g><g style="mix-blend-mode:multiply"><g clip-path="url(#clip-path-4)"><path d="M25.13 8.07a1.52 1.52 0 0 1 2.14 0L38 18.8a1.52 1.52 0 0 1 0 2.14L27.57 31.37a1.52 1.52 0 0 1-2.14 0" fill="#bf1679"/></g></g></g></g></g></g></svg>