<svg xmlns="http://www.w3.org/2000/svg" viewBox="0 0 39.69 39.69"><defs><clipPath id="clip-path"><path fill="none" d="M4.05 0H35.629999999999995V39.69H4.05z"/></clipPath><clipPath id="clip-path-3"><path fill="none" d="M17.94 18.31H33.480000000000004V37.34H17.94z"/></clipPath><clipPath id="clip-path-4"><path fill="none" d="M8.64 2.28H25.67V23.130000000000003H8.64z"/></clipPath><clipPath id="clip-path-5"><path fill="none" d="M4.05 20.34H10.96V28.8H4.05z"/></clipPath></defs><g style="isolation:isolate"><g id="link-with-arrow"><g clip-path="url(#clip-path)"><g clip-path="url(#clip-path)"><g style="mix-blend-mode:multiply"><g clip-path="url(#clip-path-3)"><path d="m33.13 27.1-8.43-8.43a1.2 1.2 0 0 0-1.69 0l.06 4.47h-4.38a.75.75 0 0 0-.74.74v7.92a.75.75 0 0 0 .74.74h4.5l.05 4.46a1.2 1.2 0 0 0 1.69 0l8.21-8.21a1.2 1.2 0 0 0 0-1.69" fill="#bf1679"/></g></g><g style="mix-blend-mode:multiply"><g clip-path="url(#clip-path-4)"><path d="M25.27 11.9 16 2.67a1.31 1.31 0 0 0-1.85 0l.06 4.9H9.45a.82.82 0 0 0-.81.81V17a.82.82 0 0 0 .81.81h4.93l.06 4.88a1.31 1.31 0 0 0 1.85 0l9-9a1.31 1.31 0 0 0 0-1.85" fill="#bf1679"/></g></g><g style="mix-blend-mode:multiply"><g clip-path="url(#clip-path-5)"><path d="M10.8 24.25 7.06 20.5a.53.53 0 0 0-.75 0v2H4.38a.33.33 0 0 0-.33.33v3.52a.33.33 0 0 0 .33.33h2v2a.53.53 0 0 0 .75 0L10.81 25a.53.53 0 0 0 0-.75" fill="#bf1679"/></g></g><path d="M35.06 0h-6.9a.58.58 0 0 0-.57.57v1.74h3.15a.87.87 0 0 1 .87.87V36.5a.87.87 0 0 1-.87.87h-3.15v1.74a.58.58 0 0 0 .57.57h6.9a.58.58 0 0 0 .57-.57V.57a.58.58 0 0 0-.57-.57" fill="#f22d93"/></g></g></g></g></svg>