<svg xmlns="http://www.w3.org/2000/svg" viewBox="0 0 39.69 39.69"><defs><clipPath id="clip-path"><path fill="none" d="M1.04 1.48H38.65V38.209999999999994H1.04z"/></clipPath><clipPath id="clip-path-3"><path fill="none" d="M26.38 8.6H38.65V20.869999999999997H26.38z"/></clipPath><clipPath id="clip-path-4"><path fill="none" d="M7.85 1.48H20.119999999999997V13.75H7.85z"/></clipPath><clipPath id="clip-path-5"><path fill="none" d="M15.67 29.31H24.57V38.21H15.67z"/></clipPath><clipPath id="clip-path-6"><path fill="none" d="M1.04 19.4H8.55V26.909999999999997H1.04z"/></clipPath></defs><g style="isolation:isolate"><g id="link-with-arrow"><g clip-path="url(#clip-path)"><g clip-path="url(#clip-path)"><path d="M29.8 22a8.82 8.82 0 1 1-8.8-8.85A8.82 8.82 0 0 1 29.8 22" fill="#f22d93"/><g style="mix-blend-mode:multiply"><g clip-path="url(#clip-path-3)"><path d="M38.65 14.74a6.13 6.13 0 1 1-6.14-6.14 6.13 6.13 0 0 1 6.13 6.13" fill="#bf1679"/></g></g><g style="mix-blend-mode:multiply"><g clip-path="url(#clip-path-4)"><path d="M20.12 7.61A6.13 6.13 0 1 1 14 1.48a6.13 6.13 0 0 1 6.13 6.13" fill="#bf1679"/></g></g><g style="mix-blend-mode:multiply"><g clip-path="url(#clip-path-5)"><path d="M24.57 33.76a4.45 4.45 0 1 1-4.45-4.45 4.45 4.45 0 0 1 4.45 4.45" fill="#bf1679"/></g></g><g style="mix-blend-mode:multiply"><g clip-path="url(#clip-path-6)"><path d="M8.54 23.15a3.75 3.75 0 1 1-3.75-3.75 3.75 3.75 0 0 1 3.75 3.75" fill="#bf1679"/></g></g></g></g></g></g></svg>