<svg xmlns="http://www.w3.org/2000/svg" viewBox="0 0 39.69 39.69"><defs><clipPath id="clip-path"><path fill="none" d="M.26 3.45H39.43V36.24H.26z"/></clipPath><clipPath id="clip-path-3"><path fill="none" d="M19.28 3.45H39.42V23.59H19.28z"/></clipPath></defs><g style="isolation:isolate"><g id="link-with-arrow"><g clip-path="url(#clip-path)"><g clip-path="url(#clip-path)"><path d="m26.17 20.55-2.31-.77a10.55 10.55 0 0 0-.84-2l1.09-2.18a1.41 1.41 0 0 0-.27-1.63l-1.28-1.28a1.41 1.41 0 0 0-1.63-.27l-2.18 1.09a10.56 10.56 0 0 0-2-.84l-.77-2.31a1.41 1.41 0 0 0-1.34-1h-1.85a1.41 1.41 0 0 0-1.34 1l-.77 2.31a10.55 10.55 0 0 0-2 .84l-2.21-1.12a1.41 1.41 0 0 0-1.63.26l-1.28 1.29a1.41 1.41 0 0 0-.27 1.63l1.09 2.18a10.51 10.51 0 0 0-.84 2l-2.31.77a1.41 1.41 0 0 0-1 1.34v1.84a1.42 1.42 0 0 0 1 1.34l2.31.77a10.51 10.51 0 0 0 .84 2L3.29 30a1.41 1.41 0 0 0 .27 1.63l1.28 1.28a1.41 1.41 0 0 0 1.63.27l2.18-1.09a10.53 10.53 0 0 0 2 .84l.77 2.31a1.42 1.42 0 0 0 1.34 1h1.84a1.41 1.41 0 0 0 1.34-1l.77-2.24a10.5 10.5 0 0 0 2-.84l2.18 1.09a1.41 1.41 0 0 0 1.63-.27l1.28-1.28a1.41 1.41 0 0 0 .3-1.7L23 27.85a10.57 10.57 0 0 0 .84-2l2.33-.85a1.41 1.41 0 0 0 1-1.34v-1.77a1.41 1.41 0 0 0-1-1.34M13.7 26.48a3.68 3.68 0 1 1 3.68-3.68 3.69 3.69 0 0 1-3.68 3.68" fill="#f22d93"/><g style="mix-blend-mode:multiply"><g clip-path="url(#clip-path-3)"><path d="M39.42 13.31 39.3 12a1.06 1.06 0 0 0-.81-.94l-1.77-.42a7.88 7.88 0 0 0-.72-1.5l.67-1.7a1.06 1.06 0 0 0-.31-1.2l-1-.87a1.06 1.06 0 0 0-1.23-.09l-1.55 1a7.89 7.89 0 0 0-1.57-.49l-.81-1.71a1.06 1.06 0 0 0-1.06-.63l-1.35.12a1.06 1.06 0 0 0-.94.81l-.42 1.77a7.89 7.89 0 0 0-1.43.77l-1.69-.67a1.05 1.05 0 0 0-1.2.31l-.87 1a1.06 1.06 0 0 0-.09 1.23l1 1.55a7.87 7.87 0 0 0-.49 1.57l-1.67.73a1.06 1.06 0 0 0-.63 1.06l.12 1.35a1.06 1.06 0 0 0 .81.94l1.77.42a7.87 7.87 0 0 0 .76 1.46l-.67 1.7a1.06 1.06 0 0 0 .31 1.2l1 .87a1.06 1.06 0 0 0 1.23.09l1.55-1a7.88 7.88 0 0 0 1.57.49L28.5 23a1.06 1.06 0 0 0 1.06.63l1.35-.12a1.06 1.06 0 0 0 .94-.81l.42-1.77a7.86 7.86 0 0 0 1.46-.76l1.7.67a1.06 1.06 0 0 0 1.2-.31l.87-1a1.06 1.06 0 0 0 .09-1.23l-1-1.55a7.9 7.9 0 0 0 .49-1.57l1.67-.73a1.06 1.06 0 0 0 .63-1.06m-9.77 3.51a3.31 3.31 0 1 1 3-3.59 3.32 3.32 0 0 1-3 3.59" fill="#bf1679"/></g></g></g></g></g></g></svg>