<?xml version="1.0" encoding="UTF-8" standalone="no"?>
<!-- Created with Keyshape -->
<svg xmlns="http://www.w3.org/2000/svg" viewBox="0 0 39.69 39.69">
    <defs>
        <clipPath id="ClipPath-2">
            <rect width="17.7667" height="20.6374" fill="#c25aff" stroke="none" transform="translate(6.79588,6.61638) translate(-8.88333,-11.08)"/>
        </clipPath>
        <clipPath id="ClipPath-1">
            <rect width="17.7667" height="22.16" fill="#c25aff" stroke="none" transform="translate(5.71921,39.9062) translate(-8.88333,-11.08)"/>
        </clipPath>
    </defs>
    <title>product-translate-ani</title>
    <g transform="translate(19.82,19) translate(-19.82,-19)" style="isolation: isolate;">
        <g id="Layer_9" data-name="Layer 9" transform="translate(19.82,19) translate(-19.82,-19)">
            <path id="BubbleLeft" d="M19.91,2.72L1.91,2.72C1.20925,2.73085,0.645349,3.29919,0.64,4L0.64,28.19L5.54,23.29L19.91,23.29C20.2539,23.2927,20.5846,23.1579,20.8286,22.9157C21.0727,22.6735,21.21,22.3439,21.21,22L21.21,4C21.21,3.28755,20.6324,2.71,19.92,2.71" fill="#f22d93" transform="translate(10.925,15.45) translate(-10.925,-15.45)"/>
            <path id="BubbleRight" d="M37.75,9.68L18.15,9.68C17.8009,9.6772,17.4655,9.81603,17.2205,10.0648C16.9756,10.3135,16.8419,10.651,16.85,11L16.85,30.6C16.85,31.3124,17.4276,31.89,18.14,31.89L34,31.89L39,37L39,11C39,10.2876,38.4224,9.71,37.71,9.71" fill="#bf1679" transform="translate(27.9248,23.34) translate(-27.9248,-23.34)" style="mix-blend-mode: multiply;"/>
            <g transform="translate(10.075,30.2168) translate(-5.51421,-23.0168)">
                <g clip-path="url(#ClipPath-2)" transform="translate(5.51421,23.0168) translate(-5.51421,-23.0168)">
                    <g id="_a0" transform="translate(5.51421,23.0168) translate(0,0) translate(-5.51421,-23.0168)">
                        <path d="M12.2,30C12.3081,30.1071,12.3689,30.2529,12.3689,30.405C12.3689,30.5571,12.3081,30.7029,12.2,30.81L8,34.94L13.49,34.94C13.6954,34.94,13.8853,35.0496,13.988,35.2275C14.0907,35.4054,14.0907,35.6246,13.988,35.8025C13.8853,35.9804,13.6954,36.09,13.49,36.09L6.64,36.09C6.39559,36.106,6.16828,35.9641,6.07537,35.7374C5.98245,35.5108,6.0447,35.2502,6.23,35.09L11,30.36L6.23,25.61C6.0447,25.4498,5.98245,25.1892,6.07537,24.9626C6.16828,24.7359,6.39559,24.594,6.64,24.61L13.51,24.61C13.7154,24.61,13.9053,24.7196,14.008,24.8975C14.1107,25.0754,14.1107,25.2946,14.008,25.4725C13.9053,25.6504,13.7154,25.76,13.51,25.76L8,25.76Z" fill="#ffffff" transform="translate(5.49808,40.2925) translate(-10.0589,-30.35)"/>
                        <path d="M14.88,34.36L10.7,34.36L10.7,33.78L12.7,33.78C12.9422,33.8107,13.1803,33.6987,13.3111,33.4926C13.4419,33.2866,13.4419,33.0234,13.3111,32.8174C13.1803,32.6113,12.9422,32.4993,12.7,32.53L10.7,32.53L10.7,32L13.33,32C13.5722,32.0307,13.8103,31.9187,13.9411,31.7126C14.0719,31.5066,14.0719,31.2434,13.9411,31.0374C13.8103,30.8313,13.5722,30.7193,13.33,30.75L10.7,30.75L10.7,30.19L13.8,30.19C14.1479,30.19,14.43,29.9079,14.43,29.56L14.43,24.65C14.4354,24.4795,14.3714,24.314,14.2527,24.1915C14.134,24.069,13.9706,23.9999,13.8,24L6.35,24C6.00206,24,5.72,24.2821,5.72,24.63L5.72,29.5C5.72,29.8479,6.00206,30.13,6.35,30.13L9.45,30.13L9.45,30.69L7.45,30.69C7.37651,30.3895,7.09573,30.1868,6.7874,30.2117C6.47906,30.2366,6.23439,30.4816,6.21,30.79L6.21,31.3C6.21,31.4512,6.14995,31.5962,6.04305,31.7031C5.93616,31.8099,5.79117,31.87,5.64,31.87C5.32521,31.9099,5.08921,32.1777,5.08921,32.495C5.08921,32.8123,5.32521,33.0801,5.64,33.12C6.36663,33.1094,7.01813,32.6698,7.3,32L9.45,32L9.45,32.56L7.45,32.56C7.20783,32.5293,6.96973,32.6413,6.8389,32.8474C6.70808,33.0534,6.70808,33.3166,6.8389,33.5226C6.96973,33.7287,7.20783,33.8407,7.45,33.81L9.45,33.81L9.45,34.39L5.27,34.39C5.02783,34.3593,4.78973,34.4713,4.6589,34.6774C4.52808,34.8834,4.52808,35.1466,4.6589,35.3526C4.78973,35.5587,5.02783,35.6707,5.27,35.64L14.88,35.64C15.1222,35.6707,15.3603,35.5587,15.4911,35.3526C15.6219,35.1466,15.6219,34.8834,15.4911,34.6774C15.3603,34.4713,15.1222,34.3593,14.88,34.39ZM7,26.42L7,25.23L13.19,25.23L13.19,26.41L7,26.41ZM7,28.86L7,28.86L7,27.67L13.19,27.67L13.19,28.85L7,28.85Z" fill="#ffffff" transform="translate(5.51421,23.0037) translate(-10.075,-29.8225)"/>
                        <path d="M12.2,12.16C12.3081,12.2671,12.3689,12.4129,12.3689,12.565C12.3689,12.7171,12.3081,12.8629,12.2,12.97L8,17.14L13.49,17.14C13.6954,17.14,13.8853,17.2496,13.988,17.4275C14.0907,17.6054,14.0907,17.8246,13.988,18.0025C13.8853,18.1804,13.6954,18.29,13.49,18.29L6.64,18.29C6.39559,18.306,6.16828,18.1641,6.07537,17.9374C5.98245,17.7108,6.0447,17.4502,6.23,17.29L11,12.56L6.23,7.82C6.0447,7.65982,5.98245,7.39917,6.07537,7.17255C6.16828,6.94593,6.39559,6.804,6.64,6.82L13.51,6.82C13.8276,6.82,14.085,7.07744,14.085,7.395C14.085,7.71256,13.8276,7.97,13.51,7.97L8,7.97Z" fill="#fff" transform="translate(5.49808,5.73623) translate(-10.0589,-12.555)"/>
                    </g>
                </g>
            </g>
            <g clip-path="url(#ClipPath-1)" transform="translate(27.945,3.98439) translate(-5.51421,-23.1006)">
                <g id="_a1" transform="translate(5.51421,23.07) translate(0,0) translate(-5.51421,-23.1313)">
                    <path d="M32.76,25.79L28.58,25.79L28.58,25.21L30.58,25.21C30.8948,25.1701,31.1308,24.9023,31.1308,24.585C31.1308,24.2677,30.8948,23.9999,30.58,23.96L28.58,23.96L28.58,23.4L31.21,23.4C31.4522,23.4307,31.6903,23.3187,31.8211,23.1126C31.9519,22.9066,31.9519,22.6434,31.8211,22.4374C31.6903,22.2313,31.4522,22.1193,31.21,22.15L28.58,22.15L28.58,21.59L31.67,21.59C32.0029,21.5907,32.2789,21.3322,32.3,21L32.3,16.08C32.3,15.7321,32.0179,15.45,31.67,15.45L24.23,15.45C23.8821,15.45,23.6,15.7321,23.6,16.08L23.6,21C23.6,21.3479,23.8821,21.63,24.23,21.63L27.32,21.63L27.32,22.19L25.32,22.19C25.2465,21.8895,24.9657,21.6868,24.6574,21.7117C24.3491,21.7366,24.1044,21.9816,24.08,22.29L24.08,22.8C24.08,22.9512,24.0199,23.0962,23.9131,23.2031C23.8062,23.3099,23.6612,23.37,23.51,23.37C23.1952,23.4099,22.9592,23.6777,22.9592,23.995C22.9592,24.3123,23.1952,24.5801,23.51,24.62C24.2697,24.6197,24.9502,24.1501,25.22,23.44L27.37,23.44L27.37,24L25.37,24C25.1278,23.9693,24.8897,24.0813,24.7589,24.2874C24.6281,24.4934,24.6281,24.7566,24.7589,24.9626C24.8897,25.1687,25.1278,25.2807,25.37,25.25L27.37,25.25L27.37,25.83L23.14,25.83C22.8978,25.7993,22.6597,25.9113,22.5289,26.1174C22.3981,26.3234,22.3981,26.5866,22.5289,26.7926C22.6597,26.9987,22.8978,27.1107,23.14,27.08L32.75,27.08C32.9922,27.1107,33.2303,26.9987,33.3611,26.7926C33.4919,26.5866,33.4919,26.3234,33.3611,26.1174C33.2303,25.9113,32.9922,25.7993,32.75,25.83ZM24.86,17.85L24.86,16.67L31,16.67L31,17.85L24.85,17.85ZM24.86,20.29L24.86,20.29L24.86,19.1L31,19.1L31,20.28L24.85,20.28Z" fill="#fff" transform="translate(5.51421,40.445) translate(-27.945,-21.2675)"/>
                    <path d="M30.07,6.67C30.1781,6.77705,30.2389,6.92287,30.2389,7.075C30.2389,7.22713,30.1781,7.37295,30.07,7.48L25.9,11.66L31.39,11.66C31.7076,11.66,31.965,11.9174,31.965,12.235C31.965,12.5526,31.7076,12.81,31.39,12.81L24.51,12.81C24.2656,12.826,24.0383,12.6841,23.9454,12.4574C23.8525,12.2308,23.9147,11.9702,24.1,11.81L28.85,7.06L24.11,2.33C23.9247,2.16982,23.8625,1.90917,23.9554,1.68255C24.0483,1.45593,24.2756,1.314,24.52,1.33L31.39,1.33C31.7076,1.33,31.965,1.58744,31.965,1.905C31.965,2.22256,31.7076,2.48,31.39,2.48L25.9,2.48Z" fill="#ffffff" transform="translate(5.50308,23.1162) translate(-27.9339,-7.07)"/>
                    <path d="M32.75,11.38L28.57,11.38L28.57,10.8L30.57,10.8C30.8122,10.8307,31.0503,10.7187,31.1811,10.5126C31.3119,10.3066,31.3119,10.0434,31.1811,9.83736C31.0503,9.63127,30.8122,9.51931,30.57,9.55L28.57,9.55L28.57,9L31.2,9C31.4422,9.03069,31.6803,8.91873,31.8111,8.71264C31.9419,8.50656,31.9419,8.24344,31.8111,8.03736C31.6803,7.83127,31.4422,7.71931,31.2,7.75L28.57,7.75L28.57,7.17L31.66,7.17C32.0079,7.17,32.29,6.88794,32.29,6.54L32.29,1.67C32.3011,1.4961,32.2396,1.32538,32.1202,1.19843C32.0009,1.07149,31.8343,0.999648,31.66,1L24.22,1C23.8721,1,23.59,1.28206,23.59,1.63L23.59,6.54C23.59,6.88794,23.8721,7.17,24.22,7.17L27.31,7.17L27.31,7.73L25.31,7.73C25.2365,7.42952,24.9557,7.22685,24.6474,7.25172C24.3391,7.27658,24.0944,7.52163,24.07,7.83L24.07,8.34C24.07,8.49117,24.0099,8.63616,23.9031,8.74305C23.7962,8.84995,23.6512,8.91,23.5,8.91C23.1852,8.9499,22.9492,9.21769,22.9492,9.535C22.9492,9.85231,23.1852,10.1201,23.5,10.16C24.24,10.1466,24.8991,9.68881,25.17,9L27.32,9L27.32,9.56L25.32,9.56C25.0778,9.52931,24.8397,9.64127,24.7089,9.84736C24.5781,10.0534,24.5781,10.3166,24.7089,10.5226C24.8397,10.7287,25.0778,10.8407,25.32,10.81L27.32,10.81L27.32,11.39L23.13,11.39C22.8878,11.3593,22.6497,11.4713,22.5189,11.6774C22.3881,11.8834,22.3881,12.1466,22.5189,12.3526C22.6497,12.5587,22.8878,12.6707,23.13,12.64L32.74,12.64C33.0548,12.6001,33.2908,12.3323,33.2908,12.015C33.2908,11.6977,33.0548,11.4299,32.74,11.39ZM24.85,3.44L24.85,2.25L31,2.25L31,3.44L24.84,3.44ZM24.85,5.88L24.85,5.88L24.85,4.69L31,4.69L31,5.87L24.84,5.87Z" fill="#ffffff" transform="translate(5.435,5.82251) translate(-27.8558,-6.82251)"/>
                </g>
            </g>
        </g>
    </g>
    <script><![CDATA[/*
 KeyshapeJS v1.1.0 (c) 2018-2019 Pixofield Ltd | pixofield.com/keyshapejs/mit-license */
window.KeyshapeJS=function(){function t(a){return"undefined"!==typeof a}function x(a,b){return a&&0==a.indexOf(b)}function H(a){if(!isFinite(a))throw Error("Non-finite value");}function R(a){if(14>=a)return 16;var b=S[a];b||(b=t(ca[a])?0|(a.toLowerCase().indexOf("color")==a.length-5?48:0):1);return b}function K(a){return 0<=a?Math.pow(a,1/3):-Math.pow(-a,1/3)}function da(a,b,c,d){if(0==a)return 0==b?b=-d/c:(a=Math.sqrt(c*c-4*b*d),d=(-c+a)/(2*b),0<=d&&1>=d?b=d:(d=(-c-a)/(2*b),b=0<=d&&1>=d?d:0)),b;
var e=c/a-b*b/(a*a)/3;c=b*b*b/(a*a*a)/13.5-b*c/(a*a)/3+d/a;var n=c*c/4+e*e*e/27;b=-b/(3*a);if(0>=n){if(0==e&&0==c)return-K(d/a);a=Math.sqrt(c*c/4-n);d=Math.acos(-c/2/a);c=Math.cos(d/3);d=Math.sqrt(3)*Math.sin(d/3);a=K(a);e=2*a*c+b;if(0<=e&&1>=e)return e;e=-a*(c+d)+b;if(0<=e&&1>=e)return e;e=a*(d-c)+b;if(0<=e&&1>=e)return e}else{a=K(-c/2+Math.sqrt(n));c=K(-c/2-Math.sqrt(n));d=a+c+b;if(0<=d&&1>=d)return d;d=-(a+c)/2+b;if(0<=d&&1>=d)return d}return 0}function ea(a,b){if(48==a&&"number"===typeof b)return"rgba("+
(b>>>24)+","+(b>>>16&255)+","+(b>>>8&255)+","+(b&255)/255+")";if(64==a)return b=b.map(function(a){return a+"px"}),b.join(",");if(96==a){a="";for(var c=b.length,d=0;d<c;d+=2)a+=b[d],a+=b[d+1].join(",");return a}if(80==a){if(0==b[0])return"none";a="";c=b.length;for(d=0;d<c;)a+=T[b[d]],1==b[d]?a+="("+b[d+1]+") ":5==b[d]?(a+="("+b[d+1]+"px "+b[d+2]+"px "+b[d+3]+"px rgba("+(b[d+4]>>>24)+","+(b[d+4]>>16&255)+","+(b[d+4]>>8&255)+","+(b[d+4]&255)/255+")) ",d+=3):a=2==b[d]?a+("("+b[d+1]+"px) "):7==b[d]?a+
("("+b[d+1]+"deg) "):a+("("+(0>b[d+1]?0:b[d+1])+") "),d+=2;return a}return 32==a?b+"px":b}function y(a){return 0>=a?0:255<=a?255:a}function fa(a,b,c,d){if(16==a||32==a)return(c-b)*d+b;if(0==a)return.5>d?b:c;if(48==a){if("number"===typeof b&&"number"===typeof c){var e=1-d;return(y(e*(b>>>24)+d*(c>>>24))<<24|y(e*(b>>>16&255)+d*(c>>>16&255))<<16|y(e*(b>>>8&255)+d*(c>>>8&255))<<8|y(e*(b&255)+d*(c&255)))>>>0}return.5>d?b:c}if(64==a){0==b.length&&(b=[0]);0==c.length&&(c=[0]);var n=b.length;b.length!=c.length&&
(n=b.length*c.length);var l=[];for(a=0;a<n;++a){var f=b[a%b.length];var h=(c[a%c.length]-f)*d+f;0>h&&(h=0);l.push(h)}return l}if(96==a){if(b.length!=c.length)return.5>d?b:c;n=b.length;l=[];for(a=0;a<n;a+=2){if(b[a]!==c[a])return.5>d?b:c;l[a]=b[a];l[a+1]=[];for(f=0;f<b[a+1].length;++f)l[a+1].push((c[a+1][f]-b[a+1][f])*d+b[a+1][f])}return l}if(80==a){n=b.length;if(n!=c.length)return.5>d?b:c;l=[];for(a=0;a<n;){if(b[a]!=c[a]||1==b[a])return.5>d?b:c;l[a]=b[a];l[a+1]=(c[a+1]-b[a+1])*d+b[a+1];if(5==b[a]){l[a+
2]=(c[a+2]-b[a+2])*d+b[a+2];l[a+3]=(c[a+3]-b[a+3])*d+b[a+3];e=1-d;var g=b[a+4],q=c[a+4];h=e*(g>>>24)+d*(q>>>24);var m=e*(g>>16&255)+d*(q>>16&255);f=e*(g>>8&255)+d*(q>>8&255);e=e*(g&255)+d*(q&255);l[a+4]=(y(m)<<16|y(f)<<8|y(e))+16777216*(y(h)|0);a+=3}a+=2}return l}return 0}function U(a,b){a:{var c=a+b[2];var d=b[4].length;for(var e=0;e<d;++e)if(c<b[4][e]){c=e;break a}c=d-1}d=b[2];e=b[4][c-1]-d;a=(a-e)/(b[4][c]-d-e);if(b[6]&&b[6].length>c-1)if(d=b[6][c-1],1==d[0])if(0>=a)a=0;else if(1<=a)a=1;else{e=
d[1];var n=d[3];a=da(3*e-3*n+1,-6*e+3*n,3*e,-a);a=3*a*(1-a)*(1-a)*d[2]+3*a*a*(1-a)*d[4]+a*a*a}else 2==d[0]?(d=d[1],a=Math.ceil(a*d)/d):3==d[0]&&(d=d[1],a=Math.floor(a*d)/d);return fa(b[1]&240,b[5][c-1],b[5][c],a)}function L(){u||(v=(new Date).getTime()+V)}function O(a){if(a||!E){for(var b=!1,c=0;c<w.length;++c)w[c].J(a)&&(b=!0);if(a)for(;0<I.length;)if(a=I.shift(),c=a[0],1==a[1])c.onfinish&&(c.onfinish(),b=!0),c.I();else if(2==a[1]&&c.onloop)c.onloop();return b}}function W(){L();O(!0)&&!u?(E=!0,M(W)):
E=!1}function N(){E||(E=!0,M(W))}function X(a,b){var c=[];a.split(b).forEach(function(a){c.push(parseFloat(a))});return c}function A(a){-1==a.indexOf(",")&&(a=a.replace(" ",","));return X(a,",")}function Y(a){a._ks||(a._ks={});if(!a._ks.transform){for(var b=a._ks.transform=[],c=0;14>=c;++c)b[c]=0;b[10]=1;b[11]=1;if(a=a.getAttribute("transform")){a=a.trim().split(") ");for(c=a.length-2;0<=c;--c)if(x(a[c],"translate(")){for(var d=0;d<c;d++)a.shift();break}c=a.shift();x(c,"translate(")&&(c=A(c.substring(10)),
b[1]=c[0],b[2]=t(c[1])?c[1]:0,c=a.shift());x(c,"rotate(")&&(c=A(c.substring(7)),b[6]=c[0],c=a.shift());x(c,"skewX(")&&(c=A(c.substring(6)),b[7]=c[0],c=a.shift());x(c,"skewY(")&&(c=A(c.substring(6)),b[8]=c[0],c=a.shift());x(c,"scale(")&&(c=A(c.substring(6)),b[10]=c[0],b[11]=t(c[1])?c[1]:c[0],c=a.shift());x(c,"translate(")&&(c=A(c.substring(10)),b[13]=c[0],b[14]=t(c[1])?c[1]:0)}}}function Z(a){this.l=a;this.A=[];this.C=[];this.v=0;this.s=this.a=this.c=null;this.h=this.f=this.g=0;this.b=1;this.i=this.F=
this.o=!1}function J(a,b,c){b=a[b];void 0===b&&(b=a[c]);return b}function ha(a){return Array.isArray(a)?a:x(a,"cubic-bezier(")?(a=a.substring(13,a.length-1).split(","),[1,parseFloat(a[0]),parseFloat(a[1]),parseFloat(a[2]),parseFloat(a[3])]):x(a,"steps(")?(a=a.substring(6,a.length-1).split(","),[a[1]&&"start"==a[1].trim()?2:3,parseFloat(a[0])]):[0]}function ia(a){a=a.trim();return x(a,"#")?(parseInt(a.substring(1),16)<<8)+255:x(a,"rgba(")?(a=a.substring(5,a.length-1),a=a.split(","),(parseInt(a[0],
10)<<24)+(parseInt(a[1],10)<<16)+(parseInt(a[2],10)<<8)+255*parseFloat(a[3])<<0):a}function aa(a){!1===a.i&&(w.push(a),a.i=!0,!1!==a.l.autoplay&&a.play());return this}function P(a){if(!0===a.i){a._cancel();var b=w.indexOf(a);-1<b&&w.splice(b,1);b=I.indexOf(a);-1<b&&I.splice(b,1);a.i=!1}return this}var Q=Error("Not in timeline list"),ba="mpath posX posY    rotate skewX skewY  scaleX scaleY  anchorX anchorY".split(" "),ja=" translate translate    rotate skewX skewY  scale scale  translate translate".split(" "),
T="none url blur brightness contrast drop-shadow grayscale hue-rotate invert opacity saturate sepia".split(" "),M=window.requestAnimationFrame||window.webkitRequestAnimationFrame||window.mozRequestAnimationFrame||window.oRequestAnimationFrame||window.msRequestAnimationFrame||null;M||(M=function(a){window.setTimeout(a,16)});var S={d:97,fill:48,fillOpacity:16,filter:80,height:33,opacity:16,offsetDistance:33,stroke:48,strokeDasharray:64,strokeDashoffset:32,strokeOpacity:16,strokeWidth:32,transform:1,
width:33},ca=window.getComputedStyle(document.documentElement),E=!1,v=(new Date).getTime(),u,V=0,w=[],I=[];Z.prototype={B:function(a){var b=0;if(null!==this.c){var c=this.j();0<this.b&&null!==c&&c>=this.f?this.h?(this.c=v-this.g/this.b,this.h--,b=2):(b=1,a?this.a=c:this.a=this.s?Math.max(this.s,this.f):this.f):0>this.b&&null!==c&&c<=this.g?this.h&&Infinity!=this.f?(this.c=v-this.f/this.b,this.h--,b=2):(this.h=0,b=1,a?this.a=c:this.a=this.s?Math.min(this.s,this.g):this.g):null!==c&&0!=this.b&&(a&&
null!==this.a&&(this.c=v-this.a/this.b),this.a=null)}this.s=this.j();return b},J:function(a){a&&(this.o&&(this.o=!1,null===this.c&&(0!=this.b&&null!==this.a?(this.c=v-this.a/this.b,this.a=null):this.c=v)),null===this.a&&null!==this.c&&(a=this.B(!1),0!=a&&I.push([this,a])));a=this.j();if(null===a)return!1;for(var b=this.A,c=this.C,d=0;d<b.length;++d){for(var e=b[d],n=!1,l=0;l<c[d].length;++l){var f=c[d][l],h=f[0];if(null!==h){var g=f[2];var q=f[4].length,m=f[4][q-1]-g;g=0==m?f[5][q-1]:a<=g?f[5][0]:
a>=g+f[3]?0==f[3]%m?f[5][q-1]:U(f[3]%m,f):U((a-g)%m,f);0==h?(e._ks.mpath=f[8],e._ks.transform[h]=g,n=!0):14>=h?(e._ks.transform[h]=g,n=!0):(g=ea(f[1]&240,g),f[1]&1?e.setAttribute(h,g):e.style[h]=g)}}if(n){Y(e);n=e._ks.transform;l="";if(f=e._ks.mpath)g=n[0],0>g&&(g=0),100<g&&(g=100),g=g*f[2]/100,h=f[1].getPointAtLength(g),l="translate("+h.x+","+h.y+") ",f[0]&&(.5>g?(g=h,h=f[1].getPointAtLength(.5)):g=f[1].getPointAtLength(g-.5),l+="rotate("+180*Math.atan2(h.y-g.y,h.x-g.x)/Math.PI+") ");for(f=1;f<n.length;++f)h=
n[f],h!=(10==f||11==f?1:0)&&(l+=" "+ja[f]+"(",l=2>=f?l+(1==f?h+",0":"0,"+h):13<=f?l+(13==f?h+",0":"0,"+h):10<=f?l+(10==f?h+",1":"1,"+h):l+h,l+=")");e.setAttribute("transform",l)}}return"running"==this.m()},I:function(){!1!==this.l.autoremove&&"finished"==this.m()&&P(this)},D:function(){if(!this.F){this.F=!0;for(var a=this.A,b=this.C,c=0;c<a.length;++c)for(var d=a[c],e=0;e<b[c].length;++e)14>=b[c][e][0]&&Y(d)}},u:function(a){if("number"==typeof a)return a;if(!t(this.l.markers)||!t(this.l.markers[a]))throw Error("Invalid marker: "+
a);return+this.l.markers[a]},play:function(a){t(a)&&null!==a&&(a=this.u(a),H(a),0>this.b&&a<this.g&&(a=this.g),0<this.b&&a>this.f&&(a=this.f),this.w(a,!0));if(!this.i)throw Q;a=this.j();if(0<this.b&&(null===a||a>=this.f))this.a=this.g;else if(0>this.b&&(null===a||a<=this.g)){if(Infinity==this.f)throw Error("Cannot seek to Infinity");this.a=this.f}else 0==this.b&&null===a&&(this.a=this.g);if(null===this.a)return this;this.c=null;this.o=!0;this.D();N();return this},pause:function(a){if(!this.i)throw Q;
t(a)&&(a=this.u(a),H(a));if("paused"!=this.m()){L();var b=this.j();if(null===b)if(0<=this.b)this.a=this.g;else{if(Infinity==this.f)throw Error("Cannot seek to Infinity");this.a=this.f}null!==this.c&&null===this.a&&(this.a=b);this.c=null;this.o=!1;this.B(!1);this.D();N()}t(a)&&this.w(a,!0);return this},range:function(a,b){if(0==arguments.length)return{"in":this.g,out:this.f};var c=this.u(a),d=this.v;t(b)&&(d=this.u(b));H(c);if(0>c||0>d||c>=d||isNaN(d))throw Error("Invalid range");var e=this.m();this.g=
c;this.f=d;"finished"==e&&"running"==this.m()&&this.play();return this},loop:function(a){if(!t(a))return{count:this.h};this.h=!0===a?Infinity:Math.floor(a);if(0>this.h||isNaN(this.h))this.h=0;return this},j:function(){return null!==this.a?this.a:null===this.c?null:(v-this.c)*this.b},w:function(a,b){b&&L();null!==a&&(this.D(),null!==this.a||null===this.c||0==this.b?(this.a=a,O(!1)):this.c=v-a/this.b,this.i||(this.c=null),this.s=null,this.B(!0),N())},G:function(){return this.j()},time:function(a){if(t(a)){if(!this.i)throw Q;
a=this.u(a);H(a);this.w(a,!0);return this}return this.G()},m:function(){var a=this.j();return this.o?"running":null===a?"idle":null===this.c?"paused":0<this.b&&a>=this.f||0>this.b&&a<=this.g?"finished":"running"},state:function(){return this.m()},duration:function(){return this.v},H:function(a){H(a);L();var b=this.j();this.b=a;null!==b&&this.w(b,!1)},rate:function(a){return t(a)?(this.H(a),this):this.b},marker:function(a){return t(this.l.markers)?this.l.markers[a]:void 0},_cancel:function(){if(!this.i||
"idle"==this.m())return this;this.c=this.a=null;this.o=!1;return this}};return{version:"1.1.0",animate:function(){var a={};if(1==arguments.length%2){a=arguments[arguments.length-1];var b={};for(c in a)b[c]=a[c];a=b}var c=new Z(a);a=arguments;for(var d=b=0;d<a.length-1;d+=2){var e=a[d];var n=e instanceof Element?e:document.getElementById(e.substring(1));if(!n)throw Error("Invalid target: "+e);e=n;n=a[d+1];e._ks||(e._ks={});for(var l=[],f=0;f<n.length;++f){var h=n[f],g=J(h,"p","property");if("string"!=
typeof g||-1!=g.indexOf("-")||""===g||!(0<S[g]||0<=ba.indexOf(g)))throw Error("Invalid property: "+g);var q=ba.indexOf(g);""!==g&&0<=q&&(g=q);q=R(g);var m=J(h,"t","times");if(!m||2>m.length)throw Error("Not enough times");m=m.slice();if(!isFinite(m[0])||0>m[0])throw Error("Invalid time: "+m[0]);for(var B=1;B<m.length;++B)if(!isFinite(m[B])||0>m[B]||m[B]<m[B-1])throw Error("Invalid time: "+m[B]);B=m[0];var v=m[m.length-1]-B,y=h.iterations||0;1>y&&(y=1);v*=y;b<v+B&&(b=v+B);var u=J(h,"v","values");if(!u||
u.length!=m.length)throw Error("Values do not match times");u=u.slice();for(var C=g,k=u,w=R(C)&240,p=0;p<k.length;++p)if(96==w){for(var G=k[p].substring(6,k[p].length-2).match(/[A-DF-Za-df-z][-+0-9eE., ]*/ig),A=[],r=0;r<G.length;++r){A.push(G[r][0]);for(var z=1<G[r].trim().length?G[r].substring(1).split(","):[],F=0;F<z.length;++F)z[F]=parseFloat(z[F]);A.push(z)}k[p]=A}else if(48==w)x(k[p],"#")?(G=9==k[p].length,k[p]=parseInt(k[p].substring(1),16),G||(k[p]=256*k[p]|255)):x(k[p],"url(")||"none"==k[p]||
(console.warn("unsupported color: "+k[p]),k[p]=0);else if(80==w){G=k;A=p;r=k[p];if("none"==r)r=[0];else{z=[];for(var D=r.indexOf("(");0<D;)if(F=T.indexOf(r.substring(0,D)),0<=F){z.push(F);var E=r.indexOf(") ");0>E&&(E=r.length-1);D=r.substring(D+1,E).split(" ");5==F?(z.push(parseFloat(D[0])),z.push(parseFloat(D[1])),z.push(parseFloat(D[2])),z.push(ia(D[3]))):1==F?z.push(D[0]):z.push(parseFloat(D[0]));r=r.substring(E+1).trim();D=r.indexOf("(")}else break;r=z}G[A]=r}else 64==w?"none"!=k[p]?/^[0-9 .]*$/.test(k[p])?
k[p]=X(k[p]," "):(console.warn("unsupported value: "+k[p]),k[p]=[0]):k[p]=[0]:32==w?(H(k[p]),k[p]=parseFloat(k[p])):0===C&&(k[p]=parseFloat(k[p]));C=J(h,"e","easing");k=m.length;for(C||(C=[]);C.length<k;)C.push([1,0,0,.58,1]);for(k=0;k<C.length;++k)C[k]=ha(C[k]);q=[g,q,B,v,m,u,C,y];m=J(h,"mp","motionPath");t(m)&&0===g&&(q[8]=[],q[8][0]=h.motionRotate,h=document.createElementNS("http://www.w3.org/2000/svg","path"),m||(m="M0,0"),h.setAttribute("d",m),q[8][1]=h,q[8][2]=h.getTotalLength());l.push(q)}0<
l.length&&(c.A.push(e),c.C.push(l))}c.v=b;c.g=0;c.f=c.v;aa(c);return c},add:aa,remove:P,removeAll:function(){for(var a=w.length-1;0<=a;--a)P(w[a]);return this},timelines:function(){return w.slice()},globalPlay:function(){u&&(V=u-(new Date).getTime(),u=void 0,N());return this},globalPause:function(){u||(u=v,O(!1));return this},globalState:function(){return u?"paused":"running"}}}();
]]></script>
    <script><![CDATA[if(KeyshapeJS.version.indexOf('1.')!=0)throw Error('Expected KeyshapeJS v1.*.*');window.ks=document.ks=KeyshapeJS;(function(ks){
ks.animate("#_a0",[{p:'mpath',t:[0,1000],v:['0%','100%'],e:[[1,0.42,0,0.58,1],[0]],mp:"M5.51421,23.0168L5.51421,-11.5418"}],
"#_a1",[{p:'mpath',t:[0,1000],v:['0%','100%'],e:[[1,0.42,0,0.58,1],[0]],mp:"M5.51421,23.07L5.51421,57.6212"}],
{autoremove:false}).range(0,1000);
if(document.location.search.substr(1).split('&').indexOf('global=paused')>=0)ks.globalPause()})(KeyshapeJS);
]]></script>
</svg>
