<?xml version="1.0" encoding="UTF-8" standalone="no"?>
<!-- Created with Keyshape -->
<svg xmlns="http://www.w3.org/2000/svg" viewBox="0 0 160.5 68.8">
    <title>governance</title>
    <g id="Layer_13" data-name="Layer 13" transform="translate(101.75,20.52) translate(-101.75,-20.52)">
        <path fill="none" stroke="#ccc" stroke-miterlimit="10" stroke-width="0.1" opacity="0.2" d="M51.54,35.21L41.08,15.63" transform="translate(46.31,25.42) translate(-46.31,-25.42)"/>
        <path fill="none" stroke="#ccc" stroke-miterlimit="10" stroke-width="0.1" opacity="0.2" d="M55.44,35.36L73.12,9.69" transform="translate(64.28,22.525) translate(-64.28,-22.525)"/>
        <path fill="none" stroke="#ccc" stroke-miterlimit="10" stroke-width="0.1" opacity="0.2" d="M44.27,9.61L71.44,6.99" transform="translate(57.855,8.3) translate(-57.855,-8.3)"/>
        <path fill="none" stroke="#ccc" stroke-miterlimit="10" stroke-width="0.1" opacity="0.2" d="M43.54,13.28L99.06,43.74" transform="translate(71.3,28.51) translate(-71.3,-28.51)"/>
        <path fill="none" stroke="#ccc" stroke-miterlimit="10" stroke-width="0.1" opacity="0.2" d="M120.14,25.33L107.91,41.56" transform="translate(114.025,33.445) translate(-114.025,-33.445)"/>
        <path fill="none" stroke="#ccc" stroke-miterlimit="10" stroke-width="0.1" opacity="0.2" d="M100.41,9.45L119.22,20.97" transform="translate(109.815,15.21) translate(-109.815,-15.21)"/>
        <path fill="none" stroke="#ccc" stroke-miterlimit="10" stroke-width="0.1" opacity="0.2" d="M150.66,11.51L162.42,-2.7" transform="translate(156.54,4.405) translate(-156.54,-4.405)"/>
        <path fill="none" stroke="#ccc" stroke-miterlimit="10" stroke-width="0.1" opacity="0.2" d="M148.13,22.42L152.33,43.09" transform="translate(150.23,32.755) translate(-150.23,-32.755)"/>
        <path fill="none" stroke="#ccc" stroke-miterlimit="10" stroke-width="0.1" opacity="0.2" d="M109.28,42.81L142,20.26" transform="translate(125.64,31.535) translate(-125.64,-31.535)"/>
        <path fill="none" stroke="#ccc" stroke-miterlimit="10" stroke-width="0.1" opacity="0.2" d="M141.52,13.28L119.58,-1.62" transform="translate(130.55,5.83) translate(-130.55,-5.83)"/>
        <path fill="none" stroke="#ccc" stroke-miterlimit="10" stroke-width="0.1" opacity="0.2" d="M117.42,-1.37L105.72,40.62" transform="translate(111.57,19.625) translate(-111.57,-19.625)"/>
        <path fill="none" stroke="#ccc" stroke-miterlimit="10" stroke-width="0.1" opacity="0.2" d="M100.81,41.78L76.89,9.69" transform="translate(88.85,25.735) translate(-88.85,-25.735)"/>
    </g>
    <g id="Layer_12" data-name="Layer 12" transform="translate(94.29,27.965) translate(-94.29,-27.965)">
        <ellipse fill="#ccc" opacity="0.2" rx="3.58" ry="3.58" transform="translate(53.42,38.3)"/>
        <ellipse fill="#ccc" opacity="0.2" rx="3.58" ry="3.58" transform="translate(75,6.63)"/>
        <ellipse fill="#ccc" opacity="0.2" rx="3.58" ry="3.58" transform="translate(77.33,38.3)"/>
        <ellipse fill="#ccc" opacity="0.2" rx="3.58" ry="3.58" transform="translate(97.33,7.63)"/>
        <ellipse fill="#ccc" opacity="0.2" rx="3.58" ry="3.58" transform="translate(122.42,22.63)"/>
        <ellipse fill="#ccc" opacity="0.2" rx="3.58" ry="3.58" transform="translate(153,46.55)"/>
        <ellipse fill="#ccc" opacity="0.2" rx="6.17" ry="6.17" transform="translate(146.83,16.38)"/>
        <ellipse fill="#ccc" opacity="0.2" rx="6.17" ry="6.17" transform="translate(104.5,46.71)"/>
        <ellipse fill="#ccc" opacity="0.2" rx="6.17" ry="6.17" transform="translate(38.17,10.21)"/>
    </g>
    <g id="Layer_14" data-name="Layer 14" transform="translate(99.9755,27.4794) translate(-99.9755,-27.4794)">
        <path d="M97.54,15.82C95.7615,15.8138,94.233,17.0804,93.9088,18.8292C93.5846,20.5779,94.5574,22.3083,96.22,22.94C96.2775,22.9645,96.3425,22.9645,96.4,22.94C96.4578,22.9121,96.5013,22.8614,96.52,22.8L97.21,20.59C97.2423,20.4853,97.1963,20.3723,97.1,20.32C96.7284,20.1206,96.54,19.6941,96.6428,19.2851C96.7456,18.8761,97.1133,18.5893,97.535,18.5893C97.9567,18.5893,98.3244,18.8761,98.4272,19.2851C98.53,19.6941,98.3416,20.1206,97.97,20.32C97.8737,20.3723,97.8277,20.4853,97.86,20.59L98.55,22.8C98.5687,22.8614,98.6122,22.9121,98.67,22.94L98.77,22.94L98.85,22.94C100.513,22.3083,101.485,20.5779,101.161,18.8292C100.837,17.0804,99.3085,15.8138,97.53,15.82" fill="#bfd657" transform="translate(97.535,19.3892) translate(-97.535,-19.3892)"/>
        <path d="M63.22,48.41C62.1973,48.4089,61.3195,49.138,61.1331,50.1436C60.9467,51.1492,61.5048,52.1445,62.46,52.51C62.4949,52.5263,62.5351,52.5263,62.57,52.51C62.6037,52.4945,62.6291,52.4654,62.64,52.43L63.04,51.16C63.0665,51.104,63.0498,51.037,63,51C62.7857,50.8853,62.6768,50.6396,62.7359,50.4038C62.795,50.168,63.0069,50.0027,63.25,50.0027C63.4931,50.0027,63.705,50.168,63.7641,50.4038C63.8232,50.6396,63.7143,50.8853,63.5,51C63.4428,51.0309,63.4172,51.0992,63.44,51.16L63.84,52.43C63.8509,52.4654,63.8763,52.4945,63.91,52.51L64,52.51C64.9552,52.1445,65.5133,51.1492,65.3269,50.1436C65.1405,49.138,64.2627,48.4089,63.24,48.41" fill="#bfd657" transform="translate(63.23,50.4661) translate(-63.23,-50.4661)"/>
        <path d="M113.75,51.16C112.91,51.1633,112.19,51.7633,112.036,52.5893C111.882,53.4154,112.337,54.2342,113.12,54.54C113.149,54.5528,113.181,54.5528,113.21,54.54C113.239,54.5266,113.261,54.501,113.27,54.47L113.6,53.47C113.616,53.4203,113.595,53.3659,113.55,53.34C113.371,53.2457,113.279,53.0415,113.328,52.8451C113.376,52.6487,113.553,52.5107,113.755,52.5107C113.957,52.5107,114.134,52.6487,114.182,52.8451C114.231,53.0415,114.139,53.2457,113.96,53.34C113.915,53.3659,113.894,53.4203,113.91,53.47L114.24,54.47C114.249,54.501,114.271,54.5266,114.3,54.54L114.39,54.54C115.173,54.2342,115.628,53.4154,115.474,52.5893C115.32,51.7633,114.6,51.1633,113.76,51.16" fill="#bfd657" transform="translate(113.755,52.8548) translate(-113.755,-52.8548)"/>
        <path d="M75.62,18.16C74.7816,18.168,74.0667,18.7695,73.9154,19.5942C73.7641,20.4189,74.219,21.235,75,21.54C75.0286,21.5528,75.0614,21.5528,75.09,21.54C75.1193,21.5266,75.1412,21.501,75.15,21.47L75.48,20.47C75.4964,20.4203,75.4755,20.3659,75.43,20.34C75.251,20.2457,75.1593,20.0415,75.2079,19.8451C75.2564,19.6487,75.4327,19.5107,75.635,19.5107C75.8373,19.5107,76.0136,19.6487,76.0621,19.8451C76.1107,20.0415,76.019,20.2457,75.84,20.34C75.7945,20.3659,75.7736,20.4203,75.79,20.47L76.12,21.47C76.1288,21.501,76.1507,21.5266,76.18,21.54L76.27,21.54C77.0526,21.2342,77.5075,20.4154,77.3535,19.5893C77.1996,18.7633,76.4803,18.1633,75.64,18.16" fill="#bfd657" transform="translate(75.6349,19.8548) translate(-75.6349,-19.8548)"/>
        <path d="M61.29,32.32C60.5918,32.2681,59.9668,32.7511,59.8408,33.4398C59.7149,34.1286,60.1286,34.8015,60.8,35L60.87,35C60.8747,34.9837,60.8747,34.9663,60.87,34.95L61.13,34.13C61.1502,34.0997,61.1502,34.0603,61.13,34.03C60.9945,33.9548,60.927,33.7975,60.9659,33.6475C61.0047,33.4975,61.14,33.3927,61.295,33.3927C61.45,33.3927,61.5853,33.4975,61.6241,33.6475C61.663,33.7975,61.5955,33.9548,61.46,34.03C61.4398,34.0603,61.4398,34.0997,61.46,34.13L61.72,34.95C61.7153,34.9663,61.7153,34.9837,61.72,35L61.79,35C62.4077,34.7643,62.769,34.1211,62.6488,33.4709C62.5286,32.8207,61.9612,32.3492,61.3,32.35" fill="#bfd657" transform="translate(61.245,33.6581) translate(-61.245,-33.6581)"/>
        <path d="M79.5,10.06C78.8712,10.0101,78.3038,10.4364,78.1767,11.0542C78.0496,11.6719,78.4026,12.2876,79,12.49L79.06,12.49L79.3,11.74C79.3185,11.7128,79.3185,11.6772,79.3,11.65C79.1763,11.5816,79.1145,11.4381,79.1498,11.3013C79.1852,11.1644,79.3086,11.0687,79.45,11.0687C79.5914,11.0687,79.7148,11.1644,79.7502,11.3013C79.7855,11.4381,79.7237,11.5816,79.6,11.65C79.5815,11.6772,79.5815,11.7128,79.6,11.74L79.84,12.49L79.9,12.49C80.4673,12.2767,80.7998,11.6873,80.689,11.0914C80.5782,10.4956,80.056,10.0651,79.45,10.07" fill="#bfd657" transform="translate(79.4305,11.273) translate(-79.4305,-11.273)"/>
        <path d="M117.62,38.49C116.959,38.4892,116.391,38.9607,116.271,39.6109C116.151,40.2611,116.512,40.9043,117.13,41.14L117.2,41.14C117.205,41.1237,117.205,41.1063,117.2,41.09L117.46,40.27C117.48,40.2397,117.48,40.2003,117.46,40.17C117.325,40.0948,117.257,39.9375,117.296,39.7875C117.335,39.6375,117.47,39.5327,117.625,39.5327C117.78,39.5327,117.915,39.6375,117.954,39.7875C117.993,39.9375,117.925,40.0948,117.79,40.17C117.77,40.2003,117.77,40.2397,117.79,40.27L118.05,41.09C118.045,41.1063,118.045,41.1237,118.05,41.14L118.12,41.14C118.738,40.9043,119.099,40.2611,118.979,39.6109C118.859,38.9607,118.291,38.4892,117.63,38.49" fill="#bfd657" transform="translate(117.625,39.815) translate(-117.625,-39.815)"/>
        <path d="M90.87,46.37C90.2278,46.3916,89.6869,46.8566,89.5692,47.4883C89.4515,48.12,89.7887,48.7486,90.38,49L90.45,49C90.4547,48.9837,90.4547,48.9663,90.45,48.95L90.71,48.13C90.7302,48.0997,90.7302,48.0603,90.71,48.03C90.5601,47.977,90.467,47.8272,90.4858,47.6693C90.5046,47.5114,90.6303,47.3876,90.7884,47.3713C90.9466,47.3549,91.0949,47.4503,91.1456,47.601C91.1963,47.7517,91.1359,47.9174,91,48C90.9798,48.0303,90.9798,48.0697,91,48.1L91.26,48.92C91.2553,48.9363,91.2553,48.9537,91.26,48.97L91.33,48.97C91.9477,48.7343,92.309,48.0911,92.1888,47.4409C92.0686,46.7907,91.5012,46.3192,90.84,46.32" fill="#bfd657" transform="translate(90.8789,47.66) translate(-90.8789,-47.66)"/>
        <path d="M138.29,29.29C137.418,29.279,136.665,29.8978,136.507,30.7552C136.349,31.6126,136.832,32.4593,137.65,32.76C137.679,32.7728,137.711,32.7728,137.74,32.76C137.769,32.7466,137.791,32.721,137.8,32.69L138.14,31.61C138.156,31.5603,138.135,31.5059,138.09,31.48C137.909,31.3817,137.818,31.1732,137.869,30.9738C137.92,30.7743,138.099,30.6347,138.305,30.6347C138.511,30.6347,138.69,30.7743,138.741,30.9738C138.792,31.1732,138.701,31.3817,138.52,31.48C138.475,31.5059,138.454,31.5603,138.47,31.61L138.81,32.69C138.819,32.721,138.841,32.7466,138.87,32.76L138.96,32.76C139.778,32.4593,140.261,31.6126,140.103,30.7552C139.945,29.8978,139.192,29.279,138.32,29.29" fill="#bfd657" transform="translate(138.305,31.0297) translate(-138.305,-31.0297)"/>
        <path d="M122,0.41C121.128,0.399007,120.375,1.01776,120.217,1.87519C120.059,2.73262,120.542,3.57926,121.36,3.88C121.389,3.89283,121.421,3.89283,121.45,3.88C121.479,3.86658,121.501,3.84099,121.51,3.81L121.85,2.73C121.866,2.68029,121.845,2.62592,121.8,2.6C121.619,2.50167,121.528,2.29322,121.579,2.09376C121.63,1.89431,121.809,1.75468,122.015,1.75468C122.221,1.75468,122.4,1.89431,122.451,2.09376C122.502,2.29322,122.411,2.50167,122.23,2.6C122.185,2.62592,122.164,2.68029,122.18,2.73L122.52,3.81C122.529,3.84099,122.551,3.86658,122.58,3.88L122.67,3.88C123.495,3.57796,123.978,2.72218,123.812,1.85982C123.645,0.997456,122.878,0.383289,122,0.41" fill="#bfd657" transform="translate(122.016,2.14939) translate(-122.016,-2.14939)"/>
    </g>
    <g id="Layer_16" data-name="Layer 16" transform="translate(92.625,34.92) translate(-92.625,-34.92)">
        <path fill="none" stroke="#bfd456" stroke-miterlimit="10" stroke-width="0.1" d="M38.77,10.38L60.58,33.13" transform="translate(49.675,21.755) translate(-49.675,-21.755)"/>
        <path fill="none" stroke="#bfd456" stroke-miterlimit="10" stroke-width="0.1" d="M78.67,11.21L36.58,8.8" transform="translate(57.625,10.005) translate(-57.625,-10.005)"/>
        <path fill="none" stroke="#bfd456" stroke-miterlimit="10" stroke-width="0.1" d="M51.75,19.21L79,11.38" transform="translate(65.375,15.295) translate(-65.375,-15.295)"/>
        <path fill="none" stroke="#bfd456" stroke-miterlimit="10" stroke-width="0.1" d="M39,10.4L50.67,18.96" transform="translate(44.835,14.68) translate(-44.835,-14.68)"/>
        <path fill="none" stroke="#bfd456" stroke-miterlimit="10" stroke-width="0.1" d="M51.58,19.96L90.22,47.15" transform="translate(70.9,33.555) translate(-70.9,-33.555)"/>
        <path fill="none" stroke="#bfd456" stroke-miterlimit="10" stroke-width="0.1" d="M64,49.88L95,21.84" transform="translate(79.5,35.86) translate(-79.5,-35.86)"/>
        <path fill="none" stroke="#bfd456" stroke-miterlimit="10" stroke-width="0.1" d="M91.12,46.88L96,22" transform="translate(93.415,34.59) translate(-93.415,-34.59)"/>
        <path fill="none" stroke="#bfd456" stroke-miterlimit="10" stroke-width="0.1" d="M99,22.38L102.69,43.99" transform="translate(100.845,33.185) translate(-100.845,-33.185)"/>
        <path fill="none" stroke="#bfd456" stroke-miterlimit="10" stroke-width="0.1" d="M91.75,47.88L116.58,39.8" transform="translate(104.165,43.84) translate(-104.165,-43.84)"/>
        <path fill="none" stroke="#bfd456" stroke-miterlimit="10" stroke-width="0.1" d="M106.33,66.63L91.75,48.13" transform="translate(99.04,57.38) translate(-99.04,-57.38)"/>
        <path fill="none" stroke="#bfd456" stroke-miterlimit="10" stroke-width="0.1" d="M104.25,51.8L106.67,67.13" transform="translate(105.46,59.465) translate(-105.46,-59.465)"/>
        <path fill="none" stroke="#bfd456" stroke-miterlimit="10" stroke-width="0.1" d="M139.25,30.38L162.33,9.13" transform="translate(150.79,19.755) translate(-150.79,-19.755)"/>
        <path fill="none" stroke="#bfd456" stroke-miterlimit="10" stroke-width="0.1" d="M135.5,20.55L99.58,19.63" transform="translate(117.54,20.09) translate(-117.54,-20.09)"/>
        <path fill="none" stroke="#bfd456" stroke-miterlimit="10" stroke-width="0.1" d="M51.92,19.38L94.25,19.38" transform="translate(73.085,19.38) translate(-73.085,-19.38)"/>
        <path fill="none" stroke="#bfd456" stroke-miterlimit="10" stroke-width="0.1" d="M80.17,11.38L94.83,18.96" transform="translate(87.5,15.17) translate(-87.5,-15.17)"/>
        <path fill="none" stroke="#bfd456" stroke-miterlimit="10" stroke-width="0.1" d="M100,18.88L121.17,2.71" transform="translate(110.585,10.795) translate(-110.585,-10.795)"/>
        <path fill="none" stroke="#bfd456" stroke-miterlimit="10" stroke-width="0.1" d="M100.17,21.21L116.67,39.21" transform="translate(108.42,30.21) translate(-108.42,-30.21)"/>
        <path fill="none" stroke="#bfd456" stroke-miterlimit="10" stroke-width="0.1" d="M22.92,20.46L34,10.8" transform="translate(28.46,15.63) translate(-28.46,-15.63)"/>
        <path fill="none" stroke="#bfd456" stroke-miterlimit="10" stroke-width="0.1" d="M34.08,7.38L24.92,3.88" transform="translate(29.5,5.63) translate(-29.5,-5.63)"/>
    </g>
    <g id="Layer_15" data-name="Layer 15" transform="translate(85.88,35.46) translate(-85.88,-35.46)">
        <ellipse fill="#bfd456" rx="1.44" ry="1.44" transform="translate(22.56,20.59)"/>
        <ellipse fill="#bfd456" rx="3.69" ry="3.69" transform="translate(36.75,8.71)"/>
        <ellipse fill="#bfd456" rx="1.38" ry="1.38" transform="translate(25.69,3.96)"/>
        <ellipse fill="#bfd456" rx="1.38" ry="1.38" transform="translate(51.19,19.4)"/>
        <ellipse fill="#bfd456" rx="0.81" ry="0.81" transform="translate(54.5,9.71)"/>
        <ellipse fill="#bfd456" rx="0.75" ry="0.75" transform="translate(27,16.84)"/>
        <ellipse fill="#bfd456" rx="1.38" ry="1.38" transform="translate(135.84,20.53)"/>
        <ellipse fill="#bfd456" rx="1.38" ry="1.38" transform="translate(131.88,36.49)"/>
        <ellipse fill="#bfd456" rx="0.65" ry="0.65" transform="translate(119.33,20.1)"/>
        <ellipse fill="#bfd456" rx="0.65" ry="0.65" transform="translate(149.99,20.54)"/>
        <ellipse fill="#bfd456" rx="0.65" ry="0.65" transform="translate(123.36,32.94)"/>
        <ellipse fill="#bfd456" rx="0.65" ry="0.65" transform="translate(102.8,44.04)"/>
        <ellipse fill="#bfd456" rx="0.65" ry="0.65" transform="translate(104.3,51.85)"/>
        <ellipse fill="#bfd456" rx="0.65" ry="0.65" transform="translate(100.18,62.03)"/>
        <ellipse fill="#bfd456" rx="1.36" ry="1.36" transform="translate(106.64,66.98)"/>
        <ellipse fill="#bfd456" rx="0.65" ry="0.65" transform="translate(114.61,19.97)"/>
    </g>
    <g id="Layer_17" data-name="Layer 17" transform="translate(69.5,16.175) translate(-69.5,-16.175)">
        <ellipse fill="none" stroke="#bfd456" stroke-miterlimit="10" stroke-width="0.1" rx="7.33" ry="7.33" transform="translate(97.5,19.46)"/>
        <ellipse id="_a0" fill="none" stroke="#bfd456" stroke-miterlimit="10" stroke-width="0.21" stroke-dasharray="2.02 1 0.01 0 0 0" rx="12.56" ry="12.56" transform="translate(97.56,19.48)"/>
        <ellipse id="_a1" fill="none" stroke="#bfd456" stroke-miterlimit="10" stroke-width="0.21" stroke-dasharray="2.03 1.01 0.01 0 0 0" rx="8.26" ry="8.26" transform="translate(37.14,8.57)"/>
    </g>
    <ellipse id="_a2" rx="0.5" ry="0.5" stroke="none" fill="#bfd456" stroke-width="0.21" stroke-miterlimit="10" opacity="1" transform="translate(38.8,10.2333) translate(0,0) translate(0,0)"/>
    <ellipse id="_a3" rx="0.5" ry="0.5" stroke="none" fill="#bfd456" stroke-width="0.21" stroke-miterlimit="10" opacity="1" transform="translate(64.25,49.625) translate(0,0) translate(0,0)"/>
    <ellipse id="_a4" rx="0.5" ry="0.5" stroke="none" fill="#bfd456" stroke-width="0.21" stroke-miterlimit="10" opacity="1" transform="translate(120.9,2.96667) translate(0,0) translate(0,0)"/>
    <ellipse id="_a5" rx="0.5" ry="0.5" stroke="none" fill="#bfd456" stroke-width="0.21" stroke-miterlimit="10" opacity="1" transform="translate(106.6,66.9) translate(0,0) translate(0,0)"/>
    <script><![CDATA[/*
 KeyshapeJS v1.1.1 (c) 2018-2021 Pixofield Ltd | pixofield.com/keyshapejs/mit-license */
window.KeyshapeJS=function(){function t(a){return"undefined"!==typeof a}function x(a,b){return a&&0==a.indexOf(b)}function R(a){var b={},c;for(c in a)b[c]=a[c];return b}function H(a){if(!isFinite(a))throw Error("Non-finite value");}function S(a){if(14>=a)return 16;var b=T[a];b||(b=t(da[a])?0|(a.toLowerCase().indexOf("color")==a.length-5?48:0):1);return b}function K(a){return 0<=a?Math.pow(a,1/3):-Math.pow(-a,1/3)}function ea(a,b,c,d){if(0==a)return 0==b?b=-d/c:(a=Math.sqrt(c*c-4*b*d),d=(-c+a)/(2*
b),0<=d&&1>=d?b=d:(d=(-c-a)/(2*b),b=0<=d&&1>=d?d:0)),b;var e=c/a-b*b/(a*a)/3;c=b*b*b/(a*a*a)/13.5-b*c/(a*a)/3+d/a;var n=c*c/4+e*e*e/27;b=-b/(3*a);if(0>=n){if(0==e&&0==c)return-K(d/a);a=Math.sqrt(c*c/4-n);d=Math.acos(-c/2/a);c=Math.cos(d/3);d=Math.sqrt(3)*Math.sin(d/3);a=K(a);e=2*a*c+b;if(0<=e&&1>=e)return e;e=-a*(c+d)+b;if(0<=e&&1>=e)return e;e=a*(d-c)+b;if(0<=e&&1>=e)return e}else{a=K(-c/2+Math.sqrt(n));c=K(-c/2-Math.sqrt(n));d=a+c+b;if(0<=d&&1>=d)return d;d=-(a+c)/2+b;if(0<=d&&1>=d)return d}return 0}
function fa(a,b){if(48==a&&"number"===typeof b)return"rgba("+(b>>>24)+","+(b>>>16&255)+","+(b>>>8&255)+","+(b&255)/255+")";if(64==a)return b=b.map(function(a){return a+"px"}),b.join(",");if(96==a){a="";for(var c=b.length,d=0;d<c;d+=2)a+=b[d],a+=b[d+1].join(",");return a}if(80==a){if(0==b[0])return"none";a="";c=b.length;for(d=0;d<c;)a+=U[b[d]],1==b[d]?a+="("+b[d+1]+") ":5==b[d]?(a+="("+b[d+1]+"px "+b[d+2]+"px "+b[d+3]+"px rgba("+(b[d+4]>>>24)+","+(b[d+4]>>16&255)+","+(b[d+4]>>8&255)+","+(b[d+4]&255)/
255+")) ",d+=3):a=2==b[d]?a+("("+b[d+1]+"px) "):7==b[d]?a+("("+b[d+1]+"deg) "):a+("("+(0>b[d+1]?0:b[d+1])+") "),d+=2;return a}return 32==a?b+"px":b}function y(a){return 0>=a?0:255<=a?255:a}function ha(a,b,c,d){if(16==a||32==a)return(c-b)*d+b;if(0==a)return.5>d?b:c;if(48==a){if("number"===typeof b&&"number"===typeof c){var e=1-d;return(y(e*(b>>>24)+d*(c>>>24))<<24|y(e*(b>>>16&255)+d*(c>>>16&255))<<16|y(e*(b>>>8&255)+d*(c>>>8&255))<<8|y(e*(b&255)+d*(c&255)))>>>0}return.5>d?b:c}if(64==a){0==b.length&&
(b=[0]);0==c.length&&(c=[0]);var n=b.length;b.length!=c.length&&(n=b.length*c.length);var q=[];for(a=0;a<n;++a){var h=b[a%b.length];var g=(c[a%c.length]-h)*d+h;0>g&&(g=0);q.push(g)}return q}if(96==a){if(b.length!=c.length)return.5>d?b:c;n=b.length;q=[];for(a=0;a<n;a+=2){if(b[a]!==c[a])return.5>d?b:c;q[a]=b[a];q[a+1]=[];for(h=0;h<b[a+1].length;++h)q[a+1].push((c[a+1][h]-b[a+1][h])*d+b[a+1][h])}return q}if(80==a){n=b.length;if(n!=c.length)return.5>d?b:c;q=[];for(a=0;a<n;){if(b[a]!=c[a]||1==b[a])return.5>
d?b:c;q[a]=b[a];q[a+1]=(c[a+1]-b[a+1])*d+b[a+1];if(5==b[a]){q[a+2]=(c[a+2]-b[a+2])*d+b[a+2];q[a+3]=(c[a+3]-b[a+3])*d+b[a+3];e=1-d;var f=b[a+4],l=c[a+4];g=e*(f>>>24)+d*(l>>>24);var m=e*(f>>16&255)+d*(l>>16&255);h=e*(f>>8&255)+d*(l>>8&255);e=e*(f&255)+d*(l&255);q[a+4]=(y(m)<<16|y(h)<<8|y(e))+16777216*(y(g)|0);a+=3}a+=2}return q}return 0}function V(a,b){a:{var c=a+b[2];var d=b[4].length;for(var e=0;e<d;++e)if(c<b[4][e]){c=e;break a}c=d-1}d=b[2];e=b[4][c-1]-d;a=(a-e)/(b[4][c]-d-e);if(b[6]&&b[6].length>
c-1)if(d=b[6][c-1],1==d[0])if(0>=a)a=0;else if(1<=a)a=1;else{e=d[1];var n=d[3];a=ea(3*e-3*n+1,-6*e+3*n,3*e,-a);a=3*a*(1-a)*(1-a)*d[2]+3*a*a*(1-a)*d[4]+a*a*a}else 2==d[0]?(d=d[1],a=Math.ceil(a*d)/d):3==d[0]&&(d=d[1],a=Math.floor(a*d)/d);return ha(b[1]&240,b[5][c-1],b[5][c],a)}function L(){u||(v=(new Date).getTime()+W)}function O(a){if(a||!E){for(var b=!1,c=0;c<w.length;++c)w[c].J(a)&&(b=!0);if(a)for(;0<I.length;)if(a=I.shift(),c=a[0],1==a[1])c.onfinish&&(c.onfinish(),b=!0),c.I();else if(2==a[1]&&c.onloop)c.onloop();
return b}}function X(){L();O(!0)&&!u?(E=!0,M(X)):E=!1}function N(){E||(E=!0,M(X))}function Y(a,b){var c=[];a.split(b).forEach(function(a){c.push(parseFloat(a))});return c}function A(a){-1==a.indexOf(",")&&(a=a.replace(" ",","));return Y(a,",")}function Z(a){a._ks||(a._ks={});if(!a._ks.transform){for(var b=a._ks.transform=[],c=0;14>=c;++c)b[c]=0;b[10]=1;b[11]=1;if(a=a.getAttribute("transform")){a=a.trim().split(") ");for(c=a.length-2;0<=c;--c)if(x(a[c],"translate(")){for(var d=0;d<c;d++)a.shift();
break}c=a.shift();x(c,"translate(")&&(c=A(c.substring(10)),b[1]=c[0],b[2]=t(c[1])?c[1]:0,c=a.shift());x(c,"rotate(")&&(c=A(c.substring(7)),b[6]=c[0],c=a.shift());x(c,"skewX(")&&(c=A(c.substring(6)),b[7]=c[0],c=a.shift());x(c,"skewY(")&&(c=A(c.substring(6)),b[8]=c[0],c=a.shift());x(c,"scale(")&&(c=A(c.substring(6)),b[10]=c[0],b[11]=t(c[1])?c[1]:c[0],c=a.shift());x(c,"translate(")&&(c=A(c.substring(10)),b[13]=c[0],b[14]=t(c[1])?c[1]:0)}}}function aa(a){this.h=a;this.A=[];this.C=[];this.v=0;this.s=this.a=
this.c=null;this.i=this.f=this.g=0;this.b=1;this.j=this.F=this.o=!1}function J(a,b,c){b=a[b];void 0===b&&(b=a[c]);return b}function ia(a){return Array.isArray(a)?a:x(a,"cubic-bezier(")?(a=a.substring(13,a.length-1).split(","),[1,parseFloat(a[0]),parseFloat(a[1]),parseFloat(a[2]),parseFloat(a[3])]):x(a,"steps(")?(a=a.substring(6,a.length-1).split(","),[a[1]&&"start"==a[1].trim()?2:3,parseFloat(a[0])]):[0]}function ja(a){a=a.trim();return x(a,"#")?(parseInt(a.substring(1),16)<<8)+255:x(a,"rgba(")?(a=
a.substring(5,a.length-1),a=a.split(","),(parseInt(a[0],10)<<24)+(parseInt(a[1],10)<<16)+(parseInt(a[2],10)<<8)+255*parseFloat(a[3])<<0):a}function ba(a){!1===a.j&&(w.push(a),a.j=!0,!1!==a.h.autoplay&&a.play());return this}function P(a){if(!0===a.j){a._cancel();var b=w.indexOf(a);-1<b&&w.splice(b,1);b=I.indexOf(a);-1<b&&I.splice(b,1);a.j=!1}return this}var Q=Error("Not in timeline list"),ca="mpath posX posY    rotate skewX skewY  scaleX scaleY  anchorX anchorY".split(" "),ka=" translate translate    rotate skewX skewY  scale scale  translate translate".split(" "),
U="none url blur brightness contrast drop-shadow grayscale hue-rotate invert opacity saturate sepia".split(" "),M=window.requestAnimationFrame||window.webkitRequestAnimationFrame||window.mozRequestAnimationFrame||window.oRequestAnimationFrame||window.msRequestAnimationFrame||null;M||(M=function(a){window.setTimeout(a,16)});var la=navigator.vendor.match(/apple/i),T={d:97,fill:48,fillOpacity:16,filter:80,height:33,opacity:16,offsetDistance:33,stroke:48,strokeDasharray:64,strokeDashoffset:32,strokeOpacity:16,
strokeWidth:32,transform:1,width:33},da=window.getComputedStyle(document.documentElement),E=!1,v=(new Date).getTime(),u,W=0,w=[],I=[];aa.prototype={B:function(a){var b=0;if(null!==this.c){var c=this.l();0<this.b&&null!==c&&c>=this.f?this.i?(this.c=v-this.g/this.b,this.i--,b=2):(b=1,a?this.a=c:this.a=this.s?Math.max(this.s,this.f):this.f):0>this.b&&null!==c&&c<=this.g?this.i&&Infinity!=this.f?(this.c=v-this.f/this.b,this.i--,b=2):(this.i=0,b=1,a?this.a=c:this.a=this.s?Math.min(this.s,this.g):this.g):
null!==c&&0!=this.b&&(a&&null!==this.a&&(this.c=v-this.a/this.b),this.a=null)}this.s=this.l();return b},J:function(a){a&&(this.o&&(this.o=!1,null===this.c&&(0!=this.b&&null!==this.a?(this.c=v-this.a/this.b,this.a=null):this.c=v)),null===this.a&&null!==this.c&&(a=this.B(!1),0!=a&&I.push([this,a])));a=this.l();if(null===a)return!1;for(var b=this.A,c=this.C,d=0;d<b.length;++d){for(var e=b[d],n=!1,q=0;q<c[d].length;++q){var h=c[d][q],g=h[0];if(null!==g){var f=h[2];var l=h[4].length,m=h[4][l-1]-f;f=0==
m?h[5][l-1]:a<=f?h[5][0]:a>=f+h[3]?0==h[3]%m?h[5][l-1]:V(h[3]%m,h):V((a-f)%m,h);0==g?(e._ks.mpath=h[8],e._ks.transform[g]=f,n=!0):14>=g?(e._ks.transform[g]=f,n=!0):(f=fa(h[1]&240,f),h[1]&1?e.setAttribute(g,f):e.style[g]=f)}}if(n){n=e;Z(n);q=n._ks.transform;h="";if(g=n._ks.mpath)l=q[0],0>l&&(l=0),100<l&&(l=100),l=l*g[2]/100,f=g[1].getPointAtLength(l),h="translate("+f.x+","+f.y+") ",g[0]&&(.5>l?(l=f,f=g[1].getPointAtLength(.5)):l=g[1].getPointAtLength(l-.5),h+="rotate("+180*Math.atan2(f.y-l.y,f.x-l.x)/
Math.PI+") ");for(g=1;g<q.length;++g)f=q[g],f!=(10==g||11==g?1:0)&&(h+=" "+ka[g]+"(",h=2>=g?h+(1==g?f+",0":"0,"+f):13<=g?h+(13==g?f+",0":"0,"+f):10<=g?h+(10==g?f+",1":"1,"+f):h+f,h+=")");n.setAttribute("transform",h)}la&&e.setAttribute("opacity",e.getAttribute("opacity"))}return"running"==this.m()},I:function(){!1!==this.h.autoremove&&"finished"==this.m()&&P(this)},D:function(){if(!this.F){this.F=!0;for(var a=this.A,b=this.C,c=0;c<a.length;++c)for(var d=a[c],e=0;e<b[c].length;++e)14>=b[c][e][0]&&
Z(d)}},u:function(a){if("number"==typeof a)return a;if(!t(this.h.markers)||!t(this.h.markers[a]))throw Error("Invalid marker: "+a);return+this.h.markers[a]},play:function(a){t(a)&&null!==a&&(a=this.u(a),H(a),0>this.b&&a<this.g&&(a=this.g),0<this.b&&a>this.f&&(a=this.f),this.w(a,!0));if(!this.j)throw Q;a=this.l();if(0<this.b&&(null===a||a>=this.f))this.a=this.g;else if(0>this.b&&(null===a||a<=this.g)){if(Infinity==this.f)throw Error("Cannot seek to Infinity");this.a=this.f}else 0==this.b&&null===a&&
(this.a=this.g);if(null===this.a)return this;this.c=null;this.o=!0;this.D();N();return this},pause:function(a){if(!this.j)throw Q;t(a)&&(a=this.u(a),H(a));if("paused"!=this.m()){L();var b=this.l();if(null===b)if(0<=this.b)this.a=this.g;else{if(Infinity==this.f)throw Error("Cannot seek to Infinity");this.a=this.f}null!==this.c&&null===this.a&&(this.a=b);this.c=null;this.o=!1;this.B(!1);this.D();N()}t(a)&&this.w(a,!0);return this},range:function(a,b){if(0==arguments.length)return{"in":this.g,out:this.f};
var c=this.u(a),d=this.v;t(b)&&(d=this.u(b));H(c);if(0>c||0>d||c>=d||isNaN(d))throw Error("Invalid range");var e=this.m();this.g=c;this.f=d;"finished"==e&&"running"==this.m()&&this.play();return this},loop:function(a){if(!t(a))return{count:this.i};this.i=!0===a?Infinity:Math.floor(a);if(0>this.i||isNaN(this.i))this.i=0;return this},l:function(){return null!==this.a?this.a:null===this.c?null:(v-this.c)*this.b},w:function(a,b){b&&L();null!==a&&(this.D(),null!==this.a||null===this.c||0==this.b?(this.a=
a,O(!1)):this.c=v-a/this.b,this.j||(this.c=null),this.s=null,this.B(!0),N())},G:function(){return this.l()},time:function(a){if(t(a)){if(!this.j)throw Q;a=this.u(a);H(a);this.w(a,!0);return this}return this.G()},m:function(){var a=this.l();return this.o?"running":null===a?"idle":null===this.c?"paused":0<this.b&&a>=this.f||0>this.b&&a<=this.g?"finished":"running"},state:function(){return this.m()},duration:function(){return this.v},H:function(a){H(a);L();var b=this.l();this.b=a;null!==b&&this.w(b,
!1)},rate:function(a){return t(a)?(this.H(a),this):this.b},markers:function(a){return t(a)?(this.h.markers=R(a),this):t(this.h.markers)?this.h.markers:{}},marker:function(a){return t(this.h.markers)?this.h.markers[a]:void 0},_cancel:function(){if(!this.j||"idle"==this.m())return this;this.c=this.a=null;this.o=!1;return this}};return{version:"1.1.1",animate:function(){var a={};1==arguments.length%2&&(a=R(arguments[arguments.length-1]));a=new aa(a);for(var b=arguments,c=0,d=0;d<b.length-1;d+=2){var e=
b[d];var n=e instanceof Element?e:document.getElementById(e.substring(1));if(!n)throw Error("Invalid target: "+e);e=n;n=b[d+1];e._ks||(e._ks={});for(var q=[],h=0;h<n.length;++h){var g=n[h],f=J(g,"p","property");if("string"!=typeof f||-1!=f.indexOf("-")||""===f||!(0<T[f]||0<=ca.indexOf(f)))throw Error("Invalid property: "+f);var l=ca.indexOf(f);""!==f&&0<=l&&(f=l);l=S(f);var m=J(g,"t","times");if(!m||2>m.length)throw Error("Not enough times");m=m.slice();if(!isFinite(m[0])||0>m[0])throw Error("Invalid time: "+
m[0]);for(var B=1;B<m.length;++B)if(!isFinite(m[B])||0>m[B]||m[B]<m[B-1])throw Error("Invalid time: "+m[B]);B=m[0];var v=m[m.length-1]-B,y=g.iterations||0;1>y&&(y=1);v*=y;c<v+B&&(c=v+B);var u=J(g,"v","values");if(!u||u.length!=m.length)throw Error("Values do not match times");u=u.slice();for(var C=f,k=u,w=S(C)&240,p=0;p<k.length;++p)if(96==w){for(var G=k[p].substring(6,k[p].length-2).match(/[A-DF-Za-df-z][-+0-9eE., ]*/ig),A=[],r=0;r<G.length;++r){A.push(G[r][0]);for(var z=1<G[r].trim().length?G[r].substring(1).split(","):
[],F=0;F<z.length;++F)z[F]=parseFloat(z[F]);A.push(z)}k[p]=A}else if(48==w)x(k[p],"#")?(G=9==k[p].length,k[p]=parseInt(k[p].substring(1),16),G||(k[p]=256*k[p]|255)):x(k[p],"url(")||"none"==k[p]||(console.warn("unsupported color: "+k[p]),k[p]=0);else if(80==w){G=k;A=p;r=k[p];if("none"==r)r=[0];else{z=[];for(var D=r.indexOf("(");0<D;)if(F=U.indexOf(r.substring(0,D)),0<=F){z.push(F);var E=r.indexOf(") ");0>E&&(E=r.length-1);D=r.substring(D+1,E).split(" ");5==F?(z.push(parseFloat(D[0])),z.push(parseFloat(D[1])),
z.push(parseFloat(D[2])),z.push(ja(D[3]))):1==F?z.push(D[0]):z.push(parseFloat(D[0]));r=r.substring(E+1).trim();D=r.indexOf("(")}else break;r=z}G[A]=r}else 64==w?"none"!=k[p]?/^[0-9 .]*$/.test(k[p])?k[p]=Y(k[p]," "):(console.warn("unsupported value: "+k[p]),k[p]=[0]):k[p]=[0]:32==w?(H(k[p]),k[p]=parseFloat(k[p])):0===C&&(k[p]=parseFloat(k[p]));C=J(g,"e","easing");k=m.length;for(C||(C=[]);C.length<k;)C.push([1,0,0,.58,1]);for(k=0;k<C.length;++k)C[k]=ia(C[k]);l=[f,l,B,v,m,u,C,y];m=J(g,"mp","motionPath");
t(m)&&0===f&&(l[8]=[],l[8][0]=g.motionRotate,g=document.createElementNS("http://www.w3.org/2000/svg","path"),m||(m="M0,0"),g.setAttribute("d",m),l[8][1]=g,l[8][2]=g.getTotalLength());q.push(l)}0<q.length&&(a.A.push(e),a.C.push(q))}a.v=c;a.g=0;a.f=a.v;ba(a);return a},add:ba,remove:P,removeAll:function(){for(var a=w.length-1;0<=a;--a)P(w[a]);return this},timelines:function(){return w.slice()},globalPlay:function(){u&&(W=u-(new Date).getTime(),u=void 0,N());return this},globalPause:function(){u||(u=
v,O(!1));return this},globalState:function(){return u?"paused":"running"}}}();
]]></script>
    <script><![CDATA[if(KeyshapeJS.version.indexOf('1.')!=0)throw Error('Expected KeyshapeJS v1.*.*');window.ks=document.ks=KeyshapeJS;(function(ks){
ks.animate("#_a0",[{p:'rotate',t:[0,20000],v:[0,-360],e:[[0],[0]]}],
"#_a1",[{p:'rotate',t:[0,20000],v:[0,360],e:[[0],[0]]}],
"#_a2",[{p:'mpath',t:[0,2000,4000,6000],v:['0%','25.973199%','67.113235%','100%'],e:[[1,0.42,0,0.58,1],[1,0.42,0,0.58,1],[1,0.42,0,0.58,1],[0]],mp:"M38.8,10.2333L51.2,19.4L75.625,19.4L95.15,19.4"},{p:'opacity',t:[0,3700,4300,6000],v:[1,0,0,1],e:[[3,1],[0],[2,1],[0]]}],
"#_a3",[{p:'mpath',t:[13500,16100],v:['0%','100%'],e:[[1,0.42,0,0.58,1],[0]],mp:"M64.25,49.625L95.64,21.3"}],
"#_a4",[{p:'mpath',t:[2000,3000,7000,8000,12000,13000],v:['0%','19.999885%','39.99977%','59.999847%','79.999923%','100%'],e:[[1,0.42,0,0.58,1],[2,1],[1,0.42,0,0.58,1],[2,1],[1,0.42,0,0.58,1],[2,1]],mp:"M120.9,2.96667L100.333,18.6333L120.9,2.96667L100.333,18.6333L120.9,2.96667L100.333,18.6333"}],
"#_a5",[{p:'mpath',t:[6000,8000,10000],v:['0%','48.745961%','100%'],e:[[1,0.42,0,0.58,1],[1,0.42,0,0.58,1],[0]],mp:"M106.6,66.9L91,47.22L96.14,21.32"},{p:'opacity',t:[0,7700,8000,10900],v:[1,0,0,1],e:[[3,1],[0],[2,1],[0]]}],
{autoremove:false}).range(0,20000).loop(true);
if(document.location.search.substr(1).split('&').indexOf('global=paused')>=0)ks.globalPause()})(KeyshapeJS);
]]></script>
</svg>
