<?xml version="1.0" encoding="UTF-8" standalone="no"?>
<!-- Created with Keyshape -->
<svg xmlns="http://www.w3.org/2000/svg" viewBox="0 0 200 85">
    <g id="Layer_9" data-name="Layer 9" transform="translate(88.735,47.9847) translate(-88.535,-36.7847)">
        <g transform="translate(88.535,36.7847) translate(-88.535,-36.7847)">
            <path id="Quote" d="M85,34.12L85,42.38L77.38,42.38L77.38,35.86C77.38,32.3267,77.8033,29.7733,78.65,28.2C79.7965,26.049,81.6512,24.3603,83.9,23.42L85.64,26.18C84.2972,26.6949,83.169,27.6504,82.44,28.89C81.6497,30.5183,81.2557,32.3104,81.29,34.12ZM97.25,34.12L97.25,42.38L89.63,42.38L89.63,35.86C89.63,32.3267,90.0533,29.7733,90.9,28.2C92.0465,26.049,93.9012,24.3603,96.15,23.42L97.89,26.18C96.5472,26.6949,95.419,27.6504,94.69,28.89C93.8997,30.5183,93.5057,32.3104,93.54,34.12Z" fill="#bfd35c" transform="translate(87.635,32.9) translate(-87.635,-32.9)"/>
            <g transform="translate(88.535,36.7847) translate(-88.535,-36.7847)">
                <path d="M0,37.7L0,35.87C3.33333,35.87,5.58,35.27,6.74,34.07C7.9,32.87,8.49,30.6333,8.51,27.36L8.51,12.3C8.47996,10.4636,8.69178,8.63116,9.14,6.85C9.48662,5.44018,10.1424,4.1251,11.06,3C11.9393,1.98226,13.0653,1.20749,14.33,0.75C15.8277,0.216537,17.4106,-0.0376699,19,0L19,1.84C17.3014,1.75018,15.6096,2.11615,14.1,2.9C12.7879,3.66924,11.7893,4.8768,11.28,6.31C10.6175,8.23859,10.3125,10.2719,10.38,12.31L10.38,27.36C10.4099,28.9806,10.225,30.598,9.83,32.17C9.53365,33.3673,8.93052,34.4667,8.08,35.36C7.19296,36.2252,6.09214,36.8395,4.89,37.14C3.29359,37.5511,1.64802,37.7395,0,37.7ZM19,73.57C17.4206,73.604,15.8482,73.3498,14.36,72.82C13.0931,72.3569,11.9669,71.5751,11.09,70.55C10.1751,69.4307,9.51938,68.1228,9.17,66.72C8.72178,64.9388,8.50996,63.1064,8.54,61.27L8.54,46.21C8.54,42.9233,7.95,40.6867,6.77,39.5C5.59,38.3133,3.33333,37.7133,0,37.7L0,35.87C1.63818,35.8539,3.27162,36.0488,4.86,36.45C6.05567,36.7613,7.15309,37.3702,8.05,38.22C8.89864,39.1107,9.50162,40.2064,9.8,41.4C10.195,42.972,10.3799,44.5894,10.35,46.21L10.35,61.27C10.2825,63.3081,10.5875,65.3414,11.25,67.27C11.7541,68.701,12.7547,69.9038,14.07,70.66C15.5926,71.4386,17.2916,71.8073,19,71.73ZM0,37.7L0,35.87L6.21,35.87L6.21,37.7Z" fill="#bfd35c" transform="translate(9.5,36.7847) translate(-9.5,-36.7847)"/>
                <path d="M158.06,0C159.639,-0.0340022,161.212,0.220151,162.7,0.75C163.977,1.19922,165.115,1.97491,166,3C166.922,4.11611,167.581,5.42496,167.93,6.83C168.378,8.61116,168.59,10.4436,168.56,12.28L168.56,27.36C168.56,30.6533,169.15,32.89,170.33,34.07C171.51,35.25,173.75,35.85,177.07,35.87L177.07,37.7C175.432,37.7218,173.797,37.5268,172.21,37.12C171.007,36.8118,169.903,36.2027,169,35.35C168.149,34.4606,167.546,33.3644,167.25,32.17C166.855,30.598,166.67,28.9806,166.7,27.36L166.7,12.3C166.768,10.2619,166.463,8.22859,165.8,6.3C165.286,4.87825,164.297,3.6774,163,2.9C161.483,2.11541,159.785,1.7495,158.08,1.84ZM177.06,35.87L177.06,37.7C173.74,37.7,171.5,38.32,170.32,39.5C169.14,40.68,168.55,42.92,168.55,46.21L168.55,61.27C168.58,63.1064,168.368,64.9388,167.92,66.72C167.574,68.1242,166.918,69.433,166,70.55C165.129,71.5767,164.005,72.359,162.74,72.82C161.252,73.3498,159.679,73.604,158.1,73.57L158.1,71.73C159.799,71.7963,161.486,71.4244,163,70.65C164.302,69.8835,165.293,68.6835,165.8,67.26C166.463,65.3314,166.768,63.2981,166.7,61.26L166.7,46.21C166.67,44.5894,166.855,42.972,167.25,41.4C167.548,40.2036,168.151,39.1046,169,38.21C169.887,37.3448,170.988,36.7305,172.19,36.43C173.76,36.0256,175.379,35.8372,177,35.87ZM177.06,35.87L177.06,37.7L170.85,37.7L170.85,35.87Z" fill="#bfd35c" transform="translate(167.565,36.785) translate(-167.565,-36.785)"/>
            </g>
            <path id="Dot1" d="M30.18,34C30.18,32.2325,31.2447,30.639,32.8777,29.9626C34.5106,29.2863,36.3902,29.6601,37.6401,30.9099C38.8899,32.1598,39.2637,34.0394,38.5874,35.6723C37.911,37.3053,36.3175,38.37,34.55,38.37C33.3902,38.3727,32.2771,37.9131,31.457,37.093C30.6369,36.2729,30.1773,35.1598,30.18,34" fill="#cdcccc" transform="translate(34.5501,33.9999) translate(-34.5501,-33.9999)"/>
            <path id="Dot2" d="M50.09,34C50.09,32.2325,51.1547,30.639,52.7877,29.9626C54.4206,29.2863,56.3002,29.6601,57.5501,30.9099C58.7999,32.1598,59.1737,34.0394,58.4974,35.6723C57.821,37.3053,56.2275,38.37,54.46,38.37C52.0465,38.37,50.09,36.4135,50.09,34" fill="#cdcccc" transform="translate(54.4601,33.9999) translate(-54.4601,-33.9999)"/>
            <path id="Dot3" d="M118,34C118,31.5865,119.957,29.63,122.37,29.63C124.783,29.63,126.74,31.5865,126.74,34C126.74,36.4135,124.783,38.37,122.37,38.37C121.211,38.37,120.099,37.9096,119.28,37.0901C118.46,36.2705,118,35.159,118,34" fill="#cdcccc" transform="translate(122.37,34) translate(-122.37,-34)"/>
            <path id="Dot4" d="M137.92,34C137.92,31.5865,139.877,29.63,142.29,29.63C144.703,29.63,146.66,31.5865,146.66,34C146.66,36.4135,144.703,38.37,142.29,38.37C141.13,38.3727,140.017,37.9131,139.197,37.093C138.377,36.2729,137.917,35.1598,137.92,34" fill="#cdcccc" transform="translate(142.29,34) translate(-142.29,-34)"/>
        </g>
    </g>
    <script><![CDATA[/*
 KeyshapeJS v1.1.1 (c) 2018-2021 Pixofield Ltd | pixofield.com/keyshapejs/mit-license */
window.KeyshapeJS=function(){function t(a){return"undefined"!==typeof a}function x(a,b){return a&&0==a.indexOf(b)}function R(a){var b={},c;for(c in a)b[c]=a[c];return b}function H(a){if(!isFinite(a))throw Error("Non-finite value");}function S(a){if(14>=a)return 16;var b=T[a];b||(b=t(da[a])?0|(a.toLowerCase().indexOf("color")==a.length-5?48:0):1);return b}function K(a){return 0<=a?Math.pow(a,1/3):-Math.pow(-a,1/3)}function ea(a,b,c,d){if(0==a)return 0==b?b=-d/c:(a=Math.sqrt(c*c-4*b*d),d=(-c+a)/(2*
b),0<=d&&1>=d?b=d:(d=(-c-a)/(2*b),b=0<=d&&1>=d?d:0)),b;var e=c/a-b*b/(a*a)/3;c=b*b*b/(a*a*a)/13.5-b*c/(a*a)/3+d/a;var n=c*c/4+e*e*e/27;b=-b/(3*a);if(0>=n){if(0==e&&0==c)return-K(d/a);a=Math.sqrt(c*c/4-n);d=Math.acos(-c/2/a);c=Math.cos(d/3);d=Math.sqrt(3)*Math.sin(d/3);a=K(a);e=2*a*c+b;if(0<=e&&1>=e)return e;e=-a*(c+d)+b;if(0<=e&&1>=e)return e;e=a*(d-c)+b;if(0<=e&&1>=e)return e}else{a=K(-c/2+Math.sqrt(n));c=K(-c/2-Math.sqrt(n));d=a+c+b;if(0<=d&&1>=d)return d;d=-(a+c)/2+b;if(0<=d&&1>=d)return d}return 0}
function fa(a,b){if(48==a&&"number"===typeof b)return"rgba("+(b>>>24)+","+(b>>>16&255)+","+(b>>>8&255)+","+(b&255)/255+")";if(64==a)return b=b.map(function(a){return a+"px"}),b.join(",");if(96==a){a="";for(var c=b.length,d=0;d<c;d+=2)a+=b[d],a+=b[d+1].join(",");return a}if(80==a){if(0==b[0])return"none";a="";c=b.length;for(d=0;d<c;)a+=U[b[d]],1==b[d]?a+="("+b[d+1]+") ":5==b[d]?(a+="("+b[d+1]+"px "+b[d+2]+"px "+b[d+3]+"px rgba("+(b[d+4]>>>24)+","+(b[d+4]>>16&255)+","+(b[d+4]>>8&255)+","+(b[d+4]&255)/
255+")) ",d+=3):a=2==b[d]?a+("("+b[d+1]+"px) "):7==b[d]?a+("("+b[d+1]+"deg) "):a+("("+(0>b[d+1]?0:b[d+1])+") "),d+=2;return a}return 32==a?b+"px":b}function y(a){return 0>=a?0:255<=a?255:a}function ha(a,b,c,d){if(16==a||32==a)return(c-b)*d+b;if(0==a)return.5>d?b:c;if(48==a){if("number"===typeof b&&"number"===typeof c){var e=1-d;return(y(e*(b>>>24)+d*(c>>>24))<<24|y(e*(b>>>16&255)+d*(c>>>16&255))<<16|y(e*(b>>>8&255)+d*(c>>>8&255))<<8|y(e*(b&255)+d*(c&255)))>>>0}return.5>d?b:c}if(64==a){0==b.length&&
(b=[0]);0==c.length&&(c=[0]);var n=b.length;b.length!=c.length&&(n=b.length*c.length);var q=[];for(a=0;a<n;++a){var h=b[a%b.length];var g=(c[a%c.length]-h)*d+h;0>g&&(g=0);q.push(g)}return q}if(96==a){if(b.length!=c.length)return.5>d?b:c;n=b.length;q=[];for(a=0;a<n;a+=2){if(b[a]!==c[a])return.5>d?b:c;q[a]=b[a];q[a+1]=[];for(h=0;h<b[a+1].length;++h)q[a+1].push((c[a+1][h]-b[a+1][h])*d+b[a+1][h])}return q}if(80==a){n=b.length;if(n!=c.length)return.5>d?b:c;q=[];for(a=0;a<n;){if(b[a]!=c[a]||1==b[a])return.5>
d?b:c;q[a]=b[a];q[a+1]=(c[a+1]-b[a+1])*d+b[a+1];if(5==b[a]){q[a+2]=(c[a+2]-b[a+2])*d+b[a+2];q[a+3]=(c[a+3]-b[a+3])*d+b[a+3];e=1-d;var f=b[a+4],l=c[a+4];g=e*(f>>>24)+d*(l>>>24);var m=e*(f>>16&255)+d*(l>>16&255);h=e*(f>>8&255)+d*(l>>8&255);e=e*(f&255)+d*(l&255);q[a+4]=(y(m)<<16|y(h)<<8|y(e))+16777216*(y(g)|0);a+=3}a+=2}return q}return 0}function V(a,b){a:{var c=a+b[2];var d=b[4].length;for(var e=0;e<d;++e)if(c<b[4][e]){c=e;break a}c=d-1}d=b[2];e=b[4][c-1]-d;a=(a-e)/(b[4][c]-d-e);if(b[6]&&b[6].length>
c-1)if(d=b[6][c-1],1==d[0])if(0>=a)a=0;else if(1<=a)a=1;else{e=d[1];var n=d[3];a=ea(3*e-3*n+1,-6*e+3*n,3*e,-a);a=3*a*(1-a)*(1-a)*d[2]+3*a*a*(1-a)*d[4]+a*a*a}else 2==d[0]?(d=d[1],a=Math.ceil(a*d)/d):3==d[0]&&(d=d[1],a=Math.floor(a*d)/d);return ha(b[1]&240,b[5][c-1],b[5][c],a)}function L(){u||(v=(new Date).getTime()+W)}function O(a){if(a||!E){for(var b=!1,c=0;c<w.length;++c)w[c].J(a)&&(b=!0);if(a)for(;0<I.length;)if(a=I.shift(),c=a[0],1==a[1])c.onfinish&&(c.onfinish(),b=!0),c.I();else if(2==a[1]&&c.onloop)c.onloop();
return b}}function X(){L();O(!0)&&!u?(E=!0,M(X)):E=!1}function N(){E||(E=!0,M(X))}function Y(a,b){var c=[];a.split(b).forEach(function(a){c.push(parseFloat(a))});return c}function A(a){-1==a.indexOf(",")&&(a=a.replace(" ",","));return Y(a,",")}function Z(a){a._ks||(a._ks={});if(!a._ks.transform){for(var b=a._ks.transform=[],c=0;14>=c;++c)b[c]=0;b[10]=1;b[11]=1;if(a=a.getAttribute("transform")){a=a.trim().split(") ");for(c=a.length-2;0<=c;--c)if(x(a[c],"translate(")){for(var d=0;d<c;d++)a.shift();
break}c=a.shift();x(c,"translate(")&&(c=A(c.substring(10)),b[1]=c[0],b[2]=t(c[1])?c[1]:0,c=a.shift());x(c,"rotate(")&&(c=A(c.substring(7)),b[6]=c[0],c=a.shift());x(c,"skewX(")&&(c=A(c.substring(6)),b[7]=c[0],c=a.shift());x(c,"skewY(")&&(c=A(c.substring(6)),b[8]=c[0],c=a.shift());x(c,"scale(")&&(c=A(c.substring(6)),b[10]=c[0],b[11]=t(c[1])?c[1]:c[0],c=a.shift());x(c,"translate(")&&(c=A(c.substring(10)),b[13]=c[0],b[14]=t(c[1])?c[1]:0)}}}function aa(a){this.h=a;this.A=[];this.C=[];this.v=0;this.s=this.a=
this.c=null;this.i=this.f=this.g=0;this.b=1;this.j=this.F=this.o=!1}function J(a,b,c){b=a[b];void 0===b&&(b=a[c]);return b}function ia(a){return Array.isArray(a)?a:x(a,"cubic-bezier(")?(a=a.substring(13,a.length-1).split(","),[1,parseFloat(a[0]),parseFloat(a[1]),parseFloat(a[2]),parseFloat(a[3])]):x(a,"steps(")?(a=a.substring(6,a.length-1).split(","),[a[1]&&"start"==a[1].trim()?2:3,parseFloat(a[0])]):[0]}function ja(a){a=a.trim();return x(a,"#")?(parseInt(a.substring(1),16)<<8)+255:x(a,"rgba(")?(a=
a.substring(5,a.length-1),a=a.split(","),(parseInt(a[0],10)<<24)+(parseInt(a[1],10)<<16)+(parseInt(a[2],10)<<8)+255*parseFloat(a[3])<<0):a}function ba(a){!1===a.j&&(w.push(a),a.j=!0,!1!==a.h.autoplay&&a.play());return this}function P(a){if(!0===a.j){a._cancel();var b=w.indexOf(a);-1<b&&w.splice(b,1);b=I.indexOf(a);-1<b&&I.splice(b,1);a.j=!1}return this}var Q=Error("Not in timeline list"),ca="mpath posX posY    rotate skewX skewY  scaleX scaleY  anchorX anchorY".split(" "),ka=" translate translate    rotate skewX skewY  scale scale  translate translate".split(" "),
U="none url blur brightness contrast drop-shadow grayscale hue-rotate invert opacity saturate sepia".split(" "),M=window.requestAnimationFrame||window.webkitRequestAnimationFrame||window.mozRequestAnimationFrame||window.oRequestAnimationFrame||window.msRequestAnimationFrame||null;M||(M=function(a){window.setTimeout(a,16)});var la=navigator.vendor.match(/apple/i),T={d:97,fill:48,fillOpacity:16,filter:80,height:33,opacity:16,offsetDistance:33,stroke:48,strokeDasharray:64,strokeDashoffset:32,strokeOpacity:16,
strokeWidth:32,transform:1,width:33},da=window.getComputedStyle(document.documentElement),E=!1,v=(new Date).getTime(),u,W=0,w=[],I=[];aa.prototype={B:function(a){var b=0;if(null!==this.c){var c=this.l();0<this.b&&null!==c&&c>=this.f?this.i?(this.c=v-this.g/this.b,this.i--,b=2):(b=1,a?this.a=c:this.a=this.s?Math.max(this.s,this.f):this.f):0>this.b&&null!==c&&c<=this.g?this.i&&Infinity!=this.f?(this.c=v-this.f/this.b,this.i--,b=2):(this.i=0,b=1,a?this.a=c:this.a=this.s?Math.min(this.s,this.g):this.g):
null!==c&&0!=this.b&&(a&&null!==this.a&&(this.c=v-this.a/this.b),this.a=null)}this.s=this.l();return b},J:function(a){a&&(this.o&&(this.o=!1,null===this.c&&(0!=this.b&&null!==this.a?(this.c=v-this.a/this.b,this.a=null):this.c=v)),null===this.a&&null!==this.c&&(a=this.B(!1),0!=a&&I.push([this,a])));a=this.l();if(null===a)return!1;for(var b=this.A,c=this.C,d=0;d<b.length;++d){for(var e=b[d],n=!1,q=0;q<c[d].length;++q){var h=c[d][q],g=h[0];if(null!==g){var f=h[2];var l=h[4].length,m=h[4][l-1]-f;f=0==
m?h[5][l-1]:a<=f?h[5][0]:a>=f+h[3]?0==h[3]%m?h[5][l-1]:V(h[3]%m,h):V((a-f)%m,h);0==g?(e._ks.mpath=h[8],e._ks.transform[g]=f,n=!0):14>=g?(e._ks.transform[g]=f,n=!0):(f=fa(h[1]&240,f),h[1]&1?e.setAttribute(g,f):e.style[g]=f)}}if(n){n=e;Z(n);q=n._ks.transform;h="";if(g=n._ks.mpath)l=q[0],0>l&&(l=0),100<l&&(l=100),l=l*g[2]/100,f=g[1].getPointAtLength(l),h="translate("+f.x+","+f.y+") ",g[0]&&(.5>l?(l=f,f=g[1].getPointAtLength(.5)):l=g[1].getPointAtLength(l-.5),h+="rotate("+180*Math.atan2(f.y-l.y,f.x-l.x)/
Math.PI+") ");for(g=1;g<q.length;++g)f=q[g],f!=(10==g||11==g?1:0)&&(h+=" "+ka[g]+"(",h=2>=g?h+(1==g?f+",0":"0,"+f):13<=g?h+(13==g?f+",0":"0,"+f):10<=g?h+(10==g?f+",1":"1,"+f):h+f,h+=")");n.setAttribute("transform",h)}la&&e.setAttribute("opacity",e.getAttribute("opacity"))}return"running"==this.m()},I:function(){!1!==this.h.autoremove&&"finished"==this.m()&&P(this)},D:function(){if(!this.F){this.F=!0;for(var a=this.A,b=this.C,c=0;c<a.length;++c)for(var d=a[c],e=0;e<b[c].length;++e)14>=b[c][e][0]&&
Z(d)}},u:function(a){if("number"==typeof a)return a;if(!t(this.h.markers)||!t(this.h.markers[a]))throw Error("Invalid marker: "+a);return+this.h.markers[a]},play:function(a){t(a)&&null!==a&&(a=this.u(a),H(a),0>this.b&&a<this.g&&(a=this.g),0<this.b&&a>this.f&&(a=this.f),this.w(a,!0));if(!this.j)throw Q;a=this.l();if(0<this.b&&(null===a||a>=this.f))this.a=this.g;else if(0>this.b&&(null===a||a<=this.g)){if(Infinity==this.f)throw Error("Cannot seek to Infinity");this.a=this.f}else 0==this.b&&null===a&&
(this.a=this.g);if(null===this.a)return this;this.c=null;this.o=!0;this.D();N();return this},pause:function(a){if(!this.j)throw Q;t(a)&&(a=this.u(a),H(a));if("paused"!=this.m()){L();var b=this.l();if(null===b)if(0<=this.b)this.a=this.g;else{if(Infinity==this.f)throw Error("Cannot seek to Infinity");this.a=this.f}null!==this.c&&null===this.a&&(this.a=b);this.c=null;this.o=!1;this.B(!1);this.D();N()}t(a)&&this.w(a,!0);return this},range:function(a,b){if(0==arguments.length)return{"in":this.g,out:this.f};
var c=this.u(a),d=this.v;t(b)&&(d=this.u(b));H(c);if(0>c||0>d||c>=d||isNaN(d))throw Error("Invalid range");var e=this.m();this.g=c;this.f=d;"finished"==e&&"running"==this.m()&&this.play();return this},loop:function(a){if(!t(a))return{count:this.i};this.i=!0===a?Infinity:Math.floor(a);if(0>this.i||isNaN(this.i))this.i=0;return this},l:function(){return null!==this.a?this.a:null===this.c?null:(v-this.c)*this.b},w:function(a,b){b&&L();null!==a&&(this.D(),null!==this.a||null===this.c||0==this.b?(this.a=
a,O(!1)):this.c=v-a/this.b,this.j||(this.c=null),this.s=null,this.B(!0),N())},G:function(){return this.l()},time:function(a){if(t(a)){if(!this.j)throw Q;a=this.u(a);H(a);this.w(a,!0);return this}return this.G()},m:function(){var a=this.l();return this.o?"running":null===a?"idle":null===this.c?"paused":0<this.b&&a>=this.f||0>this.b&&a<=this.g?"finished":"running"},state:function(){return this.m()},duration:function(){return this.v},H:function(a){H(a);L();var b=this.l();this.b=a;null!==b&&this.w(b,
!1)},rate:function(a){return t(a)?(this.H(a),this):this.b},markers:function(a){return t(a)?(this.h.markers=R(a),this):t(this.h.markers)?this.h.markers:{}},marker:function(a){return t(this.h.markers)?this.h.markers[a]:void 0},_cancel:function(){if(!this.j||"idle"==this.m())return this;this.c=this.a=null;this.o=!1;return this}};return{version:"1.1.1",animate:function(){var a={};1==arguments.length%2&&(a=R(arguments[arguments.length-1]));a=new aa(a);for(var b=arguments,c=0,d=0;d<b.length-1;d+=2){var e=
b[d];var n=e instanceof Element?e:document.getElementById(e.substring(1));if(!n)throw Error("Invalid target: "+e);e=n;n=b[d+1];e._ks||(e._ks={});for(var q=[],h=0;h<n.length;++h){var g=n[h],f=J(g,"p","property");if("string"!=typeof f||-1!=f.indexOf("-")||""===f||!(0<T[f]||0<=ca.indexOf(f)))throw Error("Invalid property: "+f);var l=ca.indexOf(f);""!==f&&0<=l&&(f=l);l=S(f);var m=J(g,"t","times");if(!m||2>m.length)throw Error("Not enough times");m=m.slice();if(!isFinite(m[0])||0>m[0])throw Error("Invalid time: "+
m[0]);for(var B=1;B<m.length;++B)if(!isFinite(m[B])||0>m[B]||m[B]<m[B-1])throw Error("Invalid time: "+m[B]);B=m[0];var v=m[m.length-1]-B,y=g.iterations||0;1>y&&(y=1);v*=y;c<v+B&&(c=v+B);var u=J(g,"v","values");if(!u||u.length!=m.length)throw Error("Values do not match times");u=u.slice();for(var C=f,k=u,w=S(C)&240,p=0;p<k.length;++p)if(96==w){for(var G=k[p].substring(6,k[p].length-2).match(/[A-DF-Za-df-z][-+0-9eE., ]*/ig),A=[],r=0;r<G.length;++r){A.push(G[r][0]);for(var z=1<G[r].trim().length?G[r].substring(1).split(","):
[],F=0;F<z.length;++F)z[F]=parseFloat(z[F]);A.push(z)}k[p]=A}else if(48==w)x(k[p],"#")?(G=9==k[p].length,k[p]=parseInt(k[p].substring(1),16),G||(k[p]=256*k[p]|255)):x(k[p],"url(")||"none"==k[p]||(console.warn("unsupported color: "+k[p]),k[p]=0);else if(80==w){G=k;A=p;r=k[p];if("none"==r)r=[0];else{z=[];for(var D=r.indexOf("(");0<D;)if(F=U.indexOf(r.substring(0,D)),0<=F){z.push(F);var E=r.indexOf(") ");0>E&&(E=r.length-1);D=r.substring(D+1,E).split(" ");5==F?(z.push(parseFloat(D[0])),z.push(parseFloat(D[1])),
z.push(parseFloat(D[2])),z.push(ja(D[3]))):1==F?z.push(D[0]):z.push(parseFloat(D[0]));r=r.substring(E+1).trim();D=r.indexOf("(")}else break;r=z}G[A]=r}else 64==w?"none"!=k[p]?/^[0-9 .]*$/.test(k[p])?k[p]=Y(k[p]," "):(console.warn("unsupported value: "+k[p]),k[p]=[0]):k[p]=[0]:32==w?(H(k[p]),k[p]=parseFloat(k[p])):0===C&&(k[p]=parseFloat(k[p]));C=J(g,"e","easing");k=m.length;for(C||(C=[]);C.length<k;)C.push([1,0,0,.58,1]);for(k=0;k<C.length;++k)C[k]=ia(C[k]);l=[f,l,B,v,m,u,C,y];m=J(g,"mp","motionPath");
t(m)&&0===f&&(l[8]=[],l[8][0]=g.motionRotate,g=document.createElementNS("http://www.w3.org/2000/svg","path"),m||(m="M0,0"),g.setAttribute("d",m),l[8][1]=g,l[8][2]=g.getTotalLength());q.push(l)}0<q.length&&(a.A.push(e),a.C.push(q))}a.v=c;a.g=0;a.f=a.v;ba(a);return a},add:ba,remove:P,removeAll:function(){for(var a=w.length-1;0<=a;--a)P(w[a]);return this},timelines:function(){return w.slice()},globalPlay:function(){u&&(W=u-(new Date).getTime(),u=void 0,N());return this},globalPause:function(){u||(u=
v,O(!1));return this},globalState:function(){return u?"paused":"running"}}}();
]]></script>
    <script><![CDATA[if(KeyshapeJS.version.indexOf('1.')!=0)throw Error('Expected KeyshapeJS v1.*.*');window.ks=document.ks=KeyshapeJS;(function(ks){
ks.animate("#Quote",[{p:'rotate',t:[1000,1500,4700,5200],v:[0,180,180,0],e:[[1,0.68,-0.6,0.32,1.6],[0],[1,0.68,-0.6,0.32,1.6],[0]]},{p:'fill',t:[1000,1500,4700,5200],v:['#bfd35c','#cdcccc','#cdcccc','#bfd35c'],e:[[1,0.42,0,0.58,1],[0],[0],[0]]}],
"#Dot1",[{p:'fill',t:[0,500,5700,6200],v:['#cdcccc','#bfd35c','#bfd35c','#cdcccc'],e:[[0],[0],[0],[0]]}],
"#Dot2",[{p:'fill',t:[500,1000,5200,5700],v:['#cdcccc','#bfd35c','#bfd35c','#cdcccc'],e:[[0],[0],[0],[0]]}],
"#Dot3",[{p:'fill',t:[1700,2200,4200,4700],v:['#cdcccc','#bfd35c','#bfd35c','#cdcccc'],e:[[0],[0],[0],[0]]}],
"#Dot4",[{p:'fill',t:[2200,2700,3700,4200],v:['#cdcccc','#bfd35c','#bfd35c','#cdcccc'],e:[[0],[0],[0],[0]]}],
{autoremove:false}).range(0,6200).loop(true);
if(document.location.search.substr(1).split('&').indexOf('global=paused')>=0)ks.globalPause()})(KeyshapeJS);
]]></script>
</svg>
