<svg xmlns="http://www.w3.org/2000/svg" viewBox="0 0 152.32 152.32"><defs><linearGradient id="linear-gradient" x1="44.51" y1="75.86" x2="102.6" y2="75.86" gradientUnits="userSpaceOnUse"><stop offset="0" stop-color="#4f758d"/><stop offset="1" stop-color="#283641"/></linearGradient></defs><g style="isolation:isolate"><g id="Layer_1" data-name="Layer 1"><path style="fill:none;stroke:#859092;stroke-miterlimit:10" d="M3.24 69.72 21.48 59.3 56.13 79.39"/><path style="fill:none;stroke:#859092;stroke-miterlimit:10" d="M79.27 65.92 56.04 52.66 90.88 32.55 56.13 12.55"/><path style="fill:none;stroke:#859092;stroke-miterlimit:10" d="M25.23 21.43 44.23 32.92 21.75 45.94 67.7 72.53"/><circle cx="39.35" cy="69.35" r="1.63" style="fill:#ee4f99"/><circle cx="44.72" cy="59.3" r="1.63" style="fill:#ee4f99"/><circle cx="38.43" cy="35.93" r="1.63" style="fill:#ee4f99"/><circle cx="84.72" cy="36.52" r="1.63" style="fill:#ee4f99"/><path style="mix-blend-mode:multiply;fill:url(#linear-gradient)" d="M44.73 139.37 44.51 45.93 102.6 12.34 102.6 105.6 44.73 139.37z"/><path style="fill:none;stroke:#ee4f99;stroke-miterlimit:10;stroke-width:2px" d="M44.73 139.37 44.51 45.93 102.6 12.34 102.6 105.6 44.73 139.37z"/><path style="fill:none;stroke:#859092;stroke-miterlimit:10" d="M56.13 79.32 90.95 99.36 67.58 112.72 91.1 125.99"/><path style="fill:none;stroke:#859092;stroke-miterlimit:10" d="M79.19 65.92 114.02 85.97 125.66 79.32 148.79 92.68"/><path style="fill:none;stroke:#859092;stroke-miterlimit:10" d="M67.62 72.53 137.23 112.72"/><circle cx="75.25" cy="90.3" r="1.63" style="fill:#ee4f99"/><circle cx="111.44" cy="97.68" r="1.63" style="fill:#ee4f99"/><circle cx="133.86" cy="84.32" r="1.63" style="fill:#ee4f99"/></g></g></svg>