<svg xmlns="http://www.w3.org/2000/svg" xmlns:xlink="http://www.w3.org/1999/xlink" viewBox="0 0 134.34 25.16">
  <defs>
    <clipPath id="clip-path">
      <rect width="134.34" height="25.16" fill="none"/>
    </clipPath>
  </defs>
  <title>logo-w</title>
  <g id="Layer_3" data-name="Layer 3">
    <g clip-path="url(#clip-path)">
      <path d="M0,24.55V.61H11.43a5.54,5.54,0,0,1,4.2,1.86A6.19,6.19,0,0,1,17.36,6.9a7.44,7.44,0,0,1-1,4,4,4,0,0,1-2.71,2A4,4,0,0,1,16,15.42,13,13,0,0,1,17,20.59q0,1.7.08,2.54a3.5,3.5,0,0,0,.32,1.41H15.75a3.38,3.38,0,0,1-.52-1.78l-.12-3.43a7.26,7.26,0,0,0-1.17-4.16,3.29,3.29,0,0,0-2.79-1.7H1.62V24.55ZM11.14,12a4.35,4.35,0,0,0,3.27-1.45,4.87,4.87,0,0,0,1.33-3.47,5,5,0,0,0-1.33-3.47,4.41,4.41,0,0,0-3.27-1.41H1.62V12Z" fill="#fff"/>
      <path d="M41,22.81a7.39,7.39,0,0,1-2.46-5.61h1.62a6.09,6.09,0,0,0,2,4.56,6.64,6.64,0,0,0,4.77,1.9A8.51,8.51,0,0,0,52.13,22a4.78,4.78,0,0,0,2.14-3.92,3.94,3.94,0,0,0-1.9-3.31,10,10,0,0,0-5-1.61A11,11,0,0,1,41.23,11a5.64,5.64,0,0,1,0-9.13A8.69,8.69,0,0,1,46.92,0,9.63,9.63,0,0,1,53,2a5.9,5.9,0,0,1,2.5,4.76H53.91a4.49,4.49,0,0,0-2.06-3.67,7.9,7.9,0,0,0-4.93-1.53A7.22,7.22,0,0,0,42.4,3a4.23,4.23,0,0,0-1.86,3.47,4.05,4.05,0,0,0,1.94,3.39,10.64,10.64,0,0,0,5.21,1.66,10.82,10.82,0,0,1,6,2.14,5.58,5.58,0,0,1,2.22,4.48,6.14,6.14,0,0,1-2.62,5,10,10,0,0,1-6.34,2.06A8.16,8.16,0,0,1,41,22.81" fill="#fff"/>
      <path d="M125,.61H56.63V24.55H72.25V23h-14V12.88H71V11.39H58.24V2.18H82.13V24.55h1.62V2.18h18.15V24.55h1.62V2.18h18.82l-8.86,22.37h1.82l3.07-7.67h11.06l3.07,7.67h1.86Zm-6.14,14.74,5-12.88,4.93,12.88Z" fill="#fff"/>
      <path d="M18.7,23.86,30.46,10.51,18.59,5.24a2.16,2.16,0,0,0-.44,1.29l0,7.94,0,7.91a2.15,2.15,0,0,0,.59,1.49" fill="#bf1679"/>
      <path d="M18.59,5.24l11.87,5.27,2.71-9.09A4.54,4.54,0,0,0,28.93.91L21.78,3.66l-2.23.86a2.16,2.16,0,0,0-1,.72" fill="#f22d93"/>
      <path d="M33.17,1.43l-2.71,9.09h5.93L35,4.19a4.52,4.52,0,0,0-1.85-2.77" fill="#b5de36"/>
      <path d="M20.27,24.55h8.61a2.16,2.16,0,0,0,.72-.13l.86-13.91L18.7,23.86a2.15,2.15,0,0,0,1.57.68" fill="#559754"/>
      <path d="M37.78,16.92l-1.38-6.41H30.46L29.6,24.42a2.16,2.16,0,0,0,.57-.3l6.57-4.85.21-.15a2.17,2.17,0,0,0,.83-2.2" fill="#88cd8b"/>
    </g>
  </g>
</svg>
