<svg xmlns="http://www.w3.org/2000/svg" viewBox="0 0 56.69 56.69"><defs><style>.cls-1{fill:#ed4f9b;}.cls-2{fill:#bf2f85;}</style></defs><g id="app-text"><g id="Layer_9-2" data-name="Layer 9"><path class="cls-1" d="M1.33 28.52 13.11 40.3a1.62 1.62 0 0 0 2.28.13l.13-.13L29.82 26a3.57 3.57 0 0 0 1-2.27l.65-9.1a4.1 4.1 0 0 0-3.77-4.41h-.64l-9.2.65a3.6 3.6 0 0 0-2.27 1L1.33 26.2a1.62 1.62 0 0 0-.13 2.28l.13.13m23.22-14.48a2.17 2.17 0 1 1 0 3.09 2.17 2.17 0 0 1 0-3.09"/><path class="cls-2" d="M39.52 47.25 55.18 34a2 2 0 0 0 .24-2.82l-16.05-19a4.42 4.42 0 0 0-2.63-1.52L25.59 8.95a5 5 0 0 0-5.74 4.92l-.24 11.25a4.42 4.42 0 0 0 1 2.9l16.1 19.07a2 2 0 0 0 2.82.24m-15.45-30a2.68 2.68 0 1 1 3.79.31 2.68 2.68 0 0 1-3.79-.31"/></g></g></svg>