<svg xmlns="http://www.w3.org/2000/svg" viewBox="0 0 12 12"><defs><style>.cls-1{fill:#fff;}</style></defs><title>social-linkedin</title><g id="app-text"><g id="Layer_1-2" data-name="Layer 1"><path id="LinkedIn" class="cls-1" d="M11.62,7.21v4.16H9.21V7.49c0-1-.35-1.64-1.22-1.64a1.32,1.32,0,0,0-1.24.88,1.65,1.65,0,0,0-.08.59v4.05H4.26s0-6.57,0-7.25H6.67v1l0,0h0v0A2.39,2.39,0,0,1,8.84,4C10.43,3.95,11.62,5,11.62,7.21ZM1.74.63A1.25,1.25,0,0,0,.38,1.88,1.24,1.24,0,0,0,1.71,3.13h0a1.26,1.26,0,1,0,0-2.51ZM.52,11.37H2.93V4.12H.52Z"/></g></g></svg>