<svg xmlns="http://www.w3.org/2000/svg" viewBox="0 0 12 12"><defs><style>.cls-1{fill:#fff;}</style></defs><g id="app-text"><g id="Layer_1-2" data-name="Layer 1"><path class="cls-1" d="M3.86 10.69A6.69 6.69 0 0 0 10.59 4v-.35a4.82 4.82 0 0 0 1.18-1.22 4.73 4.73 0 0 1-1.36.37 2.38 2.38 0 0 0 1-1.31 4.74 4.74 0 0 1-1.5.57 2.37 2.37 0 0 0-4 2.16A6.72 6.72 0 0 1 1 1.75a2.37 2.37 0 0 0 .76 3.15 2.35 2.35 0 0 1-1.07-.3A2.37 2.37 0 0 0 2.59 7a2.36 2.36 0 0 1-1.07 0 2.37 2.37 0 0 0 2.21 1.64 4.74 4.74 0 0 1-2.94 1 4.82 4.82 0 0 1-.56 0 6.7 6.7 0 0 0 3.63 1.06"/></g></g></svg>